G04 Layer_Color=8421504*
%FSLAX25Y25*%
%MOIN*%
G70*
G01*
G75*
%ADD10R,0.09449X0.09449*%
%ADD11R,0.04724X0.00965*%
%ADD12R,0.00965X0.04724*%
G04:AMPARAMS|DCode=13|XSize=23.62mil|YSize=100.39mil|CornerRadius=5.91mil|HoleSize=0mil|Usage=FLASHONLY|Rotation=270.000|XOffset=0mil|YOffset=0mil|HoleType=Round|Shape=RoundedRectangle|*
%AMROUNDEDRECTD13*
21,1,0.02362,0.08858,0,0,270.0*
21,1,0.01181,0.10039,0,0,270.0*
1,1,0.01181,-0.04429,-0.00591*
1,1,0.01181,-0.04429,0.00591*
1,1,0.01181,0.04429,0.00591*
1,1,0.01181,0.04429,-0.00591*
%
%ADD13ROUNDEDRECTD13*%
%ADD14R,0.07874X0.05118*%
%ADD15R,0.07874X0.07874*%
%ADD16O,0.08000X0.02400*%
%ADD17R,0.03543X0.03937*%
%ADD18O,0.08661X0.02362*%
%ADD19R,0.03150X0.00866*%
%ADD20R,0.03150X0.01063*%
%ADD21R,0.08100X0.02200*%
%ADD26R,0.05906X0.04724*%
%ADD27R,0.00591X0.00787*%
%ADD28R,0.00591X0.00787*%
D10*
X475800Y472600D02*
D03*
D11*
X466729Y477521D02*
D03*
X484871D02*
D03*
Y475553D02*
D03*
Y473584D02*
D03*
Y471616D02*
D03*
Y469647D02*
D03*
Y467679D02*
D03*
X466729D02*
D03*
Y469647D02*
D03*
Y471616D02*
D03*
Y473584D02*
D03*
Y475553D02*
D03*
D12*
X470879Y481671D02*
D03*
X480721Y463529D02*
D03*
X478753D02*
D03*
X476784D02*
D03*
X474816D02*
D03*
X472847D02*
D03*
X470879D02*
D03*
X472847Y481671D02*
D03*
X474816D02*
D03*
X476784D02*
D03*
X478753D02*
D03*
X480721D02*
D03*
D13*
X328874Y363978D02*
D03*
Y367128D02*
D03*
Y370277D02*
D03*
Y373427D02*
D03*
Y376576D02*
D03*
Y379726D02*
D03*
Y382876D02*
D03*
Y386025D02*
D03*
Y389175D02*
D03*
Y392324D02*
D03*
Y395474D02*
D03*
Y398624D02*
D03*
Y401773D02*
D03*
Y404923D02*
D03*
Y408072D02*
D03*
Y411222D02*
D03*
Y414372D02*
D03*
Y417521D02*
D03*
Y433268D02*
D03*
Y436417D02*
D03*
Y439567D02*
D03*
Y442717D02*
D03*
Y445866D02*
D03*
Y449016D02*
D03*
Y452165D02*
D03*
Y455315D02*
D03*
D14*
X407826Y352928D02*
D03*
Y343872D02*
D03*
D15*
X423574Y348400D02*
D03*
D16*
X369244Y477402D02*
D03*
X400244Y467402D02*
D03*
X369244D02*
D03*
Y472402D02*
D03*
X400244Y477402D02*
D03*
X369244Y482402D02*
D03*
X400244Y472402D02*
D03*
Y482402D02*
D03*
D17*
X537008Y451575D02*
D03*
X543110D02*
D03*
X524803D02*
D03*
X530905D02*
D03*
X512598D02*
D03*
X518701D02*
D03*
X500394D02*
D03*
X506496D02*
D03*
X488189D02*
D03*
X494291D02*
D03*
X475984D02*
D03*
X482087D02*
D03*
X463779D02*
D03*
X469882D02*
D03*
X451575D02*
D03*
X457677D02*
D03*
X439370D02*
D03*
X445472D02*
D03*
X427165D02*
D03*
X433268D02*
D03*
X402756D02*
D03*
X408858D02*
D03*
X390551D02*
D03*
X396654D02*
D03*
X378346D02*
D03*
X384449D02*
D03*
X524803Y366142D02*
D03*
X530905D02*
D03*
X512598D02*
D03*
X518701D02*
D03*
X500394D02*
D03*
X506496D02*
D03*
X488189D02*
D03*
X494291D02*
D03*
X475984D02*
D03*
X482087D02*
D03*
X463779D02*
D03*
X469882D02*
D03*
X451575D02*
D03*
X457677D02*
D03*
X439370D02*
D03*
X445472D02*
D03*
X427165D02*
D03*
X433268D02*
D03*
X414961D02*
D03*
X421063D02*
D03*
X402756D02*
D03*
X408858D02*
D03*
X390551D02*
D03*
X396654D02*
D03*
X378346D02*
D03*
X384449D02*
D03*
X366142D02*
D03*
X372244D02*
D03*
X537008Y378346D02*
D03*
X543110D02*
D03*
X524803D02*
D03*
X530905D02*
D03*
X512598D02*
D03*
X518701D02*
D03*
X500394D02*
D03*
X506496D02*
D03*
X488189D02*
D03*
X494291D02*
D03*
X475984D02*
D03*
X482087D02*
D03*
X463779D02*
D03*
X469882D02*
D03*
X439370D02*
D03*
X445472D02*
D03*
X427165D02*
D03*
X433268D02*
D03*
X414961D02*
D03*
X421063D02*
D03*
X402756D02*
D03*
X408858D02*
D03*
X390551D02*
D03*
X396654D02*
D03*
X378346D02*
D03*
X384449D02*
D03*
X366142D02*
D03*
X372244D02*
D03*
X537008Y390551D02*
D03*
X543110D02*
D03*
X524803D02*
D03*
X530905D02*
D03*
X512598D02*
D03*
X518701D02*
D03*
X500394D02*
D03*
X506496D02*
D03*
X488189D02*
D03*
X494291D02*
D03*
X475984D02*
D03*
X482087D02*
D03*
X463779D02*
D03*
X469882D02*
D03*
X451575D02*
D03*
X457677D02*
D03*
X439370D02*
D03*
X445472D02*
D03*
X427165D02*
D03*
X433268D02*
D03*
X414961D02*
D03*
X421063D02*
D03*
X402756D02*
D03*
X408858D02*
D03*
X390551D02*
D03*
X396654D02*
D03*
X378346D02*
D03*
X384449D02*
D03*
X366142D02*
D03*
X372244D02*
D03*
X537008Y402756D02*
D03*
X543110D02*
D03*
X524803D02*
D03*
X530905D02*
D03*
X512598D02*
D03*
X518701D02*
D03*
X500394D02*
D03*
X506496D02*
D03*
X488189D02*
D03*
X494291D02*
D03*
X475984D02*
D03*
X482087D02*
D03*
X463779D02*
D03*
X469882D02*
D03*
X451575D02*
D03*
X457677D02*
D03*
X427165D02*
D03*
X433268D02*
D03*
X414961D02*
D03*
X421063D02*
D03*
X402756D02*
D03*
X408858D02*
D03*
X390551D02*
D03*
X396654D02*
D03*
X378346D02*
D03*
X384449D02*
D03*
X366142D02*
D03*
X372244D02*
D03*
X537008Y414961D02*
D03*
X543110D02*
D03*
X524803D02*
D03*
X530905D02*
D03*
X512598D02*
D03*
X518701D02*
D03*
X500394D02*
D03*
X506496D02*
D03*
X488189D02*
D03*
X494291D02*
D03*
X475984D02*
D03*
X482087D02*
D03*
X463779D02*
D03*
X469882D02*
D03*
X451575D02*
D03*
X457677D02*
D03*
X439370D02*
D03*
X445472D02*
D03*
X427165D02*
D03*
X433268D02*
D03*
X414961D02*
D03*
X421063D02*
D03*
X402756D02*
D03*
X408858D02*
D03*
X390551D02*
D03*
X396654D02*
D03*
X378346D02*
D03*
X384449D02*
D03*
X366142D02*
D03*
X372244D02*
D03*
X537008Y427165D02*
D03*
X543110D02*
D03*
X524803D02*
D03*
X530905D02*
D03*
X512598D02*
D03*
X518701D02*
D03*
X500394D02*
D03*
X506496D02*
D03*
X488189D02*
D03*
X494291D02*
D03*
X475984D02*
D03*
X482087D02*
D03*
X463779D02*
D03*
X469882D02*
D03*
X451575D02*
D03*
X457677D02*
D03*
X439370D02*
D03*
X445472D02*
D03*
X427165D02*
D03*
X433268D02*
D03*
X414961D02*
D03*
X421063D02*
D03*
X402756D02*
D03*
X408858D02*
D03*
X390551D02*
D03*
X396654D02*
D03*
X378346D02*
D03*
X384449D02*
D03*
X537008Y439370D02*
D03*
X543110D02*
D03*
X524803D02*
D03*
X530905D02*
D03*
X512598D02*
D03*
X518701D02*
D03*
X500394D02*
D03*
X506496D02*
D03*
X488189D02*
D03*
X494291D02*
D03*
X475984D02*
D03*
X482087D02*
D03*
X463779D02*
D03*
X469882D02*
D03*
X451575D02*
D03*
X457677D02*
D03*
X439370D02*
D03*
X445472D02*
D03*
X427165D02*
D03*
X433268D02*
D03*
X414961D02*
D03*
X421063D02*
D03*
X402756D02*
D03*
X408858D02*
D03*
X390551D02*
D03*
X396654D02*
D03*
X378346D02*
D03*
X384449D02*
D03*
X366142D02*
D03*
X372244D02*
D03*
X353937D02*
D03*
X360039D02*
D03*
X353937Y378346D02*
D03*
X360039D02*
D03*
X353937Y390551D02*
D03*
X360039D02*
D03*
X353937Y402756D02*
D03*
X360039D02*
D03*
X353937Y414961D02*
D03*
X360039D02*
D03*
X353937Y427165D02*
D03*
X360039D02*
D03*
X366142D02*
D03*
X372244D02*
D03*
X366142Y451575D02*
D03*
X372244D02*
D03*
X414961D02*
D03*
X421063D02*
D03*
X439370Y402756D02*
D03*
X445472D02*
D03*
X451575Y378346D02*
D03*
X457677D02*
D03*
X537008Y366142D02*
D03*
X543110D02*
D03*
X353937Y451575D02*
D03*
X360039D02*
D03*
X353937Y366142D02*
D03*
X360039D02*
D03*
D18*
X387549Y336300D02*
D03*
Y341300D02*
D03*
Y346300D02*
D03*
Y351300D02*
D03*
X368651Y336300D02*
D03*
Y341300D02*
D03*
Y346300D02*
D03*
Y351300D02*
D03*
D19*
X501511Y333065D02*
D03*
Y335033D02*
D03*
X514306Y333065D02*
D03*
Y335033D02*
D03*
Y337002D02*
D03*
D20*
X501511Y337100D02*
D03*
D21*
X436500Y353400D02*
D03*
Y348400D02*
D03*
Y343400D02*
D03*
Y338400D02*
D03*
X463500D02*
D03*
Y343400D02*
D03*
Y348400D02*
D03*
Y353400D02*
D03*
D26*
X507909Y335033D02*
D03*
D27*
X507023Y337789D02*
D03*
X508794D02*
D03*
D28*
X507023Y332277D02*
D03*
X508794D02*
D03*
M02*
