G04 Layer_Color=2752767*
%FSLAX25Y25*%
%MOIN*%
G70*
G01*
G75*
%ADD10C,0.00600*%
%ADD11C,0.00400*%
%ADD12C,0.00200*%
%ADD13C,0.00079*%
%ADD14C,0.00267*%
D10*
X335665Y355118D02*
G03*
X332516Y358268I-3150J0D01*
G01*
Y459449D02*
G03*
X335665Y462598I0J3150D01*
G01*
X335665Y421063D02*
G03*
X335665Y426968I0J2953D01*
G01*
X322870Y459449D02*
X332516D01*
X335665Y462598D02*
Y487598D01*
X559091D01*
Y330118D02*
Y487598D01*
X335665Y330118D02*
Y355118D01*
X322870Y358268D02*
X332516D01*
X322870Y358268D02*
Y421063D01*
X335665D01*
X322870Y426968D02*
Y459449D01*
Y426968D02*
X322870Y426968D01*
X335665D01*
X556150Y487598D02*
X559091D01*
X339405Y330118D02*
Y420472D01*
Y427559D02*
Y487598D01*
X335665Y330118D02*
X559091D01*
X335665D02*
Y337894D01*
X335665Y330118D02*
X335665Y330118D01*
D11*
X349150D02*
Y487598D01*
X335665Y408858D02*
X559091D01*
D12*
X335469Y330118D02*
X335469Y330118D01*
X335665Y427559D02*
X339405D01*
X335665Y420472D02*
X339405D01*
Y427559D01*
X544891Y473398D02*
Y474998D01*
X546491D01*
Y473398D01*
X544891D01*
Y342718D02*
Y344318D01*
X546491D01*
Y342718D01*
X544891D01*
X478753Y474753D02*
X477953Y476353D01*
X479553D01*
X478753Y474753D01*
X472847Y468847D02*
X472047Y470447D01*
X473647D01*
X472847Y468847D01*
X478753D02*
X477953Y470447D01*
X479553D01*
X478753Y468847D01*
X472847Y474753D02*
X472047Y476353D01*
X473647D01*
X472847Y474753D01*
X339421Y438570D02*
X338621Y440170D01*
X340221D01*
X339421Y438570D01*
X349079Y361747D02*
X348279Y363347D01*
X349879D01*
X349079Y361747D01*
X378300Y357507D02*
X377500Y359107D01*
X379100D01*
X378300Y357507D01*
X351067Y359546D02*
X350267Y361146D01*
X351867D01*
X351067Y359546D01*
X360789Y335500D02*
X359989Y337100D01*
X361589D01*
X360789Y335500D01*
Y342600D02*
X359989Y344200D01*
X361589D01*
X360789Y342600D01*
X524776Y464058D02*
X523976Y465658D01*
X525576D01*
X524776Y464058D01*
X459000Y470800D02*
X458200Y472400D01*
X459800D01*
X459000Y470800D01*
X456900Y481800D02*
X456100Y483400D01*
X457700D01*
X456900Y481800D01*
X376700Y462976D02*
X375900Y464576D01*
X377500D01*
X376700Y462976D01*
Y481602D02*
X375900Y483202D01*
X377500D01*
X376700Y481602D01*
X380000Y471600D02*
X379200Y473200D01*
X380800D01*
X380000Y471600D01*
X384756Y462976D02*
X383956Y464576D01*
X385556D01*
X384756Y462976D01*
X547480Y461176D02*
X546680Y462776D01*
X548280D01*
X547480Y461176D01*
X360039Y444672D02*
X359239Y446272D01*
X360839D01*
X360039Y444672D01*
X372244D02*
X371444Y446272D01*
X373044D01*
X372244Y444672D01*
X384449D02*
X383649Y446272D01*
X385249D01*
X384449Y444672D01*
X396654D02*
X395853Y446272D01*
X397453D01*
X396654Y444672D01*
X445472D02*
X444672Y446272D01*
X446272D01*
X445472Y444672D01*
X433268D02*
X432468Y446272D01*
X434068D01*
X433268Y444672D01*
X421063D02*
X420263Y446272D01*
X421863D01*
X421063Y444672D01*
X408858D02*
X408058Y446272D01*
X409658D01*
X408858Y444672D01*
X494291D02*
X493491Y446272D01*
X495091D01*
X494291Y444672D01*
X482087D02*
X481287Y446272D01*
X482887D01*
X482087Y444672D01*
X469882D02*
X469082Y446272D01*
X470682D01*
X469882Y444672D01*
X457677D02*
X456877Y446272D01*
X458477D01*
X457677Y444672D01*
X543110D02*
X542310Y446272D01*
X543910D01*
X543110Y444672D01*
X530905D02*
X530105Y446272D01*
X531706D01*
X530905Y444672D01*
X518701D02*
X517901Y446272D01*
X519501D01*
X518701Y444672D01*
X506496D02*
X505696Y446272D01*
X507296D01*
X506496Y444672D01*
Y456877D02*
X505696Y458477D01*
X507296D01*
X506496Y456877D01*
X518701D02*
X517901Y458477D01*
X519501D01*
X518701Y456877D01*
X530905D02*
X530105Y458477D01*
X531706D01*
X530905Y456877D01*
X543110D02*
X542310Y458477D01*
X543910D01*
X543110Y456877D01*
X457677D02*
X456877Y458477D01*
X458477D01*
X457677Y456877D01*
X469882D02*
X469082Y458477D01*
X470682D01*
X469882Y456877D01*
X482087D02*
X481287Y458477D01*
X482887D01*
X482087Y456877D01*
X494291D02*
X493491Y458477D01*
X495091D01*
X494291Y456877D01*
X408858D02*
X408058Y458477D01*
X409658D01*
X408858Y456877D01*
X421063D02*
X420263Y458477D01*
X421863D01*
X421063Y456877D01*
X433268D02*
X432468Y458477D01*
X434068D01*
X433268Y456877D01*
X445472D02*
X444672Y458477D01*
X446272D01*
X445472Y456877D01*
X396654D02*
X395853Y458477D01*
X397453D01*
X396654Y456877D01*
X384449D02*
X383649Y458477D01*
X385249D01*
X384449Y456877D01*
X372244D02*
X371444Y458477D01*
X373044D01*
X372244Y456877D01*
X360039D02*
X359239Y458477D01*
X360839D01*
X360039Y456877D01*
X506496Y432468D02*
X505696Y434068D01*
X507296D01*
X506496Y432468D01*
X518701D02*
X517901Y434068D01*
X519501D01*
X518701Y432468D01*
X530905D02*
X530105Y434068D01*
X531706D01*
X530905Y432468D01*
X543110D02*
X542310Y434068D01*
X543910D01*
X543110Y432468D01*
X457677D02*
X456877Y434068D01*
X458477D01*
X457677Y432468D01*
X469882D02*
X469082Y434068D01*
X470682D01*
X469882Y432468D01*
X482087D02*
X481287Y434068D01*
X482887D01*
X482087Y432468D01*
X494291D02*
X493491Y434068D01*
X495091D01*
X494291Y432468D01*
X408858D02*
X408058Y434068D01*
X409658D01*
X408858Y432468D01*
X421063D02*
X420263Y434068D01*
X421863D01*
X421063Y432468D01*
X433268D02*
X432468Y434068D01*
X434068D01*
X433268Y432468D01*
X445472D02*
X444672Y434068D01*
X446272D01*
X445472Y432468D01*
X396654D02*
X395853Y434068D01*
X397453D01*
X396654Y432468D01*
X384449D02*
X383649Y434068D01*
X385249D01*
X384449Y432468D01*
X372244D02*
X371444Y434068D01*
X373044D01*
X372244Y432468D01*
X360039D02*
X359239Y434068D01*
X360839D01*
X360039Y432468D01*
X506496Y420263D02*
X505696Y421863D01*
X507296D01*
X506496Y420263D01*
X518701D02*
X517901Y421863D01*
X519501D01*
X518701Y420263D01*
X530905D02*
X530105Y421863D01*
X531706D01*
X530905Y420263D01*
X543110D02*
X542310Y421863D01*
X543910D01*
X543110Y420263D01*
X457677D02*
X456877Y421863D01*
X458477D01*
X457677Y420263D01*
X469882D02*
X469082Y421863D01*
X470682D01*
X469882Y420263D01*
X482087D02*
X481287Y421863D01*
X482887D01*
X482087Y420263D01*
X494291D02*
X493491Y421863D01*
X495091D01*
X494291Y420263D01*
X408858D02*
X408058Y421863D01*
X409658D01*
X408858Y420263D01*
X421063D02*
X420263Y421863D01*
X421863D01*
X421063Y420263D01*
X433268D02*
X432468Y421863D01*
X434068D01*
X433268Y420263D01*
X445472D02*
X444672Y421863D01*
X446272D01*
X445472Y420263D01*
X396654D02*
X395853Y421863D01*
X397453D01*
X396654Y420263D01*
X384449D02*
X383649Y421863D01*
X385249D01*
X384449Y420263D01*
X372244D02*
X371444Y421863D01*
X373044D01*
X372244Y420263D01*
X360039D02*
X359239Y421863D01*
X360839D01*
X360039Y420263D01*
X506496Y408058D02*
X505696Y409658D01*
X507296D01*
X506496Y408058D01*
X518701D02*
X517901Y409658D01*
X519501D01*
X518701Y408058D01*
X530905D02*
X530105Y409658D01*
X531706D01*
X530905Y408058D01*
X543110D02*
X542310Y409658D01*
X543910D01*
X543110Y408058D01*
X457677D02*
X456877Y409658D01*
X458477D01*
X457677Y408058D01*
X469882D02*
X469082Y409658D01*
X470682D01*
X469882Y408058D01*
X482087D02*
X481287Y409658D01*
X482887D01*
X482087Y408058D01*
X494291D02*
X493491Y409658D01*
X495091D01*
X494291Y408058D01*
X408858D02*
X408058Y409658D01*
X409658D01*
X408858Y408058D01*
X421063D02*
X420263Y409658D01*
X421863D01*
X421063Y408058D01*
X433268D02*
X432468Y409658D01*
X434068D01*
X433268Y408058D01*
X445472D02*
X444672Y409658D01*
X446272D01*
X445472Y408058D01*
X396654D02*
X395853Y409658D01*
X397453D01*
X396654Y408058D01*
X384449D02*
X383649Y409658D01*
X385249D01*
X384449Y408058D01*
X372244D02*
X371444Y409658D01*
X373044D01*
X372244Y408058D01*
X360039D02*
X359239Y409658D01*
X360839D01*
X360039Y408058D01*
X506496Y395853D02*
X505696Y397453D01*
X507296D01*
X506496Y395853D01*
X518701D02*
X517901Y397453D01*
X519501D01*
X518701Y395853D01*
X530905D02*
X530105Y397453D01*
X531706D01*
X530905Y395853D01*
X543110D02*
X542310Y397453D01*
X543910D01*
X543110Y395853D01*
X457677D02*
X456877Y397453D01*
X458477D01*
X457677Y395853D01*
X469882D02*
X469082Y397453D01*
X470682D01*
X469882Y395853D01*
X482087D02*
X481287Y397453D01*
X482887D01*
X482087Y395853D01*
X494291D02*
X493491Y397453D01*
X495091D01*
X494291Y395853D01*
X408858D02*
X408058Y397453D01*
X409658D01*
X408858Y395853D01*
X421063D02*
X420263Y397453D01*
X421863D01*
X421063Y395853D01*
X433268D02*
X432468Y397453D01*
X434068D01*
X433268Y395853D01*
X445472D02*
X444672Y397453D01*
X446272D01*
X445472Y395853D01*
X396654D02*
X395853Y397453D01*
X397453D01*
X396654Y395853D01*
X384449D02*
X383649Y397453D01*
X385249D01*
X384449Y395853D01*
X372244D02*
X371444Y397453D01*
X373044D01*
X372244Y395853D01*
X360039D02*
X359239Y397453D01*
X360839D01*
X360039Y395853D01*
X506496Y383649D02*
X505696Y385249D01*
X507296D01*
X506496Y383649D01*
X518701D02*
X517901Y385249D01*
X519501D01*
X518701Y383649D01*
X530905D02*
X530105Y385249D01*
X531706D01*
X530905Y383649D01*
X543110D02*
X542310Y385249D01*
X543910D01*
X543110Y383649D01*
X457677D02*
X456877Y385249D01*
X458477D01*
X457677Y383649D01*
X469882D02*
X469082Y385249D01*
X470682D01*
X469882Y383649D01*
X482087D02*
X481287Y385249D01*
X482887D01*
X482087Y383649D01*
X494291D02*
X493491Y385249D01*
X495091D01*
X494291Y383649D01*
X408858D02*
X408058Y385249D01*
X409658D01*
X408858Y383649D01*
X421063D02*
X420263Y385249D01*
X421863D01*
X421063Y383649D01*
X433268D02*
X432468Y385249D01*
X434068D01*
X433268Y383649D01*
X445472D02*
X444672Y385249D01*
X446272D01*
X445472Y383649D01*
X396654D02*
X395853Y385249D01*
X397453D01*
X396654Y383649D01*
X384449D02*
X383649Y385249D01*
X385249D01*
X384449Y383649D01*
X372244D02*
X371444Y385249D01*
X373044D01*
X372244Y383649D01*
X360039D02*
X359239Y385249D01*
X360839D01*
X360039Y383649D01*
X506496Y371444D02*
X505696Y373044D01*
X507296D01*
X506496Y371444D01*
X518701D02*
X517901Y373044D01*
X519501D01*
X518701Y371444D01*
X530905D02*
X530105Y373044D01*
X531706D01*
X530905Y371444D01*
X543110D02*
X542310Y373044D01*
X543910D01*
X543110Y371444D01*
X457677D02*
X456877Y373044D01*
X458477D01*
X457677Y371444D01*
X469882D02*
X469082Y373044D01*
X470682D01*
X469882Y371444D01*
X482087D02*
X481287Y373044D01*
X482887D01*
X482087Y371444D01*
X494291D02*
X493491Y373044D01*
X495091D01*
X494291Y371444D01*
X408858D02*
X408058Y373044D01*
X409658D01*
X408858Y371444D01*
X421063D02*
X420263Y373044D01*
X421863D01*
X421063Y371444D01*
X433268D02*
X432468Y373044D01*
X434068D01*
X433268Y371444D01*
X445472D02*
X444672Y373044D01*
X446272D01*
X445472Y371444D01*
X396654D02*
X395853Y373044D01*
X397453D01*
X396654Y371444D01*
X384449D02*
X383649Y373044D01*
X385249D01*
X384449Y371444D01*
X372244D02*
X371444Y373044D01*
X373044D01*
X372244Y371444D01*
X360039D02*
X359239Y373044D01*
X360839D01*
X360039Y371444D01*
X366142Y373952D02*
X365342Y375552D01*
X366942D01*
X366142Y373952D01*
X353937Y368936D02*
X353137Y370536D01*
X354737D01*
X353937Y368936D01*
X390551Y386157D02*
X389751Y387757D01*
X391351D01*
X390551Y386157D01*
X378346Y381141D02*
X377547Y382741D01*
X379147D01*
X378346Y381141D01*
X414961Y398361D02*
X414161Y399961D01*
X415761D01*
X414961Y398361D01*
X402756Y393346D02*
X401956Y394946D01*
X403556D01*
X402756Y393346D01*
X439370Y410566D02*
X438570Y412166D01*
X440170D01*
X439370Y410566D01*
X427165Y405550D02*
X426365Y407150D01*
X427965D01*
X427165Y405550D01*
X463779Y422771D02*
X462980Y424371D01*
X464579D01*
X463779Y422771D01*
X451575Y417755D02*
X450775Y419355D01*
X452375D01*
X451575Y417755D01*
X488189Y434976D02*
X487389Y436576D01*
X488989D01*
X488189Y434976D01*
X475984Y429960D02*
X475184Y431560D01*
X476784D01*
X475984Y429960D01*
X512598Y447180D02*
X511798Y448780D01*
X513398D01*
X512598Y447180D01*
X500394Y442165D02*
X499594Y443765D01*
X501194D01*
X500394Y442165D01*
X524803Y454369D02*
X524003Y455969D01*
X525603D01*
X524803Y454369D01*
X349079Y429960D02*
X348279Y431560D01*
X349879D01*
X349079Y429960D01*
Y434976D02*
X348279Y436576D01*
X349879D01*
X349079Y434976D01*
Y417755D02*
X348279Y419355D01*
X349879D01*
X349079Y417755D01*
Y422771D02*
X348279Y424371D01*
X349879D01*
X349079Y422771D01*
Y405550D02*
X348279Y407150D01*
X349879D01*
X349079Y405550D01*
Y410566D02*
X348279Y412166D01*
X349879D01*
X349079Y410566D01*
Y393346D02*
X348279Y394946D01*
X349879D01*
X349079Y393346D01*
Y398361D02*
X348279Y399961D01*
X349879D01*
X349079Y398361D01*
X550582Y459385D02*
X549782Y460985D01*
X551382D01*
X550582Y459385D01*
X537008Y361747D02*
X536208Y363347D01*
X537808D01*
X537008Y361747D01*
X408400Y466602D02*
X407600Y468202D01*
X409200D01*
X408400Y466602D01*
X518600Y461200D02*
X517800Y462800D01*
X519400D01*
X518600Y461200D01*
X524800Y459400D02*
X524000Y461000D01*
X525600D01*
X524800Y459400D01*
X491100Y468847D02*
X490300Y470447D01*
X491900D01*
X491100Y468847D01*
X456900Y465300D02*
X456100Y466900D01*
X457700D01*
X456900Y465300D01*
X459000Y476308D02*
X458200Y477908D01*
X459800D01*
X459000Y476308D01*
X398000Y355587D02*
X397200Y357187D01*
X398800D01*
X398000Y355587D01*
X482650Y334233D02*
X481850Y335833D01*
X483450D01*
X482650Y334233D01*
X518600Y334200D02*
X517800Y335800D01*
X519400D01*
X518600Y334200D01*
X378300Y352781D02*
X377500Y354381D01*
X379100D01*
X378300Y352781D01*
X339394Y362610D02*
X338594Y364210D01*
X340194D01*
X339394Y362610D01*
Y365716D02*
X338594Y367316D01*
X340194D01*
X339394Y365716D01*
X339421Y454397D02*
X338621Y455997D01*
X340221D01*
X339421Y454397D01*
D13*
X502594Y335033D02*
X504956D01*
X510861D02*
X513224D01*
X510861Y331884D02*
Y338183D01*
X504956Y331884D02*
Y338183D01*
X502594D02*
X513224D01*
X502594Y331884D02*
Y338183D01*
Y331884D02*
X513224D01*
Y338183D01*
D14*
X514800Y353400D02*
G03*
X514800Y353400I-800J0D01*
G01*
Y343400D02*
G03*
X514800Y343400I-800J0D01*
G01*
X498658D02*
G03*
X498658Y343400I-800J0D01*
G01*
Y353400D02*
G03*
X498658Y353400I-800J0D01*
G01*
M02*
