G04 Layer_Physical_Order=1*
G04 Layer_Color=2232046*
%FSLAX25Y25*%
%MOIN*%
G70*
G01*
G75*
%ADD10R,0.09449X0.09449*%
%ADD11R,0.04724X0.00965*%
%ADD12R,0.00965X0.04724*%
G04:AMPARAMS|DCode=13|XSize=23.62mil|YSize=100.39mil|CornerRadius=5.91mil|HoleSize=0mil|Usage=FLASHONLY|Rotation=270.000|XOffset=0mil|YOffset=0mil|HoleType=Round|Shape=RoundedRectangle|*
%AMROUNDEDRECTD13*
21,1,0.02362,0.08858,0,0,270.0*
21,1,0.01181,0.10039,0,0,270.0*
1,1,0.01181,-0.04429,-0.00591*
1,1,0.01181,-0.04429,0.00591*
1,1,0.01181,0.04429,0.00591*
1,1,0.01181,0.04429,-0.00591*
%
%ADD13ROUNDEDRECTD13*%
%ADD14R,0.07874X0.05118*%
%ADD15R,0.07874X0.07874*%
%ADD16O,0.08000X0.02400*%
%ADD17R,0.03543X0.03937*%
%ADD18O,0.08661X0.02362*%
%ADD19R,0.03150X0.00866*%
%ADD20R,0.03150X0.01063*%
%ADD21R,0.08100X0.02200*%
%ADD22C,0.01200*%
%ADD23C,0.01000*%
%ADD24C,0.00600*%
%ADD25C,0.00800*%
%ADD26R,0.05906X0.04724*%
%ADD27R,0.00591X0.00787*%
%ADD28R,0.00591X0.00787*%
%ADD29C,0.19685*%
%ADD30C,0.05906*%
%ADD31C,0.01772*%
G36*
X379013Y471227D02*
X379203Y470102D01*
X375231Y466130D01*
X374451Y466184D01*
X373818Y467095D01*
X373879Y467402D01*
X373740Y468104D01*
X373342Y468699D01*
X372746Y469097D01*
X372044Y469237D01*
X366444D01*
X365742Y469097D01*
X365146Y468699D01*
X364128Y468733D01*
X364031Y468831D01*
Y471000D01*
X364124Y471093D01*
X365146Y471104D01*
X365742Y470706D01*
X366444Y470566D01*
X372044D01*
X372746Y470706D01*
X373342Y471104D01*
X373459Y471278D01*
X378965D01*
X379013Y471227D01*
D02*
G37*
G36*
X362116Y472258D02*
X361873Y471894D01*
X361788Y471465D01*
X361788Y471464D01*
Y468366D01*
X361788Y468366D01*
X361873Y467937D01*
X362116Y467573D01*
X362872Y466818D01*
X362628Y465994D01*
X362498Y465818D01*
X355595D01*
X355212Y466742D01*
X361391Y472920D01*
X362116Y472258D01*
D02*
G37*
G36*
X463367Y470147D02*
X466729D01*
Y469147D01*
X463367D01*
Y468165D01*
X463767D01*
Y466597D01*
X468840D01*
X469702Y466502D01*
X469797Y465640D01*
Y464651D01*
X458921D01*
X458432Y465334D01*
X458326Y465651D01*
X458415Y466100D01*
X458300Y466680D01*
X458022Y467096D01*
Y469356D01*
X459000Y470085D01*
X459580Y470200D01*
X460071Y470529D01*
X460174Y470682D01*
X463367D01*
Y470147D01*
D02*
G37*
G36*
X558173Y331036D02*
X517743D01*
X517326Y332036D01*
X517436Y332147D01*
X519464Y332147D01*
X519816Y332217D01*
X520113Y332416D01*
X534237Y346539D01*
X535143Y346031D01*
X534948Y345219D01*
X534854Y344018D01*
X545191D01*
Y354355D01*
X543989Y354260D01*
X543178Y354065D01*
X542670Y354972D01*
X551231Y363533D01*
X551430Y363830D01*
X551500Y364182D01*
X551500Y459011D01*
X551653Y459114D01*
X551982Y459605D01*
X552097Y460185D01*
X551982Y460765D01*
X551653Y461256D01*
X551162Y461585D01*
X550582Y461700D01*
X550002Y461585D01*
X549927Y461534D01*
X549420Y461775D01*
X548971Y462098D01*
X548880Y462556D01*
X548748Y462753D01*
X549000Y463771D01*
X549052Y463855D01*
X550628Y464508D01*
X552083Y465400D01*
X553381Y466508D01*
X554490Y467806D01*
X555381Y469261D01*
X556034Y470838D01*
X556433Y472497D01*
X556527Y473698D01*
X534854D01*
X534948Y472497D01*
X535347Y470838D01*
X536000Y469261D01*
X536892Y467806D01*
X538000Y466508D01*
X539298Y465400D01*
X540753Y464508D01*
X542330Y463855D01*
X543989Y463456D01*
X545405Y463345D01*
X545766Y462924D01*
X545912Y462702D01*
X546039Y462347D01*
X545965Y461976D01*
X546081Y461397D01*
X546409Y460905D01*
X546563Y460803D01*
Y365529D01*
X546482Y365475D01*
X545482Y366009D01*
Y368710D01*
X544028D01*
Y371070D01*
X544181Y371173D01*
X544510Y371664D01*
X544625Y372244D01*
X544510Y372824D01*
X544181Y373315D01*
X543690Y373644D01*
X543110Y373759D01*
X542530Y373644D01*
X542039Y373315D01*
X541711Y372824D01*
X541595Y372244D01*
X541711Y371664D01*
X542039Y371173D01*
X542193Y371070D01*
Y368710D01*
X540739D01*
Y363573D01*
X544161D01*
X544576Y362573D01*
X519921Y337919D01*
X516481D01*
Y338035D01*
X512328D01*
X512132Y338035D01*
X511131Y337933D01*
X510861Y338045D01*
X509739D01*
Y338183D01*
X509549Y338642D01*
X509090Y338832D01*
X508499D01*
X507909Y338677D01*
X507318Y338832D01*
X506728D01*
X506268Y338642D01*
X506078Y338183D01*
Y338045D01*
X504956D01*
X504854Y338002D01*
X503854Y338518D01*
Y346169D01*
X503854Y346169D01*
X503768Y346599D01*
X503525Y346962D01*
X503525Y346962D01*
X500345Y350143D01*
X500392Y350866D01*
X500962Y351608D01*
X501239Y352278D01*
X510619D01*
X510897Y351608D01*
X511466Y350866D01*
X512208Y350297D01*
X513072Y349939D01*
X514000Y349817D01*
X514927Y349939D01*
X515792Y350297D01*
X516534Y350866D01*
X517103Y351608D01*
X517461Y352473D01*
X517583Y353400D01*
X517461Y354327D01*
X517103Y355192D01*
X516534Y355934D01*
X515792Y356503D01*
X514927Y356861D01*
X514000Y356983D01*
X513072Y356861D01*
X512208Y356503D01*
X511466Y355934D01*
X510897Y355192D01*
X510619Y354521D01*
X501239D01*
X500962Y355192D01*
X500392Y355934D01*
X499650Y356503D01*
X498786Y356861D01*
X497858Y356983D01*
X496931Y356861D01*
X496067Y356503D01*
X495324Y355934D01*
X494755Y355192D01*
X494477Y354521D01*
X468150D01*
Y355100D01*
X458850D01*
Y354521D01*
X448065D01*
X441447Y361139D01*
X441083Y361383D01*
X440654Y361468D01*
X440654Y361468D01*
X352187D01*
Y363573D01*
X356309D01*
Y368710D01*
X356150D01*
X355447Y369710D01*
X355452Y369736D01*
X355337Y370316D01*
X355008Y370807D01*
X354855Y370910D01*
Y375778D01*
X356309D01*
Y380915D01*
X354855D01*
Y387983D01*
X356309D01*
Y393120D01*
X354855D01*
Y400187D01*
X356309D01*
Y405324D01*
X354855D01*
Y412392D01*
X356309D01*
Y417529D01*
X354855D01*
Y424597D01*
X356309D01*
Y429734D01*
X354855D01*
Y436802D01*
X356309D01*
Y441939D01*
X354855D01*
Y449006D01*
X356309D01*
Y454143D01*
X354102D01*
X353720Y455067D01*
X357150Y458497D01*
X357444Y458573D01*
X358399Y458364D01*
X358592Y458016D01*
X358524Y457677D01*
X358640Y457097D01*
X358968Y456606D01*
X359122Y456503D01*
Y454143D01*
X357668D01*
Y449006D01*
X362411D01*
Y454143D01*
X360957D01*
Y456503D01*
X361111Y456606D01*
X361439Y457097D01*
X361554Y457677D01*
X361487Y458016D01*
X361901Y458762D01*
X362134Y459016D01*
X370149D01*
X370382Y458762D01*
X370797Y458016D01*
X370729Y457677D01*
X370845Y457097D01*
X371173Y456606D01*
X371326Y456503D01*
Y454143D01*
X369872D01*
Y449006D01*
X374616D01*
Y454143D01*
X373162D01*
Y456503D01*
X373315Y456606D01*
X373644Y457097D01*
X373759Y457677D01*
X373692Y458016D01*
X374106Y458762D01*
X374339Y459016D01*
X382354D01*
X382587Y458762D01*
X383001Y458016D01*
X382934Y457677D01*
X383049Y457097D01*
X383378Y456606D01*
X383531Y456503D01*
Y454143D01*
X382077D01*
Y449006D01*
X386821D01*
Y454143D01*
X385366D01*
Y456503D01*
X385520Y456606D01*
X385848Y457097D01*
X385964Y457677D01*
X385896Y458016D01*
X386311Y458762D01*
X386544Y459016D01*
X394559D01*
X394792Y458762D01*
X395206Y458016D01*
X395139Y457677D01*
X395254Y457097D01*
X395582Y456606D01*
X395736Y456503D01*
Y454143D01*
X394282D01*
Y449006D01*
X399025D01*
Y454143D01*
X397571D01*
Y456503D01*
X397725Y456606D01*
X398053Y457097D01*
X398168Y457677D01*
X398101Y458016D01*
X398516Y458762D01*
X398748Y459016D01*
X406763D01*
X406996Y458762D01*
X407411Y458016D01*
X407343Y457677D01*
X407459Y457097D01*
X407787Y456606D01*
X407941Y456503D01*
Y454143D01*
X406487D01*
Y449006D01*
X411230D01*
Y454143D01*
X409776D01*
Y456503D01*
X409930Y456606D01*
X410258Y457097D01*
X410373Y457677D01*
X410306Y458016D01*
X410720Y458762D01*
X410953Y459016D01*
X418968D01*
X419201Y458762D01*
X419616Y458016D01*
X419548Y457677D01*
X419663Y457097D01*
X419992Y456606D01*
X420145Y456503D01*
Y454143D01*
X418691D01*
Y449006D01*
X423435D01*
Y454143D01*
X421981D01*
Y456503D01*
X422134Y456606D01*
X422463Y457097D01*
X422578Y457677D01*
X422510Y458016D01*
X422925Y458762D01*
X423158Y459016D01*
X431173D01*
X431406Y458762D01*
X431820Y458016D01*
X431753Y457677D01*
X431868Y457097D01*
X432197Y456606D01*
X432350Y456503D01*
Y454143D01*
X430896D01*
Y449006D01*
X435639D01*
Y454143D01*
X434185D01*
Y456503D01*
X434339Y456606D01*
X434667Y457097D01*
X434783Y457677D01*
X434715Y458016D01*
X435130Y458762D01*
X435363Y459016D01*
X443377D01*
X443610Y458762D01*
X444025Y458016D01*
X443958Y457677D01*
X444073Y457097D01*
X444401Y456606D01*
X444555Y456503D01*
Y454143D01*
X443101D01*
Y449006D01*
X447844D01*
Y454143D01*
X446390D01*
Y456503D01*
X446544Y456606D01*
X446872Y457097D01*
X446987Y457677D01*
X446920Y458016D01*
X447334Y458762D01*
X447567Y459016D01*
X453509D01*
X453509Y459016D01*
X453938Y459102D01*
X454302Y459345D01*
X457365Y462408D01*
X469797D01*
Y460567D01*
X479239D01*
Y460167D01*
X480221D01*
Y463529D01*
X480721D01*
Y464029D01*
X482203D01*
Y466597D01*
X487833D01*
Y468730D01*
X489926D01*
X490029Y468576D01*
X490520Y468248D01*
X491100Y468132D01*
X491680Y468248D01*
X492171Y468576D01*
X492500Y469067D01*
X492615Y469647D01*
X492500Y470227D01*
X492171Y470718D01*
X491680Y471047D01*
X491100Y471162D01*
X490520Y471047D01*
X490029Y470718D01*
X489926Y470565D01*
X487833D01*
Y474635D01*
X515767D01*
X517682Y472720D01*
Y463174D01*
X517529Y463071D01*
X517200Y462580D01*
X517085Y462000D01*
X517200Y461420D01*
X517529Y460929D01*
X518020Y460600D01*
X518600Y460485D01*
X519180Y460600D01*
X519671Y460929D01*
X520000Y461420D01*
X520115Y462000D01*
X520000Y462580D01*
X519671Y463071D01*
X519518Y463174D01*
Y472224D01*
X520518Y472638D01*
X523882Y469274D01*
Y466048D01*
X523704Y465930D01*
X523376Y465438D01*
X523261Y464858D01*
X523376Y464279D01*
X523704Y463787D01*
X523882Y463668D01*
Y461374D01*
X523729Y461271D01*
X523400Y460780D01*
X523285Y460200D01*
X523400Y459620D01*
X523729Y459129D01*
X524220Y458800D01*
X524800Y458685D01*
X525380Y458800D01*
X525871Y459129D01*
X526200Y459620D01*
X526315Y460200D01*
X526200Y460780D01*
X525871Y461271D01*
X525718Y461374D01*
Y463701D01*
X525847Y463787D01*
X526175Y464279D01*
X526291Y464858D01*
X526175Y465438D01*
X525847Y465930D01*
X525718Y466016D01*
Y469654D01*
X525648Y470005D01*
X525449Y470302D01*
X517581Y478170D01*
X517283Y478369D01*
X516932Y478439D01*
X487833D01*
Y478604D01*
X482203D01*
Y481171D01*
X480721D01*
Y481671D01*
X480221D01*
Y485033D01*
X479239D01*
Y484633D01*
X469797D01*
Y479560D01*
X469702Y478698D01*
X468840Y478604D01*
X463767D01*
Y477892D01*
X462767Y477478D01*
X459924Y480321D01*
X459593Y480542D01*
X459203Y480620D01*
X458022D01*
Y481604D01*
X458300Y482020D01*
X458415Y482600D01*
X458300Y483180D01*
X457971Y483671D01*
X457480Y484000D01*
X456900Y484115D01*
X456320Y484000D01*
X455829Y483671D01*
X455500Y483180D01*
X455385Y482600D01*
X455500Y482020D01*
X455778Y481604D01*
Y479600D01*
Y467096D01*
X455500Y466680D01*
X455385Y466100D01*
X455500Y465520D01*
X455778Y465104D01*
Y463994D01*
X453044Y461259D01*
X385877D01*
Y462780D01*
X386156Y463196D01*
X386271Y463776D01*
X386156Y464355D01*
X385827Y464847D01*
X385336Y465175D01*
X385040Y466254D01*
X385178Y466484D01*
X395892D01*
X396146Y466104D01*
X396742Y465706D01*
X397444Y465566D01*
X403044D01*
X403746Y465706D01*
X404342Y466104D01*
X404596Y466484D01*
X407226D01*
X407329Y466330D01*
X407820Y466002D01*
X408400Y465887D01*
X408980Y466002D01*
X409471Y466330D01*
X409800Y466822D01*
X409915Y467402D01*
X409800Y467981D01*
X409471Y468473D01*
X408980Y468801D01*
X408400Y468917D01*
X407820Y468801D01*
X407329Y468473D01*
X407226Y468319D01*
X404596D01*
X404342Y468699D01*
X403746Y469097D01*
X403044Y469237D01*
X397444D01*
X396742Y469097D01*
X396146Y468699D01*
X395892Y468319D01*
X384102D01*
X383750Y468249D01*
X383453Y468050D01*
X379160Y463758D01*
X379128Y463759D01*
X378140Y464152D01*
X378100Y464355D01*
X377771Y464847D01*
X377725Y466029D01*
X383180Y471484D01*
X395892D01*
X396146Y471104D01*
X396742Y470706D01*
X397444Y470566D01*
X403044D01*
X403746Y470706D01*
X404342Y471104D01*
X404740Y471699D01*
X404879Y472402D01*
X404740Y473104D01*
X404342Y473699D01*
X403746Y474097D01*
X403044Y474237D01*
X397444D01*
X396742Y474097D01*
X396146Y473699D01*
X395892Y473319D01*
X382800D01*
X382449Y473249D01*
X382367Y473195D01*
X382227Y473164D01*
X381594Y473237D01*
X381187Y473374D01*
X381121Y473435D01*
Y474665D01*
X382736Y476280D01*
X396029D01*
X396146Y476104D01*
X396742Y475706D01*
X397444Y475566D01*
X403044D01*
X403746Y475706D01*
X404342Y476104D01*
X404740Y476699D01*
X404879Y477402D01*
X404740Y478104D01*
X404342Y478699D01*
X403746Y479097D01*
X403290Y479188D01*
Y480207D01*
X403902Y480329D01*
X404630Y480816D01*
X405116Y481543D01*
X405188Y481902D01*
X400244D01*
X395301D01*
X395372Y481543D01*
X395858Y480816D01*
X396586Y480329D01*
X397198Y480207D01*
Y479188D01*
X396742Y479097D01*
X396146Y478699D01*
X396029Y478523D01*
X382272D01*
X382272Y478523D01*
X381842Y478438D01*
X381479Y478195D01*
X381479Y478195D01*
X379207Y475923D01*
X378964Y475559D01*
X378878Y475130D01*
X378878Y475130D01*
Y473522D01*
X373461D01*
X373342Y473699D01*
X372746Y474097D01*
X372044Y474237D01*
X366444D01*
X365742Y474097D01*
X365146Y473699D01*
X365029Y473523D01*
X363846D01*
X363417Y473438D01*
X363053Y473195D01*
X363053Y473195D01*
X362391Y473920D01*
X364626Y476155D01*
X365146Y476104D01*
X365742Y475706D01*
X366444Y475566D01*
X372044D01*
X372746Y475706D01*
X373342Y476104D01*
X373740Y476699D01*
X373879Y477402D01*
X373740Y478104D01*
X373342Y478699D01*
X372746Y479097D01*
X372044Y479237D01*
X366444D01*
X365742Y479097D01*
X365146Y478699D01*
X364892Y478319D01*
X364575D01*
X364224Y478249D01*
X363926Y478050D01*
X342085Y456209D01*
X340876Y456415D01*
X340781Y456557D01*
X340157Y456973D01*
X339921Y457020D01*
Y455197D01*
X338921D01*
Y457020D01*
X338685Y456973D01*
X338062Y456557D01*
X337982Y456436D01*
X335665D01*
Y460051D01*
X336053Y460556D01*
X336461Y461541D01*
X336600Y462598D01*
X336583D01*
Y486681D01*
X558173D01*
Y331036D01*
D02*
G37*
G36*
X349944Y453232D02*
Y440594D01*
X340265D01*
X340001Y440770D01*
X339421Y440885D01*
X338842Y440770D01*
X338350Y440441D01*
X338022Y439950D01*
X337960Y439639D01*
X336665Y438344D01*
X335665Y438759D01*
Y440368D01*
X348944Y453646D01*
X349944Y453232D01*
D02*
G37*
G36*
X348470Y437221D02*
X348456Y437147D01*
X348007Y436847D01*
X347679Y436355D01*
X347564Y435776D01*
X347600Y435594D01*
X341284Y429279D01*
X341085Y428981D01*
X341015Y428630D01*
Y413963D01*
X339192Y412140D01*
X335665D01*
Y420130D01*
X336671Y420262D01*
X337608Y420650D01*
X338413Y421268D01*
X339031Y422073D01*
X339419Y423010D01*
X339551Y424016D01*
X339419Y425022D01*
X339031Y425959D01*
X338413Y426764D01*
X337608Y427381D01*
X336671Y427769D01*
X335665Y427902D01*
Y435194D01*
X336469D01*
X336937Y435287D01*
X337334Y435552D01*
X339690Y437909D01*
X340001Y437970D01*
X340265Y438146D01*
X348168D01*
X348470Y437221D01*
D02*
G37*
G36*
X349476Y409051D02*
Y408235D01*
X349079Y407865D01*
X348499Y407750D01*
X348007Y407422D01*
X347679Y406930D01*
X347564Y406350D01*
X347600Y406169D01*
X337822Y396392D01*
X335665D01*
Y397706D01*
X336336D01*
X336687Y397776D01*
X336985Y397975D01*
X348476Y409465D01*
X349476Y409051D01*
D02*
G37*
G36*
X349079Y404836D02*
X349944Y404030D01*
Y401481D01*
X349079Y400676D01*
X348499Y400561D01*
X348007Y400233D01*
X347679Y399741D01*
X347564Y399161D01*
X347600Y398980D01*
X341862Y393242D01*
X335665D01*
Y394556D01*
X338202D01*
X338554Y394626D01*
X338851Y394825D01*
X348898Y404872D01*
X349079Y404836D01*
D02*
G37*
G36*
X341182Y374638D02*
Y368791D01*
X340182Y368257D01*
X340129Y368292D01*
X339894Y368339D01*
Y366516D01*
X338894D01*
Y368339D01*
X338658Y368292D01*
X338594Y368249D01*
X335665D01*
Y378808D01*
X337012D01*
X341182Y374638D01*
D02*
G37*
G36*
X549665Y458319D02*
X549664Y365267D01*
X549398Y365090D01*
X548398Y365624D01*
Y458031D01*
X549398Y458524D01*
X549665Y458319D01*
D02*
G37*
G36*
X349079Y392631D02*
X349944Y391826D01*
Y364867D01*
X349079Y364062D01*
X348211Y364865D01*
Y373219D01*
X348141Y373570D01*
X347942Y373868D01*
X335665Y386144D01*
Y388257D01*
X344108D01*
X344459Y388327D01*
X344757Y388526D01*
X348898Y392667D01*
X349079Y392631D01*
D02*
G37*
G36*
X339894Y361586D02*
X340129Y361633D01*
X340182Y361668D01*
X341182Y361134D01*
Y342400D01*
X341252Y342049D01*
X341451Y341751D01*
X347551Y335651D01*
X347849Y335452D01*
X348200Y335382D01*
X359615D01*
X359718Y335229D01*
X360209Y334900D01*
X360789Y334785D01*
X361369Y334900D01*
X361860Y335229D01*
X361963Y335382D01*
X363973D01*
X364217Y335016D01*
X364807Y334622D01*
X365502Y334484D01*
X371801D01*
X372496Y334622D01*
X373085Y335016D01*
X373479Y335605D01*
X373617Y336300D01*
X373479Y336995D01*
X373085Y337584D01*
X372496Y337978D01*
X371801Y338116D01*
X365502D01*
X364807Y337978D01*
X364217Y337584D01*
X363973Y337218D01*
X361963D01*
X361860Y337371D01*
X361369Y337700D01*
X360789Y337815D01*
X360209Y337700D01*
X359718Y337371D01*
X359615Y337218D01*
X348580D01*
X343018Y342780D01*
Y356878D01*
X343941Y357261D01*
X345464Y355738D01*
X345762Y355539D01*
X346113Y355469D01*
X376663D01*
X376894Y355136D01*
X377106Y354469D01*
X376900Y354161D01*
X376785Y353581D01*
X376900Y353001D01*
X377229Y352510D01*
X377720Y352182D01*
X378300Y352066D01*
X378880Y352182D01*
X379296Y352460D01*
X381921D01*
X382615Y351460D01*
X382583Y351300D01*
X382721Y350605D01*
X383115Y350016D01*
X383704Y349622D01*
X384399Y349484D01*
X390698D01*
X391393Y349622D01*
X391983Y350016D01*
X392376Y350605D01*
X392514Y351300D01*
X392483Y351460D01*
X393177Y352460D01*
X403289D01*
Y349768D01*
X412363D01*
Y353555D01*
X413287Y353938D01*
X414473Y352751D01*
X414771Y352552D01*
X415122Y352482D01*
X419037D01*
Y343863D01*
X428111D01*
Y347482D01*
X431850D01*
Y346700D01*
X441150D01*
Y350100D01*
X431850D01*
Y349318D01*
X428111D01*
Y352482D01*
X431850D01*
Y351700D01*
X441150D01*
Y355100D01*
X431850D01*
Y354318D01*
X415503D01*
X412785Y357035D01*
X412487Y357234D01*
X412136Y357304D01*
X399174D01*
X399071Y357458D01*
X398580Y357786D01*
X398000Y357902D01*
X397420Y357786D01*
X396929Y357458D01*
X396826Y357304D01*
X380528D01*
X379814Y358304D01*
X379815Y358307D01*
X380585Y359225D01*
X440189D01*
X446807Y352607D01*
X446807Y352607D01*
X447171Y352364D01*
X447600Y352278D01*
X447600Y352278D01*
X458850D01*
Y351700D01*
X468150D01*
Y352278D01*
X494477D01*
X494755Y351608D01*
X495324Y350866D01*
X496067Y350297D01*
X496931Y349939D01*
X497444Y349871D01*
X499786Y347529D01*
X499220Y346682D01*
X498786Y346861D01*
X497858Y346983D01*
X496931Y346861D01*
X496067Y346503D01*
X495324Y345934D01*
X494755Y345192D01*
X494397Y344327D01*
X494275Y343400D01*
X494351Y342818D01*
X493708Y341818D01*
X468150D01*
Y345100D01*
X458850D01*
Y341818D01*
X451280D01*
X449049Y344049D01*
X448751Y344248D01*
X448400Y344318D01*
X441150D01*
Y345100D01*
X431850D01*
Y341700D01*
X441150D01*
Y342482D01*
X448020D01*
X450251Y340251D01*
X450549Y340052D01*
X450900Y339982D01*
X458850D01*
Y336700D01*
X468150D01*
Y339982D01*
X495558D01*
X495909Y340052D01*
X496195Y340243D01*
X496931Y339939D01*
X497858Y339817D01*
X498786Y339939D01*
X499650Y340297D01*
X500392Y340866D01*
X500611Y341151D01*
X501611Y340812D01*
Y338384D01*
X501458Y338231D01*
X499336D01*
Y335951D01*
X483824D01*
X483721Y336104D01*
X483230Y336433D01*
X482650Y336548D01*
X482070Y336433D01*
X481579Y336104D01*
X481250Y335613D01*
X481135Y335033D01*
X481250Y334453D01*
X481579Y333962D01*
X482070Y333633D01*
X482650Y333518D01*
X483230Y333633D01*
X483721Y333962D01*
X483824Y334115D01*
X498936D01*
Y333565D01*
X501511D01*
Y332565D01*
X498936D01*
Y331631D01*
X498183Y331036D01*
X336583D01*
Y355118D01*
X336600D01*
X336461Y356175D01*
X336053Y357160D01*
X335665Y357666D01*
Y362856D01*
X337581D01*
X337617Y362674D01*
X338034Y362050D01*
X338658Y361633D01*
X338894Y361586D01*
Y363409D01*
X339894D01*
Y361586D01*
D02*
G37*
G36*
X346375Y372839D02*
Y361595D01*
X346445Y361244D01*
X346644Y360946D01*
X349286Y358304D01*
X348872Y357304D01*
X346494D01*
X344218Y359580D01*
Y373690D01*
X345142Y374073D01*
X346375Y372839D01*
D02*
G37*
%LPC*%
G36*
X403044Y484645D02*
X400744D01*
Y482902D01*
X405188D01*
X405116Y483260D01*
X404630Y483988D01*
X403902Y484474D01*
X403044Y484645D01*
D02*
G37*
G36*
X399744D02*
X397444D01*
X396586Y484474D01*
X395858Y483988D01*
X395372Y483260D01*
X395300Y482902D01*
X399744D01*
Y484645D01*
D02*
G37*
G36*
X482203Y485033D02*
X481221D01*
Y482171D01*
X482203D01*
Y485033D01*
D02*
G37*
G36*
X372044Y484237D02*
X366444D01*
X365742Y484097D01*
X365146Y483699D01*
X364749Y483104D01*
X364609Y482402D01*
X364749Y481699D01*
X365146Y481104D01*
X365742Y480706D01*
X366444Y480566D01*
X372044D01*
X372746Y480706D01*
X373342Y481104D01*
X373596Y481484D01*
X375526D01*
X375629Y481330D01*
X376120Y481002D01*
X376700Y480887D01*
X377280Y481002D01*
X377771Y481330D01*
X378100Y481822D01*
X378215Y482402D01*
X378100Y482981D01*
X377771Y483473D01*
X377280Y483801D01*
X376700Y483917D01*
X376120Y483801D01*
X375629Y483473D01*
X375526Y483319D01*
X373596D01*
X373342Y483699D01*
X372746Y484097D01*
X372044Y484237D01*
D02*
G37*
G36*
X546191Y485035D02*
Y474698D01*
X556527D01*
X556433Y475900D01*
X556034Y477559D01*
X555381Y479136D01*
X554490Y480591D01*
X553381Y481889D01*
X552083Y482997D01*
X550628Y483889D01*
X549051Y484542D01*
X547392Y484941D01*
X546191Y485035D01*
D02*
G37*
G36*
X545191D02*
X543989Y484941D01*
X542330Y484542D01*
X540753Y483889D01*
X539298Y482997D01*
X538000Y481889D01*
X536892Y480591D01*
X536000Y479136D01*
X535347Y477559D01*
X534948Y475900D01*
X534854Y474698D01*
X545191D01*
Y485035D01*
D02*
G37*
G36*
X543110Y459192D02*
X542530Y459077D01*
X542039Y458748D01*
X541711Y458257D01*
X541595Y457677D01*
X541711Y457097D01*
X542039Y456606D01*
X542193Y456503D01*
Y454143D01*
X540739D01*
Y449006D01*
X545482D01*
Y454143D01*
X544028D01*
Y456503D01*
X544181Y456606D01*
X544510Y457097D01*
X544625Y457677D01*
X544510Y458257D01*
X544181Y458748D01*
X543690Y459077D01*
X543110Y459192D01*
D02*
G37*
G36*
X530905D02*
X530326Y459077D01*
X529834Y458748D01*
X529506Y458257D01*
X529391Y457677D01*
X529506Y457097D01*
X529834Y456606D01*
X529988Y456503D01*
Y454143D01*
X528534D01*
Y449006D01*
X533277D01*
Y454143D01*
X531823D01*
Y456503D01*
X531977Y456606D01*
X532305Y457097D01*
X532420Y457677D01*
X532305Y458257D01*
X531977Y458748D01*
X531485Y459077D01*
X530905Y459192D01*
D02*
G37*
G36*
X518701D02*
X518121Y459077D01*
X517630Y458748D01*
X517301Y458257D01*
X517186Y457677D01*
X517301Y457097D01*
X517630Y456606D01*
X517783Y456503D01*
Y454143D01*
X516329D01*
Y449006D01*
X521072D01*
Y454143D01*
X519618D01*
Y456503D01*
X519772Y456606D01*
X520100Y457097D01*
X520216Y457677D01*
X520100Y458257D01*
X519772Y458748D01*
X519280Y459077D01*
X518701Y459192D01*
D02*
G37*
G36*
X506496D02*
X505916Y459077D01*
X505425Y458748D01*
X505096Y458257D01*
X504981Y457677D01*
X505096Y457097D01*
X505425Y456606D01*
X505578Y456503D01*
Y454143D01*
X504124D01*
Y449006D01*
X508868D01*
Y454143D01*
X507414D01*
Y456503D01*
X507567Y456606D01*
X507896Y457097D01*
X508011Y457677D01*
X507896Y458257D01*
X507567Y458748D01*
X507076Y459077D01*
X506496Y459192D01*
D02*
G37*
G36*
X494291D02*
X493712Y459077D01*
X493220Y458748D01*
X492892Y458257D01*
X492776Y457677D01*
X492892Y457097D01*
X493220Y456606D01*
X493374Y456503D01*
Y454143D01*
X491920D01*
Y449006D01*
X496663D01*
Y454143D01*
X495209D01*
Y456503D01*
X495363Y456606D01*
X495691Y457097D01*
X495806Y457677D01*
X495691Y458257D01*
X495363Y458748D01*
X494871Y459077D01*
X494291Y459192D01*
D02*
G37*
G36*
X482203Y463029D02*
X481221D01*
Y459752D01*
X481559Y459167D01*
X481550Y459152D01*
X481332Y458960D01*
X481507Y459077D01*
X481507Y459077D01*
X481507Y459077D01*
X481015Y458748D01*
X480687Y458257D01*
X480572Y457677D01*
X480687Y457097D01*
X481015Y456606D01*
X481169Y456503D01*
Y454143D01*
X479715D01*
Y449006D01*
X484458D01*
Y454143D01*
X483004D01*
Y456503D01*
X483158Y456606D01*
X483486Y457097D01*
X483602Y457677D01*
X483486Y458257D01*
X483158Y458748D01*
X482666Y459077D01*
X482633Y459103D01*
X482283Y459418D01*
X482089Y459763D01*
X482204Y460167D01*
X482203Y461025D01*
Y463029D01*
D02*
G37*
G36*
X469882Y459192D02*
X469302Y459077D01*
X468811Y458748D01*
X468482Y458257D01*
X468367Y457677D01*
X468482Y457097D01*
X468811Y456606D01*
X468964Y456503D01*
Y454143D01*
X467510D01*
Y449006D01*
X472254D01*
Y454143D01*
X470799D01*
Y456503D01*
X470953Y456606D01*
X471281Y457097D01*
X471397Y457677D01*
X471281Y458257D01*
X470953Y458748D01*
X470462Y459077D01*
X469882Y459192D01*
D02*
G37*
G36*
X457677D02*
X457097Y459077D01*
X456606Y458748D01*
X456278Y458257D01*
X456162Y457677D01*
X456278Y457097D01*
X456606Y456606D01*
X456760Y456503D01*
Y454143D01*
X455305D01*
Y449006D01*
X460049D01*
Y454143D01*
X458595D01*
Y456503D01*
X458748Y456606D01*
X459077Y457097D01*
X459192Y457677D01*
X459077Y458257D01*
X458748Y458748D01*
X458257Y459077D01*
X457677Y459192D01*
D02*
G37*
G36*
X543110Y446987D02*
X542530Y446872D01*
X542039Y446544D01*
X541711Y446052D01*
X541595Y445472D01*
X541711Y444893D01*
X542039Y444401D01*
X542193Y444299D01*
Y441939D01*
X540739D01*
Y436802D01*
X545482D01*
Y441939D01*
X544028D01*
Y444299D01*
X544181Y444401D01*
X544510Y444893D01*
X544625Y445472D01*
X544510Y446052D01*
X544181Y446544D01*
X543690Y446872D01*
X543110Y446987D01*
D02*
G37*
G36*
X530905D02*
X530326Y446872D01*
X529834Y446544D01*
X529506Y446052D01*
X529391Y445472D01*
X529506Y444893D01*
X529834Y444401D01*
X529988Y444299D01*
Y441939D01*
X528534D01*
Y436802D01*
X533277D01*
Y441939D01*
X531823D01*
Y444299D01*
X531977Y444401D01*
X532305Y444893D01*
X532420Y445472D01*
X532305Y446052D01*
X531977Y446544D01*
X531485Y446872D01*
X530905Y446987D01*
D02*
G37*
G36*
X518701D02*
X518121Y446872D01*
X517630Y446544D01*
X517301Y446052D01*
X517186Y445472D01*
X517301Y444893D01*
X517630Y444401D01*
X517783Y444299D01*
Y441939D01*
X516329D01*
Y436802D01*
X521072D01*
Y441939D01*
X519618D01*
Y444299D01*
X519772Y444401D01*
X520100Y444893D01*
X520216Y445472D01*
X520100Y446052D01*
X519772Y446544D01*
X519280Y446872D01*
X518701Y446987D01*
D02*
G37*
G36*
X506496D02*
X505916Y446872D01*
X505425Y446544D01*
X505096Y446052D01*
X504981Y445472D01*
X505096Y444893D01*
X505425Y444401D01*
X505578Y444299D01*
Y441939D01*
X504124D01*
Y436802D01*
X508868D01*
Y441939D01*
X507414D01*
Y444299D01*
X507567Y444401D01*
X507896Y444893D01*
X508011Y445472D01*
X507896Y446052D01*
X507567Y446544D01*
X507076Y446872D01*
X506496Y446987D01*
D02*
G37*
G36*
X494291D02*
X493712Y446872D01*
X493220Y446544D01*
X492892Y446052D01*
X492776Y445472D01*
X492892Y444893D01*
X493220Y444401D01*
X493374Y444299D01*
Y441939D01*
X491920D01*
Y436802D01*
X496663D01*
Y441939D01*
X495209D01*
Y444299D01*
X495363Y444401D01*
X495691Y444893D01*
X495806Y445472D01*
X495691Y446052D01*
X495363Y446544D01*
X494871Y446872D01*
X494291Y446987D01*
D02*
G37*
G36*
X482087D02*
X481507Y446872D01*
X481015Y446544D01*
X480687Y446052D01*
X480572Y445472D01*
X480687Y444893D01*
X481015Y444401D01*
X481169Y444299D01*
Y441939D01*
X479715D01*
Y436802D01*
X484458D01*
Y441939D01*
X483004D01*
Y444299D01*
X483158Y444401D01*
X483486Y444893D01*
X483602Y445472D01*
X483486Y446052D01*
X483158Y446544D01*
X482666Y446872D01*
X482087Y446987D01*
D02*
G37*
G36*
X469882D02*
X469302Y446872D01*
X468811Y446544D01*
X468482Y446052D01*
X468367Y445472D01*
X468482Y444893D01*
X468811Y444401D01*
X468964Y444299D01*
Y441939D01*
X467510D01*
Y436802D01*
X472254D01*
Y441939D01*
X470799D01*
Y444299D01*
X470953Y444401D01*
X471281Y444893D01*
X471397Y445472D01*
X471281Y446052D01*
X470953Y446544D01*
X470462Y446872D01*
X469882Y446987D01*
D02*
G37*
G36*
X457677D02*
X457097Y446872D01*
X456606Y446544D01*
X456278Y446052D01*
X456162Y445472D01*
X456278Y444893D01*
X456606Y444401D01*
X456760Y444299D01*
Y441939D01*
X455305D01*
Y436802D01*
X460049D01*
Y441939D01*
X458595D01*
Y444299D01*
X458748Y444401D01*
X459077Y444893D01*
X459192Y445472D01*
X459077Y446052D01*
X458748Y446544D01*
X458257Y446872D01*
X457677Y446987D01*
D02*
G37*
G36*
X445472D02*
X444893Y446872D01*
X444401Y446544D01*
X444073Y446052D01*
X443958Y445472D01*
X444073Y444893D01*
X444401Y444401D01*
X444555Y444299D01*
Y441939D01*
X443101D01*
Y436802D01*
X447844D01*
Y441939D01*
X446390D01*
Y444299D01*
X446544Y444401D01*
X446872Y444893D01*
X446987Y445472D01*
X446872Y446052D01*
X446544Y446544D01*
X446052Y446872D01*
X445472Y446987D01*
D02*
G37*
G36*
X433268D02*
X432688Y446872D01*
X432197Y446544D01*
X431868Y446052D01*
X431753Y445472D01*
X431868Y444893D01*
X432197Y444401D01*
X432350Y444299D01*
Y441939D01*
X430896D01*
Y436802D01*
X435639D01*
Y441939D01*
X434185D01*
Y444299D01*
X434339Y444401D01*
X434667Y444893D01*
X434783Y445472D01*
X434667Y446052D01*
X434339Y446544D01*
X433848Y446872D01*
X433268Y446987D01*
D02*
G37*
G36*
X421063D02*
X420483Y446872D01*
X419992Y446544D01*
X419663Y446052D01*
X419548Y445472D01*
X419663Y444893D01*
X419992Y444401D01*
X420145Y444299D01*
Y441939D01*
X418691D01*
Y436802D01*
X423435D01*
Y441939D01*
X421981D01*
Y444299D01*
X422134Y444401D01*
X422463Y444893D01*
X422578Y445472D01*
X422463Y446052D01*
X422134Y446544D01*
X421643Y446872D01*
X421063Y446987D01*
D02*
G37*
G36*
X408858D02*
X408279Y446872D01*
X407787Y446544D01*
X407459Y446052D01*
X407343Y445472D01*
X407459Y444893D01*
X407787Y444401D01*
X407941Y444299D01*
Y441939D01*
X406487D01*
Y436802D01*
X411230D01*
Y441939D01*
X409776D01*
Y444299D01*
X409930Y444401D01*
X410258Y444893D01*
X410373Y445472D01*
X410258Y446052D01*
X409930Y446544D01*
X409438Y446872D01*
X408858Y446987D01*
D02*
G37*
G36*
X396654D02*
X396074Y446872D01*
X395582Y446544D01*
X395254Y446052D01*
X395139Y445472D01*
X395254Y444893D01*
X395582Y444401D01*
X395736Y444299D01*
Y441939D01*
X394282D01*
Y436802D01*
X399025D01*
Y441939D01*
X397571D01*
Y444299D01*
X397725Y444401D01*
X398053Y444893D01*
X398168Y445472D01*
X398053Y446052D01*
X397725Y446544D01*
X397233Y446872D01*
X396654Y446987D01*
D02*
G37*
G36*
X384449D02*
X383869Y446872D01*
X383378Y446544D01*
X383049Y446052D01*
X382934Y445472D01*
X383049Y444893D01*
X383378Y444401D01*
X383531Y444299D01*
Y441939D01*
X382077D01*
Y436802D01*
X386821D01*
Y441939D01*
X385366D01*
Y444299D01*
X385520Y444401D01*
X385848Y444893D01*
X385964Y445472D01*
X385848Y446052D01*
X385520Y446544D01*
X385029Y446872D01*
X384449Y446987D01*
D02*
G37*
G36*
X372244D02*
X371664Y446872D01*
X371173Y446544D01*
X370845Y446052D01*
X370729Y445472D01*
X370845Y444893D01*
X371173Y444401D01*
X371326Y444299D01*
Y441939D01*
X369872D01*
Y436802D01*
X374616D01*
Y441939D01*
X373162D01*
Y444299D01*
X373315Y444401D01*
X373644Y444893D01*
X373759Y445472D01*
X373644Y446052D01*
X373315Y446544D01*
X372824Y446872D01*
X372244Y446987D01*
D02*
G37*
G36*
X360039D02*
X359460Y446872D01*
X358968Y446544D01*
X358640Y446052D01*
X358524Y445472D01*
X358640Y444893D01*
X358968Y444401D01*
X359122Y444299D01*
Y441939D01*
X357668D01*
Y436802D01*
X362411D01*
Y441939D01*
X360957D01*
Y444299D01*
X361111Y444401D01*
X361439Y444893D01*
X361554Y445472D01*
X361439Y446052D01*
X361111Y446544D01*
X360619Y446872D01*
X360039Y446987D01*
D02*
G37*
G36*
X543110Y434783D02*
X542530Y434667D01*
X542039Y434339D01*
X541711Y433848D01*
X541595Y433268D01*
X541711Y432688D01*
X542039Y432197D01*
X542193Y432094D01*
Y429734D01*
X540739D01*
Y424597D01*
X545482D01*
Y429734D01*
X544028D01*
Y432094D01*
X544181Y432197D01*
X544510Y432688D01*
X544625Y433268D01*
X544510Y433848D01*
X544181Y434339D01*
X543690Y434667D01*
X543110Y434783D01*
D02*
G37*
G36*
X530905D02*
X530326Y434667D01*
X529834Y434339D01*
X529506Y433848D01*
X529391Y433268D01*
X529506Y432688D01*
X529834Y432197D01*
X529988Y432094D01*
Y429734D01*
X528534D01*
Y424597D01*
X533277D01*
Y429734D01*
X531823D01*
Y432094D01*
X531977Y432197D01*
X532305Y432688D01*
X532420Y433268D01*
X532305Y433848D01*
X531977Y434339D01*
X531485Y434667D01*
X530905Y434783D01*
D02*
G37*
G36*
X518701D02*
X518121Y434667D01*
X517630Y434339D01*
X517301Y433848D01*
X517186Y433268D01*
X517301Y432688D01*
X517630Y432197D01*
X517783Y432094D01*
Y429734D01*
X516329D01*
Y424597D01*
X521072D01*
Y429734D01*
X519618D01*
Y432094D01*
X519772Y432197D01*
X520100Y432688D01*
X520216Y433268D01*
X520100Y433848D01*
X519772Y434339D01*
X519280Y434667D01*
X518701Y434783D01*
D02*
G37*
G36*
X506496D02*
X505916Y434667D01*
X505425Y434339D01*
X505096Y433848D01*
X504981Y433268D01*
X505096Y432688D01*
X505425Y432197D01*
X505578Y432094D01*
Y429734D01*
X504124D01*
Y424597D01*
X508868D01*
Y429734D01*
X507414D01*
Y432094D01*
X507567Y432197D01*
X507896Y432688D01*
X508011Y433268D01*
X507896Y433848D01*
X507567Y434339D01*
X507076Y434667D01*
X506496Y434783D01*
D02*
G37*
G36*
X494291D02*
X493712Y434667D01*
X493220Y434339D01*
X492892Y433848D01*
X492776Y433268D01*
X492892Y432688D01*
X493220Y432197D01*
X493374Y432094D01*
Y429734D01*
X491920D01*
Y424597D01*
X496663D01*
Y429734D01*
X495209D01*
Y432094D01*
X495363Y432197D01*
X495691Y432688D01*
X495806Y433268D01*
X495691Y433848D01*
X495363Y434339D01*
X494871Y434667D01*
X494291Y434783D01*
D02*
G37*
G36*
X482087D02*
X481507Y434667D01*
X481015Y434339D01*
X480687Y433848D01*
X480572Y433268D01*
X480687Y432688D01*
X481015Y432197D01*
X481169Y432094D01*
Y429734D01*
X479715D01*
Y424597D01*
X484458D01*
Y429734D01*
X483004D01*
Y432094D01*
X483158Y432197D01*
X483486Y432688D01*
X483602Y433268D01*
X483486Y433848D01*
X483158Y434339D01*
X482666Y434667D01*
X482087Y434783D01*
D02*
G37*
G36*
X469882D02*
X469302Y434667D01*
X468811Y434339D01*
X468482Y433848D01*
X468367Y433268D01*
X468482Y432688D01*
X468811Y432197D01*
X468964Y432094D01*
Y429734D01*
X467510D01*
Y424597D01*
X472254D01*
Y429734D01*
X470799D01*
Y432094D01*
X470953Y432197D01*
X471281Y432688D01*
X471397Y433268D01*
X471281Y433848D01*
X470953Y434339D01*
X470462Y434667D01*
X469882Y434783D01*
D02*
G37*
G36*
X457677D02*
X457097Y434667D01*
X456606Y434339D01*
X456278Y433848D01*
X456162Y433268D01*
X456278Y432688D01*
X456606Y432197D01*
X456760Y432094D01*
Y429734D01*
X455305D01*
Y424597D01*
X460049D01*
Y429734D01*
X458595D01*
Y432094D01*
X458748Y432197D01*
X459077Y432688D01*
X459192Y433268D01*
X459077Y433848D01*
X458748Y434339D01*
X458257Y434667D01*
X457677Y434783D01*
D02*
G37*
G36*
X445472D02*
X444893Y434667D01*
X444401Y434339D01*
X444073Y433848D01*
X443958Y433268D01*
X444073Y432688D01*
X444401Y432197D01*
X444555Y432094D01*
Y429734D01*
X443101D01*
Y424597D01*
X447844D01*
Y429734D01*
X446390D01*
Y432094D01*
X446544Y432197D01*
X446872Y432688D01*
X446987Y433268D01*
X446872Y433848D01*
X446544Y434339D01*
X446052Y434667D01*
X445472Y434783D01*
D02*
G37*
G36*
X433268D02*
X432688Y434667D01*
X432197Y434339D01*
X431868Y433848D01*
X431753Y433268D01*
X431868Y432688D01*
X432197Y432197D01*
X432350Y432094D01*
Y429734D01*
X430896D01*
Y424597D01*
X435639D01*
Y429734D01*
X434185D01*
Y432094D01*
X434339Y432197D01*
X434667Y432688D01*
X434783Y433268D01*
X434667Y433848D01*
X434339Y434339D01*
X433848Y434667D01*
X433268Y434783D01*
D02*
G37*
G36*
X421063D02*
X420483Y434667D01*
X419992Y434339D01*
X419663Y433848D01*
X419548Y433268D01*
X419663Y432688D01*
X419992Y432197D01*
X420145Y432094D01*
Y429734D01*
X418691D01*
Y424597D01*
X423435D01*
Y429734D01*
X421981D01*
Y432094D01*
X422134Y432197D01*
X422463Y432688D01*
X422578Y433268D01*
X422463Y433848D01*
X422134Y434339D01*
X421643Y434667D01*
X421063Y434783D01*
D02*
G37*
G36*
X408858D02*
X408279Y434667D01*
X407787Y434339D01*
X407459Y433848D01*
X407343Y433268D01*
X407459Y432688D01*
X407787Y432197D01*
X407941Y432094D01*
Y429734D01*
X406487D01*
Y424597D01*
X411230D01*
Y429734D01*
X409776D01*
Y432094D01*
X409930Y432197D01*
X410258Y432688D01*
X410373Y433268D01*
X410258Y433848D01*
X409930Y434339D01*
X409438Y434667D01*
X408858Y434783D01*
D02*
G37*
G36*
X396654D02*
X396074Y434667D01*
X395582Y434339D01*
X395254Y433848D01*
X395139Y433268D01*
X395254Y432688D01*
X395582Y432197D01*
X395736Y432094D01*
Y429734D01*
X394282D01*
Y424597D01*
X399025D01*
Y429734D01*
X397571D01*
Y432094D01*
X397725Y432197D01*
X398053Y432688D01*
X398168Y433268D01*
X398053Y433848D01*
X397725Y434339D01*
X397233Y434667D01*
X396654Y434783D01*
D02*
G37*
G36*
X384449D02*
X383869Y434667D01*
X383378Y434339D01*
X383049Y433848D01*
X382934Y433268D01*
X383049Y432688D01*
X383378Y432197D01*
X383531Y432094D01*
Y429734D01*
X382077D01*
Y424597D01*
X386821D01*
Y429734D01*
X385366D01*
Y432094D01*
X385520Y432197D01*
X385848Y432688D01*
X385964Y433268D01*
X385848Y433848D01*
X385520Y434339D01*
X385029Y434667D01*
X384449Y434783D01*
D02*
G37*
G36*
X372244D02*
X371664Y434667D01*
X371173Y434339D01*
X370845Y433848D01*
X370729Y433268D01*
X370845Y432688D01*
X371173Y432197D01*
X371326Y432094D01*
Y429734D01*
X369872D01*
Y424597D01*
X374616D01*
Y429734D01*
X373162D01*
Y432094D01*
X373315Y432197D01*
X373644Y432688D01*
X373759Y433268D01*
X373644Y433848D01*
X373315Y434339D01*
X372824Y434667D01*
X372244Y434783D01*
D02*
G37*
G36*
X360039D02*
X359460Y434667D01*
X358968Y434339D01*
X358640Y433848D01*
X358524Y433268D01*
X358640Y432688D01*
X358968Y432197D01*
X359122Y432094D01*
Y429734D01*
X357668D01*
Y424597D01*
X362411D01*
Y429734D01*
X360957D01*
Y432094D01*
X361111Y432197D01*
X361439Y432688D01*
X361554Y433268D01*
X361439Y433848D01*
X361111Y434339D01*
X360619Y434667D01*
X360039Y434783D01*
D02*
G37*
G36*
X543110Y422578D02*
X542530Y422463D01*
X542039Y422134D01*
X541711Y421643D01*
X541595Y421063D01*
X541711Y420483D01*
X542039Y419992D01*
X542193Y419889D01*
Y417529D01*
X540739D01*
Y412392D01*
X545482D01*
Y417529D01*
X544028D01*
Y419889D01*
X544181Y419992D01*
X544510Y420483D01*
X544625Y421063D01*
X544510Y421643D01*
X544181Y422134D01*
X543690Y422463D01*
X543110Y422578D01*
D02*
G37*
G36*
X530905D02*
X530326Y422463D01*
X529834Y422134D01*
X529506Y421643D01*
X529391Y421063D01*
X529506Y420483D01*
X529834Y419992D01*
X529988Y419889D01*
Y417529D01*
X528534D01*
Y412392D01*
X533277D01*
Y417529D01*
X531823D01*
Y419889D01*
X531977Y419992D01*
X532305Y420483D01*
X532420Y421063D01*
X532305Y421643D01*
X531977Y422134D01*
X531485Y422463D01*
X530905Y422578D01*
D02*
G37*
G36*
X518701D02*
X518121Y422463D01*
X517630Y422134D01*
X517301Y421643D01*
X517186Y421063D01*
X517301Y420483D01*
X517630Y419992D01*
X517783Y419889D01*
Y417529D01*
X516329D01*
Y412392D01*
X521072D01*
Y417529D01*
X519618D01*
Y419889D01*
X519772Y419992D01*
X520100Y420483D01*
X520216Y421063D01*
X520100Y421643D01*
X519772Y422134D01*
X519280Y422463D01*
X518701Y422578D01*
D02*
G37*
G36*
X506496D02*
X505916Y422463D01*
X505425Y422134D01*
X505096Y421643D01*
X504981Y421063D01*
X505096Y420483D01*
X505425Y419992D01*
X505578Y419889D01*
Y417529D01*
X504124D01*
Y412392D01*
X508868D01*
Y417529D01*
X507414D01*
Y419889D01*
X507567Y419992D01*
X507896Y420483D01*
X508011Y421063D01*
X507896Y421643D01*
X507567Y422134D01*
X507076Y422463D01*
X506496Y422578D01*
D02*
G37*
G36*
X494291D02*
X493712Y422463D01*
X493220Y422134D01*
X492892Y421643D01*
X492776Y421063D01*
X492892Y420483D01*
X493220Y419992D01*
X493374Y419889D01*
Y417529D01*
X491920D01*
Y412392D01*
X496663D01*
Y417529D01*
X495209D01*
Y419889D01*
X495363Y419992D01*
X495691Y420483D01*
X495806Y421063D01*
X495691Y421643D01*
X495363Y422134D01*
X494871Y422463D01*
X494291Y422578D01*
D02*
G37*
G36*
X482087D02*
X481507Y422463D01*
X481015Y422134D01*
X480687Y421643D01*
X480572Y421063D01*
X480687Y420483D01*
X481015Y419992D01*
X481169Y419889D01*
Y417529D01*
X479715D01*
Y412392D01*
X484458D01*
Y417529D01*
X483004D01*
Y419889D01*
X483158Y419992D01*
X483486Y420483D01*
X483602Y421063D01*
X483486Y421643D01*
X483158Y422134D01*
X482666Y422463D01*
X482087Y422578D01*
D02*
G37*
G36*
X469882D02*
X469302Y422463D01*
X468811Y422134D01*
X468482Y421643D01*
X468367Y421063D01*
X468482Y420483D01*
X468811Y419992D01*
X468964Y419889D01*
Y417529D01*
X467510D01*
Y412392D01*
X472254D01*
Y417529D01*
X470799D01*
Y419889D01*
X470953Y419992D01*
X471281Y420483D01*
X471397Y421063D01*
X471281Y421643D01*
X470953Y422134D01*
X470462Y422463D01*
X469882Y422578D01*
D02*
G37*
G36*
X457677D02*
X457097Y422463D01*
X456606Y422134D01*
X456278Y421643D01*
X456162Y421063D01*
X456278Y420483D01*
X456606Y419992D01*
X456760Y419889D01*
Y417529D01*
X455305D01*
Y412392D01*
X460049D01*
Y417529D01*
X458595D01*
Y419889D01*
X458748Y419992D01*
X459077Y420483D01*
X459192Y421063D01*
X459077Y421643D01*
X458748Y422134D01*
X458257Y422463D01*
X457677Y422578D01*
D02*
G37*
G36*
X445472D02*
X444893Y422463D01*
X444401Y422134D01*
X444073Y421643D01*
X443958Y421063D01*
X444073Y420483D01*
X444401Y419992D01*
X444555Y419889D01*
Y417529D01*
X443101D01*
Y412392D01*
X447844D01*
Y417529D01*
X446390D01*
Y419889D01*
X446544Y419992D01*
X446872Y420483D01*
X446987Y421063D01*
X446872Y421643D01*
X446544Y422134D01*
X446052Y422463D01*
X445472Y422578D01*
D02*
G37*
G36*
X433268D02*
X432688Y422463D01*
X432197Y422134D01*
X431868Y421643D01*
X431753Y421063D01*
X431868Y420483D01*
X432197Y419992D01*
X432350Y419889D01*
Y417529D01*
X430896D01*
Y412392D01*
X435639D01*
Y417529D01*
X434185D01*
Y419889D01*
X434339Y419992D01*
X434667Y420483D01*
X434783Y421063D01*
X434667Y421643D01*
X434339Y422134D01*
X433848Y422463D01*
X433268Y422578D01*
D02*
G37*
G36*
X421063D02*
X420483Y422463D01*
X419992Y422134D01*
X419663Y421643D01*
X419548Y421063D01*
X419663Y420483D01*
X419992Y419992D01*
X420145Y419889D01*
Y417529D01*
X418691D01*
Y412392D01*
X423435D01*
Y417529D01*
X421981D01*
Y419889D01*
X422134Y419992D01*
X422463Y420483D01*
X422578Y421063D01*
X422463Y421643D01*
X422134Y422134D01*
X421643Y422463D01*
X421063Y422578D01*
D02*
G37*
G36*
X408858D02*
X408279Y422463D01*
X407787Y422134D01*
X407459Y421643D01*
X407343Y421063D01*
X407459Y420483D01*
X407787Y419992D01*
X407941Y419889D01*
Y417529D01*
X406487D01*
Y412392D01*
X411230D01*
Y417529D01*
X409776D01*
Y419889D01*
X409930Y419992D01*
X410258Y420483D01*
X410373Y421063D01*
X410258Y421643D01*
X409930Y422134D01*
X409438Y422463D01*
X408858Y422578D01*
D02*
G37*
G36*
X396654D02*
X396074Y422463D01*
X395582Y422134D01*
X395254Y421643D01*
X395139Y421063D01*
X395254Y420483D01*
X395582Y419992D01*
X395736Y419889D01*
Y417529D01*
X394282D01*
Y412392D01*
X399025D01*
Y417529D01*
X397571D01*
Y419889D01*
X397725Y419992D01*
X398053Y420483D01*
X398168Y421063D01*
X398053Y421643D01*
X397725Y422134D01*
X397233Y422463D01*
X396654Y422578D01*
D02*
G37*
G36*
X384449D02*
X383869Y422463D01*
X383378Y422134D01*
X383049Y421643D01*
X382934Y421063D01*
X383049Y420483D01*
X383378Y419992D01*
X383531Y419889D01*
Y417529D01*
X382077D01*
Y412392D01*
X386821D01*
Y417529D01*
X385366D01*
Y419889D01*
X385520Y419992D01*
X385848Y420483D01*
X385964Y421063D01*
X385848Y421643D01*
X385520Y422134D01*
X385029Y422463D01*
X384449Y422578D01*
D02*
G37*
G36*
X372244D02*
X371664Y422463D01*
X371173Y422134D01*
X370845Y421643D01*
X370729Y421063D01*
X370845Y420483D01*
X371173Y419992D01*
X371326Y419889D01*
Y417529D01*
X369872D01*
Y412392D01*
X374616D01*
Y417529D01*
X373162D01*
Y419889D01*
X373315Y419992D01*
X373644Y420483D01*
X373759Y421063D01*
X373644Y421643D01*
X373315Y422134D01*
X372824Y422463D01*
X372244Y422578D01*
D02*
G37*
G36*
X360039D02*
X359460Y422463D01*
X358968Y422134D01*
X358640Y421643D01*
X358524Y421063D01*
X358640Y420483D01*
X358968Y419992D01*
X359122Y419889D01*
Y417529D01*
X357668D01*
Y412392D01*
X362411D01*
Y417529D01*
X360957D01*
Y419889D01*
X361111Y419992D01*
X361439Y420483D01*
X361554Y421063D01*
X361439Y421643D01*
X361111Y422134D01*
X360619Y422463D01*
X360039Y422578D01*
D02*
G37*
G36*
X543110Y410373D02*
X542530Y410258D01*
X542039Y409930D01*
X541711Y409438D01*
X541595Y408858D01*
X541711Y408279D01*
X542039Y407787D01*
X542193Y407684D01*
Y405324D01*
X540739D01*
Y400187D01*
X545482D01*
Y405324D01*
X544028D01*
Y407684D01*
X544181Y407787D01*
X544510Y408279D01*
X544625Y408858D01*
X544510Y409438D01*
X544181Y409930D01*
X543690Y410258D01*
X543110Y410373D01*
D02*
G37*
G36*
X530905D02*
X530326Y410258D01*
X529834Y409930D01*
X529506Y409438D01*
X529391Y408858D01*
X529506Y408279D01*
X529834Y407787D01*
X529988Y407684D01*
Y405324D01*
X528534D01*
Y400187D01*
X533277D01*
Y405324D01*
X531823D01*
Y407684D01*
X531977Y407787D01*
X532305Y408279D01*
X532420Y408858D01*
X532305Y409438D01*
X531977Y409930D01*
X531485Y410258D01*
X530905Y410373D01*
D02*
G37*
G36*
X518701D02*
X518121Y410258D01*
X517630Y409930D01*
X517301Y409438D01*
X517186Y408858D01*
X517301Y408279D01*
X517630Y407787D01*
X517783Y407684D01*
Y405324D01*
X516329D01*
Y400187D01*
X521072D01*
Y405324D01*
X519618D01*
Y407684D01*
X519772Y407787D01*
X520100Y408279D01*
X520216Y408858D01*
X520100Y409438D01*
X519772Y409930D01*
X519280Y410258D01*
X518701Y410373D01*
D02*
G37*
G36*
X506496D02*
X505916Y410258D01*
X505425Y409930D01*
X505096Y409438D01*
X504981Y408858D01*
X505096Y408279D01*
X505425Y407787D01*
X505578Y407684D01*
Y405324D01*
X504124D01*
Y400187D01*
X508868D01*
Y405324D01*
X507414D01*
Y407684D01*
X507567Y407787D01*
X507896Y408279D01*
X508011Y408858D01*
X507896Y409438D01*
X507567Y409930D01*
X507076Y410258D01*
X506496Y410373D01*
D02*
G37*
G36*
X494291D02*
X493712Y410258D01*
X493220Y409930D01*
X492892Y409438D01*
X492776Y408858D01*
X492892Y408279D01*
X493220Y407787D01*
X493374Y407684D01*
Y405324D01*
X491920D01*
Y400187D01*
X496663D01*
Y405324D01*
X495209D01*
Y407684D01*
X495363Y407787D01*
X495691Y408279D01*
X495806Y408858D01*
X495691Y409438D01*
X495363Y409930D01*
X494871Y410258D01*
X494291Y410373D01*
D02*
G37*
G36*
X482087D02*
X481507Y410258D01*
X481015Y409930D01*
X480687Y409438D01*
X480572Y408858D01*
X480687Y408279D01*
X481015Y407787D01*
X481169Y407684D01*
Y405324D01*
X479715D01*
Y400187D01*
X484458D01*
Y405324D01*
X483004D01*
Y407684D01*
X483158Y407787D01*
X483486Y408279D01*
X483602Y408858D01*
X483486Y409438D01*
X483158Y409930D01*
X482666Y410258D01*
X482087Y410373D01*
D02*
G37*
G36*
X469882D02*
X469302Y410258D01*
X468811Y409930D01*
X468482Y409438D01*
X468367Y408858D01*
X468482Y408279D01*
X468811Y407787D01*
X468964Y407684D01*
Y405324D01*
X467510D01*
Y400187D01*
X472254D01*
Y405324D01*
X470799D01*
Y407684D01*
X470953Y407787D01*
X471281Y408279D01*
X471397Y408858D01*
X471281Y409438D01*
X470953Y409930D01*
X470462Y410258D01*
X469882Y410373D01*
D02*
G37*
G36*
X457677D02*
X457097Y410258D01*
X456606Y409930D01*
X456278Y409438D01*
X456162Y408858D01*
X456278Y408279D01*
X456606Y407787D01*
X456760Y407684D01*
Y405324D01*
X455305D01*
Y400187D01*
X460049D01*
Y405324D01*
X458595D01*
Y407684D01*
X458748Y407787D01*
X459077Y408279D01*
X459192Y408858D01*
X459077Y409438D01*
X458748Y409930D01*
X458257Y410258D01*
X457677Y410373D01*
D02*
G37*
G36*
X445472D02*
X444893Y410258D01*
X444401Y409930D01*
X444073Y409438D01*
X443958Y408858D01*
X444073Y408279D01*
X444401Y407787D01*
X444555Y407684D01*
Y405324D01*
X443101D01*
Y400187D01*
X447844D01*
Y405324D01*
X446390D01*
Y407684D01*
X446544Y407787D01*
X446872Y408279D01*
X446987Y408858D01*
X446872Y409438D01*
X446544Y409930D01*
X446052Y410258D01*
X445472Y410373D01*
D02*
G37*
G36*
X433268D02*
X432688Y410258D01*
X432197Y409930D01*
X431868Y409438D01*
X431753Y408858D01*
X431868Y408279D01*
X432197Y407787D01*
X432350Y407684D01*
Y405324D01*
X430896D01*
Y400187D01*
X435639D01*
Y405324D01*
X434185D01*
Y407684D01*
X434339Y407787D01*
X434667Y408279D01*
X434783Y408858D01*
X434667Y409438D01*
X434339Y409930D01*
X433848Y410258D01*
X433268Y410373D01*
D02*
G37*
G36*
X421063D02*
X420483Y410258D01*
X419992Y409930D01*
X419663Y409438D01*
X419548Y408858D01*
X419663Y408279D01*
X419992Y407787D01*
X420145Y407684D01*
Y405324D01*
X418691D01*
Y400187D01*
X423435D01*
Y405324D01*
X421981D01*
Y407684D01*
X422134Y407787D01*
X422463Y408279D01*
X422578Y408858D01*
X422463Y409438D01*
X422134Y409930D01*
X421643Y410258D01*
X421063Y410373D01*
D02*
G37*
G36*
X408858D02*
X408279Y410258D01*
X407787Y409930D01*
X407459Y409438D01*
X407343Y408858D01*
X407459Y408279D01*
X407787Y407787D01*
X407941Y407684D01*
Y405324D01*
X406487D01*
Y400187D01*
X411230D01*
Y405324D01*
X409776D01*
Y407684D01*
X409930Y407787D01*
X410258Y408279D01*
X410373Y408858D01*
X410258Y409438D01*
X409930Y409930D01*
X409438Y410258D01*
X408858Y410373D01*
D02*
G37*
G36*
X396654D02*
X396074Y410258D01*
X395582Y409930D01*
X395254Y409438D01*
X395139Y408858D01*
X395254Y408279D01*
X395582Y407787D01*
X395736Y407684D01*
Y405324D01*
X394282D01*
Y400187D01*
X399025D01*
Y405324D01*
X397571D01*
Y407684D01*
X397725Y407787D01*
X398053Y408279D01*
X398168Y408858D01*
X398053Y409438D01*
X397725Y409930D01*
X397233Y410258D01*
X396654Y410373D01*
D02*
G37*
G36*
X384449D02*
X383869Y410258D01*
X383378Y409930D01*
X383049Y409438D01*
X382934Y408858D01*
X383049Y408279D01*
X383378Y407787D01*
X383531Y407684D01*
Y405324D01*
X382077D01*
Y400187D01*
X386821D01*
Y405324D01*
X385366D01*
Y407684D01*
X385520Y407787D01*
X385848Y408279D01*
X385964Y408858D01*
X385848Y409438D01*
X385520Y409930D01*
X385029Y410258D01*
X384449Y410373D01*
D02*
G37*
G36*
X372244D02*
X371664Y410258D01*
X371173Y409930D01*
X370845Y409438D01*
X370729Y408858D01*
X370845Y408279D01*
X371173Y407787D01*
X371326Y407684D01*
Y405324D01*
X369872D01*
Y400187D01*
X374616D01*
Y405324D01*
X373162D01*
Y407684D01*
X373315Y407787D01*
X373644Y408279D01*
X373759Y408858D01*
X373644Y409438D01*
X373315Y409930D01*
X372824Y410258D01*
X372244Y410373D01*
D02*
G37*
G36*
X360039D02*
X359460Y410258D01*
X358968Y409930D01*
X358640Y409438D01*
X358524Y408858D01*
X358640Y408279D01*
X358968Y407787D01*
X359122Y407684D01*
Y405324D01*
X357668D01*
Y400187D01*
X362411D01*
Y405324D01*
X360957D01*
Y407684D01*
X361111Y407787D01*
X361439Y408279D01*
X361554Y408858D01*
X361439Y409438D01*
X361111Y409930D01*
X360619Y410258D01*
X360039Y410373D01*
D02*
G37*
G36*
X543110Y398168D02*
X542530Y398053D01*
X542039Y397725D01*
X541711Y397233D01*
X541595Y396654D01*
X541711Y396074D01*
X542039Y395582D01*
X542193Y395480D01*
Y393120D01*
X540739D01*
Y387983D01*
X545482D01*
Y393120D01*
X544028D01*
Y395480D01*
X544181Y395582D01*
X544510Y396074D01*
X544625Y396654D01*
X544510Y397233D01*
X544181Y397725D01*
X543690Y398053D01*
X543110Y398168D01*
D02*
G37*
G36*
X530905D02*
X530326Y398053D01*
X529834Y397725D01*
X529506Y397233D01*
X529391Y396654D01*
X529506Y396074D01*
X529834Y395582D01*
X529988Y395480D01*
Y393120D01*
X528534D01*
Y387983D01*
X533277D01*
Y393120D01*
X531823D01*
Y395480D01*
X531977Y395582D01*
X532305Y396074D01*
X532420Y396654D01*
X532305Y397233D01*
X531977Y397725D01*
X531485Y398053D01*
X530905Y398168D01*
D02*
G37*
G36*
X518701D02*
X518121Y398053D01*
X517630Y397725D01*
X517301Y397233D01*
X517186Y396654D01*
X517301Y396074D01*
X517630Y395582D01*
X517783Y395480D01*
Y393120D01*
X516329D01*
Y387983D01*
X521072D01*
Y393120D01*
X519618D01*
Y395480D01*
X519772Y395582D01*
X520100Y396074D01*
X520216Y396654D01*
X520100Y397233D01*
X519772Y397725D01*
X519280Y398053D01*
X518701Y398168D01*
D02*
G37*
G36*
X506496D02*
X505916Y398053D01*
X505425Y397725D01*
X505096Y397233D01*
X504981Y396654D01*
X505096Y396074D01*
X505425Y395582D01*
X505578Y395480D01*
Y393120D01*
X504124D01*
Y387983D01*
X508868D01*
Y393120D01*
X507414D01*
Y395480D01*
X507567Y395582D01*
X507896Y396074D01*
X508011Y396654D01*
X507896Y397233D01*
X507567Y397725D01*
X507076Y398053D01*
X506496Y398168D01*
D02*
G37*
G36*
X494291D02*
X493712Y398053D01*
X493220Y397725D01*
X492892Y397233D01*
X492776Y396654D01*
X492892Y396074D01*
X493220Y395582D01*
X493374Y395480D01*
Y393120D01*
X491920D01*
Y387983D01*
X496663D01*
Y393120D01*
X495209D01*
Y395480D01*
X495363Y395582D01*
X495691Y396074D01*
X495806Y396654D01*
X495691Y397233D01*
X495363Y397725D01*
X494871Y398053D01*
X494291Y398168D01*
D02*
G37*
G36*
X482087D02*
X481507Y398053D01*
X481015Y397725D01*
X480687Y397233D01*
X480572Y396654D01*
X480687Y396074D01*
X481015Y395582D01*
X481169Y395480D01*
Y393120D01*
X479715D01*
Y387983D01*
X484458D01*
Y393120D01*
X483004D01*
Y395480D01*
X483158Y395582D01*
X483486Y396074D01*
X483602Y396654D01*
X483486Y397233D01*
X483158Y397725D01*
X482666Y398053D01*
X482087Y398168D01*
D02*
G37*
G36*
X469882D02*
X469302Y398053D01*
X468811Y397725D01*
X468482Y397233D01*
X468367Y396654D01*
X468482Y396074D01*
X468811Y395582D01*
X468964Y395480D01*
Y393120D01*
X467510D01*
Y387983D01*
X472254D01*
Y393120D01*
X470799D01*
Y395480D01*
X470953Y395582D01*
X471281Y396074D01*
X471397Y396654D01*
X471281Y397233D01*
X470953Y397725D01*
X470462Y398053D01*
X469882Y398168D01*
D02*
G37*
G36*
X457677D02*
X457097Y398053D01*
X456606Y397725D01*
X456278Y397233D01*
X456162Y396654D01*
X456278Y396074D01*
X456606Y395582D01*
X456760Y395480D01*
Y393120D01*
X455305D01*
Y387983D01*
X460049D01*
Y393120D01*
X458595D01*
Y395480D01*
X458748Y395582D01*
X459077Y396074D01*
X459192Y396654D01*
X459077Y397233D01*
X458748Y397725D01*
X458257Y398053D01*
X457677Y398168D01*
D02*
G37*
G36*
X445472D02*
X444893Y398053D01*
X444401Y397725D01*
X444073Y397233D01*
X443958Y396654D01*
X444073Y396074D01*
X444401Y395582D01*
X444555Y395480D01*
Y393120D01*
X443101D01*
Y387983D01*
X447844D01*
Y393120D01*
X446390D01*
Y395480D01*
X446544Y395582D01*
X446872Y396074D01*
X446987Y396654D01*
X446872Y397233D01*
X446544Y397725D01*
X446052Y398053D01*
X445472Y398168D01*
D02*
G37*
G36*
X433268D02*
X432688Y398053D01*
X432197Y397725D01*
X431868Y397233D01*
X431753Y396654D01*
X431868Y396074D01*
X432197Y395582D01*
X432350Y395480D01*
Y393120D01*
X430896D01*
Y387983D01*
X435639D01*
Y393120D01*
X434185D01*
Y395480D01*
X434339Y395582D01*
X434667Y396074D01*
X434783Y396654D01*
X434667Y397233D01*
X434339Y397725D01*
X433848Y398053D01*
X433268Y398168D01*
D02*
G37*
G36*
X421063D02*
X420483Y398053D01*
X419992Y397725D01*
X419663Y397233D01*
X419548Y396654D01*
X419663Y396074D01*
X419992Y395582D01*
X420145Y395480D01*
Y393120D01*
X418691D01*
Y387983D01*
X423435D01*
Y393120D01*
X421981D01*
Y395480D01*
X422134Y395582D01*
X422463Y396074D01*
X422578Y396654D01*
X422463Y397233D01*
X422134Y397725D01*
X421643Y398053D01*
X421063Y398168D01*
D02*
G37*
G36*
X408858D02*
X408279Y398053D01*
X407787Y397725D01*
X407459Y397233D01*
X407343Y396654D01*
X407459Y396074D01*
X407787Y395582D01*
X407941Y395480D01*
Y393120D01*
X406487D01*
Y387983D01*
X411230D01*
Y393120D01*
X409776D01*
Y395480D01*
X409930Y395582D01*
X410258Y396074D01*
X410373Y396654D01*
X410258Y397233D01*
X409930Y397725D01*
X409438Y398053D01*
X408858Y398168D01*
D02*
G37*
G36*
X396654D02*
X396074Y398053D01*
X395582Y397725D01*
X395254Y397233D01*
X395139Y396654D01*
X395254Y396074D01*
X395582Y395582D01*
X395736Y395480D01*
Y393120D01*
X394282D01*
Y387983D01*
X399025D01*
Y393120D01*
X397571D01*
Y395480D01*
X397725Y395582D01*
X398053Y396074D01*
X398168Y396654D01*
X398053Y397233D01*
X397725Y397725D01*
X397233Y398053D01*
X396654Y398168D01*
D02*
G37*
G36*
X384449D02*
X383869Y398053D01*
X383378Y397725D01*
X383049Y397233D01*
X382934Y396654D01*
X383049Y396074D01*
X383378Y395582D01*
X383531Y395480D01*
Y393120D01*
X382077D01*
Y387983D01*
X386821D01*
Y393120D01*
X385366D01*
Y395480D01*
X385520Y395582D01*
X385848Y396074D01*
X385964Y396654D01*
X385848Y397233D01*
X385520Y397725D01*
X385029Y398053D01*
X384449Y398168D01*
D02*
G37*
G36*
X372244D02*
X371664Y398053D01*
X371173Y397725D01*
X370845Y397233D01*
X370729Y396654D01*
X370845Y396074D01*
X371173Y395582D01*
X371326Y395480D01*
Y393120D01*
X369872D01*
Y387983D01*
X374616D01*
Y393120D01*
X373162D01*
Y395480D01*
X373315Y395582D01*
X373644Y396074D01*
X373759Y396654D01*
X373644Y397233D01*
X373315Y397725D01*
X372824Y398053D01*
X372244Y398168D01*
D02*
G37*
G36*
X360039D02*
X359460Y398053D01*
X358968Y397725D01*
X358640Y397233D01*
X358524Y396654D01*
X358640Y396074D01*
X358968Y395582D01*
X359122Y395480D01*
Y393120D01*
X357668D01*
Y387983D01*
X362411D01*
Y393120D01*
X360957D01*
Y395480D01*
X361111Y395582D01*
X361439Y396074D01*
X361554Y396654D01*
X361439Y397233D01*
X361111Y397725D01*
X360619Y398053D01*
X360039Y398168D01*
D02*
G37*
G36*
X543110Y385964D02*
X542530Y385848D01*
X542039Y385520D01*
X541711Y385029D01*
X541595Y384449D01*
X541711Y383869D01*
X542039Y383378D01*
X542193Y383275D01*
Y380915D01*
X540739D01*
Y375778D01*
X545482D01*
Y380915D01*
X544028D01*
Y383275D01*
X544181Y383378D01*
X544510Y383869D01*
X544625Y384449D01*
X544510Y385029D01*
X544181Y385520D01*
X543690Y385848D01*
X543110Y385964D01*
D02*
G37*
G36*
X530905D02*
X530326Y385848D01*
X529834Y385520D01*
X529506Y385029D01*
X529391Y384449D01*
X529506Y383869D01*
X529834Y383378D01*
X529988Y383275D01*
Y380915D01*
X528534D01*
Y375778D01*
X533277D01*
Y380915D01*
X531823D01*
Y383275D01*
X531977Y383378D01*
X532305Y383869D01*
X532420Y384449D01*
X532305Y385029D01*
X531977Y385520D01*
X531485Y385848D01*
X530905Y385964D01*
D02*
G37*
G36*
X518701D02*
X518121Y385848D01*
X517630Y385520D01*
X517301Y385029D01*
X517186Y384449D01*
X517301Y383869D01*
X517630Y383378D01*
X517783Y383275D01*
Y380915D01*
X516329D01*
Y375778D01*
X521072D01*
Y380915D01*
X519618D01*
Y383275D01*
X519772Y383378D01*
X520100Y383869D01*
X520216Y384449D01*
X520100Y385029D01*
X519772Y385520D01*
X519280Y385848D01*
X518701Y385964D01*
D02*
G37*
G36*
X506496D02*
X505916Y385848D01*
X505425Y385520D01*
X505096Y385029D01*
X504981Y384449D01*
X505096Y383869D01*
X505425Y383378D01*
X505578Y383275D01*
Y380915D01*
X504124D01*
Y375778D01*
X508868D01*
Y380915D01*
X507414D01*
Y383275D01*
X507567Y383378D01*
X507896Y383869D01*
X508011Y384449D01*
X507896Y385029D01*
X507567Y385520D01*
X507076Y385848D01*
X506496Y385964D01*
D02*
G37*
G36*
X494291D02*
X493712Y385848D01*
X493220Y385520D01*
X492892Y385029D01*
X492776Y384449D01*
X492892Y383869D01*
X493220Y383378D01*
X493374Y383275D01*
Y380915D01*
X491920D01*
Y375778D01*
X496663D01*
Y380915D01*
X495209D01*
Y383275D01*
X495363Y383378D01*
X495691Y383869D01*
X495806Y384449D01*
X495691Y385029D01*
X495363Y385520D01*
X494871Y385848D01*
X494291Y385964D01*
D02*
G37*
G36*
X482087D02*
X481507Y385848D01*
X481015Y385520D01*
X480687Y385029D01*
X480572Y384449D01*
X480687Y383869D01*
X481015Y383378D01*
X481169Y383275D01*
Y380915D01*
X479715D01*
Y375778D01*
X484458D01*
Y380915D01*
X483004D01*
Y383275D01*
X483158Y383378D01*
X483486Y383869D01*
X483602Y384449D01*
X483486Y385029D01*
X483158Y385520D01*
X482666Y385848D01*
X482087Y385964D01*
D02*
G37*
G36*
X469882D02*
X469302Y385848D01*
X468811Y385520D01*
X468482Y385029D01*
X468367Y384449D01*
X468482Y383869D01*
X468811Y383378D01*
X468964Y383275D01*
Y380915D01*
X467510D01*
Y375778D01*
X472254D01*
Y380915D01*
X470799D01*
Y383275D01*
X470953Y383378D01*
X471281Y383869D01*
X471397Y384449D01*
X471281Y385029D01*
X470953Y385520D01*
X470462Y385848D01*
X469882Y385964D01*
D02*
G37*
G36*
X457677D02*
X457097Y385848D01*
X456606Y385520D01*
X456278Y385029D01*
X456162Y384449D01*
X456278Y383869D01*
X456606Y383378D01*
X456760Y383275D01*
Y380915D01*
X455305D01*
Y375778D01*
X460049D01*
Y380915D01*
X458595D01*
Y383275D01*
X458748Y383378D01*
X459077Y383869D01*
X459192Y384449D01*
X459077Y385029D01*
X458748Y385520D01*
X458257Y385848D01*
X457677Y385964D01*
D02*
G37*
G36*
X445472D02*
X444893Y385848D01*
X444401Y385520D01*
X444073Y385029D01*
X443958Y384449D01*
X444073Y383869D01*
X444401Y383378D01*
X444555Y383275D01*
Y380915D01*
X443101D01*
Y375778D01*
X447844D01*
Y380915D01*
X446390D01*
Y383275D01*
X446544Y383378D01*
X446872Y383869D01*
X446987Y384449D01*
X446872Y385029D01*
X446544Y385520D01*
X446052Y385848D01*
X445472Y385964D01*
D02*
G37*
G36*
X433268D02*
X432688Y385848D01*
X432197Y385520D01*
X431868Y385029D01*
X431753Y384449D01*
X431868Y383869D01*
X432197Y383378D01*
X432350Y383275D01*
Y380915D01*
X430896D01*
Y375778D01*
X435639D01*
Y380915D01*
X434185D01*
Y383275D01*
X434339Y383378D01*
X434667Y383869D01*
X434783Y384449D01*
X434667Y385029D01*
X434339Y385520D01*
X433848Y385848D01*
X433268Y385964D01*
D02*
G37*
G36*
X421063D02*
X420483Y385848D01*
X419992Y385520D01*
X419663Y385029D01*
X419548Y384449D01*
X419663Y383869D01*
X419992Y383378D01*
X420145Y383275D01*
Y380915D01*
X418691D01*
Y375778D01*
X423435D01*
Y380915D01*
X421981D01*
Y383275D01*
X422134Y383378D01*
X422463Y383869D01*
X422578Y384449D01*
X422463Y385029D01*
X422134Y385520D01*
X421643Y385848D01*
X421063Y385964D01*
D02*
G37*
G36*
X408858D02*
X408279Y385848D01*
X407787Y385520D01*
X407459Y385029D01*
X407343Y384449D01*
X407459Y383869D01*
X407787Y383378D01*
X407941Y383275D01*
Y380915D01*
X406487D01*
Y375778D01*
X411230D01*
Y380915D01*
X409776D01*
Y383275D01*
X409930Y383378D01*
X410258Y383869D01*
X410373Y384449D01*
X410258Y385029D01*
X409930Y385520D01*
X409438Y385848D01*
X408858Y385964D01*
D02*
G37*
G36*
X396654D02*
X396074Y385848D01*
X395582Y385520D01*
X395254Y385029D01*
X395139Y384449D01*
X395254Y383869D01*
X395582Y383378D01*
X395736Y383275D01*
Y380915D01*
X394282D01*
Y375778D01*
X399025D01*
Y380915D01*
X397571D01*
Y383275D01*
X397725Y383378D01*
X398053Y383869D01*
X398168Y384449D01*
X398053Y385029D01*
X397725Y385520D01*
X397233Y385848D01*
X396654Y385964D01*
D02*
G37*
G36*
X384449D02*
X383869Y385848D01*
X383378Y385520D01*
X383049Y385029D01*
X382934Y384449D01*
X383049Y383869D01*
X383378Y383378D01*
X383531Y383275D01*
Y380915D01*
X382077D01*
Y375778D01*
X386821D01*
Y380915D01*
X385366D01*
Y383275D01*
X385520Y383378D01*
X385848Y383869D01*
X385964Y384449D01*
X385848Y385029D01*
X385520Y385520D01*
X385029Y385848D01*
X384449Y385964D01*
D02*
G37*
G36*
X372244D02*
X371664Y385848D01*
X371173Y385520D01*
X370845Y385029D01*
X370729Y384449D01*
X370845Y383869D01*
X371173Y383378D01*
X371326Y383275D01*
Y380915D01*
X369872D01*
Y375778D01*
X374616D01*
Y380915D01*
X373162D01*
Y383275D01*
X373315Y383378D01*
X373644Y383869D01*
X373759Y384449D01*
X373644Y385029D01*
X373315Y385520D01*
X372824Y385848D01*
X372244Y385964D01*
D02*
G37*
G36*
X360039D02*
X359460Y385848D01*
X358968Y385520D01*
X358640Y385029D01*
X358524Y384449D01*
X358640Y383869D01*
X358968Y383378D01*
X359122Y383275D01*
Y380915D01*
X357668D01*
Y375778D01*
X362411D01*
Y380915D01*
X360957D01*
Y383275D01*
X361111Y383378D01*
X361439Y383869D01*
X361554Y384449D01*
X361439Y385029D01*
X361111Y385520D01*
X360619Y385848D01*
X360039Y385964D01*
D02*
G37*
G36*
X530905Y373759D02*
X530326Y373644D01*
X529834Y373315D01*
X529506Y372824D01*
X529391Y372244D01*
X529506Y371664D01*
X529834Y371173D01*
X529988Y371070D01*
Y368710D01*
X528534D01*
Y363573D01*
X533277D01*
Y368710D01*
X531823D01*
Y371070D01*
X531977Y371173D01*
X532305Y371664D01*
X532420Y372244D01*
X532305Y372824D01*
X531977Y373315D01*
X531485Y373644D01*
X530905Y373759D01*
D02*
G37*
G36*
X524803Y456684D02*
X524223Y456569D01*
X523732Y456241D01*
X523404Y455749D01*
X523288Y455169D01*
X523293Y455143D01*
X522591Y454143D01*
X522432D01*
Y449006D01*
X523885D01*
Y441939D01*
X522432D01*
Y436802D01*
X523885D01*
Y429734D01*
X522432D01*
Y424597D01*
X523885D01*
Y417529D01*
X522432D01*
Y412392D01*
X523885D01*
Y405324D01*
X522432D01*
Y400187D01*
X523885D01*
Y393120D01*
X522432D01*
Y387983D01*
X523885D01*
Y380915D01*
X522432D01*
Y375778D01*
X523885D01*
Y368710D01*
X522432D01*
Y363573D01*
X527175D01*
Y368710D01*
X525721D01*
Y375778D01*
X527175D01*
Y380915D01*
X525721D01*
Y387983D01*
X527175D01*
Y393120D01*
X525721D01*
Y400187D01*
X527175D01*
Y405324D01*
X525721D01*
Y412392D01*
X527175D01*
Y417529D01*
X525721D01*
Y424597D01*
X527175D01*
Y429734D01*
X525721D01*
Y436802D01*
X527175D01*
Y441939D01*
X525721D01*
Y449006D01*
X527175D01*
Y454143D01*
X527016D01*
X526313Y455143D01*
X526318Y455169D01*
X526203Y455749D01*
X525874Y456241D01*
X525383Y456569D01*
X524803Y456684D01*
D02*
G37*
G36*
X518701Y373759D02*
X518121Y373644D01*
X517630Y373315D01*
X517301Y372824D01*
X517186Y372244D01*
X517301Y371664D01*
X517630Y371173D01*
X517783Y371070D01*
Y368710D01*
X516329D01*
Y363573D01*
X521072D01*
Y368710D01*
X519618D01*
Y371070D01*
X519772Y371173D01*
X520100Y371664D01*
X520216Y372244D01*
X520100Y372824D01*
X519772Y373315D01*
X519280Y373644D01*
X518701Y373759D01*
D02*
G37*
G36*
X514970Y454143D02*
X510227D01*
Y449006D01*
X510386D01*
X511089Y448006D01*
X511084Y447980D01*
X511199Y447401D01*
X511527Y446909D01*
X511681Y446806D01*
Y441939D01*
X510227D01*
Y436802D01*
X511681D01*
Y429734D01*
X510227D01*
Y424597D01*
X511681D01*
Y417529D01*
X510227D01*
Y412392D01*
X511681D01*
Y405324D01*
X510227D01*
Y400187D01*
X511681D01*
Y393120D01*
X510227D01*
Y387983D01*
X511681D01*
Y380915D01*
X510227D01*
Y375778D01*
X511681D01*
Y368710D01*
X510227D01*
Y363573D01*
X514970D01*
Y368710D01*
X513516D01*
Y375778D01*
X514970D01*
Y380915D01*
X513516D01*
Y387983D01*
X514970D01*
Y393120D01*
X513516D01*
Y400187D01*
X514970D01*
Y405324D01*
X513516D01*
Y412392D01*
X514970D01*
Y417529D01*
X513516D01*
Y424597D01*
X514970D01*
Y429734D01*
X513516D01*
Y436802D01*
X514970D01*
Y441939D01*
X513516D01*
Y446806D01*
X513670Y446909D01*
X513998Y447401D01*
X514113Y447980D01*
X514108Y448006D01*
X514811Y449006D01*
X514970D01*
Y454143D01*
D02*
G37*
G36*
X506496Y373759D02*
X505916Y373644D01*
X505425Y373315D01*
X505096Y372824D01*
X504981Y372244D01*
X505096Y371664D01*
X505425Y371173D01*
X505578Y371070D01*
Y368710D01*
X504124D01*
Y363573D01*
X508868D01*
Y368710D01*
X507414D01*
Y371070D01*
X507567Y371173D01*
X507896Y371664D01*
X508011Y372244D01*
X507896Y372824D01*
X507567Y373315D01*
X507076Y373644D01*
X506496Y373759D01*
D02*
G37*
G36*
X502765Y454143D02*
X498022D01*
Y449006D01*
X499476D01*
Y444138D01*
X499323Y444036D01*
X498994Y443544D01*
X498879Y442965D01*
X498884Y442939D01*
X498181Y441939D01*
X498022D01*
Y436802D01*
X499476D01*
Y429734D01*
X498022D01*
Y424597D01*
X499476D01*
Y417529D01*
X498022D01*
Y412392D01*
X499476D01*
Y405324D01*
X498022D01*
Y400187D01*
X499476D01*
Y393120D01*
X498022D01*
Y387983D01*
X499476D01*
Y380915D01*
X498022D01*
Y375778D01*
X499476D01*
Y368710D01*
X498022D01*
Y363573D01*
X502765D01*
Y368710D01*
X501311D01*
Y375778D01*
X502765D01*
Y380915D01*
X501311D01*
Y387983D01*
X502765D01*
Y393120D01*
X501311D01*
Y400187D01*
X502765D01*
Y405324D01*
X501311D01*
Y412392D01*
X502765D01*
Y417529D01*
X501311D01*
Y424597D01*
X502765D01*
Y429734D01*
X501311D01*
Y436802D01*
X502765D01*
Y441939D01*
X502606D01*
X501903Y442939D01*
X501909Y442965D01*
X501793Y443544D01*
X501465Y444036D01*
X501311Y444138D01*
Y449006D01*
X502765D01*
Y454143D01*
D02*
G37*
G36*
X494291Y373759D02*
X493712Y373644D01*
X493220Y373315D01*
X492892Y372824D01*
X492776Y372244D01*
X492892Y371664D01*
X493220Y371173D01*
X493374Y371070D01*
Y368710D01*
X491920D01*
Y363573D01*
X496663D01*
Y368710D01*
X495209D01*
Y371070D01*
X495363Y371173D01*
X495691Y371664D01*
X495806Y372244D01*
X495691Y372824D01*
X495363Y373315D01*
X494871Y373644D01*
X494291Y373759D01*
D02*
G37*
G36*
X490561Y454143D02*
X485817D01*
Y449006D01*
X487271D01*
Y441939D01*
X485817D01*
Y436802D01*
X485976D01*
X486679Y435802D01*
X486674Y435776D01*
X486789Y435196D01*
X487118Y434704D01*
X487271Y434602D01*
Y429734D01*
X485817D01*
Y424597D01*
X487271D01*
Y417529D01*
X485817D01*
Y412392D01*
X487271D01*
Y405324D01*
X485817D01*
Y400187D01*
X487271D01*
Y393120D01*
X485817D01*
Y387983D01*
X487271D01*
Y380915D01*
X485817D01*
Y375778D01*
X487271D01*
Y368710D01*
X485817D01*
Y363573D01*
X490561D01*
Y368710D01*
X489107D01*
Y375778D01*
X490561D01*
Y380915D01*
X489107D01*
Y387983D01*
X490561D01*
Y393120D01*
X489107D01*
Y400187D01*
X490561D01*
Y405324D01*
X489107D01*
Y412392D01*
X490561D01*
Y417529D01*
X489107D01*
Y424597D01*
X490561D01*
Y429734D01*
X489107D01*
Y434602D01*
X489260Y434704D01*
X489589Y435196D01*
X489704Y435776D01*
X489699Y435802D01*
X490402Y436802D01*
X490561D01*
Y441939D01*
X489107D01*
Y449006D01*
X490561D01*
Y454143D01*
D02*
G37*
G36*
X482087Y373759D02*
X481507Y373644D01*
X481015Y373315D01*
X480687Y372824D01*
X480572Y372244D01*
X480687Y371664D01*
X481015Y371173D01*
X481169Y371070D01*
Y368710D01*
X479715D01*
Y363573D01*
X484458D01*
Y368710D01*
X483004D01*
Y371070D01*
X483158Y371173D01*
X483486Y371664D01*
X483602Y372244D01*
X483486Y372824D01*
X483158Y373315D01*
X482666Y373644D01*
X482087Y373759D01*
D02*
G37*
G36*
X478356Y454143D02*
X473613D01*
Y449006D01*
X475067D01*
Y441939D01*
X473613D01*
Y436802D01*
X475067D01*
Y431934D01*
X474913Y431831D01*
X474585Y431340D01*
X474469Y430760D01*
X474474Y430734D01*
X473772Y429734D01*
X473613D01*
Y424597D01*
X475067D01*
Y417529D01*
X473613D01*
Y412392D01*
X475067D01*
Y405324D01*
X473613D01*
Y400187D01*
X475067D01*
Y393120D01*
X473613D01*
Y387983D01*
X475067D01*
Y380915D01*
X473613D01*
Y375778D01*
X475067D01*
Y368710D01*
X473613D01*
Y363573D01*
X478356D01*
Y368710D01*
X476902D01*
Y375778D01*
X478356D01*
Y380915D01*
X476902D01*
Y387983D01*
X478356D01*
Y393120D01*
X476902D01*
Y400187D01*
X478356D01*
Y405324D01*
X476902D01*
Y412392D01*
X478356D01*
Y417529D01*
X476902D01*
Y424597D01*
X478356D01*
Y429734D01*
X478197D01*
X477494Y430734D01*
X477499Y430760D01*
X477384Y431340D01*
X477056Y431831D01*
X476902Y431934D01*
Y436802D01*
X478356D01*
Y441939D01*
X476902D01*
Y449006D01*
X478356D01*
Y454143D01*
D02*
G37*
G36*
X469882Y373759D02*
X469302Y373644D01*
X468811Y373315D01*
X468482Y372824D01*
X468367Y372244D01*
X468482Y371664D01*
X468811Y371173D01*
X468964Y371070D01*
Y368710D01*
X467510D01*
Y363573D01*
X472254D01*
Y368710D01*
X470799D01*
Y371070D01*
X470953Y371173D01*
X471281Y371664D01*
X471397Y372244D01*
X471281Y372824D01*
X470953Y373315D01*
X470462Y373644D01*
X469882Y373759D01*
D02*
G37*
G36*
X466151Y454143D02*
X461408D01*
Y449006D01*
X462862D01*
Y441939D01*
X461408D01*
Y436802D01*
X462862D01*
Y429734D01*
X461408D01*
Y424597D01*
X461567D01*
X462270Y423597D01*
X462265Y423571D01*
X462380Y422991D01*
X462708Y422500D01*
X462862Y422397D01*
Y417529D01*
X461408D01*
Y412392D01*
X462862D01*
Y405324D01*
X461408D01*
Y400187D01*
X462862D01*
Y393120D01*
X461408D01*
Y387983D01*
X462862D01*
Y380915D01*
X461408D01*
Y375778D01*
X462862D01*
Y368710D01*
X461408D01*
Y363573D01*
X466151D01*
Y368710D01*
X464697D01*
Y375778D01*
X466151D01*
Y380915D01*
X464697D01*
Y387983D01*
X466151D01*
Y393120D01*
X464697D01*
Y400187D01*
X466151D01*
Y405324D01*
X464697D01*
Y412392D01*
X466151D01*
Y417529D01*
X464697D01*
Y422397D01*
X464851Y422500D01*
X465179Y422991D01*
X465295Y423571D01*
X465289Y423597D01*
X465992Y424597D01*
X466151D01*
Y429734D01*
X464697D01*
Y436802D01*
X466151D01*
Y441939D01*
X464697D01*
Y449006D01*
X466151D01*
Y454143D01*
D02*
G37*
G36*
X457677Y373759D02*
X457097Y373644D01*
X456606Y373315D01*
X456278Y372824D01*
X456162Y372244D01*
X456278Y371664D01*
X456606Y371173D01*
X456760Y371070D01*
Y368710D01*
X455305D01*
Y363573D01*
X460049D01*
Y368710D01*
X458595D01*
Y371070D01*
X458748Y371173D01*
X459077Y371664D01*
X459192Y372244D01*
X459077Y372824D01*
X458748Y373315D01*
X458257Y373644D01*
X457677Y373759D01*
D02*
G37*
G36*
X453946Y454143D02*
X449203D01*
Y449006D01*
X450657D01*
Y441939D01*
X449203D01*
Y436802D01*
X450657D01*
Y429734D01*
X449203D01*
Y424597D01*
X450657D01*
Y419729D01*
X450504Y419626D01*
X450175Y419135D01*
X450060Y418555D01*
X450065Y418529D01*
X449362Y417529D01*
X449203D01*
Y412392D01*
X450657D01*
Y405324D01*
X449203D01*
Y400187D01*
X450657D01*
Y393120D01*
X449203D01*
Y387983D01*
X450657D01*
Y380915D01*
X449203D01*
Y375778D01*
X450657D01*
Y368710D01*
X449203D01*
Y363573D01*
X453946D01*
Y368710D01*
X452492D01*
Y375778D01*
X453946D01*
Y380915D01*
X452492D01*
Y387983D01*
X453946D01*
Y393120D01*
X452492D01*
Y400187D01*
X453946D01*
Y405324D01*
X452492D01*
Y412392D01*
X453946D01*
Y417529D01*
X453787D01*
X453085Y418529D01*
X453090Y418555D01*
X452974Y419135D01*
X452646Y419626D01*
X452492Y419729D01*
Y424597D01*
X453946D01*
Y429734D01*
X452492D01*
Y436802D01*
X453946D01*
Y441939D01*
X452492D01*
Y449006D01*
X453946D01*
Y454143D01*
D02*
G37*
G36*
X445472Y373759D02*
X444893Y373644D01*
X444401Y373315D01*
X444073Y372824D01*
X443958Y372244D01*
X444073Y371664D01*
X444401Y371173D01*
X444555Y371070D01*
Y368710D01*
X443101D01*
Y363573D01*
X447844D01*
Y368710D01*
X446390D01*
Y371070D01*
X446544Y371173D01*
X446872Y371664D01*
X446987Y372244D01*
X446872Y372824D01*
X446544Y373315D01*
X446052Y373644D01*
X445472Y373759D01*
D02*
G37*
G36*
X441742Y454143D02*
X436998D01*
Y449006D01*
X438452D01*
Y441939D01*
X436998D01*
Y436802D01*
X438452D01*
Y429734D01*
X436998D01*
Y424597D01*
X438452D01*
Y417529D01*
X436998D01*
Y412392D01*
X437157D01*
X437860Y411392D01*
X437855Y411366D01*
X437970Y410786D01*
X438299Y410295D01*
X438452Y410192D01*
Y405324D01*
X436998D01*
Y400187D01*
X438452D01*
Y393120D01*
X436998D01*
Y387983D01*
X438452D01*
Y380915D01*
X436998D01*
Y375778D01*
X438452D01*
Y368710D01*
X436998D01*
Y363573D01*
X441742D01*
Y368710D01*
X440288D01*
Y375778D01*
X441742D01*
Y380915D01*
X440288D01*
Y387983D01*
X441742D01*
Y393120D01*
X440288D01*
Y400187D01*
X441742D01*
Y405324D01*
X440288D01*
Y410192D01*
X440441Y410295D01*
X440770Y410786D01*
X440885Y411366D01*
X440880Y411392D01*
X441583Y412392D01*
X441742D01*
Y417529D01*
X440288D01*
Y424597D01*
X441742D01*
Y429734D01*
X440288D01*
Y436802D01*
X441742D01*
Y441939D01*
X440288D01*
Y449006D01*
X441742D01*
Y454143D01*
D02*
G37*
G36*
X433268Y373759D02*
X432688Y373644D01*
X432197Y373315D01*
X431868Y372824D01*
X431753Y372244D01*
X431868Y371664D01*
X432197Y371173D01*
X432350Y371070D01*
Y368710D01*
X430896D01*
Y363573D01*
X435639D01*
Y368710D01*
X434185D01*
Y371070D01*
X434339Y371173D01*
X434667Y371664D01*
X434783Y372244D01*
X434667Y372824D01*
X434339Y373315D01*
X433848Y373644D01*
X433268Y373759D01*
D02*
G37*
G36*
X429537Y454143D02*
X424794D01*
Y449006D01*
X426248D01*
Y441939D01*
X424794D01*
Y436802D01*
X426248D01*
Y429734D01*
X424794D01*
Y424597D01*
X426248D01*
Y417529D01*
X424794D01*
Y412392D01*
X426248D01*
Y407524D01*
X426094Y407422D01*
X425766Y406930D01*
X425650Y406350D01*
X425656Y406324D01*
X424953Y405324D01*
X424794D01*
Y400187D01*
X426248D01*
Y393120D01*
X424794D01*
Y387983D01*
X426248D01*
Y380915D01*
X424794D01*
Y375778D01*
X426248D01*
Y368710D01*
X424794D01*
Y363573D01*
X429537D01*
Y368710D01*
X428083D01*
Y375778D01*
X429537D01*
Y380915D01*
X428083D01*
Y387983D01*
X429537D01*
Y393120D01*
X428083D01*
Y400187D01*
X429537D01*
Y405324D01*
X429378D01*
X428675Y406324D01*
X428680Y406350D01*
X428565Y406930D01*
X428237Y407422D01*
X428083Y407524D01*
Y412392D01*
X429537D01*
Y417529D01*
X428083D01*
Y424597D01*
X429537D01*
Y429734D01*
X428083D01*
Y436802D01*
X429537D01*
Y441939D01*
X428083D01*
Y449006D01*
X429537D01*
Y454143D01*
D02*
G37*
G36*
X421063Y373759D02*
X420483Y373644D01*
X419992Y373315D01*
X419663Y372824D01*
X419548Y372244D01*
X419663Y371664D01*
X419992Y371173D01*
X420145Y371070D01*
Y368710D01*
X418691D01*
Y363573D01*
X423435D01*
Y368710D01*
X421981D01*
Y371070D01*
X422134Y371173D01*
X422463Y371664D01*
X422578Y372244D01*
X422463Y372824D01*
X422134Y373315D01*
X421643Y373644D01*
X421063Y373759D01*
D02*
G37*
G36*
X417332Y454143D02*
X412589D01*
Y449006D01*
X414043D01*
Y441939D01*
X412589D01*
Y436802D01*
X414043D01*
Y429734D01*
X412589D01*
Y424597D01*
X414043D01*
Y417529D01*
X412589D01*
Y412392D01*
X414043D01*
Y405324D01*
X412589D01*
Y400187D01*
X412748D01*
X413451Y399187D01*
X413446Y399161D01*
X413561Y398582D01*
X413889Y398090D01*
X414043Y397988D01*
Y393120D01*
X412589D01*
Y387983D01*
X414043D01*
Y380915D01*
X412589D01*
Y375778D01*
X414043D01*
Y368710D01*
X412589D01*
Y363573D01*
X417332D01*
Y368710D01*
X415878D01*
Y375778D01*
X417332D01*
Y380915D01*
X415878D01*
Y387983D01*
X417332D01*
Y393120D01*
X415878D01*
Y397988D01*
X416032Y398090D01*
X416360Y398582D01*
X416476Y399161D01*
X416470Y399187D01*
X417173Y400187D01*
X417332D01*
Y405324D01*
X415878D01*
Y412392D01*
X417332D01*
Y417529D01*
X415878D01*
Y424597D01*
X417332D01*
Y429734D01*
X415878D01*
Y436802D01*
X417332D01*
Y441939D01*
X415878D01*
Y449006D01*
X417332D01*
Y454143D01*
D02*
G37*
G36*
X408858Y373759D02*
X408279Y373644D01*
X407787Y373315D01*
X407459Y372824D01*
X407343Y372244D01*
X407459Y371664D01*
X407787Y371173D01*
X407941Y371070D01*
Y368710D01*
X406487D01*
Y363573D01*
X411230D01*
Y368710D01*
X409776D01*
Y371070D01*
X409930Y371173D01*
X410258Y371664D01*
X410373Y372244D01*
X410258Y372824D01*
X409930Y373315D01*
X409438Y373644D01*
X408858Y373759D01*
D02*
G37*
G36*
X405128Y454143D02*
X400384D01*
Y449006D01*
X401838D01*
Y441939D01*
X400384D01*
Y436802D01*
X401838D01*
Y429734D01*
X400384D01*
Y424597D01*
X401838D01*
Y417529D01*
X400384D01*
Y412392D01*
X401838D01*
Y405324D01*
X400384D01*
Y400187D01*
X401838D01*
Y395320D01*
X401685Y395217D01*
X401356Y394725D01*
X401241Y394146D01*
X401246Y394120D01*
X400543Y393120D01*
X400384D01*
Y387983D01*
X401838D01*
Y380915D01*
X400384D01*
Y375778D01*
X401838D01*
Y368710D01*
X400384D01*
Y363573D01*
X405128D01*
Y368710D01*
X403674D01*
Y375778D01*
X405128D01*
Y380915D01*
X403674D01*
Y387983D01*
X405128D01*
Y393120D01*
X404969D01*
X404266Y394120D01*
X404271Y394146D01*
X404155Y394725D01*
X403827Y395217D01*
X403674Y395320D01*
Y400187D01*
X405128D01*
Y405324D01*
X403674D01*
Y412392D01*
X405128D01*
Y417529D01*
X403674D01*
Y424597D01*
X405128D01*
Y429734D01*
X403674D01*
Y436802D01*
X405128D01*
Y441939D01*
X403674D01*
Y449006D01*
X405128D01*
Y454143D01*
D02*
G37*
G36*
X396654Y373759D02*
X396074Y373644D01*
X395582Y373315D01*
X395254Y372824D01*
X395139Y372244D01*
X395254Y371664D01*
X395582Y371173D01*
X395736Y371070D01*
Y368710D01*
X394282D01*
Y363573D01*
X399025D01*
Y368710D01*
X397571D01*
Y371070D01*
X397725Y371173D01*
X398053Y371664D01*
X398168Y372244D01*
X398053Y372824D01*
X397725Y373315D01*
X397233Y373644D01*
X396654Y373759D01*
D02*
G37*
G36*
X392923Y454143D02*
X388179D01*
Y449006D01*
X389634D01*
Y441939D01*
X388179D01*
Y436802D01*
X389634D01*
Y429734D01*
X388179D01*
Y424597D01*
X389634D01*
Y417529D01*
X388179D01*
Y412392D01*
X389634D01*
Y405324D01*
X388179D01*
Y400187D01*
X389634D01*
Y393120D01*
X388179D01*
Y387983D01*
X388339D01*
X389041Y386983D01*
X389036Y386957D01*
X389152Y386377D01*
X389480Y385886D01*
X389634Y385783D01*
Y380915D01*
X388179D01*
Y375778D01*
X389634D01*
Y368710D01*
X388179D01*
Y363573D01*
X392923D01*
Y368710D01*
X391469D01*
Y375778D01*
X392923D01*
Y380915D01*
X391469D01*
Y385783D01*
X391622Y385886D01*
X391951Y386377D01*
X392066Y386957D01*
X392061Y386983D01*
X392764Y387983D01*
X392923D01*
Y393120D01*
X391469D01*
Y400187D01*
X392923D01*
Y405324D01*
X391469D01*
Y412392D01*
X392923D01*
Y417529D01*
X391469D01*
Y424597D01*
X392923D01*
Y429734D01*
X391469D01*
Y436802D01*
X392923D01*
Y441939D01*
X391469D01*
Y449006D01*
X392923D01*
Y454143D01*
D02*
G37*
G36*
X384449Y373759D02*
X383869Y373644D01*
X383378Y373315D01*
X383049Y372824D01*
X382934Y372244D01*
X383049Y371664D01*
X383378Y371173D01*
X383531Y371070D01*
Y368710D01*
X382077D01*
Y363573D01*
X386821D01*
Y368710D01*
X385366D01*
Y371070D01*
X385520Y371173D01*
X385848Y371664D01*
X385964Y372244D01*
X385848Y372824D01*
X385520Y373315D01*
X385029Y373644D01*
X384449Y373759D01*
D02*
G37*
G36*
X380718Y454143D02*
X375975D01*
Y449006D01*
X377429D01*
Y441939D01*
X375975D01*
Y436802D01*
X377429D01*
Y429734D01*
X375975D01*
Y424597D01*
X377429D01*
Y417529D01*
X375975D01*
Y412392D01*
X377429D01*
Y405324D01*
X375975D01*
Y400187D01*
X377429D01*
Y393120D01*
X375975D01*
Y387983D01*
X377429D01*
Y383115D01*
X377275Y383012D01*
X376947Y382521D01*
X376832Y381941D01*
X376837Y381915D01*
X376134Y380915D01*
X375975D01*
Y375778D01*
X377429D01*
Y368710D01*
X375975D01*
Y363573D01*
X380718D01*
Y368710D01*
X379264D01*
Y375778D01*
X380718D01*
Y380915D01*
X380559D01*
X379856Y381915D01*
X379861Y381941D01*
X379746Y382521D01*
X379418Y383012D01*
X379264Y383115D01*
Y387983D01*
X380718D01*
Y393120D01*
X379264D01*
Y400187D01*
X380718D01*
Y405324D01*
X379264D01*
Y412392D01*
X380718D01*
Y417529D01*
X379264D01*
Y424597D01*
X380718D01*
Y429734D01*
X379264D01*
Y436802D01*
X380718D01*
Y441939D01*
X379264D01*
Y449006D01*
X380718D01*
Y454143D01*
D02*
G37*
G36*
X372244Y373759D02*
X371664Y373644D01*
X371173Y373315D01*
X370845Y372824D01*
X370729Y372244D01*
X370845Y371664D01*
X371173Y371173D01*
X371326Y371070D01*
Y368710D01*
X369872D01*
Y363573D01*
X374616D01*
Y368710D01*
X373162D01*
Y371070D01*
X373315Y371173D01*
X373644Y371664D01*
X373759Y372244D01*
X373644Y372824D01*
X373315Y373315D01*
X372824Y373644D01*
X372244Y373759D01*
D02*
G37*
G36*
X368513Y454143D02*
X363770D01*
Y449006D01*
X365224D01*
Y441939D01*
X363770D01*
Y436802D01*
X365224D01*
Y429734D01*
X363770D01*
Y424597D01*
X365224D01*
Y417529D01*
X363770D01*
Y412392D01*
X365224D01*
Y405324D01*
X363770D01*
Y400187D01*
X365224D01*
Y393120D01*
X363770D01*
Y387983D01*
X365224D01*
Y380915D01*
X363770D01*
Y375778D01*
X363929D01*
X364632Y374778D01*
X364627Y374752D01*
X364742Y374172D01*
X365071Y373681D01*
X365224Y373578D01*
Y368710D01*
X363770D01*
Y363573D01*
X368513D01*
Y368710D01*
X367059D01*
Y373578D01*
X367213Y373681D01*
X367541Y374172D01*
X367657Y374752D01*
X367652Y374778D01*
X368354Y375778D01*
X368513D01*
Y380915D01*
X367059D01*
Y387983D01*
X368513D01*
Y393120D01*
X367059D01*
Y400187D01*
X368513D01*
Y405324D01*
X367059D01*
Y412392D01*
X368513D01*
Y417529D01*
X367059D01*
Y424597D01*
X368513D01*
Y429734D01*
X367059D01*
Y436802D01*
X368513D01*
Y441939D01*
X367059D01*
Y449006D01*
X368513D01*
Y454143D01*
D02*
G37*
G36*
X360039Y373759D02*
X359460Y373644D01*
X358968Y373315D01*
X358640Y372824D01*
X358524Y372244D01*
X358640Y371664D01*
X358968Y371173D01*
X359122Y371070D01*
Y368710D01*
X357668D01*
Y363573D01*
X362411D01*
Y368710D01*
X360957D01*
Y371070D01*
X361111Y371173D01*
X361439Y371664D01*
X361554Y372244D01*
X361439Y372824D01*
X361111Y373315D01*
X360619Y373644D01*
X360039Y373759D01*
D02*
G37*
G36*
X539380Y454143D02*
X534636D01*
Y449006D01*
X536090D01*
Y441939D01*
X534636D01*
Y436802D01*
X536090D01*
Y429734D01*
X534636D01*
Y424597D01*
X536090D01*
Y417529D01*
X534636D01*
Y412392D01*
X536090D01*
Y405324D01*
X534636D01*
Y400187D01*
X536090D01*
Y393120D01*
X534636D01*
Y387983D01*
X536090D01*
Y380915D01*
X534636D01*
Y375778D01*
X536090D01*
Y368710D01*
X534636D01*
Y363573D01*
X534795D01*
X535498Y362573D01*
X535493Y362547D01*
X535608Y361967D01*
X535937Y361476D01*
X536428Y361148D01*
X537008Y361032D01*
X537588Y361148D01*
X538079Y361476D01*
X538408Y361967D01*
X538523Y362547D01*
X538518Y362573D01*
X539220Y363573D01*
X539380D01*
Y368710D01*
X537925D01*
Y375778D01*
X539380D01*
Y380915D01*
X537925D01*
Y387983D01*
X539380D01*
Y393120D01*
X537925D01*
Y400187D01*
X539380D01*
Y405324D01*
X537925D01*
Y412392D01*
X539380D01*
Y417529D01*
X537925D01*
Y424597D01*
X539380D01*
Y429734D01*
X537925D01*
Y436802D01*
X539380D01*
Y441939D01*
X537925D01*
Y449006D01*
X539380D01*
Y454143D01*
D02*
G37*
G36*
X546191Y354355D02*
Y344018D01*
X556527D01*
X556433Y345219D01*
X556034Y346879D01*
X555381Y348456D01*
X554490Y349911D01*
X553381Y351209D01*
X552083Y352317D01*
X550628Y353209D01*
X549051Y353862D01*
X547392Y354260D01*
X546191Y354355D01*
D02*
G37*
G36*
X514000Y346983D02*
X513072Y346861D01*
X512208Y346503D01*
X511466Y345934D01*
X510897Y345192D01*
X510539Y344327D01*
X510417Y343400D01*
X510539Y342473D01*
X510897Y341608D01*
X511466Y340866D01*
X512208Y340297D01*
X513072Y339939D01*
X514000Y339817D01*
X514927Y339939D01*
X515792Y340297D01*
X516534Y340866D01*
X517103Y341608D01*
X517461Y342473D01*
X517583Y343400D01*
X517461Y344327D01*
X517103Y345192D01*
X516534Y345934D01*
X515792Y346503D01*
X514927Y346861D01*
X514000Y346983D01*
D02*
G37*
G36*
X556527Y343018D02*
X546191D01*
Y332681D01*
X547392Y332776D01*
X549051Y333174D01*
X550628Y333827D01*
X552083Y334719D01*
X553381Y335828D01*
X554490Y337125D01*
X555381Y338580D01*
X556034Y340157D01*
X556433Y341817D01*
X556527Y343018D01*
D02*
G37*
G36*
X545191D02*
X534854D01*
X534948Y341817D01*
X535347Y340157D01*
X536000Y338580D01*
X536892Y337125D01*
X538000Y335828D01*
X539298Y334719D01*
X540753Y333827D01*
X542330Y333174D01*
X543989Y332776D01*
X545191Y332681D01*
Y343018D01*
D02*
G37*
G36*
X371801Y353116D02*
X365502D01*
X364807Y352978D01*
X364217Y352584D01*
X363824Y351995D01*
X363686Y351300D01*
X363824Y350605D01*
X364217Y350016D01*
X364807Y349622D01*
X365502Y349484D01*
X371801D01*
X372496Y349622D01*
X373085Y350016D01*
X373479Y350605D01*
X373617Y351300D01*
X373479Y351995D01*
X373085Y352584D01*
X372496Y352978D01*
X371801Y353116D01*
D02*
G37*
G36*
X468150Y350100D02*
X458850D01*
Y346700D01*
X468150D01*
Y350100D01*
D02*
G37*
G36*
X390698Y348116D02*
X384399D01*
X383704Y347978D01*
X383115Y347584D01*
X382721Y346995D01*
X382583Y346300D01*
X382721Y345605D01*
X383115Y345016D01*
X383704Y344622D01*
X384399Y344484D01*
X390698D01*
X391393Y344622D01*
X391983Y345016D01*
X392376Y345605D01*
X392514Y346300D01*
X392376Y346995D01*
X391983Y347584D01*
X391393Y347978D01*
X390698Y348116D01*
D02*
G37*
G36*
X371801D02*
X365502D01*
X364807Y347978D01*
X364217Y347584D01*
X363824Y346995D01*
X363686Y346300D01*
X363824Y345605D01*
X364217Y345016D01*
X364807Y344622D01*
X365502Y344484D01*
X371801D01*
X372496Y344622D01*
X373085Y345016D01*
X373479Y345605D01*
X373617Y346300D01*
X373479Y346995D01*
X373085Y347584D01*
X372496Y347978D01*
X371801Y348116D01*
D02*
G37*
G36*
X412763Y347431D02*
X408326D01*
Y344372D01*
X412763D01*
Y347431D01*
D02*
G37*
G36*
X407326D02*
X402889D01*
Y344372D01*
X407326D01*
Y347431D01*
D02*
G37*
G36*
X412763Y343372D02*
X408326D01*
Y340313D01*
X412763D01*
Y343372D01*
D02*
G37*
G36*
X407326D02*
X402889D01*
Y340313D01*
X407326D01*
Y343372D01*
D02*
G37*
G36*
X360789Y344915D02*
X360209Y344800D01*
X359718Y344471D01*
X359389Y343980D01*
X359274Y343400D01*
X359389Y342820D01*
X359718Y342329D01*
X360209Y342000D01*
X360700Y341903D01*
X362096Y340507D01*
X362096Y340507D01*
X362460Y340264D01*
X362889Y340178D01*
X362889Y340178D01*
X364109D01*
X364217Y340016D01*
X364807Y339622D01*
X365502Y339484D01*
X371801D01*
X372496Y339622D01*
X373085Y340016D01*
X373479Y340605D01*
X373617Y341300D01*
X373479Y341995D01*
X373085Y342584D01*
X372496Y342978D01*
X371801Y343116D01*
X365502D01*
X364807Y342978D01*
X364217Y342584D01*
X363198Y342577D01*
X362286Y343489D01*
X362189Y343980D01*
X361860Y344471D01*
X361369Y344800D01*
X360789Y344915D01*
D02*
G37*
G36*
X441550Y340500D02*
X437000D01*
Y338900D01*
X441550D01*
Y340500D01*
D02*
G37*
G36*
X436000D02*
X431450D01*
Y338900D01*
X436000D01*
Y340500D01*
D02*
G37*
G36*
X390698Y343116D02*
X384399D01*
X383704Y342978D01*
X383115Y342584D01*
X382721Y341995D01*
X382583Y341300D01*
X382721Y340605D01*
X383115Y340016D01*
X383704Y339622D01*
X384399Y339484D01*
Y338524D01*
X383548Y338355D01*
X382827Y337873D01*
X382345Y337151D01*
X382275Y336800D01*
X387549D01*
X392823D01*
X392753Y337151D01*
X392271Y337873D01*
X391549Y338355D01*
X390698Y338524D01*
Y339484D01*
X391393Y339622D01*
X391983Y340016D01*
X392376Y340605D01*
X392514Y341300D01*
X392376Y341995D01*
X391983Y342584D01*
X391393Y342978D01*
X390698Y343116D01*
D02*
G37*
G36*
X441550Y337900D02*
X437000D01*
Y336300D01*
X441550D01*
Y337900D01*
D02*
G37*
G36*
X436000D02*
X431450D01*
Y336300D01*
X436000D01*
Y337900D01*
D02*
G37*
G36*
X392823Y335800D02*
X388049D01*
Y334076D01*
X390698D01*
X391549Y334245D01*
X392271Y334728D01*
X392753Y335449D01*
X392823Y335800D01*
D02*
G37*
G36*
X387049D02*
X382275D01*
X382345Y335449D01*
X382827Y334728D01*
X383548Y334245D01*
X384399Y334076D01*
X387049D01*
Y335800D01*
D02*
G37*
%LPD*%
D10*
X475800Y472600D02*
D03*
D11*
X466729Y477521D02*
D03*
X484871D02*
D03*
Y475553D02*
D03*
Y473584D02*
D03*
Y471616D02*
D03*
Y469647D02*
D03*
Y467679D02*
D03*
X466729D02*
D03*
Y469647D02*
D03*
Y471616D02*
D03*
Y473584D02*
D03*
Y475553D02*
D03*
D12*
X470879Y481671D02*
D03*
X480721Y463529D02*
D03*
X478753D02*
D03*
X476784D02*
D03*
X474816D02*
D03*
X472847D02*
D03*
X470879D02*
D03*
X472847Y481671D02*
D03*
X474816D02*
D03*
X476784D02*
D03*
X478753D02*
D03*
X480721D02*
D03*
D13*
X328874Y363978D02*
D03*
Y367128D02*
D03*
Y370277D02*
D03*
Y373427D02*
D03*
Y376576D02*
D03*
Y379726D02*
D03*
Y382876D02*
D03*
Y386025D02*
D03*
Y389175D02*
D03*
Y392324D02*
D03*
Y395474D02*
D03*
Y398624D02*
D03*
Y401773D02*
D03*
Y404923D02*
D03*
Y408072D02*
D03*
Y411222D02*
D03*
Y414372D02*
D03*
Y417521D02*
D03*
Y433268D02*
D03*
Y436417D02*
D03*
Y439567D02*
D03*
Y442717D02*
D03*
Y445866D02*
D03*
Y449016D02*
D03*
Y452165D02*
D03*
Y455315D02*
D03*
D14*
X407826Y352928D02*
D03*
Y343872D02*
D03*
D15*
X423574Y348400D02*
D03*
D16*
X369244Y477402D02*
D03*
X400244Y467402D02*
D03*
X369244D02*
D03*
Y472402D02*
D03*
X400244Y477402D02*
D03*
X369244Y482402D02*
D03*
X400244Y472402D02*
D03*
Y482402D02*
D03*
D17*
X537008Y451575D02*
D03*
X543110D02*
D03*
X524803D02*
D03*
X530905D02*
D03*
X512598D02*
D03*
X518701D02*
D03*
X500394D02*
D03*
X506496D02*
D03*
X488189D02*
D03*
X494291D02*
D03*
X475984D02*
D03*
X482087D02*
D03*
X463779D02*
D03*
X469882D02*
D03*
X451575D02*
D03*
X457677D02*
D03*
X439370D02*
D03*
X445472D02*
D03*
X427165D02*
D03*
X433268D02*
D03*
X402756D02*
D03*
X408858D02*
D03*
X390551D02*
D03*
X396654D02*
D03*
X378346D02*
D03*
X384449D02*
D03*
X524803Y366142D02*
D03*
X530905D02*
D03*
X512598D02*
D03*
X518701D02*
D03*
X500394D02*
D03*
X506496D02*
D03*
X488189D02*
D03*
X494291D02*
D03*
X475984D02*
D03*
X482087D02*
D03*
X463779D02*
D03*
X469882D02*
D03*
X451575D02*
D03*
X457677D02*
D03*
X439370D02*
D03*
X445472D02*
D03*
X427165D02*
D03*
X433268D02*
D03*
X414961D02*
D03*
X421063D02*
D03*
X402756D02*
D03*
X408858D02*
D03*
X390551D02*
D03*
X396654D02*
D03*
X378346D02*
D03*
X384449D02*
D03*
X366142D02*
D03*
X372244D02*
D03*
X537008Y378346D02*
D03*
X543110D02*
D03*
X524803D02*
D03*
X530905D02*
D03*
X512598D02*
D03*
X518701D02*
D03*
X500394D02*
D03*
X506496D02*
D03*
X488189D02*
D03*
X494291D02*
D03*
X475984D02*
D03*
X482087D02*
D03*
X463779D02*
D03*
X469882D02*
D03*
X439370D02*
D03*
X445472D02*
D03*
X427165D02*
D03*
X433268D02*
D03*
X414961D02*
D03*
X421063D02*
D03*
X402756D02*
D03*
X408858D02*
D03*
X390551D02*
D03*
X396654D02*
D03*
X378346D02*
D03*
X384449D02*
D03*
X366142D02*
D03*
X372244D02*
D03*
X537008Y390551D02*
D03*
X543110D02*
D03*
X524803D02*
D03*
X530905D02*
D03*
X512598D02*
D03*
X518701D02*
D03*
X500394D02*
D03*
X506496D02*
D03*
X488189D02*
D03*
X494291D02*
D03*
X475984D02*
D03*
X482087D02*
D03*
X463779D02*
D03*
X469882D02*
D03*
X451575D02*
D03*
X457677D02*
D03*
X439370D02*
D03*
X445472D02*
D03*
X427165D02*
D03*
X433268D02*
D03*
X414961D02*
D03*
X421063D02*
D03*
X402756D02*
D03*
X408858D02*
D03*
X390551D02*
D03*
X396654D02*
D03*
X378346D02*
D03*
X384449D02*
D03*
X366142D02*
D03*
X372244D02*
D03*
X537008Y402756D02*
D03*
X543110D02*
D03*
X524803D02*
D03*
X530905D02*
D03*
X512598D02*
D03*
X518701D02*
D03*
X500394D02*
D03*
X506496D02*
D03*
X488189D02*
D03*
X494291D02*
D03*
X475984D02*
D03*
X482087D02*
D03*
X463779D02*
D03*
X469882D02*
D03*
X451575D02*
D03*
X457677D02*
D03*
X427165D02*
D03*
X433268D02*
D03*
X414961D02*
D03*
X421063D02*
D03*
X402756D02*
D03*
X408858D02*
D03*
X390551D02*
D03*
X396654D02*
D03*
X378346D02*
D03*
X384449D02*
D03*
X366142D02*
D03*
X372244D02*
D03*
X537008Y414961D02*
D03*
X543110D02*
D03*
X524803D02*
D03*
X530905D02*
D03*
X512598D02*
D03*
X518701D02*
D03*
X500394D02*
D03*
X506496D02*
D03*
X488189D02*
D03*
X494291D02*
D03*
X475984D02*
D03*
X482087D02*
D03*
X463779D02*
D03*
X469882D02*
D03*
X451575D02*
D03*
X457677D02*
D03*
X439370D02*
D03*
X445472D02*
D03*
X427165D02*
D03*
X433268D02*
D03*
X414961D02*
D03*
X421063D02*
D03*
X402756D02*
D03*
X408858D02*
D03*
X390551D02*
D03*
X396654D02*
D03*
X378346D02*
D03*
X384449D02*
D03*
X366142D02*
D03*
X372244D02*
D03*
X537008Y427165D02*
D03*
X543110D02*
D03*
X524803D02*
D03*
X530905D02*
D03*
X512598D02*
D03*
X518701D02*
D03*
X500394D02*
D03*
X506496D02*
D03*
X488189D02*
D03*
X494291D02*
D03*
X475984D02*
D03*
X482087D02*
D03*
X463779D02*
D03*
X469882D02*
D03*
X451575D02*
D03*
X457677D02*
D03*
X439370D02*
D03*
X445472D02*
D03*
X427165D02*
D03*
X433268D02*
D03*
X414961D02*
D03*
X421063D02*
D03*
X402756D02*
D03*
X408858D02*
D03*
X390551D02*
D03*
X396654D02*
D03*
X378346D02*
D03*
X384449D02*
D03*
X537008Y439370D02*
D03*
X543110D02*
D03*
X524803D02*
D03*
X530905D02*
D03*
X512598D02*
D03*
X518701D02*
D03*
X500394D02*
D03*
X506496D02*
D03*
X488189D02*
D03*
X494291D02*
D03*
X475984D02*
D03*
X482087D02*
D03*
X463779D02*
D03*
X469882D02*
D03*
X451575D02*
D03*
X457677D02*
D03*
X439370D02*
D03*
X445472D02*
D03*
X427165D02*
D03*
X433268D02*
D03*
X414961D02*
D03*
X421063D02*
D03*
X402756D02*
D03*
X408858D02*
D03*
X390551D02*
D03*
X396654D02*
D03*
X378346D02*
D03*
X384449D02*
D03*
X366142D02*
D03*
X372244D02*
D03*
X353937D02*
D03*
X360039D02*
D03*
X353937Y378346D02*
D03*
X360039D02*
D03*
X353937Y390551D02*
D03*
X360039D02*
D03*
X353937Y402756D02*
D03*
X360039D02*
D03*
X353937Y414961D02*
D03*
X360039D02*
D03*
X353937Y427165D02*
D03*
X360039D02*
D03*
X366142D02*
D03*
X372244D02*
D03*
X366142Y451575D02*
D03*
X372244D02*
D03*
X414961D02*
D03*
X421063D02*
D03*
X439370Y402756D02*
D03*
X445472D02*
D03*
X451575Y378346D02*
D03*
X457677D02*
D03*
X537008Y366142D02*
D03*
X543110D02*
D03*
X353937Y451575D02*
D03*
X360039D02*
D03*
X353937Y366142D02*
D03*
X360039D02*
D03*
D18*
X387549Y336300D02*
D03*
Y341300D02*
D03*
Y346300D02*
D03*
Y351300D02*
D03*
X368651Y336300D02*
D03*
Y341300D02*
D03*
Y346300D02*
D03*
Y351300D02*
D03*
D19*
X501511Y333065D02*
D03*
Y335033D02*
D03*
X514306Y333065D02*
D03*
Y335033D02*
D03*
Y337002D02*
D03*
D20*
X501511Y337100D02*
D03*
D21*
X436500Y353400D02*
D03*
Y348400D02*
D03*
Y343400D02*
D03*
Y338400D02*
D03*
X463500D02*
D03*
Y343400D02*
D03*
Y348400D02*
D03*
Y353400D02*
D03*
D22*
X336469Y436417D02*
X339421Y439370D01*
X339870D02*
X350900D01*
X328874Y436417D02*
X336469D01*
D23*
X478753Y469647D02*
Y475553D01*
X497858Y353400D02*
X514000D01*
X514200D01*
X440654Y360347D02*
X447600Y353400D01*
X351065Y360347D02*
X440654D01*
X351065D02*
Y453999D01*
X363846Y472402D02*
X369244D01*
X362910Y471465D02*
X363846Y472402D01*
X362910Y468366D02*
Y471465D01*
X382272Y477402D02*
X400244D01*
X380000Y475130D02*
X382272Y477402D01*
X380000Y472400D02*
Y475130D01*
X453509Y460138D02*
X456900Y463529D01*
X470879D01*
X456900D02*
Y466100D01*
X360789Y343400D02*
X362889Y341300D01*
X368651D01*
X456900Y479600D02*
Y482600D01*
Y466100D02*
Y479600D01*
X357204Y460138D02*
X453509D01*
X369246Y472400D02*
X380000D01*
X369244Y472402D02*
X369246Y472400D01*
X384756Y460213D02*
Y463776D01*
X384681Y460138D02*
X384756Y460213D01*
X362910Y468366D02*
X363874Y467402D01*
X369244D01*
X351065Y453999D02*
X357204Y460138D01*
X407826Y352928D02*
Y353581D01*
X378300D02*
X407826D01*
X447600Y353400D02*
X463500D01*
X497858D01*
X466729Y469647D02*
X472847D01*
X480721Y477521D02*
Y481671D01*
X478753Y475553D02*
X480721Y477521D01*
Y463529D02*
Y467679D01*
X478753Y469647D02*
X480721Y467679D01*
X328874Y363978D02*
X338825D01*
X328874Y367128D02*
X338782D01*
X328874Y455315D02*
X339303D01*
X501911Y337098D02*
X502732Y337920D01*
X497858Y351043D02*
Y353400D01*
Y351043D02*
X502732Y346169D01*
Y337920D02*
Y346169D01*
D24*
X333517Y442717D02*
X354500Y463700D01*
X328874Y442717D02*
X333517D01*
X354500Y463700D02*
X376624D01*
X353876Y464900D02*
X375299D01*
X334842Y445866D02*
X353876Y464900D01*
X375299D02*
X382800Y472402D01*
X355989Y461989D02*
X378689D01*
X333567Y439567D02*
X355989Y461989D01*
X328874Y439567D02*
X333567D01*
X334487Y386025D02*
X347293Y373219D01*
X328874Y386025D02*
X334487D01*
X350581Y358307D02*
X378300D01*
X347293Y361595D02*
X350581Y358307D01*
X347293Y361595D02*
Y373219D01*
X328874Y382876D02*
X335939D01*
X360789Y336300D02*
X368651D01*
X348200D02*
X360789D01*
X342100Y342400D02*
X348200Y336300D01*
X524800Y460200D02*
Y469654D01*
X328874Y379726D02*
X337392D01*
X462524Y473584D02*
X466729D01*
X459000Y477108D02*
X462524Y473584D01*
X459000Y471600D02*
X466713D01*
X376624Y463700D02*
X376700Y463776D01*
X369244Y482402D02*
X376700D01*
X353937Y378346D02*
Y390551D01*
Y402756D01*
Y414961D01*
Y427165D01*
Y439370D01*
Y451575D01*
X366142Y378346D02*
Y390551D01*
Y402756D01*
Y414961D01*
Y427165D01*
Y439370D01*
Y451575D01*
X378346Y366142D02*
Y378346D01*
Y390551D02*
Y402756D01*
Y414961D01*
Y427165D01*
Y439370D01*
Y451575D01*
X390551Y366142D02*
Y378346D01*
Y390551D02*
Y402756D01*
Y414961D01*
Y427165D01*
Y439370D01*
Y451575D01*
X402756Y366142D02*
Y378346D01*
Y390551D01*
Y402756D02*
Y414961D01*
Y427165D01*
Y439370D01*
Y451575D01*
X414961Y366142D02*
Y378346D01*
Y390551D01*
Y402756D02*
Y414961D01*
Y427165D01*
Y439370D01*
Y451575D01*
X427165Y366142D02*
Y378346D01*
Y390551D01*
Y402756D01*
Y414961D02*
Y427165D01*
Y439370D01*
Y451575D01*
X439370Y366142D02*
Y378346D01*
Y390551D01*
Y402756D01*
Y414961D02*
Y427165D01*
Y439370D01*
Y451575D01*
X451575Y366142D02*
Y378346D01*
Y390551D01*
Y402756D01*
Y414961D01*
Y427165D02*
Y439370D01*
Y451575D01*
X463779Y366142D02*
Y378346D01*
Y390551D01*
Y402756D01*
Y414961D01*
Y427165D02*
Y439370D01*
Y451575D01*
X475984Y366142D02*
Y378346D01*
Y390551D01*
Y402756D01*
Y414961D01*
Y427165D01*
Y439370D02*
Y451575D01*
X488189Y366142D02*
Y378346D01*
Y390551D01*
Y402756D01*
Y414961D01*
Y427165D01*
Y439370D02*
Y451575D01*
X500394Y366142D02*
Y378346D01*
Y390551D01*
Y402756D01*
Y414961D01*
Y427165D01*
Y439370D01*
X512598Y366142D02*
Y378346D01*
Y390551D01*
Y402756D01*
Y414961D01*
Y427165D01*
Y439370D01*
X524803Y366142D02*
Y378346D01*
Y390551D01*
Y402756D01*
Y414961D01*
Y427165D01*
Y439370D01*
Y455169D01*
X537008Y366142D02*
Y378346D01*
Y390551D01*
Y402756D01*
Y414961D01*
Y427165D01*
Y439370D01*
Y451575D01*
X360039Y439370D02*
Y445472D01*
X372244Y439370D02*
Y445472D01*
X384449Y439370D02*
Y445472D01*
X396654Y439370D02*
Y445472D01*
X445472Y439370D02*
Y445472D01*
X433268Y439370D02*
Y445472D01*
X421063Y439370D02*
Y445472D01*
X408858Y439370D02*
Y445472D01*
X494291Y439370D02*
Y445472D01*
X482087Y439370D02*
Y445472D01*
X469882Y439370D02*
Y445472D01*
X457677Y439370D02*
Y445472D01*
X543110Y439370D02*
Y445472D01*
X530905Y439370D02*
Y445472D01*
X518701Y439370D02*
Y445472D01*
X506496Y439370D02*
Y445472D01*
Y451575D02*
Y457677D01*
X518701Y451575D02*
Y457677D01*
X530905Y451575D02*
Y457677D01*
X543110Y451575D02*
Y457677D01*
X457677Y451575D02*
Y457677D01*
X469882Y451575D02*
Y457677D01*
X482087Y451575D02*
Y457677D01*
X494291Y451575D02*
Y457677D01*
X408858Y451575D02*
Y457677D01*
X421063Y451575D02*
Y457677D01*
X433268Y451575D02*
Y457677D01*
X445472Y451575D02*
Y457677D01*
X396654Y451575D02*
Y457677D01*
X384449Y451575D02*
Y457677D01*
X372244Y451575D02*
Y457677D01*
X360039Y451575D02*
Y457677D01*
X506496Y427165D02*
Y433268D01*
X518701Y427165D02*
Y433268D01*
X530905Y427165D02*
Y433268D01*
X543110Y427165D02*
Y433268D01*
X457677Y427165D02*
Y433268D01*
X469882Y427165D02*
Y433268D01*
X482087Y427165D02*
Y433268D01*
X494291Y427165D02*
Y433268D01*
X408858Y427165D02*
Y433268D01*
X421063Y427165D02*
Y433268D01*
X433268Y427165D02*
Y433268D01*
X445472Y427165D02*
Y433268D01*
X396654Y427165D02*
Y433268D01*
X384449Y427165D02*
Y433268D01*
X372244Y427165D02*
Y433268D01*
X360039Y427165D02*
Y433268D01*
X506496Y414961D02*
Y421063D01*
X518701Y414961D02*
Y421063D01*
X530905Y414961D02*
Y421063D01*
X543110Y414961D02*
Y421063D01*
X457677Y414961D02*
Y421063D01*
X469882Y414961D02*
Y421063D01*
X482087Y414961D02*
Y421063D01*
X494291Y414961D02*
Y421063D01*
X408858Y414961D02*
Y421063D01*
X421063Y414961D02*
Y421063D01*
X433268Y414961D02*
Y421063D01*
X445472Y414961D02*
Y421063D01*
X396654Y414961D02*
Y421063D01*
X384449Y414961D02*
Y421063D01*
X372244Y414961D02*
Y421063D01*
X360039Y414961D02*
Y421063D01*
X506496Y402756D02*
Y408858D01*
X518701Y402756D02*
Y408858D01*
X530905Y402756D02*
Y408858D01*
X543110Y402756D02*
Y408858D01*
X457677Y402756D02*
Y408858D01*
X469882Y402756D02*
Y408858D01*
X482087Y402756D02*
Y408858D01*
X494291Y402756D02*
Y408858D01*
X408858Y402756D02*
Y408858D01*
X421063Y402756D02*
Y408858D01*
X433268Y402756D02*
Y408858D01*
X445472Y402756D02*
Y408858D01*
X396654Y402756D02*
Y408858D01*
X384449Y402756D02*
Y408858D01*
X372244Y402756D02*
Y408858D01*
X360039Y402756D02*
Y408858D01*
X506496Y390551D02*
Y396654D01*
X518701Y390551D02*
Y396654D01*
X530905Y390551D02*
Y396654D01*
X543110Y390551D02*
Y396654D01*
X457677Y390551D02*
Y396654D01*
X469882Y390551D02*
Y396654D01*
X482087Y390551D02*
Y396654D01*
X494291Y390551D02*
Y396654D01*
X408858Y390551D02*
Y396654D01*
X421063Y390551D02*
Y396654D01*
X433268Y390551D02*
Y396654D01*
X445472Y390551D02*
Y396654D01*
X396654Y390551D02*
Y396654D01*
X384449Y390551D02*
Y396654D01*
X372244Y390551D02*
Y396654D01*
X360039Y390551D02*
Y396654D01*
X506496Y378346D02*
Y384449D01*
X518701Y378346D02*
Y384449D01*
X530905Y378346D02*
Y384449D01*
X543110Y378346D02*
Y384449D01*
X457677Y378346D02*
Y384449D01*
X469882Y378346D02*
Y384449D01*
X482087Y378346D02*
Y384449D01*
X494291Y378346D02*
Y384449D01*
X408858Y378346D02*
Y384449D01*
X421063Y378346D02*
Y384449D01*
X433268Y378346D02*
Y384449D01*
X445472Y378346D02*
Y384449D01*
X396654Y378346D02*
Y384449D01*
X384449Y378346D02*
Y384449D01*
X372244Y378346D02*
Y384449D01*
X360039Y378346D02*
Y384449D01*
X506496Y366142D02*
Y372244D01*
X518701Y366142D02*
Y372244D01*
X530905Y366142D02*
Y372244D01*
X543110Y366142D02*
Y372244D01*
X457677Y366142D02*
Y372244D01*
X469882Y366142D02*
Y372244D01*
X482087Y366142D02*
Y372244D01*
X494291Y366142D02*
Y372244D01*
X408858Y366142D02*
Y372244D01*
X421063Y366142D02*
Y372244D01*
X433268Y366142D02*
Y372244D01*
X445472Y366142D02*
Y372244D01*
X396654Y366142D02*
Y372244D01*
X384449Y366142D02*
Y372244D01*
X372244Y366142D02*
Y372244D01*
X360039Y366142D02*
Y372244D01*
X353937Y366142D02*
Y369736D01*
Y378346D01*
X366142Y366142D02*
Y378346D01*
X378346D02*
Y381941D01*
Y390551D01*
X390551Y378346D02*
Y390551D01*
X402756D02*
Y394146D01*
Y402756D01*
X414961Y390551D02*
Y399161D01*
Y402756D01*
X427165D02*
Y414961D01*
X439370Y402756D02*
Y414961D01*
X451575D02*
Y418555D01*
Y427165D01*
X463779Y414961D02*
Y423571D01*
Y427165D01*
X475984D02*
Y439370D01*
X488189Y427165D02*
Y439370D01*
X500394D02*
Y451575D01*
X512598Y439370D02*
Y451575D01*
X537008Y362547D02*
Y366142D01*
X338202Y395474D02*
X349079Y406350D01*
X328874Y395474D02*
X338202D01*
X342242Y392324D02*
X349079Y399161D01*
X328874Y392324D02*
X342242D01*
X344108Y389175D02*
X349079Y394146D01*
X328874Y389175D02*
X344108D01*
X328874Y398624D02*
X336336D01*
X349079Y411366D01*
X328874Y411222D02*
X339572D01*
X328874Y408072D02*
X338864D01*
X328874Y404923D02*
X338120D01*
X328874Y401773D02*
X337120D01*
X339572Y411222D02*
X341933Y413583D01*
Y428630D01*
X349079Y435776D01*
X343133Y424814D02*
X349079Y430760D01*
X344333Y418825D02*
X349079Y423571D01*
X345533Y415009D02*
X349079Y418555D01*
X345533Y410187D02*
Y415009D01*
X344333Y411136D02*
Y418825D01*
X343133Y412342D02*
Y424814D01*
X338864Y408072D02*
X343133Y412342D01*
X338120Y404923D02*
X344333Y411136D01*
X337120Y401773D02*
X345533Y410187D01*
X400244Y467402D02*
X408400D01*
X382800Y472402D02*
X400244D01*
X378689Y461989D02*
X384102Y467402D01*
X400244D01*
X484871Y475553D02*
X516147D01*
X518600Y462000D02*
Y473100D01*
X516147Y475553D02*
X518600Y473100D01*
X484871Y469647D02*
X491100D01*
X364575Y477402D02*
X369244D01*
X328874Y449016D02*
X336189D01*
X364575Y477402D01*
X328874Y445866D02*
X334842D01*
X466713Y471600D02*
X466729Y471616D01*
X484871Y477521D02*
X516932D01*
X524800Y469654D01*
X415122Y353400D02*
X436500D01*
X412136Y356387D02*
X415122Y353400D01*
X343300Y359200D02*
X346113Y356387D01*
X412136D01*
X423574Y348400D02*
X436500D01*
Y343400D02*
X448400D01*
X450900Y340900D01*
X482650Y335033D02*
X501511D01*
X514306Y333065D02*
X519464Y333065D01*
X514306Y337002D02*
X520302D01*
X547480Y364180D01*
Y461976D01*
X450900Y340900D02*
X495558D01*
X498058Y343400D01*
X550582Y364182D02*
X550583Y460185D01*
X519464Y333065D02*
X550582Y364182D01*
X514339Y335000D02*
X518600D01*
X514306Y335033D02*
X514339Y335000D01*
X335939Y382876D02*
X343300Y375515D01*
X337392Y379726D02*
X342100Y375018D01*
X343300Y359200D02*
Y375515D01*
X342100Y342400D02*
Y375018D01*
D25*
X463250Y475553D02*
X466729D01*
X459203Y479600D02*
X463250Y475553D01*
X456900Y479600D02*
X459203D01*
D26*
X507909Y335033D02*
D03*
D27*
X508794Y337789D02*
D03*
X507023D02*
D03*
D28*
Y332277D02*
D03*
X508794D02*
D03*
D29*
X545691Y474198D02*
D03*
Y343518D02*
D03*
D30*
X514000Y353400D02*
D03*
Y343400D02*
D03*
X497858D02*
D03*
Y353400D02*
D03*
D31*
X478753Y475553D02*
D03*
X472847Y469647D02*
D03*
X478753D02*
D03*
X472847Y475553D02*
D03*
X339421Y439370D02*
D03*
X349079Y362547D02*
D03*
X378300Y358307D02*
D03*
X351067Y360347D02*
D03*
X360789Y336300D02*
D03*
Y343400D02*
D03*
X524776Y464858D02*
D03*
X459000Y471600D02*
D03*
X456900Y482600D02*
D03*
X376700Y463776D02*
D03*
Y482402D02*
D03*
X380000Y472400D02*
D03*
X384756Y463776D02*
D03*
X547480Y461976D02*
D03*
X360039Y445472D02*
D03*
X372244D02*
D03*
X384449D02*
D03*
X396654D02*
D03*
X445472D02*
D03*
X433268D02*
D03*
X421063D02*
D03*
X408858D02*
D03*
X494291D02*
D03*
X482087D02*
D03*
X469882D02*
D03*
X457677D02*
D03*
X543110D02*
D03*
X530905D02*
D03*
X518701D02*
D03*
X506496D02*
D03*
Y457677D02*
D03*
X518701D02*
D03*
X530905D02*
D03*
X543110D02*
D03*
X457677D02*
D03*
X469882D02*
D03*
X482087D02*
D03*
X494291D02*
D03*
X408858D02*
D03*
X421063D02*
D03*
X433268D02*
D03*
X445472D02*
D03*
X396654D02*
D03*
X384449D02*
D03*
X372244D02*
D03*
X360039D02*
D03*
X506496Y433268D02*
D03*
X518701D02*
D03*
X530905D02*
D03*
X543110D02*
D03*
X457677D02*
D03*
X469882D02*
D03*
X482087D02*
D03*
X494291D02*
D03*
X408858D02*
D03*
X421063D02*
D03*
X433268D02*
D03*
X445472D02*
D03*
X396654D02*
D03*
X384449D02*
D03*
X372244D02*
D03*
X360039D02*
D03*
X506496Y421063D02*
D03*
X518701D02*
D03*
X530905D02*
D03*
X543110D02*
D03*
X457677D02*
D03*
X469882D02*
D03*
X482087D02*
D03*
X494291D02*
D03*
X408858D02*
D03*
X421063D02*
D03*
X433268D02*
D03*
X445472D02*
D03*
X396654D02*
D03*
X384449D02*
D03*
X372244D02*
D03*
X360039D02*
D03*
X506496Y408858D02*
D03*
X518701D02*
D03*
X530905D02*
D03*
X543110D02*
D03*
X457677D02*
D03*
X469882D02*
D03*
X482087D02*
D03*
X494291D02*
D03*
X408858D02*
D03*
X421063D02*
D03*
X433268D02*
D03*
X445472D02*
D03*
X396654D02*
D03*
X384449D02*
D03*
X372244D02*
D03*
X360039D02*
D03*
X506496Y396654D02*
D03*
X518701D02*
D03*
X530905D02*
D03*
X543110D02*
D03*
X457677D02*
D03*
X469882D02*
D03*
X482087D02*
D03*
X494291D02*
D03*
X408858D02*
D03*
X421063D02*
D03*
X433268D02*
D03*
X445472D02*
D03*
X396654D02*
D03*
X384449D02*
D03*
X372244D02*
D03*
X360039D02*
D03*
X506496Y384449D02*
D03*
X518701D02*
D03*
X530905D02*
D03*
X543110D02*
D03*
X457677D02*
D03*
X469882D02*
D03*
X482087D02*
D03*
X494291D02*
D03*
X408858D02*
D03*
X421063D02*
D03*
X433268D02*
D03*
X445472D02*
D03*
X396654D02*
D03*
X384449D02*
D03*
X372244D02*
D03*
X360039D02*
D03*
X506496Y372244D02*
D03*
X518701D02*
D03*
X530905D02*
D03*
X543110D02*
D03*
X457677D02*
D03*
X469882D02*
D03*
X482087D02*
D03*
X494291D02*
D03*
X408858D02*
D03*
X421063D02*
D03*
X433268D02*
D03*
X445472D02*
D03*
X396654D02*
D03*
X384449D02*
D03*
X372244D02*
D03*
X360039D02*
D03*
X366142Y374752D02*
D03*
X353937Y369736D02*
D03*
X390551Y386957D02*
D03*
X378346Y381941D02*
D03*
X414961Y399161D02*
D03*
X402756Y394146D02*
D03*
X439370Y411366D02*
D03*
X427165Y406350D02*
D03*
X463779Y423571D02*
D03*
X451575Y418555D02*
D03*
X488189Y435776D02*
D03*
X475984Y430760D02*
D03*
X512598Y447980D02*
D03*
X500394Y442965D02*
D03*
X524803Y455169D02*
D03*
X349079Y430760D02*
D03*
Y435776D02*
D03*
Y418555D02*
D03*
Y423571D02*
D03*
Y406350D02*
D03*
Y411366D02*
D03*
Y394146D02*
D03*
Y399161D02*
D03*
X550582Y460185D02*
D03*
X537008Y362547D02*
D03*
X408400Y467402D02*
D03*
X518600Y462000D02*
D03*
X524800Y460200D02*
D03*
X491100Y469647D02*
D03*
X456900Y466100D02*
D03*
X459000Y477108D02*
D03*
X398000Y356387D02*
D03*
X482650Y335033D02*
D03*
X518600Y335000D02*
D03*
X378300Y353581D02*
D03*
X339394Y363409D02*
D03*
Y366516D02*
D03*
X339421Y455197D02*
D03*
M02*
