M48
;Layer_Color=9474304
;FILE_FORMAT=2:5
INCH,LZ
;TYPE=PLATED
T1F00S00C0.01181
T2F00S00C0.03543
T3F00S00C0.11811
%
T01
X0360789Y03363
Y03434
X0351067Y0360347
X0349079Y0362547
X0339394Y0363409
Y0366516
X0353937Y0369736
X0360039Y0372244
X0366142Y0374752
X0372244Y0372244
Y0384449
X0378346Y0381941
X0384449Y0384449
X0390551Y0386957
X0396654Y0384449
Y0396654
X0402756Y0394146
X0408858Y0396654
X0414961Y0399161
X0421063Y0396654
Y0384449
X0408858
Y0372244
X0421063
X0433268
X0445472
Y0384449
Y0396654
X0433268
Y0384449
Y0408858
X043937Y0411366
X0445472Y0408858
Y0421063
X0451575Y0418555
X0457677Y0421063
X0463779Y0423571
X0457677Y0433268
Y0445472
X0445472
X0433268
Y0433268
X0445472
Y0457677
X0433268
X0421063
X0408858
X04084Y0467402
X0396654Y0457677
X0384449
X0384756Y0463776
X03767
X0372244Y0457677
X0360039
Y0445472
X0372244
Y0433268
X0360039
Y0421063
X0372244
Y0408858
X0360039
Y0396654
X0372244
X0384449
Y0408858
Y0421063
X0396654
Y0408858
X0408858
Y0421063
X0421063
Y0408858
X0427165Y040635
X0433268Y0421063
X0421063Y0433268
Y0445472
X0408858
Y0433268
X0396654
Y0445472
X0384449
Y0433268
X0349079Y0435776
Y043076
Y0423571
Y0418555
Y0411366
Y040635
Y0399161
Y0394146
X0360039Y0384449
X0384449Y0372244
X0396654
X0398Y0356387
X03783Y0358307
Y0353581
X0457677Y0372244
Y0384449
Y0396654
Y0408858
Y0457677
X04569Y04661
X0339421Y0455197
Y043937
X0469882Y0433268
X0475984Y043076
X0482087Y0433268
X0488189Y0435776
X0494291Y0433268
Y0445472
X0500394Y0442965
X0506496Y0445472
X0512598Y044798
X0518701Y0445472
Y0433268
X0506496
Y0421063
X0518701
Y0408858
X0506496
X0494291
Y0421063
X0482087
Y0408858
X0469882
Y0421063
Y0445472
X0482087
Y0457677
X0494291
X0506496
X0518701
X05186Y0462
X05248Y04602
X0524776Y0464858
X0524803Y0455169
X0530905Y0457677
X054311
X054748Y0461976
X0550582Y0460185
X054311Y0445472
X0530905
Y0433268
X054311
Y0421063
X0530905
Y0408858
X054311
Y0396654
X0530905
Y0384449
X054311
Y0372244
X0530905
X0518701
X0506496
X0494291
X0482087
Y0384449
Y0396654
X0494291
X0506496
X0518701
Y0384449
X0506496
X0494291
X0469882
Y0396654
Y0372244
X048265Y0335033
X05186Y0335
X0537008Y0362547
X0469882Y0457677
X0472847Y0469647
X0478753
Y0475553
X0472847
X04911Y0469647
X0459Y04716
Y0477108
X04569Y04826
X03767Y0482402
X038Y04724
T02
X0497858Y03434
Y03534
X0514
Y03434
T03
X0545691Y0343518
Y0474198
M30
