G04 Layer_Color=14360714*
%FSLAX25Y25*%
%MOIN*%
G70*
G01*
G75*
G04:AMPARAMS|DCode=47|XSize=31.62mil|YSize=108.39mil|CornerRadius=9.91mil|HoleSize=0mil|Usage=FLASHONLY|Rotation=270.000|XOffset=0mil|YOffset=0mil|HoleType=Round|Shape=RoundedRectangle|*
%AMROUNDEDRECTD47*
21,1,0.03162,0.08858,0,0,270.0*
21,1,0.01181,0.10839,0,0,270.0*
1,1,0.01981,-0.04429,-0.00591*
1,1,0.01981,-0.04429,0.00591*
1,1,0.01981,0.04429,0.00591*
1,1,0.01981,0.04429,-0.00591*
%
%ADD47ROUNDEDRECTD47*%
%ADD56C,0.20485*%
%ADD57C,0.06706*%
%ADD58C,0.02572*%
%ADD59R,0.12795X1.07480*%
%ADD60R,0.04737X0.05131*%
%ADD61R,0.05131X0.04737*%
D47*
X328873Y453741D02*
D03*
X328874Y450591D02*
D03*
Y447441D02*
D03*
Y444291D02*
D03*
Y441142D02*
D03*
Y437992D02*
D03*
Y434842D02*
D03*
Y431693D02*
D03*
Y415945D02*
D03*
Y412795D02*
D03*
Y409646D02*
D03*
Y406496D02*
D03*
Y403346D02*
D03*
Y400197D02*
D03*
Y397047D02*
D03*
Y393898D02*
D03*
Y390748D02*
D03*
Y387598D02*
D03*
Y384449D02*
D03*
Y381299D02*
D03*
Y378150D02*
D03*
Y375000D02*
D03*
Y371850D02*
D03*
Y368701D02*
D03*
Y365551D02*
D03*
Y362402D02*
D03*
D56*
X545691Y474198D02*
D03*
Y343518D02*
D03*
D57*
X514000Y353400D02*
D03*
Y343400D02*
D03*
X497858D02*
D03*
Y353400D02*
D03*
D58*
X478753Y475553D02*
D03*
X472847Y469647D02*
D03*
X478753D02*
D03*
X472847Y475553D02*
D03*
D59*
X329268Y408858D02*
D03*
D60*
X356684Y343400D02*
D03*
Y336707D02*
D03*
X384744Y479095D02*
D03*
Y472402D02*
D03*
X415500D02*
D03*
Y465709D02*
D03*
X518600Y476346D02*
D03*
Y469654D02*
D03*
X524800Y476346D02*
D03*
Y469654D02*
D03*
X378300Y343400D02*
D03*
Y336707D02*
D03*
X489100Y343400D02*
D03*
Y350093D02*
D03*
X522900Y343400D02*
D03*
Y350093D02*
D03*
X482650Y343400D02*
D03*
Y350093D02*
D03*
X476200D02*
D03*
Y343400D02*
D03*
X529900Y350093D02*
D03*
Y343400D02*
D03*
X398100D02*
D03*
Y350093D02*
D03*
D61*
X536417Y451575D02*
D03*
X543110D02*
D03*
X536417Y439370D02*
D03*
X543110D02*
D03*
X536417Y427165D02*
D03*
X543110D02*
D03*
X536417Y414961D02*
D03*
X543110D02*
D03*
X536417Y402756D02*
D03*
X543110D02*
D03*
X536417Y390551D02*
D03*
X543110D02*
D03*
X536417Y378346D02*
D03*
X543110D02*
D03*
X503346Y469647D02*
D03*
X496654D02*
D03*
X445107Y471616D02*
D03*
X451800D02*
D03*
X445107Y477108D02*
D03*
X451800D02*
D03*
X445107Y482600D02*
D03*
X451800D02*
D03*
X445107Y466100D02*
D03*
X451800D02*
D03*
X496654Y476500D02*
D03*
X503346D02*
D03*
X536417Y366142D02*
D03*
X543110D02*
D03*
M02*
