G04 Layer_Color=128*
%FSLAX25Y25*%
%MOIN*%
G70*
G01*
G75*
%ADD10C,0.00600*%
%ADD11C,0.00400*%
%ADD12C,0.00200*%
%ADD13C,0.00079*%
D10*
X335665Y355118D02*
G03*
X332516Y358268I-3150J0D01*
G01*
Y459449D02*
G03*
X335665Y462598I0J3150D01*
G01*
X335665Y421063D02*
G03*
X335665Y426968I0J2953D01*
G01*
X322870Y459449D02*
X332516D01*
X335665Y462598D02*
Y487598D01*
X559091D01*
Y330118D02*
Y487598D01*
X335665Y330118D02*
Y355118D01*
X322870Y358268D02*
X332516D01*
X322870Y358268D02*
Y421063D01*
X335665D01*
X322870Y426968D02*
Y459449D01*
Y426968D02*
X322870Y426968D01*
X335665D01*
X556150Y487598D02*
X559091D01*
X339405Y330118D02*
Y420472D01*
Y427559D02*
Y487598D01*
X335665Y330118D02*
X559091D01*
X335665D02*
Y337894D01*
X335665Y330118D02*
X335665Y330118D01*
D11*
X349150D02*
Y487598D01*
X335665Y408858D02*
X559091D01*
D12*
X335469Y330118D02*
X335469Y330118D01*
X335665Y427559D02*
X339405D01*
X335665Y420472D02*
X339405D01*
Y427559D01*
X539785Y474198D02*
X551596D01*
X545691Y468293D02*
Y480104D01*
X539785Y343518D02*
X551596D01*
X545691Y337613D02*
Y349424D01*
X512228Y353400D02*
X515772D01*
X514000Y351628D02*
Y355172D01*
X512228Y343400D02*
X515772D01*
X514000Y341628D02*
Y345172D01*
X496087Y343400D02*
X499630D01*
X497858Y341628D02*
Y345172D01*
X496087Y353400D02*
X499630D01*
X497858Y351628D02*
Y355172D01*
X478162Y475553D02*
X479343D01*
X478753Y474962D02*
Y476143D01*
X472257Y469647D02*
X473438D01*
X472847Y469057D02*
Y470238D01*
X478162Y469647D02*
X479343D01*
X478753Y469057D02*
Y470238D01*
X472257Y475553D02*
X473438D01*
X472847Y474962D02*
Y476143D01*
X338831Y439370D02*
X340012D01*
X339421Y438779D02*
Y439961D01*
X348488Y362547D02*
X349669D01*
X349079Y361957D02*
Y363138D01*
X377710Y358307D02*
X378890D01*
X378300Y357716D02*
Y358898D01*
X350476Y360347D02*
X351658D01*
X351067Y359756D02*
Y360937D01*
X360198Y336300D02*
X361380D01*
X360789Y335710D02*
Y336891D01*
X360198Y343400D02*
X361380D01*
X360789Y342810D02*
Y343990D01*
X524185Y464858D02*
X525366D01*
X524776Y464268D02*
Y465449D01*
X458410Y471600D02*
X459590D01*
X459000Y471009D02*
Y472191D01*
X456310Y482600D02*
X457490D01*
X456900Y482010D02*
Y483190D01*
X376110Y463776D02*
X377291D01*
X376700Y463185D02*
Y464366D01*
X376110Y482402D02*
X377291D01*
X376700Y481811D02*
Y482992D01*
X379410Y472400D02*
X380591D01*
X380000Y471809D02*
Y472991D01*
X384165Y463776D02*
X385347D01*
X384756Y463185D02*
Y464366D01*
X546890Y461976D02*
X548071D01*
X547480Y461386D02*
Y462567D01*
X359449Y445472D02*
X360630D01*
X360039Y444882D02*
Y446063D01*
X371654Y445472D02*
X372835D01*
X372244Y444882D02*
Y446063D01*
X383858Y445472D02*
X385039D01*
X384449Y444882D02*
Y446063D01*
X396063Y445472D02*
X397244D01*
X396654Y444882D02*
Y446063D01*
X444882Y445472D02*
X446063D01*
X445472Y444882D02*
Y446063D01*
X432677Y445472D02*
X433858D01*
X433268Y444882D02*
Y446063D01*
X420472Y445472D02*
X421654D01*
X421063Y444882D02*
Y446063D01*
X408268Y445472D02*
X409449D01*
X408858Y444882D02*
Y446063D01*
X493701Y445472D02*
X494882D01*
X494291Y444882D02*
Y446063D01*
X481496Y445472D02*
X482677D01*
X482087Y444882D02*
Y446063D01*
X469291Y445472D02*
X470472D01*
X469882Y444882D02*
Y446063D01*
X457087Y445472D02*
X458268D01*
X457677Y444882D02*
Y446063D01*
X542520Y445472D02*
X543701D01*
X543110Y444882D02*
Y446063D01*
X530315Y445472D02*
X531496D01*
X530905Y444882D02*
Y446063D01*
X518110Y445472D02*
X519291D01*
X518701Y444882D02*
Y446063D01*
X505905Y445472D02*
X507087D01*
X506496Y444882D02*
Y446063D01*
X505905Y457677D02*
X507087D01*
X506496Y457087D02*
Y458268D01*
X518110Y457677D02*
X519291D01*
X518701Y457087D02*
Y458268D01*
X530315Y457677D02*
X531496D01*
X530905Y457087D02*
Y458268D01*
X542520Y457677D02*
X543701D01*
X543110Y457087D02*
Y458268D01*
X457087Y457677D02*
X458268D01*
X457677Y457087D02*
Y458268D01*
X469291Y457677D02*
X470472D01*
X469882Y457087D02*
Y458268D01*
X481496Y457677D02*
X482677D01*
X482087Y457087D02*
Y458268D01*
X493701Y457677D02*
X494882D01*
X494291Y457087D02*
Y458268D01*
X408268Y457677D02*
X409449D01*
X408858Y457087D02*
Y458268D01*
X420472Y457677D02*
X421654D01*
X421063Y457087D02*
Y458268D01*
X432677Y457677D02*
X433858D01*
X433268Y457087D02*
Y458268D01*
X444882Y457677D02*
X446063D01*
X445472Y457087D02*
Y458268D01*
X396063Y457677D02*
X397244D01*
X396654Y457087D02*
Y458268D01*
X383858Y457677D02*
X385039D01*
X384449Y457087D02*
Y458268D01*
X371654Y457677D02*
X372835D01*
X372244Y457087D02*
Y458268D01*
X359449Y457677D02*
X360630D01*
X360039Y457087D02*
Y458268D01*
X505905Y433268D02*
X507087D01*
X506496Y432677D02*
Y433858D01*
X518110Y433268D02*
X519291D01*
X518701Y432677D02*
Y433858D01*
X530315Y433268D02*
X531496D01*
X530905Y432677D02*
Y433858D01*
X542520Y433268D02*
X543701D01*
X543110Y432677D02*
Y433858D01*
X457087Y433268D02*
X458268D01*
X457677Y432677D02*
Y433858D01*
X469291Y433268D02*
X470472D01*
X469882Y432677D02*
Y433858D01*
X481496Y433268D02*
X482677D01*
X482087Y432677D02*
Y433858D01*
X493701Y433268D02*
X494882D01*
X494291Y432677D02*
Y433858D01*
X408268Y433268D02*
X409449D01*
X408858Y432677D02*
Y433858D01*
X420472Y433268D02*
X421654D01*
X421063Y432677D02*
Y433858D01*
X432677Y433268D02*
X433858D01*
X433268Y432677D02*
Y433858D01*
X444882Y433268D02*
X446063D01*
X445472Y432677D02*
Y433858D01*
X396063Y433268D02*
X397244D01*
X396654Y432677D02*
Y433858D01*
X383858Y433268D02*
X385039D01*
X384449Y432677D02*
Y433858D01*
X371654Y433268D02*
X372835D01*
X372244Y432677D02*
Y433858D01*
X359449Y433268D02*
X360630D01*
X360039Y432677D02*
Y433858D01*
X505905Y421063D02*
X507087D01*
X506496Y420472D02*
Y421654D01*
X518110Y421063D02*
X519291D01*
X518701Y420472D02*
Y421654D01*
X530315Y421063D02*
X531496D01*
X530905Y420472D02*
Y421654D01*
X542520Y421063D02*
X543701D01*
X543110Y420472D02*
Y421654D01*
X457087Y421063D02*
X458268D01*
X457677Y420472D02*
Y421654D01*
X469291Y421063D02*
X470472D01*
X469882Y420472D02*
Y421654D01*
X481496Y421063D02*
X482677D01*
X482087Y420472D02*
Y421654D01*
X493701Y421063D02*
X494882D01*
X494291Y420472D02*
Y421654D01*
X408268Y421063D02*
X409449D01*
X408858Y420472D02*
Y421654D01*
X420472Y421063D02*
X421654D01*
X421063Y420472D02*
Y421654D01*
X432677Y421063D02*
X433858D01*
X433268Y420472D02*
Y421654D01*
X444882Y421063D02*
X446063D01*
X445472Y420472D02*
Y421654D01*
X396063Y421063D02*
X397244D01*
X396654Y420472D02*
Y421654D01*
X383858Y421063D02*
X385039D01*
X384449Y420472D02*
Y421654D01*
X371654Y421063D02*
X372835D01*
X372244Y420472D02*
Y421654D01*
X359449Y421063D02*
X360630D01*
X360039Y420472D02*
Y421654D01*
X505905Y408858D02*
X507087D01*
X506496Y408268D02*
Y409449D01*
X518110Y408858D02*
X519291D01*
X518701Y408268D02*
Y409449D01*
X530315Y408858D02*
X531496D01*
X530905Y408268D02*
Y409449D01*
X542520Y408858D02*
X543701D01*
X543110Y408268D02*
Y409449D01*
X457087Y408858D02*
X458268D01*
X457677Y408268D02*
Y409449D01*
X469291Y408858D02*
X470472D01*
X469882Y408268D02*
Y409449D01*
X481496Y408858D02*
X482677D01*
X482087Y408268D02*
Y409449D01*
X493701Y408858D02*
X494882D01*
X494291Y408268D02*
Y409449D01*
X408268Y408858D02*
X409449D01*
X408858Y408268D02*
Y409449D01*
X420472Y408858D02*
X421654D01*
X421063Y408268D02*
Y409449D01*
X432677Y408858D02*
X433858D01*
X433268Y408268D02*
Y409449D01*
X444882Y408858D02*
X446063D01*
X445472Y408268D02*
Y409449D01*
X396063Y408858D02*
X397244D01*
X396654Y408268D02*
Y409449D01*
X383858Y408858D02*
X385039D01*
X384449Y408268D02*
Y409449D01*
X371654Y408858D02*
X372835D01*
X372244Y408268D02*
Y409449D01*
X359449Y408858D02*
X360630D01*
X360039Y408268D02*
Y409449D01*
X505905Y396654D02*
X507087D01*
X506496Y396063D02*
Y397244D01*
X518110Y396654D02*
X519291D01*
X518701Y396063D02*
Y397244D01*
X530315Y396654D02*
X531496D01*
X530905Y396063D02*
Y397244D01*
X542520Y396654D02*
X543701D01*
X543110Y396063D02*
Y397244D01*
X457087Y396654D02*
X458268D01*
X457677Y396063D02*
Y397244D01*
X469291Y396654D02*
X470472D01*
X469882Y396063D02*
Y397244D01*
X481496Y396654D02*
X482677D01*
X482087Y396063D02*
Y397244D01*
X493701Y396654D02*
X494882D01*
X494291Y396063D02*
Y397244D01*
X408268Y396654D02*
X409449D01*
X408858Y396063D02*
Y397244D01*
X420472Y396654D02*
X421654D01*
X421063Y396063D02*
Y397244D01*
X432677Y396654D02*
X433858D01*
X433268Y396063D02*
Y397244D01*
X444882Y396654D02*
X446063D01*
X445472Y396063D02*
Y397244D01*
X396063Y396654D02*
X397244D01*
X396654Y396063D02*
Y397244D01*
X383858Y396654D02*
X385039D01*
X384449Y396063D02*
Y397244D01*
X371654Y396654D02*
X372835D01*
X372244Y396063D02*
Y397244D01*
X359449Y396654D02*
X360630D01*
X360039Y396063D02*
Y397244D01*
X505905Y384449D02*
X507087D01*
X506496Y383858D02*
Y385039D01*
X518110Y384449D02*
X519291D01*
X518701Y383858D02*
Y385039D01*
X530315Y384449D02*
X531496D01*
X530905Y383858D02*
Y385039D01*
X542520Y384449D02*
X543701D01*
X543110Y383858D02*
Y385039D01*
X457087Y384449D02*
X458268D01*
X457677Y383858D02*
Y385039D01*
X469291Y384449D02*
X470472D01*
X469882Y383858D02*
Y385039D01*
X481496Y384449D02*
X482677D01*
X482087Y383858D02*
Y385039D01*
X493701Y384449D02*
X494882D01*
X494291Y383858D02*
Y385039D01*
X408268Y384449D02*
X409449D01*
X408858Y383858D02*
Y385039D01*
X420472Y384449D02*
X421654D01*
X421063Y383858D02*
Y385039D01*
X432677Y384449D02*
X433858D01*
X433268Y383858D02*
Y385039D01*
X444882Y384449D02*
X446063D01*
X445472Y383858D02*
Y385039D01*
X396063Y384449D02*
X397244D01*
X396654Y383858D02*
Y385039D01*
X383858Y384449D02*
X385039D01*
X384449Y383858D02*
Y385039D01*
X371654Y384449D02*
X372835D01*
X372244Y383858D02*
Y385039D01*
X359449Y384449D02*
X360630D01*
X360039Y383858D02*
Y385039D01*
X505905Y372244D02*
X507087D01*
X506496Y371654D02*
Y372835D01*
X518110Y372244D02*
X519291D01*
X518701Y371654D02*
Y372835D01*
X530315Y372244D02*
X531496D01*
X530905Y371654D02*
Y372835D01*
X542520Y372244D02*
X543701D01*
X543110Y371654D02*
Y372835D01*
X457087Y372244D02*
X458268D01*
X457677Y371654D02*
Y372835D01*
X469291Y372244D02*
X470472D01*
X469882Y371654D02*
Y372835D01*
X481496Y372244D02*
X482677D01*
X482087Y371654D02*
Y372835D01*
X493701Y372244D02*
X494882D01*
X494291Y371654D02*
Y372835D01*
X408268Y372244D02*
X409449D01*
X408858Y371654D02*
Y372835D01*
X420472Y372244D02*
X421654D01*
X421063Y371654D02*
Y372835D01*
X432677Y372244D02*
X433858D01*
X433268Y371654D02*
Y372835D01*
X444882Y372244D02*
X446063D01*
X445472Y371654D02*
Y372835D01*
X396063Y372244D02*
X397244D01*
X396654Y371654D02*
Y372835D01*
X383858Y372244D02*
X385039D01*
X384449Y371654D02*
Y372835D01*
X371654Y372244D02*
X372835D01*
X372244Y371654D02*
Y372835D01*
X359449Y372244D02*
X360630D01*
X360039Y371654D02*
Y372835D01*
X365551Y374752D02*
X366732D01*
X366142Y374161D02*
Y375342D01*
X353346Y369736D02*
X354528D01*
X353937Y369146D02*
Y370327D01*
X389961Y386957D02*
X391142D01*
X390551Y386366D02*
Y387547D01*
X377756Y381941D02*
X378937D01*
X378346Y381350D02*
Y382531D01*
X414370Y399161D02*
X415551D01*
X414961Y398571D02*
Y399752D01*
X402165Y394146D02*
X403346D01*
X402756Y393555D02*
Y394736D01*
X438779Y411366D02*
X439961D01*
X439370Y410776D02*
Y411957D01*
X426575Y406350D02*
X427756D01*
X427165Y405760D02*
Y406941D01*
X463189Y423571D02*
X464370D01*
X463779Y422980D02*
Y424161D01*
X450984Y418555D02*
X452165D01*
X451575Y417965D02*
Y419146D01*
X487598Y435776D02*
X488779D01*
X488189Y435185D02*
Y436366D01*
X475394Y430760D02*
X476575D01*
X475984Y430169D02*
Y431350D01*
X512008Y447980D02*
X513189D01*
X512598Y447390D02*
Y448571D01*
X499803Y442965D02*
X500984D01*
X500394Y442374D02*
Y443555D01*
X524213Y455169D02*
X525394D01*
X524803Y454579D02*
Y455760D01*
X348488Y430760D02*
X349669D01*
X349079Y430169D02*
Y431350D01*
X348488Y435776D02*
X349669D01*
X349079Y435185D02*
Y436366D01*
X348488Y418555D02*
X349669D01*
X349079Y417965D02*
Y419146D01*
X348488Y423571D02*
X349669D01*
X349079Y422980D02*
Y424161D01*
X348488Y406350D02*
X349669D01*
X349079Y405760D02*
Y406941D01*
X348488Y411366D02*
X349669D01*
X349079Y410776D02*
Y411957D01*
X348488Y394146D02*
X349669D01*
X349079Y393555D02*
Y394736D01*
X348488Y399161D02*
X349669D01*
X349079Y398571D02*
Y399752D01*
X549992Y460185D02*
X551173D01*
X550582Y459594D02*
Y460776D01*
X536417Y362547D02*
X537598D01*
X537008Y361957D02*
Y363138D01*
X407809Y467402D02*
X408990D01*
X408400Y466811D02*
Y467992D01*
X518010Y462000D02*
X519191D01*
X518600Y461410D02*
Y462591D01*
X524209Y460200D02*
X525390D01*
X524800Y459610D02*
Y460790D01*
X490510Y469647D02*
X491690D01*
X491100Y469057D02*
Y470238D01*
X456310Y466100D02*
X457490D01*
X456900Y465510D02*
Y466690D01*
X458410Y477108D02*
X459590D01*
X459000Y476517D02*
Y477698D01*
X397410Y356387D02*
X398590D01*
X398000Y355796D02*
Y356977D01*
X482059Y335033D02*
X483241D01*
X482650Y334442D02*
Y335624D01*
X518010Y335000D02*
X519191D01*
X518600Y334409D02*
Y335591D01*
X377710Y353581D02*
X378890D01*
X378300Y352991D02*
Y354172D01*
X338803Y363409D02*
X339984D01*
X339394Y362819D02*
Y364000D01*
X338803Y366516D02*
X339984D01*
X339394Y365925D02*
Y367106D01*
X338831Y455197D02*
X340012D01*
X339421Y454606D02*
Y455787D01*
D13*
X502594Y335033D02*
X504956D01*
X510861D02*
X513224D01*
X510861Y331884D02*
Y338183D01*
X504956Y331884D02*
Y338183D01*
X502594D02*
X513224D01*
X502594Y331884D02*
Y338183D01*
Y331884D02*
X513224D01*
Y338183D01*
M02*
