G04 Layer_Color=2752767*
%FSLAX25Y25*%
%MOIN*%
G70*
G01*
G75*
%ADD10C,0.00500*%
%ADD11C,0.00079*%
%ADD12C,0.00200*%
%ADD13C,0.00267*%
D10*
X207400Y14000D02*
G03*
X210700Y14000I1650J860D01*
G01*
X203700Y8800D02*
G03*
X203700Y12100I-860J1650D01*
G01*
X210700Y23700D02*
G03*
X206500Y28200I-4350J150D01*
G01*
X182400Y13100D02*
G03*
X186900Y8800I4400J100D01*
G01*
X186800Y28200D02*
G03*
X182400Y23900I-50J-4350D01*
G01*
X185700Y13100D02*
G03*
X186700Y12100I1000J0D01*
G01*
X207400Y23700D02*
G03*
X206500Y24900I-1050J150D01*
G01*
X186700D02*
G03*
X185700Y23900I0J-1000D01*
G01*
X11493Y130208D02*
G03*
X13684Y132348I15J2177D01*
G01*
X13700Y26968D02*
G03*
X11739Y29006I-1999J39D01*
G01*
X13700Y91513D02*
G03*
X13700Y97913I7J3200D01*
G01*
X11475Y130168D02*
G03*
X13678Y132333I61J2141D01*
G01*
X13682Y26928D02*
G03*
X11777Y28945I-1961J56D01*
G01*
X210700Y14000D02*
Y23700D01*
X197800Y28200D02*
X206500D01*
X197800Y24900D02*
Y28200D01*
X186900Y8800D02*
X203700D01*
X182400Y13100D02*
Y23900D01*
X186800Y28200D02*
X187500D01*
X195400Y24900D02*
Y28200D01*
X197800Y24900D02*
X206000D01*
X185700Y13100D02*
Y14200D01*
X207400Y19000D02*
Y21000D01*
X206000Y24900D02*
X206500D01*
X186700D02*
X187000D01*
X187500Y28200D02*
X195400D01*
X237034Y8339D02*
Y150742D01*
X207400Y14000D02*
Y19000D01*
Y21000D02*
Y23700D01*
X186700Y12100D02*
X203700D01*
X187000Y24900D02*
X195400D01*
X185700Y14200D02*
Y23900D01*
X13684Y132348D02*
Y158290D01*
X13678Y132342D02*
X13684Y132348D01*
X13700Y809D02*
Y26968D01*
Y809D02*
X13709Y800D01*
X237034D01*
Y158290D01*
X13684D02*
X237034D01*
X2115Y130208D02*
X11493D01*
X618Y128712D02*
X2115Y130208D01*
X618Y99206D02*
Y128712D01*
X1912Y91600D02*
X13299D01*
X618Y90306D02*
X1912Y91600D01*
X618Y30506D02*
Y90306D01*
Y30506D02*
X2118Y29006D01*
X11739D01*
X618Y99206D02*
X1900Y97924D01*
X13283D01*
X600Y30466D02*
X2100Y28966D01*
X600Y30466D02*
Y90266D01*
X1847Y91513D02*
X13690D01*
X600Y90266D02*
X1847Y91513D01*
X1853Y97913D02*
X13690D01*
X600Y99166D02*
Y128672D01*
X2076Y130147D02*
X11487D01*
X600Y128672D02*
X2076Y130147D01*
X600Y99166D02*
X1853Y97913D01*
X2100Y28966D02*
X11721D01*
D11*
X225955Y27532D02*
X228317D01*
X217687Y27532D02*
X220050Y27532D01*
X220050Y24382D02*
Y30681D01*
X225955Y24382D02*
Y30681D01*
X217687Y24382D02*
X228317Y24382D01*
X228317Y30681D02*
X228317Y24382D01*
X217687Y30681D02*
X228317D01*
X217687Y24382D02*
Y30681D01*
D12*
X222700Y13500D02*
Y15100D01*
X224300D01*
Y13500D01*
X222700D01*
Y144000D02*
Y145600D01*
X224300D01*
Y144000D01*
X222700D01*
X210100Y81000D02*
X209300Y82600D01*
X210900D01*
X210100Y81000D01*
X210200Y93300D02*
X209400Y94900D01*
X211000D01*
X210200Y93300D01*
Y99600D02*
X209400Y101200D01*
X211000D01*
X210200Y99600D01*
X146200Y99500D02*
X145400Y101100D01*
X147000D01*
X146200Y99500D01*
X203900Y129800D02*
X203100Y131400D01*
X204700D01*
X203900Y129800D01*
X210200Y74700D02*
X209400Y76300D01*
X211000D01*
X210200Y74700D01*
Y68600D02*
X209400Y70200D01*
X211000D01*
X210200Y68600D01*
X161600Y58500D02*
X160800Y60100D01*
X162400D01*
X161600Y58500D01*
X161700Y44600D02*
X160900Y46200D01*
X162500D01*
X161700Y44600D01*
X161600Y124300D02*
X160800Y125900D01*
X162400D01*
X161600Y124300D01*
X161300Y114600D02*
X160500Y116200D01*
X162100D01*
X161300Y114600D01*
X161400Y108100D02*
X160600Y109700D01*
X162200D01*
X161400Y108100D01*
X189100Y71700D02*
X188300Y73300D01*
X189900D01*
X189100Y71700D01*
Y77200D02*
X188300Y78800D01*
X189900D01*
X189100Y77200D01*
X191600Y55900D02*
X190800Y57500D01*
X192400D01*
X191600Y55900D01*
X186000Y69100D02*
X185200Y70700D01*
X186800D01*
X186000Y69100D01*
X185900Y80000D02*
X185100Y81600D01*
X186700D01*
X185900Y80000D01*
X189100Y82700D02*
X188300Y84300D01*
X189900D01*
X189100Y82700D01*
Y88300D02*
X188300Y89900D01*
X189900D01*
X189100Y88300D01*
X185900Y90900D02*
X185100Y92500D01*
X186700D01*
X185900Y90900D01*
X189100Y93600D02*
X188300Y95200D01*
X189900D01*
X189100Y93600D01*
X185900Y96200D02*
X185100Y97800D01*
X186700D01*
X185900Y96200D01*
X189100Y99000D02*
X188300Y100600D01*
X189900D01*
X189100Y99000D01*
X185900Y101900D02*
X185100Y103500D01*
X186700D01*
X185900Y101900D01*
Y85400D02*
X185100Y87000D01*
X186700D01*
X185900Y85400D01*
X189100Y104700D02*
X188300Y106300D01*
X189900D01*
X189100Y104700D01*
X159500Y27800D02*
X158700Y29400D01*
X160300D01*
X159500Y27800D01*
X183100Y46900D02*
X182300Y48500D01*
X183900D01*
X183100Y46900D01*
Y42500D02*
X182300Y44100D01*
X183900D01*
X183100Y42500D01*
X185900Y74300D02*
X185100Y75900D01*
X186700D01*
X185900Y74300D01*
X209300Y45900D02*
X208500Y47500D01*
X210100D01*
X209300Y45900D01*
X213200Y42700D02*
X212400Y44300D01*
X214000D01*
X213200Y42700D01*
X216600Y39500D02*
X215800Y41100D01*
X217400D01*
X216600Y39500D01*
X209700Y105300D02*
X208900Y106900D01*
X210500D01*
X209700Y105300D01*
X216900Y49900D02*
X216100Y51500D01*
X217700D01*
X216900Y49900D01*
X210200Y87100D02*
X209400Y88700D01*
X211000D01*
X210200Y87100D01*
X33500Y36200D02*
X32700Y37800D01*
X34300D01*
X33500Y36200D01*
Y31500D02*
X32700Y33100D01*
X34300D01*
X33500Y31500D01*
X33600Y27000D02*
X32800Y28600D01*
X34400D01*
X33600Y27000D01*
Y18000D02*
X32800Y19600D01*
X34400D01*
X33600Y18000D01*
Y22500D02*
X32800Y24100D01*
X34400D01*
X33600Y22500D01*
X23100Y125200D02*
X22300Y126800D01*
X23900D01*
X23100Y125200D01*
X23000Y120400D02*
X22200Y122000D01*
X23800D01*
X23000Y120400D01*
Y104800D02*
X22200Y106400D01*
X23800D01*
X23000Y104800D01*
Y87300D02*
X22200Y88900D01*
X23800D01*
X23000Y87300D01*
X20800Y34000D02*
X20000Y35600D01*
X21600D01*
X20800Y34000D01*
X229600Y32400D02*
X228800Y34000D01*
X230400D01*
X229600Y32400D01*
X23000Y110300D02*
X22200Y111900D01*
X23800D01*
X23000Y110300D01*
Y94100D02*
X22200Y95700D01*
X23800D01*
X23000Y94100D01*
X23500Y19400D02*
X22700Y21000D01*
X24300D01*
X23500Y19400D01*
X165700Y94600D02*
X164900Y96200D01*
X166500D01*
X165700Y94600D01*
X228700Y81200D02*
X227900Y82800D01*
X229500D01*
X228700Y81200D01*
X23000Y100600D02*
X22200Y102200D01*
X23800D01*
X23000Y100600D01*
X161500Y94600D02*
X160700Y96200D01*
X162300D01*
X161500Y94600D01*
X214900Y117000D02*
X214100Y118600D01*
X215700D01*
X214900Y117000D01*
X221900Y128400D02*
X221100Y130000D01*
X222700D01*
X221900Y128400D01*
X206500Y32800D02*
X205700Y34400D01*
X207300D01*
X206500Y32800D01*
X209600Y52600D02*
X208800Y54200D01*
X210400D01*
X209600Y52600D01*
X215600Y56400D02*
X214800Y58000D01*
X216400D01*
X215600Y56400D01*
X224100Y76300D02*
X223300Y77900D01*
X224900D01*
X224100Y76300D01*
X217200Y81100D02*
X216400Y82700D01*
X218000D01*
X217200Y81100D01*
X230400Y63000D02*
X229600Y64600D01*
X231200D01*
X230400Y63000D01*
X208700Y62600D02*
X207900Y64200D01*
X209500D01*
X208700Y62600D01*
X172800Y120500D02*
X172000Y122100D01*
X173600D01*
X172800Y120500D01*
X224900Y32600D02*
X224100Y34200D01*
X225700D01*
X224900Y32600D01*
X172500Y104200D02*
X171700Y105800D01*
X173300D01*
X172500Y104200D01*
X189000Y33700D02*
X188200Y35300D01*
X189800D01*
X189000Y33700D01*
X223600Y66100D02*
X222800Y67700D01*
X224400D01*
X223600Y66100D01*
D13*
X49900Y31600D02*
G03*
X49900Y31600I-800J0D01*
G01*
X59900D02*
G03*
X59900Y31600I-800J0D01*
G01*
X69900D02*
G03*
X69900Y31600I-800J0D01*
G01*
X79900D02*
G03*
X79900Y31600I-800J0D01*
G01*
X89900D02*
G03*
X89900Y31600I-800J0D01*
G01*
X99900D02*
G03*
X99900Y31600I-800J0D01*
G01*
X109900D02*
G03*
X109900Y31600I-800J0D01*
G01*
X119900D02*
G03*
X119900Y31600I-800J0D01*
G01*
X50100Y125900D02*
G03*
X50100Y125900I-800J0D01*
G01*
X60100D02*
G03*
X60100Y125900I-800J0D01*
G01*
X70100D02*
G03*
X70100Y125900I-800J0D01*
G01*
X80100D02*
G03*
X80100Y125900I-800J0D01*
G01*
X90100D02*
G03*
X90100Y125900I-800J0D01*
G01*
X100100D02*
G03*
X100100Y125900I-800J0D01*
G01*
X110100D02*
G03*
X110100Y125900I-800J0D01*
G01*
X120100D02*
G03*
X120100Y125900I-800J0D01*
G01*
X217800Y87700D02*
G03*
X217800Y87700I-800J0D01*
G01*
X227800D02*
G03*
X227800Y87700I-800J0D01*
G01*
Y71558D02*
G03*
X227800Y71558I-800J0D01*
G01*
X217800D02*
G03*
X217800Y71558I-800J0D01*
G01*
M02*
