G04 Layer_Color=255*
%FSLAX25Y25*%
%MOIN*%
G70*
G01*
G75*
%ADD10R,0.03800X0.03500*%
%ADD11R,0.05000X0.04000*%
%ADD12R,0.04000X0.04000*%
%ADD13R,0.10039X0.02362*%
%ADD14R,0.04724X0.04724*%
%ADD15R,0.05906X0.06299*%
%ADD16R,0.03500X0.03800*%
%ADD17R,0.02400X0.08000*%
%ADD18R,0.03150X0.00866*%
%ADD19R,0.03150X0.01063*%
%ADD25C,0.12598*%
%ADD26C,0.05906*%
%ADD27R,0.05906X0.05906*%
D10*
X203900Y56900D02*
D03*
X197000D02*
D03*
X221600Y44100D02*
D03*
X228500D02*
D03*
X228600Y111700D02*
D03*
X221700D02*
D03*
Y105600D02*
D03*
X228600D02*
D03*
X221600Y50000D02*
D03*
X228500D02*
D03*
X221600Y38100D02*
D03*
X228500D02*
D03*
X221600Y55900D02*
D03*
X228500D02*
D03*
X197000Y50700D02*
D03*
X203900D02*
D03*
X221700Y117800D02*
D03*
X228600D02*
D03*
X203933Y94197D02*
D03*
X197033D02*
D03*
X203933Y100397D02*
D03*
X197033D02*
D03*
X203933Y63197D02*
D03*
X197033D02*
D03*
X203933Y106597D02*
D03*
X197033D02*
D03*
X203933Y87997D02*
D03*
X197033D02*
D03*
X203933Y69397D02*
D03*
X197033D02*
D03*
X203933Y81797D02*
D03*
X197033D02*
D03*
X203933Y75597D02*
D03*
X197033D02*
D03*
X221800Y99500D02*
D03*
X228700D02*
D03*
X228600Y61900D02*
D03*
X221700D02*
D03*
D11*
X161700Y20554D02*
D03*
Y120240D02*
D03*
Y87011D02*
D03*
Y70397D02*
D03*
Y103625D02*
D03*
Y53783D02*
D03*
Y37168D02*
D03*
Y136854D02*
D03*
D12*
X169700Y16854D02*
D03*
Y24354D02*
D03*
Y124040D02*
D03*
Y116540D02*
D03*
Y83311D02*
D03*
Y90811D02*
D03*
Y74197D02*
D03*
Y66697D02*
D03*
Y99925D02*
D03*
Y107425D02*
D03*
Y57583D02*
D03*
Y50083D02*
D03*
Y33468D02*
D03*
Y40968D02*
D03*
Y140654D02*
D03*
Y133154D02*
D03*
D13*
X6800Y34676D02*
D03*
Y37826D02*
D03*
Y40976D02*
D03*
Y44125D02*
D03*
Y47275D02*
D03*
Y50424D02*
D03*
Y53574D02*
D03*
Y56724D02*
D03*
Y59873D02*
D03*
Y63023D02*
D03*
Y66172D02*
D03*
Y69322D02*
D03*
Y72472D02*
D03*
Y75621D02*
D03*
Y78771D02*
D03*
Y81920D02*
D03*
Y85070D02*
D03*
Y88220D02*
D03*
Y103966D02*
D03*
Y107116D02*
D03*
Y110265D02*
D03*
Y113415D02*
D03*
Y116565D02*
D03*
Y119714D02*
D03*
Y122864D02*
D03*
Y126013D02*
D03*
D14*
X228100Y133300D02*
D03*
Y124700D02*
D03*
D15*
X215126Y129000D02*
D03*
D16*
X155300Y123726D02*
D03*
Y116826D02*
D03*
Y90668D02*
D03*
Y83768D02*
D03*
Y74140D02*
D03*
Y67240D02*
D03*
X155200Y40968D02*
D03*
Y34068D02*
D03*
X177700Y23700D02*
D03*
Y16800D02*
D03*
Y123426D02*
D03*
Y116526D02*
D03*
Y90200D02*
D03*
Y83300D02*
D03*
Y73840D02*
D03*
Y66940D02*
D03*
Y106897D02*
D03*
Y99997D02*
D03*
Y57311D02*
D03*
Y50411D02*
D03*
Y40600D02*
D03*
Y33700D02*
D03*
Y139954D02*
D03*
Y133054D02*
D03*
X155300Y140254D02*
D03*
Y133354D02*
D03*
X155200Y57100D02*
D03*
Y50200D02*
D03*
X155300Y107197D02*
D03*
Y100297D02*
D03*
Y24100D02*
D03*
Y17200D02*
D03*
D17*
X194100Y41700D02*
D03*
X204100D02*
D03*
X199100D02*
D03*
X189100D02*
D03*
X204100Y19700D02*
D03*
X199100D02*
D03*
X194100D02*
D03*
X189100D02*
D03*
X194000Y137900D02*
D03*
X204000D02*
D03*
X199000D02*
D03*
X189000D02*
D03*
X204000Y115900D02*
D03*
X199000D02*
D03*
X194000D02*
D03*
X189000D02*
D03*
D18*
X229400Y29500D02*
D03*
Y27532D02*
D03*
X216605Y29500D02*
D03*
Y27532D02*
D03*
Y25563D02*
D03*
D19*
X229400Y25465D02*
D03*
D25*
X223500Y14300D02*
D03*
Y144800D02*
D03*
D26*
X49100Y31600D02*
D03*
X59100D02*
D03*
X69100D02*
D03*
X79100D02*
D03*
X89100D02*
D03*
X99100D02*
D03*
X109100D02*
D03*
X119100D02*
D03*
X49300Y125900D02*
D03*
X59300D02*
D03*
X69300D02*
D03*
X79300D02*
D03*
X89300D02*
D03*
X99300D02*
D03*
X109300D02*
D03*
X217000Y87700D02*
D03*
X227000D02*
D03*
Y71558D02*
D03*
X217000D02*
D03*
D27*
X119300Y125900D02*
D03*
M02*
