M48
;Layer_Color=9474304
;FILE_FORMAT=2:5
INCH,LZ
;TYPE=PLATED
T1F00S00C0.01181
T2F00S00C0.03543
T3F00S00C0.11811
%
T01
X02065Y00336
X02093Y00467
X02096Y00534
X02156Y00572
X02169Y00507
X02166Y00403
X02132Y00435
X02249Y00334
X02296Y00332
X02304Y00638
X02236Y00669
X02087Y00634
X01916Y00567
X01831Y00477
Y00433
X0189Y00345
X01595Y00286
X01617Y00454
X01616Y00593
X00335Y0037
Y00323
X00336Y00278
Y00233
Y00188
X00235Y00202
X00208Y00348
X0023Y00881
Y00949
Y01014
Y01056
Y01111
Y01212
X00231Y0126
X01616Y01251
X01613Y01154
X01614Y01089
X01615Y00954
X01657
X01725Y0105
X01859Y01027
Y0097
Y00917
Y00862
Y00808
Y00751
X0186Y00699
X01891Y00725
Y0078
Y00835
Y00891
Y00944
Y00998
Y01055
X01728Y01213
X01462Y01003
X02102Y01004
X02097Y01061
X02102Y00941
Y00879
X02101Y00818
X02102Y00755
Y00694
X02172Y00819
X02287Y0082
X02241Y00771
X02149Y01178
X02219Y01292
X02039Y01306
T02
X00491Y00316
X00591
X00691
X00791
X00891
X00991
X01091
X01191
X01193Y01259
X01093
X00993
X00893
X00793
X00693
X00593
X00493
X0217Y00877
X0227
Y0071558
X0217
T03
X02235Y00143
Y01448
M30
