G04 Layer_Color=14360714*
%FSLAX25Y25*%
%MOIN*%
G70*
G01*
G75*
%ADD42R,0.10839X0.03162*%
%ADD49C,0.13398*%
%ADD50C,0.06706*%
%ADD51R,0.06706X0.06706*%
%ADD52R,0.12402X1.02700*%
D42*
X6799Y124439D02*
D03*
X6800Y121289D02*
D03*
Y118139D02*
D03*
Y114990D02*
D03*
Y111840D02*
D03*
Y108691D02*
D03*
Y105541D02*
D03*
Y102391D02*
D03*
Y86643D02*
D03*
Y83494D02*
D03*
Y80344D02*
D03*
Y77194D02*
D03*
Y74045D02*
D03*
Y70895D02*
D03*
Y67746D02*
D03*
Y64596D02*
D03*
Y61446D02*
D03*
Y58297D02*
D03*
Y55147D02*
D03*
Y51998D02*
D03*
Y48848D02*
D03*
Y45698D02*
D03*
Y42549D02*
D03*
Y39399D02*
D03*
Y36250D02*
D03*
Y33100D02*
D03*
D49*
X223500Y14300D02*
D03*
Y144800D02*
D03*
D50*
X49100Y31600D02*
D03*
X59100D02*
D03*
X69100D02*
D03*
X79100D02*
D03*
X89100D02*
D03*
X99100D02*
D03*
X109100D02*
D03*
X119100D02*
D03*
X49300Y125900D02*
D03*
X59300D02*
D03*
X69300D02*
D03*
X79300D02*
D03*
X89300D02*
D03*
X99300D02*
D03*
X109300D02*
D03*
X217000Y87700D02*
D03*
X227000D02*
D03*
Y71558D02*
D03*
X217000D02*
D03*
D51*
X119300Y125900D02*
D03*
D52*
X6308Y80316D02*
D03*
M02*
