G04 Layer_Color=128*
%FSLAX25Y25*%
%MOIN*%
G70*
G01*
G75*
%ADD10C,0.00500*%
%ADD11C,0.00079*%
%ADD12C,0.00200*%
D10*
X207400Y14000D02*
G03*
X210700Y14000I1650J860D01*
G01*
X203700Y8800D02*
G03*
X203700Y12100I-860J1650D01*
G01*
X210700Y23700D02*
G03*
X206500Y28200I-4350J150D01*
G01*
X182400Y13100D02*
G03*
X186900Y8800I4400J100D01*
G01*
X186800Y28200D02*
G03*
X182400Y23900I-50J-4350D01*
G01*
X185700Y13100D02*
G03*
X186700Y12100I1000J0D01*
G01*
X207400Y23700D02*
G03*
X206500Y24900I-1050J150D01*
G01*
X186700D02*
G03*
X185700Y23900I0J-1000D01*
G01*
X11493Y130208D02*
G03*
X13684Y132348I15J2177D01*
G01*
X13700Y26968D02*
G03*
X11739Y29006I-1999J39D01*
G01*
X13700Y91513D02*
G03*
X13700Y97913I7J3200D01*
G01*
X11475Y130168D02*
G03*
X13678Y132333I61J2141D01*
G01*
X13682Y26928D02*
G03*
X11777Y28945I-1961J56D01*
G01*
X210700Y14000D02*
Y23700D01*
X197800Y28200D02*
X206500D01*
X197800Y24900D02*
Y28200D01*
X186900Y8800D02*
X203700D01*
X182400Y13100D02*
Y23900D01*
X186800Y28200D02*
X187500D01*
X195400Y24900D02*
Y28200D01*
X197800Y24900D02*
X206000D01*
X185700Y13100D02*
Y14200D01*
X207400Y19000D02*
Y21000D01*
X206000Y24900D02*
X206500D01*
X186700D02*
X187000D01*
X187500Y28200D02*
X195400D01*
X237034Y8339D02*
Y150742D01*
X207400Y14000D02*
Y19000D01*
Y21000D02*
Y23700D01*
X186700Y12100D02*
X203700D01*
X187000Y24900D02*
X195400D01*
X185700Y14200D02*
Y23900D01*
X13684Y132348D02*
Y158290D01*
X13678Y132342D02*
X13684Y132348D01*
X13700Y809D02*
Y26968D01*
Y809D02*
X13709Y800D01*
X237034D01*
Y158290D01*
X13684D02*
X237034D01*
X2115Y130208D02*
X11493D01*
X618Y128712D02*
X2115Y130208D01*
X618Y99206D02*
Y128712D01*
X1912Y91600D02*
X13299D01*
X618Y90306D02*
X1912Y91600D01*
X618Y30506D02*
Y90306D01*
Y30506D02*
X2118Y29006D01*
X11739D01*
X618Y99206D02*
X1900Y97924D01*
X13283D01*
X600Y30466D02*
X2100Y28966D01*
X600Y30466D02*
Y90266D01*
X1847Y91513D02*
X13690D01*
X600Y90266D02*
X1847Y91513D01*
X1853Y97913D02*
X13690D01*
X600Y99166D02*
Y128672D01*
X2076Y130147D02*
X11487D01*
X600Y128672D02*
X2076Y130147D01*
X600Y99166D02*
X1853Y97913D01*
X2100Y28966D02*
X11721D01*
D11*
X225955Y27532D02*
X228317D01*
X217687Y27532D02*
X220050Y27532D01*
X220050Y24382D02*
Y30681D01*
X225955Y24382D02*
Y30681D01*
X217687Y24382D02*
X228317Y24382D01*
X228317Y30681D02*
X228317Y24382D01*
X217687Y30681D02*
X228317D01*
X217687Y24382D02*
Y30681D01*
D12*
X217595Y14300D02*
X229405D01*
X223500Y8394D02*
Y20206D01*
X217595Y144800D02*
X229405D01*
X223500Y138894D02*
Y150706D01*
X47328Y31600D02*
X50872D01*
X49100Y29828D02*
Y33372D01*
X57328Y31600D02*
X60872D01*
X59100Y29828D02*
Y33372D01*
X67328Y31600D02*
X70872D01*
X69100Y29828D02*
Y33372D01*
X77328Y31600D02*
X80872D01*
X79100Y29828D02*
Y33372D01*
X87328Y31600D02*
X90872D01*
X89100Y29828D02*
Y33372D01*
X97328Y31600D02*
X100872D01*
X99100Y29828D02*
Y33372D01*
X107328Y31600D02*
X110872D01*
X109100Y29828D02*
Y33372D01*
X117328Y31600D02*
X120872D01*
X119100Y29828D02*
Y33372D01*
X47528Y125900D02*
X51072D01*
X49300Y124128D02*
Y127672D01*
X57528Y125900D02*
X61072D01*
X59300Y124128D02*
Y127672D01*
X67528Y125900D02*
X71072D01*
X69300Y124128D02*
Y127672D01*
X77528Y125900D02*
X81072D01*
X79300Y124128D02*
Y127672D01*
X87528Y125900D02*
X91072D01*
X89300Y124128D02*
Y127672D01*
X97528Y125900D02*
X101072D01*
X99300Y124128D02*
Y127672D01*
X107528Y125900D02*
X111072D01*
X109300Y124128D02*
Y127672D01*
X117528Y125900D02*
X121072D01*
X119300Y124128D02*
Y127672D01*
X215228Y87700D02*
X218772D01*
X217000Y85928D02*
Y89472D01*
X225228Y87700D02*
X228772D01*
X227000Y85928D02*
Y89472D01*
X225228Y71558D02*
X228772D01*
X227000Y69787D02*
Y73330D01*
X215228Y71558D02*
X218772D01*
X217000Y69787D02*
Y73330D01*
X209509Y81800D02*
X210690D01*
X210100Y81209D02*
Y82390D01*
X209610Y94100D02*
X210790D01*
X210200Y93510D02*
Y94691D01*
X209610Y100400D02*
X210790D01*
X210200Y99809D02*
Y100990D01*
X145609Y100300D02*
X146791D01*
X146200Y99709D02*
Y100891D01*
X203309Y130600D02*
X204491D01*
X203900Y130009D02*
Y131191D01*
X209610Y75500D02*
X210790D01*
X210200Y74910D02*
Y76091D01*
X209610Y69400D02*
X210790D01*
X210200Y68809D02*
Y69990D01*
X161009Y59300D02*
X162191D01*
X161600Y58710D02*
Y59891D01*
X161109Y45400D02*
X162291D01*
X161700Y44809D02*
Y45991D01*
X161009Y125100D02*
X162191D01*
X161600Y124509D02*
Y125691D01*
X160709Y115400D02*
X161891D01*
X161300Y114809D02*
Y115991D01*
X160809Y108900D02*
X161991D01*
X161400Y108309D02*
Y109491D01*
X188509Y72500D02*
X189691D01*
X189100Y71909D02*
Y73090D01*
X188509Y78000D02*
X189691D01*
X189100Y77409D02*
Y78591D01*
X191009Y56700D02*
X192191D01*
X191600Y56109D02*
Y57291D01*
X185409Y69900D02*
X186591D01*
X186000Y69310D02*
Y70490D01*
X185309Y80800D02*
X186491D01*
X185900Y80209D02*
Y81391D01*
X188509Y83500D02*
X189691D01*
X189100Y82910D02*
Y84091D01*
X188509Y89100D02*
X189691D01*
X189100Y88510D02*
Y89691D01*
X185309Y91700D02*
X186491D01*
X185900Y91110D02*
Y92291D01*
X188509Y94400D02*
X189691D01*
X189100Y93809D02*
Y94990D01*
X185309Y97000D02*
X186491D01*
X185900Y96409D02*
Y97591D01*
X188509Y99800D02*
X189691D01*
X189100Y99209D02*
Y100391D01*
X185309Y102700D02*
X186491D01*
X185900Y102110D02*
Y103291D01*
X185309Y86200D02*
X186491D01*
X185900Y85610D02*
Y86791D01*
X188509Y105500D02*
X189691D01*
X189100Y104909D02*
Y106091D01*
X158909Y28600D02*
X160091D01*
X159500Y28009D02*
Y29191D01*
X182509Y47700D02*
X183691D01*
X183100Y47109D02*
Y48291D01*
X182509Y43300D02*
X183691D01*
X183100Y42709D02*
Y43891D01*
X185309Y75100D02*
X186491D01*
X185900Y74510D02*
Y75691D01*
X208710Y46700D02*
X209891D01*
X209300Y46109D02*
Y47291D01*
X212610Y43500D02*
X213790D01*
X213200Y42909D02*
Y44091D01*
X216009Y40300D02*
X217191D01*
X216600Y39709D02*
Y40891D01*
X209109Y106100D02*
X210291D01*
X209700Y105509D02*
Y106691D01*
X216309Y50700D02*
X217491D01*
X216900Y50109D02*
Y51291D01*
X209610Y87900D02*
X210790D01*
X210200Y87309D02*
Y88490D01*
X32909Y37000D02*
X34091D01*
X33500Y36409D02*
Y37591D01*
X32909Y32300D02*
X34091D01*
X33500Y31709D02*
Y32891D01*
X33009Y27800D02*
X34191D01*
X33600Y27209D02*
Y28391D01*
X33009Y18800D02*
X34191D01*
X33600Y18210D02*
Y19390D01*
X33009Y23300D02*
X34191D01*
X33600Y22709D02*
Y23890D01*
X22510Y126000D02*
X23690D01*
X23100Y125409D02*
Y126591D01*
X22410Y121200D02*
X23591D01*
X23000Y120609D02*
Y121791D01*
X22410Y105600D02*
X23591D01*
X23000Y105009D02*
Y106191D01*
X22410Y88100D02*
X23591D01*
X23000Y87510D02*
Y88691D01*
X20210Y34800D02*
X21391D01*
X20800Y34209D02*
Y35391D01*
X229010Y33200D02*
X230190D01*
X229600Y32609D02*
Y33791D01*
X22410Y111100D02*
X23591D01*
X23000Y110509D02*
Y111691D01*
X22410Y94900D02*
X23591D01*
X23000Y94310D02*
Y95490D01*
X22909Y20200D02*
X24091D01*
X23500Y19610D02*
Y20790D01*
X165109Y95400D02*
X166291D01*
X165700Y94810D02*
Y95991D01*
X228110Y82000D02*
X229291D01*
X228700Y81410D02*
Y82591D01*
X22410Y101400D02*
X23591D01*
X23000Y100810D02*
Y101990D01*
X160909Y95400D02*
X162091D01*
X161500Y94810D02*
Y95991D01*
X214310Y117800D02*
X215491D01*
X214900Y117209D02*
Y118391D01*
X221309Y129200D02*
X222491D01*
X221900Y128609D02*
Y129791D01*
X205909Y33600D02*
X207090D01*
X206500Y33009D02*
Y34191D01*
X209010Y53400D02*
X210191D01*
X209600Y52810D02*
Y53991D01*
X215009Y57200D02*
X216191D01*
X215600Y56609D02*
Y57790D01*
X223510Y77100D02*
X224691D01*
X224100Y76509D02*
Y77691D01*
X216610Y81900D02*
X217791D01*
X217200Y81309D02*
Y82490D01*
X229809Y63800D02*
X230991D01*
X230400Y63209D02*
Y64390D01*
X208109Y63400D02*
X209291D01*
X208700Y62809D02*
Y63990D01*
X172209Y121300D02*
X173391D01*
X172800Y120709D02*
Y121891D01*
X224309Y33400D02*
X225490D01*
X224900Y32809D02*
Y33991D01*
X171909Y105000D02*
X173091D01*
X172500Y104409D02*
Y105591D01*
X188409Y34500D02*
X189591D01*
X189000Y33909D02*
Y35091D01*
X223009Y66900D02*
X224190D01*
X223600Y66309D02*
Y67491D01*
M02*
