G04 Layer_Color=16711935*
%FSLAX25Y25*%
%MOIN*%
G70*
G01*
G75*
%ADD53C,0.00500*%
%ADD54C,0.00079*%
D53*
X207400Y14000D02*
G03*
X210700Y14000I1650J860D01*
G01*
X203700Y8800D02*
G03*
X203700Y12100I-860J1650D01*
G01*
X210700Y23700D02*
G03*
X206500Y28200I-4350J150D01*
G01*
X182400Y13100D02*
G03*
X186900Y8800I4400J100D01*
G01*
X186800Y28200D02*
G03*
X182400Y23900I-50J-4350D01*
G01*
X185700Y13100D02*
G03*
X186700Y12100I1000J0D01*
G01*
X207400Y23700D02*
G03*
X206500Y24900I-1050J150D01*
G01*
X186700D02*
G03*
X185700Y23900I0J-1000D01*
G01*
X11493Y130208D02*
G03*
X13684Y132348I15J2177D01*
G01*
X13700Y26968D02*
G03*
X11739Y29006I-1999J39D01*
G01*
X13700Y91513D02*
G03*
X13700Y97913I7J3200D01*
G01*
X11475Y130168D02*
G03*
X13678Y132333I61J2141D01*
G01*
X13682Y26928D02*
G03*
X11777Y28945I-1961J56D01*
G01*
X210700Y14000D02*
Y23700D01*
X197800Y28200D02*
X206500D01*
X197800Y24900D02*
Y28200D01*
X186900Y8800D02*
X203700D01*
X182400Y13100D02*
Y23900D01*
X186800Y28200D02*
X187500D01*
X195400Y24900D02*
Y28200D01*
X197800Y24900D02*
X206000D01*
X185700Y13100D02*
Y14200D01*
X207400Y19000D02*
Y21000D01*
X206000Y24900D02*
X206500D01*
X186700D02*
X187000D01*
X187500Y28200D02*
X195400D01*
X237034Y8339D02*
Y150742D01*
X207400Y14000D02*
Y19000D01*
Y21000D02*
Y23700D01*
X186700Y12100D02*
X203700D01*
X187000Y24900D02*
X195400D01*
X185700Y14200D02*
Y23900D01*
X13684Y132348D02*
Y158290D01*
X13678Y132342D02*
X13684Y132348D01*
X13700Y809D02*
Y26968D01*
Y809D02*
X13709Y800D01*
X237034D01*
Y158290D01*
X13684D02*
X237034D01*
X2115Y130208D02*
X11493D01*
X618Y128712D02*
X2115Y130208D01*
X618Y99206D02*
Y128712D01*
X1912Y91600D02*
X13299D01*
X618Y90306D02*
X1912Y91600D01*
X618Y30506D02*
Y90306D01*
Y30506D02*
X2118Y29006D01*
X11739D01*
X618Y99206D02*
X1900Y97924D01*
X13283D01*
X600Y30466D02*
X2100Y28966D01*
X600Y30466D02*
Y90266D01*
X1847Y91513D02*
X13690D01*
X600Y90266D02*
X1847Y91513D01*
X1853Y97913D02*
X13690D01*
X600Y99166D02*
Y128672D01*
X2076Y130147D02*
X11487D01*
X600Y128672D02*
X2076Y130147D01*
X600Y99166D02*
X1853Y97913D01*
X2100Y28966D02*
X11721D01*
D54*
X225955Y27532D02*
X228317D01*
X217687Y27532D02*
X220050Y27532D01*
X220050Y24382D02*
Y30681D01*
X225955Y24382D02*
Y30681D01*
X217687Y24382D02*
X228317Y24382D01*
X228317Y30681D02*
X228317Y24382D01*
X217687Y30681D02*
X228317D01*
X217687Y24382D02*
Y30681D01*
M02*
