G04 Layer_Color=32896*
%FSLAX25Y25*%
%MOIN*%
G70*
G01*
G75*
%ADD38C,0.00600*%
%ADD39C,0.00591*%
G36*
X52400Y74300D02*
X52018D01*
Y75582D01*
X51526D01*
X51482Y75577D01*
X51447D01*
X51417Y75573D01*
X51395Y75569D01*
X51377D01*
X51368Y75564D01*
X51364D01*
X51298Y75542D01*
X51245Y75516D01*
X51223Y75503D01*
X51206Y75494D01*
X51197Y75490D01*
X51193Y75485D01*
X51158Y75463D01*
X51127Y75433D01*
X51061Y75371D01*
X51039Y75340D01*
X51017Y75314D01*
X51004Y75296D01*
X51000Y75292D01*
X50956Y75235D01*
X50912Y75174D01*
X50863Y75108D01*
X50820Y75042D01*
X50780Y74985D01*
X50749Y74941D01*
X50741Y74923D01*
X50732Y74910D01*
X50723Y74901D01*
Y74897D01*
X50341Y74300D01*
X49863D01*
X50363Y75081D01*
X50420Y75165D01*
X50477Y75239D01*
X50530Y75305D01*
X50578Y75362D01*
X50618Y75406D01*
X50648Y75441D01*
X50670Y75459D01*
X50679Y75468D01*
X50710Y75494D01*
X50749Y75520D01*
X50824Y75569D01*
X50855Y75586D01*
X50881Y75599D01*
X50899Y75608D01*
X50907Y75613D01*
X50833Y75626D01*
X50762Y75639D01*
X50697Y75656D01*
X50640Y75678D01*
X50582Y75700D01*
X50534Y75722D01*
X50486Y75744D01*
X50446Y75766D01*
X50411Y75788D01*
X50381Y75806D01*
X50354Y75828D01*
X50332Y75841D01*
X50319Y75858D01*
X50306Y75867D01*
X50297Y75876D01*
X50262Y75915D01*
X50231Y75959D01*
X50179Y76047D01*
X50143Y76131D01*
X50122Y76214D01*
X50104Y76284D01*
X50100Y76315D01*
Y76341D01*
X50095Y76363D01*
Y76381D01*
Y76390D01*
Y76394D01*
X50100Y76482D01*
X50113Y76561D01*
X50135Y76635D01*
X50157Y76701D01*
X50179Y76754D01*
X50201Y76793D01*
X50214Y76820D01*
X50218Y76829D01*
X50266Y76899D01*
X50319Y76956D01*
X50372Y77004D01*
X50424Y77039D01*
X50468Y77070D01*
X50503Y77092D01*
X50530Y77101D01*
X50534Y77105D01*
X50539D01*
X50578Y77118D01*
X50622Y77132D01*
X50714Y77149D01*
X50811Y77167D01*
X50903Y77175D01*
X50991Y77180D01*
X51026D01*
X51061Y77184D01*
X52400D01*
Y74300D01*
D02*
G37*
G36*
X48581Y77127D02*
X48629Y77057D01*
X48682Y76991D01*
X48734Y76930D01*
X48783Y76881D01*
X48822Y76842D01*
X48849Y76815D01*
X48853Y76811D01*
X48857Y76807D01*
X48941Y76736D01*
X49029Y76671D01*
X49116Y76613D01*
X49195Y76565D01*
X49266Y76526D01*
X49296Y76513D01*
X49323Y76499D01*
X49340Y76486D01*
X49358Y76477D01*
X49367Y76473D01*
X49371D01*
Y76126D01*
X49309Y76153D01*
X49244Y76183D01*
X49182Y76210D01*
X49125Y76240D01*
X49077Y76267D01*
X49037Y76289D01*
X49011Y76306D01*
X49007Y76311D01*
X49002D01*
X48928Y76354D01*
X48862Y76403D01*
X48805Y76442D01*
X48756Y76482D01*
X48717Y76513D01*
X48686Y76534D01*
X48669Y76552D01*
X48664Y76556D01*
Y74300D01*
X48309D01*
Y77197D01*
X48541D01*
X48581Y77127D01*
D02*
G37*
G36*
X62400Y74300D02*
X62018D01*
Y75582D01*
X61526D01*
X61483Y75577D01*
X61447D01*
X61417Y75573D01*
X61395Y75569D01*
X61377D01*
X61368Y75564D01*
X61364D01*
X61298Y75542D01*
X61245Y75516D01*
X61224Y75503D01*
X61206Y75494D01*
X61197Y75490D01*
X61193Y75485D01*
X61158Y75463D01*
X61127Y75433D01*
X61061Y75371D01*
X61039Y75340D01*
X61017Y75314D01*
X61004Y75296D01*
X61000Y75292D01*
X60956Y75235D01*
X60912Y75174D01*
X60864Y75108D01*
X60820Y75042D01*
X60780Y74985D01*
X60749Y74941D01*
X60741Y74923D01*
X60732Y74910D01*
X60723Y74901D01*
Y74897D01*
X60341Y74300D01*
X59863D01*
X60363Y75081D01*
X60420Y75165D01*
X60477Y75239D01*
X60530Y75305D01*
X60578Y75362D01*
X60618Y75406D01*
X60648Y75441D01*
X60670Y75459D01*
X60679Y75468D01*
X60710Y75494D01*
X60749Y75520D01*
X60824Y75569D01*
X60855Y75586D01*
X60881Y75599D01*
X60899Y75608D01*
X60907Y75613D01*
X60833Y75626D01*
X60763Y75639D01*
X60697Y75656D01*
X60640Y75678D01*
X60583Y75700D01*
X60534Y75722D01*
X60486Y75744D01*
X60447Y75766D01*
X60411Y75788D01*
X60381Y75806D01*
X60354Y75828D01*
X60332Y75841D01*
X60319Y75858D01*
X60306Y75867D01*
X60297Y75876D01*
X60262Y75915D01*
X60231Y75959D01*
X60179Y76047D01*
X60144Y76131D01*
X60122Y76214D01*
X60104Y76284D01*
X60100Y76315D01*
Y76341D01*
X60095Y76363D01*
Y76381D01*
Y76390D01*
Y76394D01*
X60100Y76482D01*
X60113Y76561D01*
X60135Y76635D01*
X60157Y76701D01*
X60179Y76754D01*
X60201Y76793D01*
X60214Y76820D01*
X60218Y76829D01*
X60267Y76899D01*
X60319Y76956D01*
X60372Y77004D01*
X60425Y77039D01*
X60468Y77070D01*
X60504Y77092D01*
X60530Y77101D01*
X60534Y77105D01*
X60539D01*
X60578Y77118D01*
X60622Y77132D01*
X60714Y77149D01*
X60811Y77167D01*
X60903Y77175D01*
X60991Y77180D01*
X61026D01*
X61061Y77184D01*
X62400D01*
Y74300D01*
D02*
G37*
G36*
X62769Y81893D02*
X62848Y81884D01*
X62923Y81867D01*
X62993Y81845D01*
X63059Y81818D01*
X63116Y81792D01*
X63173Y81761D01*
X63221Y81731D01*
X63265Y81700D01*
X63305Y81669D01*
X63335Y81643D01*
X63366Y81616D01*
X63388Y81595D01*
X63401Y81577D01*
X63410Y81568D01*
X63414Y81564D01*
X63467Y81489D01*
X63515Y81401D01*
X63555Y81314D01*
X63590Y81213D01*
X63621Y81116D01*
X63647Y81015D01*
X63669Y80914D01*
X63682Y80813D01*
X63695Y80721D01*
X63704Y80633D01*
X63713Y80554D01*
X63717Y80484D01*
X63722Y80427D01*
Y80383D01*
Y80370D01*
Y80357D01*
Y80352D01*
Y80348D01*
X63717Y80212D01*
X63709Y80089D01*
X63695Y79970D01*
X63678Y79865D01*
X63656Y79768D01*
X63634Y79680D01*
X63608Y79601D01*
X63581Y79531D01*
X63559Y79470D01*
X63533Y79417D01*
X63511Y79373D01*
X63489Y79338D01*
X63472Y79312D01*
X63458Y79294D01*
X63450Y79281D01*
X63445Y79277D01*
X63393Y79220D01*
X63335Y79171D01*
X63274Y79127D01*
X63213Y79088D01*
X63151Y79057D01*
X63094Y79031D01*
X63033Y79009D01*
X62975Y78991D01*
X62923Y78978D01*
X62875Y78969D01*
X62831Y78961D01*
X62795Y78956D01*
X62765D01*
X62738Y78952D01*
X62721D01*
X62629Y78956D01*
X62541Y78969D01*
X62462Y78991D01*
X62392Y79013D01*
X62339Y79035D01*
X62295Y79057D01*
X62269Y79070D01*
X62260Y79075D01*
X62185Y79127D01*
X62124Y79184D01*
X62067Y79241D01*
X62018Y79299D01*
X61983Y79351D01*
X61957Y79391D01*
X61948Y79408D01*
X61939Y79421D01*
X61935Y79426D01*
Y79430D01*
X61896Y79518D01*
X61865Y79606D01*
X61847Y79694D01*
X61830Y79768D01*
X61821Y79839D01*
Y79865D01*
X61817Y79891D01*
Y79909D01*
Y79922D01*
Y79931D01*
Y79935D01*
X61821Y80010D01*
X61825Y80084D01*
X61838Y80150D01*
X61856Y80216D01*
X61874Y80273D01*
X61896Y80330D01*
X61917Y80378D01*
X61939Y80427D01*
X61966Y80466D01*
X61988Y80501D01*
X62010Y80532D01*
X62027Y80558D01*
X62045Y80580D01*
X62058Y80594D01*
X62062Y80602D01*
X62067Y80607D01*
X62115Y80655D01*
X62163Y80695D01*
X62216Y80730D01*
X62269Y80760D01*
X62317Y80787D01*
X62370Y80804D01*
X62462Y80839D01*
X62545Y80857D01*
X62580Y80861D01*
X62611Y80866D01*
X62637Y80870D01*
X62673D01*
X62747Y80866D01*
X62817Y80857D01*
X62883Y80839D01*
X62940Y80822D01*
X62989Y80804D01*
X63028Y80787D01*
X63050Y80778D01*
X63059Y80774D01*
X63125Y80734D01*
X63186Y80690D01*
X63239Y80642D01*
X63283Y80594D01*
X63322Y80550D01*
X63349Y80515D01*
X63366Y80493D01*
X63371Y80488D01*
Y80563D01*
X63366Y80638D01*
X63362Y80708D01*
X63357Y80774D01*
X63349Y80831D01*
X63340Y80888D01*
X63331Y80936D01*
X63322Y80980D01*
X63314Y81019D01*
X63305Y81055D01*
X63296Y81085D01*
X63287Y81107D01*
X63283Y81125D01*
X63278Y81142D01*
X63274Y81147D01*
Y81151D01*
X63234Y81235D01*
X63191Y81309D01*
X63147Y81371D01*
X63103Y81419D01*
X63068Y81458D01*
X63037Y81489D01*
X63019Y81507D01*
X63011Y81511D01*
X62958Y81542D01*
X62910Y81568D01*
X62857Y81586D01*
X62809Y81595D01*
X62769Y81603D01*
X62738Y81608D01*
X62708D01*
X62633Y81603D01*
X62563Y81586D01*
X62501Y81559D01*
X62449Y81533D01*
X62409Y81502D01*
X62378Y81480D01*
X62356Y81463D01*
X62352Y81454D01*
X62321Y81415D01*
X62295Y81371D01*
X62251Y81270D01*
X62238Y81226D01*
X62225Y81191D01*
X62216Y81164D01*
Y81160D01*
Y81156D01*
X61865Y81182D01*
X61887Y81300D01*
X61926Y81406D01*
X61966Y81494D01*
X62014Y81568D01*
X62058Y81625D01*
X62093Y81669D01*
X62119Y81695D01*
X62124Y81704D01*
X62128D01*
X62172Y81739D01*
X62216Y81770D01*
X62308Y81814D01*
X62400Y81849D01*
X62488Y81875D01*
X62567Y81889D01*
X62602Y81893D01*
X62629D01*
X62655Y81897D01*
X62686D01*
X62769Y81893D01*
D02*
G37*
G36*
X64881Y81827D02*
X64929Y81757D01*
X64982Y81691D01*
X65034Y81630D01*
X65083Y81581D01*
X65122Y81542D01*
X65149Y81516D01*
X65153Y81511D01*
X65157Y81507D01*
X65241Y81436D01*
X65329Y81371D01*
X65416Y81314D01*
X65495Y81265D01*
X65566Y81226D01*
X65596Y81213D01*
X65623Y81199D01*
X65640Y81186D01*
X65658Y81177D01*
X65667Y81173D01*
X65671D01*
Y80826D01*
X65609Y80853D01*
X65544Y80883D01*
X65482Y80910D01*
X65425Y80940D01*
X65377Y80967D01*
X65337Y80989D01*
X65311Y81006D01*
X65307Y81011D01*
X65302D01*
X65228Y81055D01*
X65162Y81103D01*
X65105Y81142D01*
X65056Y81182D01*
X65017Y81213D01*
X64986Y81235D01*
X64969Y81252D01*
X64964Y81256D01*
Y79000D01*
X64609D01*
Y81897D01*
X64841D01*
X64881Y81827D01*
D02*
G37*
G36*
X47523Y75314D02*
Y74989D01*
X46272D01*
Y74300D01*
X45916D01*
Y74989D01*
X45525D01*
Y75314D01*
X45916D01*
Y77180D01*
X46206D01*
X47523Y75314D01*
D02*
G37*
G36*
X77809Y77193D02*
X77879Y77184D01*
X77945Y77171D01*
X78007Y77158D01*
X78116Y77114D01*
X78165Y77088D01*
X78209Y77066D01*
X78252Y77039D01*
X78288Y77013D01*
X78318Y76991D01*
X78340Y76973D01*
X78362Y76956D01*
X78375Y76943D01*
X78384Y76934D01*
X78389Y76930D01*
X78432Y76877D01*
X78472Y76824D01*
X78507Y76767D01*
X78533Y76706D01*
X78560Y76649D01*
X78582Y76587D01*
X78612Y76477D01*
X78621Y76425D01*
X78630Y76376D01*
X78634Y76333D01*
X78639Y76297D01*
X78643Y76267D01*
Y76240D01*
Y76227D01*
Y76223D01*
X78639Y76144D01*
X78634Y76069D01*
X78621Y76003D01*
X78604Y75937D01*
X78586Y75876D01*
X78564Y75819D01*
X78542Y75766D01*
X78520Y75722D01*
X78498Y75678D01*
X78476Y75643D01*
X78454Y75613D01*
X78437Y75586D01*
X78419Y75564D01*
X78406Y75551D01*
X78402Y75542D01*
X78397Y75538D01*
X78349Y75494D01*
X78301Y75455D01*
X78248Y75419D01*
X78200Y75389D01*
X78147Y75362D01*
X78099Y75340D01*
X78002Y75310D01*
X77919Y75292D01*
X77884Y75288D01*
X77853Y75283D01*
X77826Y75279D01*
X77791D01*
X77712Y75283D01*
X77638Y75296D01*
X77572Y75310D01*
X77515Y75332D01*
X77467Y75349D01*
X77427Y75362D01*
X77405Y75375D01*
X77396Y75380D01*
X77330Y75424D01*
X77273Y75468D01*
X77221Y75516D01*
X77181Y75560D01*
X77146Y75595D01*
X77124Y75630D01*
X77107Y75648D01*
X77102Y75656D01*
Y75626D01*
Y75604D01*
Y75591D01*
Y75586D01*
Y75503D01*
X77111Y75424D01*
X77120Y75354D01*
X77128Y75288D01*
X77137Y75231D01*
X77146Y75187D01*
X77150Y75174D01*
Y75160D01*
X77155Y75156D01*
Y75152D01*
X77177Y75077D01*
X77199Y75011D01*
X77221Y74954D01*
X77238Y74906D01*
X77260Y74866D01*
X77273Y74836D01*
X77282Y74818D01*
X77287Y74814D01*
X77317Y74770D01*
X77352Y74730D01*
X77383Y74695D01*
X77418Y74669D01*
X77445Y74647D01*
X77467Y74629D01*
X77484Y74620D01*
X77488Y74616D01*
X77537Y74590D01*
X77585Y74572D01*
X77633Y74559D01*
X77677Y74550D01*
X77717Y74546D01*
X77747Y74541D01*
X77774D01*
X77844Y74546D01*
X77906Y74559D01*
X77958Y74577D01*
X78002Y74594D01*
X78042Y74612D01*
X78068Y74629D01*
X78086Y74642D01*
X78090Y74647D01*
X78134Y74691D01*
X78169Y74748D01*
X78195Y74805D01*
X78217Y74862D01*
X78235Y74910D01*
X78244Y74954D01*
X78248Y74972D01*
X78252Y74985D01*
Y74989D01*
Y74994D01*
X78590Y74967D01*
X78568Y74844D01*
X78533Y74739D01*
X78494Y74647D01*
X78450Y74572D01*
X78406Y74515D01*
X78371Y74471D01*
X78345Y74445D01*
X78340Y74440D01*
X78336Y74436D01*
X78248Y74375D01*
X78160Y74331D01*
X78068Y74296D01*
X77980Y74274D01*
X77901Y74260D01*
X77866Y74256D01*
X77840D01*
X77813Y74252D01*
X77783D01*
X77668Y74260D01*
X77559Y74278D01*
X77467Y74304D01*
X77383Y74335D01*
X77317Y74366D01*
X77291Y74379D01*
X77269Y74392D01*
X77247Y74405D01*
X77234Y74410D01*
X77229Y74418D01*
X77225D01*
X77142Y74489D01*
X77071Y74568D01*
X77010Y74651D01*
X76957Y74735D01*
X76918Y74805D01*
X76905Y74836D01*
X76891Y74866D01*
X76883Y74888D01*
X76874Y74906D01*
X76869Y74915D01*
Y74919D01*
X76848Y74985D01*
X76830Y75051D01*
X76799Y75196D01*
X76777Y75345D01*
X76760Y75485D01*
X76755Y75551D01*
X76751Y75608D01*
Y75665D01*
X76747Y75709D01*
Y75749D01*
Y75775D01*
Y75797D01*
Y75801D01*
Y75898D01*
X76751Y75990D01*
X76760Y76074D01*
X76764Y76153D01*
X76773Y76223D01*
X76786Y76289D01*
X76795Y76350D01*
X76808Y76403D01*
X76821Y76451D01*
X76830Y76495D01*
X76839Y76530D01*
X76852Y76556D01*
X76856Y76578D01*
X76865Y76596D01*
X76869Y76605D01*
Y76609D01*
X76918Y76710D01*
X76975Y76798D01*
X77036Y76868D01*
X77093Y76934D01*
X77146Y76982D01*
X77186Y77017D01*
X77203Y77026D01*
X77216Y77035D01*
X77221Y77044D01*
X77225D01*
X77313Y77096D01*
X77405Y77132D01*
X77488Y77158D01*
X77567Y77180D01*
X77638Y77189D01*
X77668Y77193D01*
X77690D01*
X77712Y77197D01*
X77739D01*
X77809Y77193D01*
D02*
G37*
G36*
X116578Y81593D02*
X116640Y81589D01*
X116758Y81562D01*
X116864Y81532D01*
X116947Y81492D01*
X116987Y81470D01*
X117017Y81453D01*
X117044Y81431D01*
X117070Y81417D01*
X117087Y81404D01*
X117101Y81391D01*
X117105Y81387D01*
X117109Y81382D01*
X117149Y81343D01*
X117184Y81299D01*
X117215Y81255D01*
X117237Y81207D01*
X117281Y81119D01*
X117307Y81036D01*
X117320Y80961D01*
X117324Y80930D01*
X117329Y80904D01*
X117333Y80882D01*
Y80864D01*
Y80856D01*
Y80851D01*
X117329Y80777D01*
X117316Y80711D01*
X117298Y80649D01*
X117281Y80597D01*
X117263Y80553D01*
X117245Y80522D01*
X117232Y80504D01*
X117228Y80496D01*
X117184Y80443D01*
X117131Y80399D01*
X117079Y80359D01*
X117022Y80324D01*
X116973Y80302D01*
X116934Y80280D01*
X116908Y80272D01*
X116903Y80267D01*
X116899D01*
X116991Y80237D01*
X117074Y80197D01*
X117145Y80153D01*
X117202Y80109D01*
X117245Y80070D01*
X117281Y80035D01*
X117298Y80013D01*
X117307Y80008D01*
Y80004D01*
X117355Y79929D01*
X117386Y79850D01*
X117412Y79771D01*
X117430Y79697D01*
X117439Y79635D01*
X117443Y79604D01*
Y79582D01*
X117447Y79560D01*
Y79547D01*
Y79539D01*
Y79534D01*
X117443Y79464D01*
X117434Y79398D01*
X117426Y79337D01*
X117408Y79275D01*
X117364Y79170D01*
X117342Y79121D01*
X117316Y79078D01*
X117294Y79038D01*
X117272Y79003D01*
X117250Y78972D01*
X117228Y78946D01*
X117210Y78928D01*
X117202Y78915D01*
X117193Y78906D01*
X117189Y78902D01*
X117136Y78858D01*
X117083Y78819D01*
X117026Y78788D01*
X116969Y78757D01*
X116912Y78735D01*
X116855Y78713D01*
X116745Y78682D01*
X116692Y78674D01*
X116648Y78665D01*
X116605Y78661D01*
X116569Y78656D01*
X116539Y78652D01*
X116499D01*
X116420Y78656D01*
X116346Y78661D01*
X116275Y78674D01*
X116214Y78691D01*
X116152Y78709D01*
X116095Y78731D01*
X116043Y78753D01*
X115994Y78779D01*
X115951Y78801D01*
X115915Y78823D01*
X115885Y78845D01*
X115858Y78862D01*
X115836Y78880D01*
X115823Y78893D01*
X115814Y78898D01*
X115810Y78902D01*
X115762Y78950D01*
X115722Y78999D01*
X115687Y79051D01*
X115656Y79104D01*
X115630Y79157D01*
X115612Y79209D01*
X115577Y79306D01*
X115560Y79394D01*
X115555Y79433D01*
X115551Y79464D01*
X115547Y79490D01*
Y79508D01*
Y79521D01*
Y79525D01*
X115551Y79622D01*
X115569Y79710D01*
X115591Y79789D01*
X115617Y79855D01*
X115643Y79912D01*
X115665Y79951D01*
X115683Y79978D01*
X115687Y79986D01*
X115744Y80052D01*
X115810Y80114D01*
X115876Y80162D01*
X115942Y80201D01*
X115999Y80228D01*
X116047Y80250D01*
X116065Y80259D01*
X116078Y80263D01*
X116087Y80267D01*
X116091D01*
X116016Y80298D01*
X115951Y80338D01*
X115893Y80373D01*
X115849Y80408D01*
X115814Y80443D01*
X115788Y80469D01*
X115775Y80487D01*
X115770Y80491D01*
X115735Y80548D01*
X115709Y80610D01*
X115691Y80667D01*
X115678Y80724D01*
X115670Y80772D01*
X115665Y80807D01*
Y80834D01*
Y80842D01*
X115670Y80899D01*
X115674Y80957D01*
X115700Y81057D01*
X115740Y81150D01*
X115779Y81229D01*
X115823Y81290D01*
X115845Y81316D01*
X115863Y81338D01*
X115876Y81356D01*
X115889Y81369D01*
X115893Y81374D01*
X115898Y81378D01*
X115942Y81417D01*
X115990Y81453D01*
X116038Y81479D01*
X116091Y81505D01*
X116192Y81545D01*
X116288Y81571D01*
X116376Y81584D01*
X116411Y81593D01*
X116447D01*
X116473Y81597D01*
X116508D01*
X116578Y81593D01*
D02*
G37*
G36*
X120200Y78700D02*
X119818D01*
Y79982D01*
X119326D01*
X119282Y79978D01*
X119247D01*
X119217Y79973D01*
X119195Y79969D01*
X119177D01*
X119168Y79964D01*
X119164D01*
X119098Y79942D01*
X119045Y79916D01*
X119024Y79903D01*
X119006Y79894D01*
X118997Y79890D01*
X118993Y79885D01*
X118958Y79863D01*
X118927Y79833D01*
X118861Y79771D01*
X118839Y79740D01*
X118817Y79714D01*
X118804Y79697D01*
X118800Y79692D01*
X118756Y79635D01*
X118712Y79574D01*
X118664Y79508D01*
X118620Y79442D01*
X118580Y79385D01*
X118549Y79341D01*
X118541Y79323D01*
X118532Y79310D01*
X118523Y79301D01*
Y79297D01*
X118141Y78700D01*
X117663D01*
X118163Y79481D01*
X118220Y79565D01*
X118277Y79640D01*
X118330Y79705D01*
X118378Y79762D01*
X118418Y79806D01*
X118448Y79841D01*
X118470Y79859D01*
X118479Y79868D01*
X118510Y79894D01*
X118549Y79920D01*
X118624Y79969D01*
X118655Y79986D01*
X118681Y79999D01*
X118699Y80008D01*
X118707Y80013D01*
X118633Y80026D01*
X118562Y80039D01*
X118497Y80057D01*
X118440Y80079D01*
X118383Y80100D01*
X118334Y80122D01*
X118286Y80144D01*
X118246Y80166D01*
X118211Y80188D01*
X118181Y80206D01*
X118154Y80228D01*
X118132Y80241D01*
X118119Y80259D01*
X118106Y80267D01*
X118097Y80276D01*
X118062Y80316D01*
X118031Y80359D01*
X117979Y80447D01*
X117944Y80531D01*
X117922Y80614D01*
X117904Y80684D01*
X117900Y80715D01*
Y80741D01*
X117895Y80763D01*
Y80781D01*
Y80790D01*
Y80794D01*
X117900Y80882D01*
X117913Y80961D01*
X117935Y81036D01*
X117957Y81101D01*
X117979Y81154D01*
X118001Y81194D01*
X118014Y81220D01*
X118018Y81229D01*
X118067Y81299D01*
X118119Y81356D01*
X118172Y81404D01*
X118225Y81439D01*
X118268Y81470D01*
X118304Y81492D01*
X118330Y81501D01*
X118334Y81505D01*
X118339D01*
X118378Y81518D01*
X118422Y81532D01*
X118514Y81549D01*
X118611Y81567D01*
X118703Y81576D01*
X118791Y81580D01*
X118826D01*
X118861Y81584D01*
X120200D01*
Y78700D01*
D02*
G37*
G36*
X58581Y77127D02*
X58629Y77057D01*
X58682Y76991D01*
X58734Y76930D01*
X58783Y76881D01*
X58822Y76842D01*
X58849Y76815D01*
X58853Y76811D01*
X58857Y76807D01*
X58941Y76736D01*
X59029Y76671D01*
X59116Y76613D01*
X59195Y76565D01*
X59266Y76526D01*
X59296Y76513D01*
X59323Y76499D01*
X59340Y76486D01*
X59358Y76477D01*
X59367Y76473D01*
X59371D01*
Y76126D01*
X59309Y76153D01*
X59244Y76183D01*
X59182Y76210D01*
X59125Y76240D01*
X59077Y76267D01*
X59037Y76289D01*
X59011Y76306D01*
X59007Y76311D01*
X59002D01*
X58928Y76354D01*
X58862Y76403D01*
X58805Y76442D01*
X58756Y76482D01*
X58717Y76513D01*
X58686Y76534D01*
X58669Y76552D01*
X58664Y76556D01*
Y74300D01*
X58309D01*
Y77197D01*
X58541D01*
X58581Y77127D01*
D02*
G37*
G36*
X56526Y77193D02*
X56596Y77189D01*
X56728Y77162D01*
X56785Y77149D01*
X56842Y77132D01*
X56890Y77110D01*
X56934Y77092D01*
X56974Y77070D01*
X57009Y77052D01*
X57040Y77031D01*
X57066Y77017D01*
X57084Y77004D01*
X57097Y76991D01*
X57106Y76987D01*
X57110Y76982D01*
X57154Y76938D01*
X57189Y76894D01*
X57255Y76793D01*
X57303Y76693D01*
X57338Y76592D01*
X57365Y76504D01*
X57369Y76464D01*
X57378Y76429D01*
X57382Y76403D01*
X57387Y76381D01*
Y76368D01*
Y76363D01*
X57022Y76324D01*
X57013Y76420D01*
X56996Y76504D01*
X56974Y76574D01*
X56943Y76635D01*
X56917Y76684D01*
X56890Y76719D01*
X56873Y76736D01*
X56869Y76745D01*
X56807Y76798D01*
X56741Y76837D01*
X56671Y76864D01*
X56605Y76886D01*
X56548Y76894D01*
X56504Y76899D01*
X56487Y76903D01*
X56460D01*
X56372Y76899D01*
X56293Y76881D01*
X56228Y76859D01*
X56171Y76833D01*
X56127Y76802D01*
X56092Y76780D01*
X56074Y76763D01*
X56065Y76758D01*
X56012Y76701D01*
X55977Y76640D01*
X55951Y76583D01*
X55929Y76526D01*
X55920Y76477D01*
X55916Y76438D01*
X55912Y76412D01*
Y76407D01*
Y76403D01*
X55920Y76328D01*
X55938Y76249D01*
X55964Y76179D01*
X55995Y76113D01*
X56026Y76056D01*
X56052Y76012D01*
X56061Y75994D01*
X56070Y75981D01*
X56078Y75977D01*
Y75973D01*
X56113Y75929D01*
X56153Y75880D01*
X56197Y75832D01*
X56250Y75784D01*
X56355Y75683D01*
X56460Y75582D01*
X56557Y75498D01*
X56601Y75459D01*
X56640Y75428D01*
X56671Y75397D01*
X56693Y75380D01*
X56711Y75367D01*
X56715Y75362D01*
X56820Y75270D01*
X56917Y75187D01*
X56996Y75112D01*
X57062Y75051D01*
X57114Y74998D01*
X57150Y74958D01*
X57171Y74932D01*
X57180Y74928D01*
Y74923D01*
X57237Y74853D01*
X57281Y74787D01*
X57325Y74721D01*
X57356Y74664D01*
X57382Y74612D01*
X57400Y74577D01*
X57409Y74550D01*
X57413Y74546D01*
Y74541D01*
X57426Y74498D01*
X57439Y74454D01*
X57444Y74414D01*
X57448Y74379D01*
X57452Y74348D01*
Y74322D01*
Y74304D01*
Y74300D01*
X55543D01*
Y74638D01*
X56961D01*
X56912Y74708D01*
X56864Y74765D01*
X56842Y74792D01*
X56825Y74809D01*
X56816Y74822D01*
X56811Y74827D01*
X56790Y74849D01*
X56768Y74871D01*
X56711Y74923D01*
X56640Y74985D01*
X56574Y75046D01*
X56509Y75103D01*
X56456Y75147D01*
X56434Y75165D01*
X56416Y75178D01*
X56408Y75187D01*
X56403Y75191D01*
X56333Y75253D01*
X56272Y75305D01*
X56210Y75358D01*
X56157Y75406D01*
X56109Y75455D01*
X56065Y75494D01*
X56021Y75534D01*
X55986Y75569D01*
X55955Y75599D01*
X55929Y75626D01*
X55890Y75665D01*
X55868Y75692D01*
X55859Y75700D01*
X55802Y75771D01*
X55749Y75832D01*
X55710Y75894D01*
X55679Y75946D01*
X55653Y75990D01*
X55635Y76021D01*
X55626Y76043D01*
X55622Y76052D01*
X55595Y76113D01*
X55578Y76174D01*
X55565Y76232D01*
X55556Y76284D01*
X55552Y76328D01*
X55547Y76363D01*
Y76385D01*
Y76394D01*
X55552Y76455D01*
X55556Y76517D01*
X55587Y76627D01*
X55626Y76723D01*
X55670Y76807D01*
X55714Y76872D01*
X55736Y76899D01*
X55753Y76925D01*
X55771Y76943D01*
X55784Y76956D01*
X55789Y76960D01*
X55793Y76965D01*
X55841Y77004D01*
X55890Y77044D01*
X55942Y77074D01*
X55999Y77101D01*
X56109Y77140D01*
X56214Y77167D01*
X56263Y77180D01*
X56307Y77184D01*
X56346Y77189D01*
X56381Y77193D01*
X56412Y77197D01*
X56451D01*
X56526Y77193D01*
D02*
G37*
G36*
X81400Y74300D02*
X81018D01*
Y75582D01*
X80526D01*
X80483Y75577D01*
X80447D01*
X80417Y75573D01*
X80395Y75569D01*
X80377D01*
X80368Y75564D01*
X80364D01*
X80298Y75542D01*
X80245Y75516D01*
X80224Y75503D01*
X80206Y75494D01*
X80197Y75490D01*
X80193Y75485D01*
X80158Y75463D01*
X80127Y75433D01*
X80061Y75371D01*
X80039Y75340D01*
X80017Y75314D01*
X80004Y75296D01*
X80000Y75292D01*
X79956Y75235D01*
X79912Y75174D01*
X79864Y75108D01*
X79820Y75042D01*
X79780Y74985D01*
X79749Y74941D01*
X79741Y74923D01*
X79732Y74910D01*
X79723Y74901D01*
Y74897D01*
X79341Y74300D01*
X78863D01*
X79363Y75081D01*
X79420Y75165D01*
X79477Y75239D01*
X79530Y75305D01*
X79578Y75362D01*
X79618Y75406D01*
X79648Y75441D01*
X79670Y75459D01*
X79679Y75468D01*
X79710Y75494D01*
X79749Y75520D01*
X79824Y75569D01*
X79855Y75586D01*
X79881Y75599D01*
X79899Y75608D01*
X79907Y75613D01*
X79833Y75626D01*
X79763Y75639D01*
X79697Y75656D01*
X79640Y75678D01*
X79583Y75700D01*
X79534Y75722D01*
X79486Y75744D01*
X79447Y75766D01*
X79411Y75788D01*
X79381Y75806D01*
X79354Y75828D01*
X79332Y75841D01*
X79319Y75858D01*
X79306Y75867D01*
X79297Y75876D01*
X79262Y75915D01*
X79231Y75959D01*
X79179Y76047D01*
X79144Y76131D01*
X79122Y76214D01*
X79104Y76284D01*
X79100Y76315D01*
Y76341D01*
X79095Y76363D01*
Y76381D01*
Y76390D01*
Y76394D01*
X79100Y76482D01*
X79113Y76561D01*
X79135Y76635D01*
X79157Y76701D01*
X79179Y76754D01*
X79201Y76793D01*
X79214Y76820D01*
X79218Y76829D01*
X79267Y76899D01*
X79319Y76956D01*
X79372Y77004D01*
X79425Y77039D01*
X79468Y77070D01*
X79504Y77092D01*
X79530Y77101D01*
X79534Y77105D01*
X79539D01*
X79578Y77118D01*
X79622Y77132D01*
X79714Y77149D01*
X79811Y77167D01*
X79903Y77175D01*
X79991Y77180D01*
X80026D01*
X80061Y77184D01*
X81400D01*
Y74300D01*
D02*
G37*
G36*
X68700Y79000D02*
X68318D01*
Y80282D01*
X67826D01*
X67782Y80278D01*
X67747D01*
X67717Y80273D01*
X67695Y80269D01*
X67677D01*
X67668Y80264D01*
X67664D01*
X67598Y80242D01*
X67545Y80216D01*
X67523Y80203D01*
X67506Y80194D01*
X67497Y80190D01*
X67493Y80185D01*
X67458Y80163D01*
X67427Y80133D01*
X67361Y80071D01*
X67339Y80040D01*
X67317Y80014D01*
X67304Y79997D01*
X67300Y79992D01*
X67256Y79935D01*
X67212Y79874D01*
X67163Y79808D01*
X67120Y79742D01*
X67080Y79685D01*
X67049Y79641D01*
X67041Y79623D01*
X67032Y79610D01*
X67023Y79601D01*
Y79597D01*
X66641Y79000D01*
X66163D01*
X66663Y79781D01*
X66720Y79865D01*
X66777Y79939D01*
X66830Y80005D01*
X66878Y80062D01*
X66918Y80106D01*
X66948Y80141D01*
X66970Y80159D01*
X66979Y80168D01*
X67010Y80194D01*
X67049Y80220D01*
X67124Y80269D01*
X67155Y80286D01*
X67181Y80299D01*
X67199Y80308D01*
X67207Y80313D01*
X67133Y80326D01*
X67062Y80339D01*
X66997Y80357D01*
X66940Y80378D01*
X66882Y80400D01*
X66834Y80422D01*
X66786Y80444D01*
X66746Y80466D01*
X66711Y80488D01*
X66681Y80506D01*
X66654Y80528D01*
X66632Y80541D01*
X66619Y80558D01*
X66606Y80567D01*
X66597Y80576D01*
X66562Y80616D01*
X66531Y80659D01*
X66479Y80747D01*
X66444Y80831D01*
X66422Y80914D01*
X66404Y80984D01*
X66400Y81015D01*
Y81041D01*
X66395Y81063D01*
Y81081D01*
Y81090D01*
Y81094D01*
X66400Y81182D01*
X66413Y81261D01*
X66435Y81336D01*
X66457Y81401D01*
X66479Y81454D01*
X66501Y81494D01*
X66514Y81520D01*
X66518Y81529D01*
X66566Y81599D01*
X66619Y81656D01*
X66672Y81704D01*
X66724Y81739D01*
X66768Y81770D01*
X66803Y81792D01*
X66830Y81801D01*
X66834Y81805D01*
X66839D01*
X66878Y81818D01*
X66922Y81832D01*
X67014Y81849D01*
X67111Y81867D01*
X67203Y81875D01*
X67291Y81880D01*
X67326D01*
X67361Y81884D01*
X68700D01*
Y79000D01*
D02*
G37*
G36*
X114200Y78700D02*
X113818D01*
Y79982D01*
X113326D01*
X113283Y79978D01*
X113247D01*
X113217Y79973D01*
X113195Y79969D01*
X113177D01*
X113168Y79964D01*
X113164D01*
X113098Y79942D01*
X113045Y79916D01*
X113023Y79903D01*
X113006Y79894D01*
X112997Y79890D01*
X112993Y79885D01*
X112958Y79863D01*
X112927Y79833D01*
X112861Y79771D01*
X112839Y79740D01*
X112817Y79714D01*
X112804Y79697D01*
X112800Y79692D01*
X112756Y79635D01*
X112712Y79574D01*
X112663Y79508D01*
X112620Y79442D01*
X112580Y79385D01*
X112549Y79341D01*
X112541Y79323D01*
X112532Y79310D01*
X112523Y79301D01*
Y79297D01*
X112141Y78700D01*
X111663D01*
X112163Y79481D01*
X112220Y79565D01*
X112277Y79640D01*
X112330Y79705D01*
X112378Y79762D01*
X112418Y79806D01*
X112448Y79841D01*
X112470Y79859D01*
X112479Y79868D01*
X112510Y79894D01*
X112549Y79920D01*
X112624Y79969D01*
X112655Y79986D01*
X112681Y79999D01*
X112699Y80008D01*
X112707Y80013D01*
X112633Y80026D01*
X112563Y80039D01*
X112497Y80057D01*
X112440Y80079D01*
X112382Y80100D01*
X112334Y80122D01*
X112286Y80144D01*
X112247Y80166D01*
X112211Y80188D01*
X112181Y80206D01*
X112154Y80228D01*
X112132Y80241D01*
X112119Y80259D01*
X112106Y80267D01*
X112097Y80276D01*
X112062Y80316D01*
X112031Y80359D01*
X111979Y80447D01*
X111943Y80531D01*
X111922Y80614D01*
X111904Y80684D01*
X111900Y80715D01*
Y80741D01*
X111895Y80763D01*
Y80781D01*
Y80790D01*
Y80794D01*
X111900Y80882D01*
X111913Y80961D01*
X111935Y81036D01*
X111957Y81101D01*
X111979Y81154D01*
X112001Y81194D01*
X112014Y81220D01*
X112018Y81229D01*
X112066Y81299D01*
X112119Y81356D01*
X112172Y81404D01*
X112224Y81439D01*
X112268Y81470D01*
X112303Y81492D01*
X112330Y81501D01*
X112334Y81505D01*
X112339D01*
X112378Y81518D01*
X112422Y81532D01*
X112514Y81549D01*
X112611Y81567D01*
X112703Y81576D01*
X112791Y81580D01*
X112826D01*
X112861Y81584D01*
X114200D01*
Y78700D01*
D02*
G37*
G36*
X108326Y81593D02*
X108396Y81589D01*
X108528Y81562D01*
X108585Y81549D01*
X108642Y81532D01*
X108691Y81510D01*
X108734Y81492D01*
X108774Y81470D01*
X108809Y81453D01*
X108840Y81431D01*
X108866Y81417D01*
X108884Y81404D01*
X108897Y81391D01*
X108906Y81387D01*
X108910Y81382D01*
X108954Y81338D01*
X108989Y81295D01*
X109055Y81194D01*
X109103Y81093D01*
X109138Y80992D01*
X109165Y80904D01*
X109169Y80864D01*
X109178Y80829D01*
X109182Y80803D01*
X109187Y80781D01*
Y80768D01*
Y80763D01*
X108822Y80724D01*
X108814Y80820D01*
X108796Y80904D01*
X108774Y80974D01*
X108743Y81036D01*
X108717Y81084D01*
X108691Y81119D01*
X108673Y81137D01*
X108669Y81145D01*
X108607Y81198D01*
X108541Y81237D01*
X108471Y81264D01*
X108405Y81286D01*
X108348Y81295D01*
X108304Y81299D01*
X108287Y81303D01*
X108260D01*
X108173Y81299D01*
X108094Y81281D01*
X108028Y81259D01*
X107971Y81233D01*
X107927Y81202D01*
X107892Y81180D01*
X107874Y81163D01*
X107865Y81158D01*
X107813Y81101D01*
X107777Y81040D01*
X107751Y80983D01*
X107729Y80926D01*
X107720Y80877D01*
X107716Y80838D01*
X107712Y80812D01*
Y80807D01*
Y80803D01*
X107720Y80728D01*
X107738Y80649D01*
X107764Y80579D01*
X107795Y80513D01*
X107826Y80456D01*
X107852Y80412D01*
X107861Y80395D01*
X107870Y80381D01*
X107878Y80377D01*
Y80373D01*
X107913Y80329D01*
X107953Y80280D01*
X107997Y80232D01*
X108050Y80184D01*
X108155Y80083D01*
X108260Y79982D01*
X108357Y79899D01*
X108401Y79859D01*
X108440Y79828D01*
X108471Y79798D01*
X108493Y79780D01*
X108511Y79767D01*
X108515Y79762D01*
X108620Y79670D01*
X108717Y79587D01*
X108796Y79512D01*
X108862Y79451D01*
X108914Y79398D01*
X108950Y79359D01*
X108972Y79332D01*
X108980Y79328D01*
Y79323D01*
X109037Y79253D01*
X109081Y79187D01*
X109125Y79121D01*
X109156Y79064D01*
X109182Y79012D01*
X109200Y78977D01*
X109209Y78950D01*
X109213Y78946D01*
Y78941D01*
X109226Y78898D01*
X109239Y78854D01*
X109244Y78814D01*
X109248Y78779D01*
X109253Y78748D01*
Y78722D01*
Y78704D01*
Y78700D01*
X107343D01*
Y79038D01*
X108761D01*
X108712Y79108D01*
X108664Y79165D01*
X108642Y79192D01*
X108625Y79209D01*
X108616Y79222D01*
X108612Y79227D01*
X108590Y79249D01*
X108568Y79271D01*
X108511Y79323D01*
X108440Y79385D01*
X108375Y79446D01*
X108309Y79503D01*
X108256Y79547D01*
X108234Y79565D01*
X108216Y79578D01*
X108208Y79587D01*
X108203Y79591D01*
X108133Y79653D01*
X108072Y79705D01*
X108010Y79758D01*
X107957Y79806D01*
X107909Y79855D01*
X107865Y79894D01*
X107821Y79934D01*
X107786Y79969D01*
X107755Y79999D01*
X107729Y80026D01*
X107690Y80065D01*
X107668Y80092D01*
X107659Y80100D01*
X107602Y80171D01*
X107549Y80232D01*
X107510Y80294D01*
X107479Y80346D01*
X107453Y80390D01*
X107435Y80421D01*
X107426Y80443D01*
X107422Y80452D01*
X107396Y80513D01*
X107378Y80575D01*
X107365Y80632D01*
X107356Y80684D01*
X107352Y80728D01*
X107347Y80763D01*
Y80785D01*
Y80794D01*
X107352Y80856D01*
X107356Y80917D01*
X107387Y81027D01*
X107426Y81123D01*
X107470Y81207D01*
X107514Y81273D01*
X107536Y81299D01*
X107554Y81325D01*
X107571Y81343D01*
X107584Y81356D01*
X107589Y81360D01*
X107593Y81365D01*
X107641Y81404D01*
X107690Y81444D01*
X107742Y81475D01*
X107799Y81501D01*
X107909Y81540D01*
X108015Y81567D01*
X108063Y81580D01*
X108107Y81584D01*
X108146Y81589D01*
X108181Y81593D01*
X108212Y81597D01*
X108252D01*
X108326Y81593D01*
D02*
G37*
G36*
X110565D02*
X110635Y81589D01*
X110767Y81562D01*
X110824Y81549D01*
X110881Y81532D01*
X110929Y81510D01*
X110973Y81492D01*
X111013Y81470D01*
X111048Y81453D01*
X111079Y81431D01*
X111105Y81417D01*
X111123Y81404D01*
X111136Y81391D01*
X111145Y81387D01*
X111149Y81382D01*
X111193Y81338D01*
X111228Y81295D01*
X111294Y81194D01*
X111342Y81093D01*
X111377Y80992D01*
X111404Y80904D01*
X111408Y80864D01*
X111417Y80829D01*
X111421Y80803D01*
X111425Y80781D01*
Y80768D01*
Y80763D01*
X111061Y80724D01*
X111052Y80820D01*
X111035Y80904D01*
X111013Y80974D01*
X110982Y81036D01*
X110956Y81084D01*
X110929Y81119D01*
X110912Y81137D01*
X110907Y81145D01*
X110846Y81198D01*
X110780Y81237D01*
X110710Y81264D01*
X110644Y81286D01*
X110587Y81295D01*
X110543Y81299D01*
X110526Y81303D01*
X110499D01*
X110411Y81299D01*
X110332Y81281D01*
X110267Y81259D01*
X110210Y81233D01*
X110166Y81202D01*
X110131Y81180D01*
X110113Y81163D01*
X110104Y81158D01*
X110051Y81101D01*
X110016Y81040D01*
X109990Y80983D01*
X109968Y80926D01*
X109959Y80877D01*
X109955Y80838D01*
X109950Y80812D01*
Y80807D01*
Y80803D01*
X109959Y80728D01*
X109977Y80649D01*
X110003Y80579D01*
X110034Y80513D01*
X110065Y80456D01*
X110091Y80412D01*
X110100Y80395D01*
X110108Y80381D01*
X110117Y80377D01*
Y80373D01*
X110152Y80329D01*
X110192Y80280D01*
X110236Y80232D01*
X110289Y80184D01*
X110394Y80083D01*
X110499Y79982D01*
X110596Y79899D01*
X110640Y79859D01*
X110679Y79828D01*
X110710Y79798D01*
X110732Y79780D01*
X110749Y79767D01*
X110754Y79762D01*
X110859Y79670D01*
X110956Y79587D01*
X111035Y79512D01*
X111101Y79451D01*
X111153Y79398D01*
X111188Y79359D01*
X111210Y79332D01*
X111219Y79328D01*
Y79323D01*
X111276Y79253D01*
X111320Y79187D01*
X111364Y79121D01*
X111395Y79064D01*
X111421Y79012D01*
X111439Y78977D01*
X111448Y78950D01*
X111452Y78946D01*
Y78941D01*
X111465Y78898D01*
X111478Y78854D01*
X111483Y78814D01*
X111487Y78779D01*
X111491Y78748D01*
Y78722D01*
Y78704D01*
Y78700D01*
X109582D01*
Y79038D01*
X111000D01*
X110951Y79108D01*
X110903Y79165D01*
X110881Y79192D01*
X110864Y79209D01*
X110855Y79222D01*
X110850Y79227D01*
X110828Y79249D01*
X110807Y79271D01*
X110749Y79323D01*
X110679Y79385D01*
X110613Y79446D01*
X110547Y79503D01*
X110495Y79547D01*
X110473Y79565D01*
X110455Y79578D01*
X110447Y79587D01*
X110442Y79591D01*
X110372Y79653D01*
X110310Y79705D01*
X110249Y79758D01*
X110196Y79806D01*
X110148Y79855D01*
X110104Y79894D01*
X110060Y79934D01*
X110025Y79969D01*
X109994Y79999D01*
X109968Y80026D01*
X109929Y80065D01*
X109907Y80092D01*
X109898Y80100D01*
X109841Y80171D01*
X109788Y80232D01*
X109748Y80294D01*
X109718Y80346D01*
X109692Y80390D01*
X109674Y80421D01*
X109665Y80443D01*
X109661Y80452D01*
X109634Y80513D01*
X109617Y80575D01*
X109604Y80632D01*
X109595Y80684D01*
X109590Y80728D01*
X109586Y80763D01*
Y80785D01*
Y80794D01*
X109590Y80856D01*
X109595Y80917D01*
X109626Y81027D01*
X109665Y81123D01*
X109709Y81207D01*
X109753Y81273D01*
X109775Y81299D01*
X109792Y81325D01*
X109810Y81343D01*
X109823Y81356D01*
X109828Y81360D01*
X109832Y81365D01*
X109880Y81404D01*
X109929Y81444D01*
X109981Y81475D01*
X110038Y81501D01*
X110148Y81540D01*
X110253Y81567D01*
X110302Y81580D01*
X110346Y81584D01*
X110385Y81589D01*
X110420Y81593D01*
X110451Y81597D01*
X110491D01*
X110565Y81593D01*
D02*
G37*
G36*
X117400Y74150D02*
X117018D01*
Y75432D01*
X116526D01*
X116482Y75428D01*
X116447D01*
X116417Y75423D01*
X116395Y75419D01*
X116377D01*
X116368Y75414D01*
X116364D01*
X116298Y75392D01*
X116245Y75366D01*
X116224Y75353D01*
X116206Y75344D01*
X116197Y75340D01*
X116193Y75335D01*
X116158Y75313D01*
X116127Y75283D01*
X116061Y75221D01*
X116039Y75190D01*
X116017Y75164D01*
X116004Y75147D01*
X116000Y75142D01*
X115956Y75085D01*
X115912Y75024D01*
X115864Y74958D01*
X115820Y74892D01*
X115780Y74835D01*
X115749Y74791D01*
X115741Y74773D01*
X115732Y74760D01*
X115723Y74751D01*
Y74747D01*
X115341Y74150D01*
X114863D01*
X115363Y74931D01*
X115420Y75015D01*
X115477Y75090D01*
X115530Y75155D01*
X115578Y75212D01*
X115618Y75256D01*
X115648Y75291D01*
X115670Y75309D01*
X115679Y75318D01*
X115710Y75344D01*
X115749Y75370D01*
X115824Y75419D01*
X115855Y75436D01*
X115881Y75449D01*
X115899Y75458D01*
X115907Y75463D01*
X115833Y75476D01*
X115762Y75489D01*
X115697Y75507D01*
X115640Y75529D01*
X115583Y75550D01*
X115534Y75572D01*
X115486Y75594D01*
X115446Y75616D01*
X115411Y75638D01*
X115381Y75656D01*
X115354Y75678D01*
X115332Y75691D01*
X115319Y75709D01*
X115306Y75717D01*
X115297Y75726D01*
X115262Y75766D01*
X115231Y75809D01*
X115179Y75897D01*
X115144Y75981D01*
X115122Y76064D01*
X115104Y76134D01*
X115100Y76165D01*
Y76191D01*
X115095Y76213D01*
Y76231D01*
Y76240D01*
Y76244D01*
X115100Y76332D01*
X115113Y76411D01*
X115135Y76486D01*
X115157Y76551D01*
X115179Y76604D01*
X115201Y76644D01*
X115214Y76670D01*
X115218Y76679D01*
X115267Y76749D01*
X115319Y76806D01*
X115372Y76854D01*
X115425Y76889D01*
X115468Y76920D01*
X115504Y76942D01*
X115530Y76951D01*
X115534Y76955D01*
X115539D01*
X115578Y76968D01*
X115622Y76982D01*
X115714Y76999D01*
X115811Y77017D01*
X115903Y77026D01*
X115991Y77030D01*
X116026D01*
X116061Y77034D01*
X117400D01*
Y74150D01*
D02*
G37*
G36*
X113765Y77043D02*
X113835Y77039D01*
X113967Y77012D01*
X114024Y76999D01*
X114081Y76982D01*
X114129Y76960D01*
X114173Y76942D01*
X114213Y76920D01*
X114248Y76903D01*
X114279Y76881D01*
X114305Y76867D01*
X114323Y76854D01*
X114336Y76841D01*
X114345Y76837D01*
X114349Y76832D01*
X114393Y76788D01*
X114428Y76745D01*
X114494Y76644D01*
X114542Y76543D01*
X114577Y76442D01*
X114604Y76354D01*
X114608Y76314D01*
X114617Y76279D01*
X114621Y76253D01*
X114626Y76231D01*
Y76218D01*
Y76213D01*
X114261Y76174D01*
X114252Y76270D01*
X114235Y76354D01*
X114213Y76424D01*
X114182Y76486D01*
X114156Y76534D01*
X114129Y76569D01*
X114112Y76587D01*
X114108Y76595D01*
X114046Y76648D01*
X113980Y76687D01*
X113910Y76714D01*
X113844Y76736D01*
X113787Y76745D01*
X113743Y76749D01*
X113726Y76753D01*
X113699D01*
X113611Y76749D01*
X113532Y76731D01*
X113467Y76709D01*
X113409Y76683D01*
X113366Y76652D01*
X113330Y76630D01*
X113313Y76613D01*
X113304Y76608D01*
X113251Y76551D01*
X113216Y76490D01*
X113190Y76433D01*
X113168Y76376D01*
X113159Y76327D01*
X113155Y76288D01*
X113151Y76262D01*
Y76257D01*
Y76253D01*
X113159Y76178D01*
X113177Y76099D01*
X113203Y76029D01*
X113234Y75963D01*
X113265Y75906D01*
X113291Y75862D01*
X113300Y75845D01*
X113309Y75831D01*
X113317Y75827D01*
Y75823D01*
X113352Y75779D01*
X113392Y75730D01*
X113436Y75682D01*
X113488Y75634D01*
X113594Y75533D01*
X113699Y75432D01*
X113796Y75349D01*
X113840Y75309D01*
X113879Y75278D01*
X113910Y75248D01*
X113932Y75230D01*
X113950Y75217D01*
X113954Y75212D01*
X114059Y75120D01*
X114156Y75037D01*
X114235Y74962D01*
X114301Y74901D01*
X114353Y74848D01*
X114389Y74809D01*
X114410Y74782D01*
X114419Y74778D01*
Y74773D01*
X114476Y74703D01*
X114520Y74637D01*
X114564Y74571D01*
X114595Y74514D01*
X114621Y74462D01*
X114639Y74427D01*
X114647Y74400D01*
X114652Y74396D01*
Y74391D01*
X114665Y74348D01*
X114678Y74304D01*
X114683Y74264D01*
X114687Y74229D01*
X114691Y74198D01*
Y74172D01*
Y74154D01*
Y74150D01*
X112782D01*
Y74488D01*
X114200D01*
X114151Y74558D01*
X114103Y74615D01*
X114081Y74642D01*
X114064Y74659D01*
X114055Y74672D01*
X114050Y74677D01*
X114029Y74699D01*
X114006Y74721D01*
X113950Y74773D01*
X113879Y74835D01*
X113813Y74896D01*
X113748Y74953D01*
X113695Y74997D01*
X113673Y75015D01*
X113655Y75028D01*
X113647Y75037D01*
X113642Y75041D01*
X113572Y75103D01*
X113511Y75155D01*
X113449Y75208D01*
X113396Y75256D01*
X113348Y75305D01*
X113304Y75344D01*
X113260Y75384D01*
X113225Y75419D01*
X113194Y75449D01*
X113168Y75476D01*
X113128Y75515D01*
X113107Y75542D01*
X113098Y75550D01*
X113041Y75621D01*
X112988Y75682D01*
X112949Y75744D01*
X112918Y75796D01*
X112891Y75840D01*
X112874Y75871D01*
X112865Y75893D01*
X112861Y75902D01*
X112834Y75963D01*
X112817Y76025D01*
X112804Y76082D01*
X112795Y76134D01*
X112791Y76178D01*
X112786Y76213D01*
Y76235D01*
Y76244D01*
X112791Y76306D01*
X112795Y76367D01*
X112826Y76477D01*
X112865Y76573D01*
X112909Y76657D01*
X112953Y76723D01*
X112975Y76749D01*
X112992Y76775D01*
X113010Y76793D01*
X113023Y76806D01*
X113028Y76810D01*
X113032Y76815D01*
X113080Y76854D01*
X113128Y76894D01*
X113181Y76925D01*
X113238Y76951D01*
X113348Y76990D01*
X113453Y77017D01*
X113502Y77030D01*
X113546Y77034D01*
X113585Y77039D01*
X113620Y77043D01*
X113651Y77047D01*
X113690D01*
X113765Y77043D01*
D02*
G37*
G36*
X111623Y77039D02*
X111732Y77017D01*
X111834Y76986D01*
X111917Y76951D01*
X111983Y76911D01*
X112009Y76894D01*
X112031Y76881D01*
X112053Y76867D01*
X112066Y76859D01*
X112071Y76854D01*
X112075Y76850D01*
X112154Y76771D01*
X112215Y76683D01*
X112268Y76591D01*
X112303Y76503D01*
X112334Y76424D01*
X112343Y76389D01*
X112352Y76358D01*
X112356Y76336D01*
X112360Y76319D01*
X112365Y76306D01*
Y76301D01*
X112009Y76240D01*
X111992Y76332D01*
X111965Y76411D01*
X111939Y76477D01*
X111908Y76529D01*
X111882Y76573D01*
X111860Y76604D01*
X111842Y76622D01*
X111838Y76626D01*
X111781Y76670D01*
X111724Y76701D01*
X111667Y76727D01*
X111610Y76740D01*
X111566Y76749D01*
X111526Y76758D01*
X111491D01*
X111416Y76753D01*
X111351Y76736D01*
X111293Y76718D01*
X111245Y76692D01*
X111206Y76670D01*
X111175Y76648D01*
X111157Y76630D01*
X111153Y76626D01*
X111109Y76578D01*
X111078Y76521D01*
X111052Y76468D01*
X111039Y76420D01*
X111030Y76371D01*
X111021Y76336D01*
Y76314D01*
Y76310D01*
Y76306D01*
X111030Y76218D01*
X111052Y76143D01*
X111078Y76082D01*
X111114Y76033D01*
X111149Y75994D01*
X111175Y75963D01*
X111197Y75946D01*
X111206Y75941D01*
X111276Y75902D01*
X111346Y75875D01*
X111412Y75853D01*
X111474Y75840D01*
X111531Y75831D01*
X111570Y75827D01*
X111627D01*
X111645Y75831D01*
X111667D01*
X111706Y75520D01*
X111653Y75533D01*
X111605Y75542D01*
X111561Y75546D01*
X111526Y75550D01*
X111495Y75555D01*
X111456D01*
X111368Y75546D01*
X111293Y75529D01*
X111223Y75507D01*
X111166Y75476D01*
X111118Y75445D01*
X111083Y75423D01*
X111065Y75406D01*
X111056Y75397D01*
X111004Y75335D01*
X110964Y75269D01*
X110933Y75199D01*
X110916Y75138D01*
X110903Y75081D01*
X110898Y75037D01*
X110894Y75019D01*
Y75006D01*
Y75002D01*
Y74997D01*
X110903Y74905D01*
X110920Y74822D01*
X110947Y74747D01*
X110977Y74686D01*
X111013Y74633D01*
X111039Y74598D01*
X111056Y74576D01*
X111065Y74567D01*
X111131Y74510D01*
X111201Y74466D01*
X111272Y74440D01*
X111342Y74418D01*
X111399Y74405D01*
X111443Y74400D01*
X111460Y74396D01*
X111487D01*
X111561Y74400D01*
X111632Y74418D01*
X111693Y74440D01*
X111741Y74462D01*
X111785Y74488D01*
X111816Y74506D01*
X111834Y74523D01*
X111842Y74528D01*
X111891Y74585D01*
X111934Y74651D01*
X111970Y74725D01*
X111996Y74795D01*
X112018Y74861D01*
X112031Y74914D01*
X112040Y74931D01*
Y74949D01*
X112044Y74958D01*
Y74962D01*
X112400Y74914D01*
X112391Y74848D01*
X112378Y74787D01*
X112338Y74672D01*
X112294Y74571D01*
X112242Y74484D01*
X112220Y74449D01*
X112194Y74418D01*
X112171Y74391D01*
X112154Y74365D01*
X112136Y74348D01*
X112123Y74334D01*
X112119Y74330D01*
X112114Y74326D01*
X112066Y74286D01*
X112013Y74251D01*
X111965Y74220D01*
X111913Y74198D01*
X111807Y74154D01*
X111706Y74128D01*
X111662Y74119D01*
X111618Y74115D01*
X111583Y74111D01*
X111548Y74106D01*
X111522Y74102D01*
X111487D01*
X111412Y74106D01*
X111337Y74115D01*
X111267Y74124D01*
X111201Y74141D01*
X111140Y74163D01*
X111083Y74185D01*
X111030Y74207D01*
X110982Y74233D01*
X110942Y74255D01*
X110903Y74277D01*
X110868Y74299D01*
X110841Y74321D01*
X110819Y74339D01*
X110806Y74348D01*
X110797Y74356D01*
X110793Y74361D01*
X110745Y74413D01*
X110701Y74466D01*
X110666Y74519D01*
X110635Y74571D01*
X110604Y74624D01*
X110582Y74681D01*
X110552Y74782D01*
X110538Y74826D01*
X110530Y74870D01*
X110525Y74905D01*
X110521Y74940D01*
X110517Y74967D01*
Y74984D01*
Y74997D01*
Y75002D01*
X110521Y75103D01*
X110538Y75195D01*
X110560Y75274D01*
X110587Y75340D01*
X110617Y75392D01*
X110639Y75432D01*
X110657Y75458D01*
X110661Y75467D01*
X110718Y75533D01*
X110784Y75586D01*
X110850Y75629D01*
X110912Y75660D01*
X110969Y75687D01*
X111013Y75700D01*
X111030Y75709D01*
X111043D01*
X111052Y75713D01*
X111056D01*
X110986Y75748D01*
X110925Y75792D01*
X110877Y75831D01*
X110833Y75871D01*
X110802Y75906D01*
X110775Y75932D01*
X110762Y75950D01*
X110758Y75959D01*
X110723Y76016D01*
X110701Y76077D01*
X110683Y76134D01*
X110670Y76187D01*
X110661Y76231D01*
X110657Y76266D01*
Y76288D01*
Y76297D01*
X110661Y76371D01*
X110675Y76437D01*
X110692Y76499D01*
X110710Y76556D01*
X110727Y76600D01*
X110745Y76635D01*
X110758Y76657D01*
X110762Y76666D01*
X110806Y76727D01*
X110854Y76784D01*
X110907Y76832D01*
X110956Y76872D01*
X110999Y76903D01*
X111035Y76925D01*
X111061Y76938D01*
X111065Y76942D01*
X111070D01*
X111144Y76977D01*
X111219Y77004D01*
X111293Y77021D01*
X111359Y77034D01*
X111416Y77043D01*
X111460Y77047D01*
X111561D01*
X111623Y77039D01*
D02*
G37*
G36*
X86539Y77243D02*
X86601Y77239D01*
X86719Y77212D01*
X86825Y77182D01*
X86908Y77142D01*
X86948Y77120D01*
X86978Y77103D01*
X87005Y77081D01*
X87031Y77067D01*
X87049Y77054D01*
X87062Y77041D01*
X87066Y77037D01*
X87071Y77032D01*
X87110Y76993D01*
X87145Y76949D01*
X87176Y76905D01*
X87198Y76857D01*
X87242Y76769D01*
X87268Y76686D01*
X87281Y76611D01*
X87286Y76580D01*
X87290Y76554D01*
X87294Y76532D01*
Y76514D01*
Y76506D01*
Y76501D01*
X87290Y76427D01*
X87277Y76361D01*
X87259Y76299D01*
X87242Y76247D01*
X87224Y76203D01*
X87207Y76172D01*
X87194Y76154D01*
X87189Y76145D01*
X87145Y76093D01*
X87093Y76049D01*
X87040Y76009D01*
X86983Y75974D01*
X86935Y75952D01*
X86895Y75930D01*
X86869Y75922D01*
X86864Y75917D01*
X86860D01*
X86952Y75886D01*
X87035Y75847D01*
X87106Y75803D01*
X87163Y75759D01*
X87207Y75720D01*
X87242Y75685D01*
X87259Y75663D01*
X87268Y75658D01*
Y75654D01*
X87316Y75579D01*
X87347Y75500D01*
X87374Y75421D01*
X87391Y75346D01*
X87400Y75285D01*
X87404Y75254D01*
Y75232D01*
X87409Y75210D01*
Y75197D01*
Y75188D01*
Y75184D01*
X87404Y75114D01*
X87395Y75048D01*
X87387Y74986D01*
X87369Y74925D01*
X87325Y74820D01*
X87303Y74771D01*
X87277Y74727D01*
X87255Y74688D01*
X87233Y74653D01*
X87211Y74622D01*
X87189Y74596D01*
X87172Y74578D01*
X87163Y74565D01*
X87154Y74556D01*
X87150Y74552D01*
X87097Y74508D01*
X87044Y74468D01*
X86987Y74438D01*
X86930Y74407D01*
X86873Y74385D01*
X86816Y74363D01*
X86706Y74332D01*
X86654Y74324D01*
X86610Y74315D01*
X86566Y74310D01*
X86531Y74306D01*
X86500Y74302D01*
X86460D01*
X86381Y74306D01*
X86307Y74310D01*
X86236Y74324D01*
X86175Y74341D01*
X86114Y74359D01*
X86056Y74381D01*
X86004Y74403D01*
X85956Y74429D01*
X85912Y74451D01*
X85877Y74473D01*
X85846Y74495D01*
X85819Y74512D01*
X85797Y74530D01*
X85784Y74543D01*
X85776Y74548D01*
X85771Y74552D01*
X85723Y74600D01*
X85683Y74648D01*
X85648Y74701D01*
X85617Y74754D01*
X85591Y74807D01*
X85574Y74859D01*
X85538Y74956D01*
X85521Y75044D01*
X85517Y75083D01*
X85512Y75114D01*
X85508Y75140D01*
Y75158D01*
Y75171D01*
Y75175D01*
X85512Y75272D01*
X85530Y75360D01*
X85552Y75439D01*
X85578Y75505D01*
X85604Y75562D01*
X85626Y75601D01*
X85644Y75627D01*
X85648Y75636D01*
X85705Y75702D01*
X85771Y75764D01*
X85837Y75812D01*
X85903Y75851D01*
X85960Y75878D01*
X86008Y75900D01*
X86026Y75908D01*
X86039Y75913D01*
X86048Y75917D01*
X86052D01*
X85977Y75948D01*
X85912Y75987D01*
X85855Y76023D01*
X85811Y76058D01*
X85776Y76093D01*
X85749Y76119D01*
X85736Y76137D01*
X85732Y76141D01*
X85697Y76198D01*
X85670Y76260D01*
X85653Y76317D01*
X85639Y76374D01*
X85631Y76422D01*
X85626Y76457D01*
Y76484D01*
Y76492D01*
X85631Y76549D01*
X85635Y76607D01*
X85661Y76707D01*
X85701Y76800D01*
X85740Y76879D01*
X85784Y76940D01*
X85806Y76966D01*
X85824Y76988D01*
X85837Y77006D01*
X85850Y77019D01*
X85855Y77024D01*
X85859Y77028D01*
X85903Y77067D01*
X85951Y77103D01*
X85999Y77129D01*
X86052Y77155D01*
X86153Y77195D01*
X86250Y77221D01*
X86337Y77234D01*
X86373Y77243D01*
X86408D01*
X86434Y77247D01*
X86469D01*
X86539Y77243D01*
D02*
G37*
G36*
X92400Y74350D02*
X92018D01*
Y75632D01*
X91526D01*
X91483Y75627D01*
X91447D01*
X91417Y75623D01*
X91395Y75619D01*
X91377D01*
X91368Y75614D01*
X91364D01*
X91298Y75592D01*
X91245Y75566D01*
X91224Y75553D01*
X91206Y75544D01*
X91197Y75540D01*
X91193Y75535D01*
X91158Y75513D01*
X91127Y75483D01*
X91061Y75421D01*
X91039Y75390D01*
X91017Y75364D01*
X91004Y75346D01*
X91000Y75342D01*
X90956Y75285D01*
X90912Y75224D01*
X90864Y75158D01*
X90820Y75092D01*
X90780Y75035D01*
X90749Y74991D01*
X90741Y74973D01*
X90732Y74960D01*
X90723Y74951D01*
Y74947D01*
X90341Y74350D01*
X89863D01*
X90363Y75131D01*
X90420Y75215D01*
X90477Y75289D01*
X90530Y75355D01*
X90578Y75412D01*
X90618Y75456D01*
X90648Y75491D01*
X90670Y75509D01*
X90679Y75518D01*
X90710Y75544D01*
X90749Y75570D01*
X90824Y75619D01*
X90855Y75636D01*
X90881Y75649D01*
X90899Y75658D01*
X90907Y75663D01*
X90833Y75676D01*
X90763Y75689D01*
X90697Y75706D01*
X90640Y75728D01*
X90583Y75750D01*
X90534Y75772D01*
X90486Y75794D01*
X90447Y75816D01*
X90411Y75838D01*
X90381Y75856D01*
X90354Y75878D01*
X90332Y75891D01*
X90319Y75908D01*
X90306Y75917D01*
X90297Y75926D01*
X90262Y75965D01*
X90231Y76009D01*
X90179Y76097D01*
X90144Y76181D01*
X90122Y76264D01*
X90104Y76334D01*
X90100Y76365D01*
Y76391D01*
X90095Y76413D01*
Y76431D01*
Y76440D01*
Y76444D01*
X90100Y76532D01*
X90113Y76611D01*
X90135Y76686D01*
X90157Y76751D01*
X90179Y76804D01*
X90201Y76844D01*
X90214Y76870D01*
X90218Y76879D01*
X90267Y76949D01*
X90319Y77006D01*
X90372Y77054D01*
X90425Y77089D01*
X90468Y77120D01*
X90504Y77142D01*
X90530Y77151D01*
X90534Y77155D01*
X90539D01*
X90578Y77168D01*
X90622Y77182D01*
X90714Y77199D01*
X90811Y77217D01*
X90903Y77226D01*
X90991Y77230D01*
X91026D01*
X91061Y77234D01*
X92400D01*
Y74350D01*
D02*
G37*
G36*
X88581Y77177D02*
X88629Y77107D01*
X88682Y77041D01*
X88734Y76980D01*
X88783Y76931D01*
X88822Y76892D01*
X88849Y76866D01*
X88853Y76861D01*
X88857Y76857D01*
X88941Y76787D01*
X89029Y76721D01*
X89116Y76664D01*
X89195Y76615D01*
X89266Y76576D01*
X89296Y76563D01*
X89323Y76549D01*
X89340Y76536D01*
X89358Y76527D01*
X89367Y76523D01*
X89371D01*
Y76176D01*
X89309Y76203D01*
X89244Y76233D01*
X89182Y76260D01*
X89125Y76290D01*
X89077Y76317D01*
X89037Y76339D01*
X89011Y76356D01*
X89007Y76361D01*
X89002D01*
X88928Y76405D01*
X88862Y76453D01*
X88805Y76492D01*
X88756Y76532D01*
X88717Y76563D01*
X88686Y76585D01*
X88669Y76602D01*
X88664Y76607D01*
Y74350D01*
X88309D01*
Y77247D01*
X88541D01*
X88581Y77177D01*
D02*
G37*
G36*
X71900Y74300D02*
X71518D01*
Y75582D01*
X71026D01*
X70982Y75577D01*
X70947D01*
X70917Y75573D01*
X70895Y75569D01*
X70877D01*
X70868Y75564D01*
X70864D01*
X70798Y75542D01*
X70745Y75516D01*
X70723Y75503D01*
X70706Y75494D01*
X70697Y75490D01*
X70693Y75485D01*
X70658Y75463D01*
X70627Y75433D01*
X70561Y75371D01*
X70539Y75340D01*
X70517Y75314D01*
X70504Y75296D01*
X70500Y75292D01*
X70456Y75235D01*
X70412Y75174D01*
X70363Y75108D01*
X70320Y75042D01*
X70280Y74985D01*
X70249Y74941D01*
X70241Y74923D01*
X70232Y74910D01*
X70223Y74901D01*
Y74897D01*
X69841Y74300D01*
X69363D01*
X69863Y75081D01*
X69920Y75165D01*
X69977Y75239D01*
X70030Y75305D01*
X70078Y75362D01*
X70118Y75406D01*
X70148Y75441D01*
X70170Y75459D01*
X70179Y75468D01*
X70210Y75494D01*
X70249Y75520D01*
X70324Y75569D01*
X70355Y75586D01*
X70381Y75599D01*
X70399Y75608D01*
X70407Y75613D01*
X70333Y75626D01*
X70262Y75639D01*
X70197Y75656D01*
X70140Y75678D01*
X70082Y75700D01*
X70034Y75722D01*
X69986Y75744D01*
X69946Y75766D01*
X69911Y75788D01*
X69881Y75806D01*
X69854Y75828D01*
X69832Y75841D01*
X69819Y75858D01*
X69806Y75867D01*
X69797Y75876D01*
X69762Y75915D01*
X69731Y75959D01*
X69679Y76047D01*
X69643Y76131D01*
X69622Y76214D01*
X69604Y76284D01*
X69600Y76315D01*
Y76341D01*
X69595Y76363D01*
Y76381D01*
Y76390D01*
Y76394D01*
X69600Y76482D01*
X69613Y76561D01*
X69635Y76635D01*
X69657Y76701D01*
X69679Y76754D01*
X69701Y76793D01*
X69714Y76820D01*
X69718Y76829D01*
X69766Y76899D01*
X69819Y76956D01*
X69872Y77004D01*
X69924Y77039D01*
X69968Y77070D01*
X70003Y77092D01*
X70030Y77101D01*
X70034Y77105D01*
X70039D01*
X70078Y77118D01*
X70122Y77132D01*
X70214Y77149D01*
X70311Y77167D01*
X70403Y77175D01*
X70491Y77180D01*
X70526D01*
X70561Y77184D01*
X71900D01*
Y74300D01*
D02*
G37*
G36*
X65842Y77127D02*
X65890Y77057D01*
X65943Y76991D01*
X65996Y76930D01*
X66044Y76881D01*
X66083Y76842D01*
X66110Y76815D01*
X66114Y76811D01*
X66118Y76807D01*
X66202Y76736D01*
X66290Y76671D01*
X66377Y76613D01*
X66456Y76565D01*
X66527Y76526D01*
X66557Y76513D01*
X66584Y76499D01*
X66601Y76486D01*
X66619Y76477D01*
X66628Y76473D01*
X66632D01*
Y76126D01*
X66571Y76153D01*
X66505Y76183D01*
X66443Y76210D01*
X66386Y76240D01*
X66338Y76267D01*
X66298Y76289D01*
X66272Y76306D01*
X66268Y76311D01*
X66263D01*
X66189Y76354D01*
X66123Y76403D01*
X66066Y76442D01*
X66017Y76482D01*
X65978Y76513D01*
X65947Y76534D01*
X65930Y76552D01*
X65925Y76556D01*
Y74300D01*
X65570D01*
Y77197D01*
X65802D01*
X65842Y77127D01*
D02*
G37*
G36*
X68265Y77193D02*
X68335Y77189D01*
X68467Y77162D01*
X68524Y77149D01*
X68581Y77132D01*
X68629Y77110D01*
X68673Y77092D01*
X68713Y77070D01*
X68748Y77052D01*
X68779Y77031D01*
X68805Y77017D01*
X68823Y77004D01*
X68836Y76991D01*
X68845Y76987D01*
X68849Y76982D01*
X68893Y76938D01*
X68928Y76894D01*
X68994Y76793D01*
X69042Y76693D01*
X69077Y76592D01*
X69104Y76504D01*
X69108Y76464D01*
X69117Y76429D01*
X69121Y76403D01*
X69125Y76381D01*
Y76368D01*
Y76363D01*
X68761Y76324D01*
X68752Y76420D01*
X68735Y76504D01*
X68713Y76574D01*
X68682Y76635D01*
X68656Y76684D01*
X68629Y76719D01*
X68612Y76736D01*
X68607Y76745D01*
X68546Y76798D01*
X68480Y76837D01*
X68410Y76864D01*
X68344Y76886D01*
X68287Y76894D01*
X68243Y76899D01*
X68226Y76903D01*
X68199D01*
X68111Y76899D01*
X68032Y76881D01*
X67967Y76859D01*
X67909Y76833D01*
X67866Y76802D01*
X67830Y76780D01*
X67813Y76763D01*
X67804Y76758D01*
X67751Y76701D01*
X67716Y76640D01*
X67690Y76583D01*
X67668Y76526D01*
X67659Y76477D01*
X67655Y76438D01*
X67651Y76412D01*
Y76407D01*
Y76403D01*
X67659Y76328D01*
X67677Y76249D01*
X67703Y76179D01*
X67734Y76113D01*
X67765Y76056D01*
X67791Y76012D01*
X67800Y75994D01*
X67809Y75981D01*
X67817Y75977D01*
Y75973D01*
X67852Y75929D01*
X67892Y75880D01*
X67936Y75832D01*
X67989Y75784D01*
X68094Y75683D01*
X68199Y75582D01*
X68296Y75498D01*
X68340Y75459D01*
X68379Y75428D01*
X68410Y75397D01*
X68432Y75380D01*
X68449Y75367D01*
X68454Y75362D01*
X68559Y75270D01*
X68656Y75187D01*
X68735Y75112D01*
X68801Y75051D01*
X68853Y74998D01*
X68888Y74958D01*
X68910Y74932D01*
X68919Y74928D01*
Y74923D01*
X68976Y74853D01*
X69020Y74787D01*
X69064Y74721D01*
X69095Y74664D01*
X69121Y74612D01*
X69139Y74577D01*
X69147Y74550D01*
X69152Y74546D01*
Y74541D01*
X69165Y74498D01*
X69178Y74454D01*
X69183Y74414D01*
X69187Y74379D01*
X69191Y74348D01*
Y74322D01*
Y74304D01*
Y74300D01*
X67282D01*
Y74638D01*
X68700D01*
X68651Y74708D01*
X68603Y74765D01*
X68581Y74792D01*
X68564Y74809D01*
X68555Y74822D01*
X68550Y74827D01*
X68528Y74849D01*
X68506Y74871D01*
X68449Y74923D01*
X68379Y74985D01*
X68313Y75046D01*
X68247Y75103D01*
X68195Y75147D01*
X68173Y75165D01*
X68155Y75178D01*
X68147Y75187D01*
X68142Y75191D01*
X68072Y75253D01*
X68010Y75305D01*
X67949Y75358D01*
X67896Y75406D01*
X67848Y75455D01*
X67804Y75494D01*
X67760Y75534D01*
X67725Y75569D01*
X67694Y75599D01*
X67668Y75626D01*
X67629Y75665D01*
X67607Y75692D01*
X67598Y75700D01*
X67541Y75771D01*
X67488Y75832D01*
X67449Y75894D01*
X67418Y75946D01*
X67392Y75990D01*
X67374Y76021D01*
X67365Y76043D01*
X67361Y76052D01*
X67334Y76113D01*
X67317Y76174D01*
X67304Y76232D01*
X67295Y76284D01*
X67291Y76328D01*
X67286Y76363D01*
Y76385D01*
Y76394D01*
X67291Y76455D01*
X67295Y76517D01*
X67326Y76627D01*
X67365Y76723D01*
X67409Y76807D01*
X67453Y76872D01*
X67475Y76899D01*
X67492Y76925D01*
X67510Y76943D01*
X67523Y76956D01*
X67528Y76960D01*
X67532Y76965D01*
X67580Y77004D01*
X67629Y77044D01*
X67681Y77074D01*
X67738Y77101D01*
X67848Y77140D01*
X67953Y77167D01*
X68002Y77180D01*
X68046Y77184D01*
X68085Y77189D01*
X68120Y77193D01*
X68151Y77197D01*
X68190D01*
X68265Y77193D01*
D02*
G37*
G36*
X99257Y75314D02*
Y74989D01*
X98006D01*
Y74300D01*
X97650D01*
Y74989D01*
X97260D01*
Y75314D01*
X97650D01*
Y77180D01*
X97940D01*
X99257Y75314D01*
D02*
G37*
G36*
X101900Y74300D02*
X100864D01*
X100767Y74304D01*
X100680Y74309D01*
X100601Y74318D01*
X100535Y74326D01*
X100478Y74335D01*
X100438Y74339D01*
X100412Y74348D01*
X100403D01*
X100328Y74370D01*
X100262Y74392D01*
X100206Y74414D01*
X100157Y74436D01*
X100118Y74458D01*
X100087Y74476D01*
X100065Y74484D01*
X100061Y74489D01*
X100008Y74528D01*
X99960Y74572D01*
X99911Y74616D01*
X99876Y74656D01*
X99841Y74695D01*
X99819Y74726D01*
X99802Y74743D01*
X99797Y74752D01*
X99753Y74818D01*
X99714Y74888D01*
X99679Y74958D01*
X99652Y75024D01*
X99630Y75086D01*
X99613Y75130D01*
X99608Y75147D01*
X99604Y75160D01*
X99600Y75169D01*
Y75174D01*
X99573Y75270D01*
X99556Y75371D01*
X99538Y75472D01*
X99529Y75560D01*
X99525Y75639D01*
Y75674D01*
X99521Y75700D01*
Y75727D01*
Y75744D01*
Y75753D01*
Y75757D01*
X99525Y75898D01*
X99538Y76025D01*
X99556Y76139D01*
X99569Y76192D01*
X99578Y76240D01*
X99586Y76284D01*
X99600Y76324D01*
X99608Y76359D01*
X99617Y76385D01*
X99626Y76407D01*
X99630Y76425D01*
X99635Y76433D01*
Y76438D01*
X99683Y76548D01*
X99736Y76644D01*
X99793Y76728D01*
X99850Y76798D01*
X99898Y76855D01*
X99938Y76899D01*
X99968Y76925D01*
X99973Y76934D01*
X99977D01*
X100047Y76987D01*
X100118Y77031D01*
X100188Y77066D01*
X100254Y77092D01*
X100311Y77114D01*
X100359Y77127D01*
X100377Y77136D01*
X100385D01*
X100394Y77140D01*
X100399D01*
X100469Y77153D01*
X100552Y77167D01*
X100640Y77175D01*
X100719Y77180D01*
X100794Y77184D01*
X101900D01*
Y74300D01*
D02*
G37*
G36*
X35662Y81589D02*
X35771Y81567D01*
X35872Y81536D01*
X35956Y81501D01*
X36022Y81461D01*
X36048Y81444D01*
X36070Y81431D01*
X36092Y81417D01*
X36105Y81409D01*
X36109Y81404D01*
X36114Y81400D01*
X36193Y81321D01*
X36254Y81233D01*
X36307Y81141D01*
X36342Y81053D01*
X36373Y80974D01*
X36382Y80939D01*
X36390Y80908D01*
X36395Y80886D01*
X36399Y80869D01*
X36404Y80856D01*
Y80851D01*
X36048Y80790D01*
X36030Y80882D01*
X36004Y80961D01*
X35978Y81027D01*
X35947Y81079D01*
X35921Y81123D01*
X35899Y81154D01*
X35881Y81172D01*
X35877Y81176D01*
X35820Y81220D01*
X35763Y81251D01*
X35706Y81277D01*
X35649Y81290D01*
X35605Y81299D01*
X35565Y81308D01*
X35530D01*
X35455Y81303D01*
X35390Y81286D01*
X35332Y81268D01*
X35284Y81242D01*
X35245Y81220D01*
X35214Y81198D01*
X35196Y81180D01*
X35192Y81176D01*
X35148Y81128D01*
X35117Y81071D01*
X35091Y81018D01*
X35078Y80970D01*
X35069Y80921D01*
X35060Y80886D01*
Y80864D01*
Y80860D01*
Y80856D01*
X35069Y80768D01*
X35091Y80693D01*
X35117Y80632D01*
X35152Y80583D01*
X35188Y80544D01*
X35214Y80513D01*
X35236Y80496D01*
X35245Y80491D01*
X35315Y80452D01*
X35385Y80425D01*
X35451Y80403D01*
X35512Y80390D01*
X35570Y80381D01*
X35609Y80377D01*
X35666D01*
X35684Y80381D01*
X35706D01*
X35745Y80070D01*
X35692Y80083D01*
X35644Y80092D01*
X35600Y80096D01*
X35565Y80100D01*
X35534Y80105D01*
X35495D01*
X35407Y80096D01*
X35332Y80079D01*
X35262Y80057D01*
X35205Y80026D01*
X35157Y79995D01*
X35122Y79973D01*
X35104Y79956D01*
X35095Y79947D01*
X35043Y79885D01*
X35003Y79819D01*
X34972Y79749D01*
X34955Y79688D01*
X34942Y79631D01*
X34937Y79587D01*
X34933Y79569D01*
Y79556D01*
Y79552D01*
Y79547D01*
X34942Y79455D01*
X34959Y79372D01*
X34986Y79297D01*
X35016Y79236D01*
X35051Y79183D01*
X35078Y79148D01*
X35095Y79126D01*
X35104Y79117D01*
X35170Y79060D01*
X35240Y79016D01*
X35311Y78990D01*
X35381Y78968D01*
X35438Y78955D01*
X35482Y78950D01*
X35499Y78946D01*
X35526D01*
X35600Y78950D01*
X35670Y78968D01*
X35732Y78990D01*
X35780Y79012D01*
X35824Y79038D01*
X35855Y79056D01*
X35872Y79073D01*
X35881Y79078D01*
X35930Y79135D01*
X35973Y79201D01*
X36009Y79275D01*
X36035Y79345D01*
X36057Y79411D01*
X36070Y79464D01*
X36079Y79481D01*
Y79499D01*
X36083Y79508D01*
Y79512D01*
X36439Y79464D01*
X36430Y79398D01*
X36417Y79337D01*
X36377Y79222D01*
X36333Y79121D01*
X36281Y79034D01*
X36259Y78999D01*
X36232Y78968D01*
X36210Y78941D01*
X36193Y78915D01*
X36175Y78898D01*
X36162Y78884D01*
X36158Y78880D01*
X36153Y78876D01*
X36105Y78836D01*
X36052Y78801D01*
X36004Y78770D01*
X35951Y78748D01*
X35846Y78704D01*
X35745Y78678D01*
X35701Y78669D01*
X35657Y78665D01*
X35622Y78661D01*
X35587Y78656D01*
X35561Y78652D01*
X35526D01*
X35451Y78656D01*
X35376Y78665D01*
X35306Y78674D01*
X35240Y78691D01*
X35179Y78713D01*
X35122Y78735D01*
X35069Y78757D01*
X35021Y78783D01*
X34981Y78805D01*
X34942Y78827D01*
X34907Y78849D01*
X34880Y78871D01*
X34858Y78889D01*
X34845Y78898D01*
X34836Y78906D01*
X34832Y78911D01*
X34784Y78963D01*
X34740Y79016D01*
X34705Y79069D01*
X34674Y79121D01*
X34643Y79174D01*
X34621Y79231D01*
X34591Y79332D01*
X34577Y79376D01*
X34569Y79420D01*
X34564Y79455D01*
X34560Y79490D01*
X34555Y79517D01*
Y79534D01*
Y79547D01*
Y79552D01*
X34560Y79653D01*
X34577Y79745D01*
X34599Y79824D01*
X34626Y79890D01*
X34656Y79942D01*
X34678Y79982D01*
X34696Y80008D01*
X34700Y80017D01*
X34757Y80083D01*
X34823Y80136D01*
X34889Y80179D01*
X34951Y80210D01*
X35008Y80237D01*
X35051Y80250D01*
X35069Y80259D01*
X35082D01*
X35091Y80263D01*
X35095D01*
X35025Y80298D01*
X34964Y80342D01*
X34915Y80381D01*
X34872Y80421D01*
X34841Y80456D01*
X34814Y80482D01*
X34801Y80500D01*
X34797Y80509D01*
X34762Y80566D01*
X34740Y80627D01*
X34722Y80684D01*
X34709Y80737D01*
X34700Y80781D01*
X34696Y80816D01*
Y80838D01*
Y80847D01*
X34700Y80921D01*
X34713Y80987D01*
X34731Y81049D01*
X34749Y81106D01*
X34766Y81150D01*
X34784Y81185D01*
X34797Y81207D01*
X34801Y81216D01*
X34845Y81277D01*
X34893Y81334D01*
X34946Y81382D01*
X34994Y81422D01*
X35038Y81453D01*
X35073Y81475D01*
X35100Y81488D01*
X35104Y81492D01*
X35109D01*
X35183Y81527D01*
X35258Y81554D01*
X35332Y81571D01*
X35398Y81584D01*
X35455Y81593D01*
X35499Y81597D01*
X35600D01*
X35662Y81589D01*
D02*
G37*
G36*
X91200Y78700D02*
X90818D01*
Y79982D01*
X90326D01*
X90282Y79978D01*
X90247D01*
X90217Y79973D01*
X90195Y79969D01*
X90177D01*
X90168Y79964D01*
X90164D01*
X90098Y79942D01*
X90045Y79916D01*
X90023Y79903D01*
X90006Y79894D01*
X89997Y79890D01*
X89993Y79885D01*
X89958Y79863D01*
X89927Y79833D01*
X89861Y79771D01*
X89839Y79740D01*
X89817Y79714D01*
X89804Y79697D01*
X89800Y79692D01*
X89756Y79635D01*
X89712Y79574D01*
X89663Y79508D01*
X89620Y79442D01*
X89580Y79385D01*
X89549Y79341D01*
X89541Y79323D01*
X89532Y79310D01*
X89523Y79301D01*
Y79297D01*
X89141Y78700D01*
X88663D01*
X89163Y79481D01*
X89220Y79565D01*
X89277Y79640D01*
X89330Y79705D01*
X89378Y79762D01*
X89418Y79806D01*
X89448Y79841D01*
X89470Y79859D01*
X89479Y79868D01*
X89510Y79894D01*
X89549Y79920D01*
X89624Y79969D01*
X89655Y79986D01*
X89681Y79999D01*
X89699Y80008D01*
X89707Y80013D01*
X89633Y80026D01*
X89562Y80039D01*
X89497Y80057D01*
X89440Y80079D01*
X89382Y80100D01*
X89334Y80122D01*
X89286Y80144D01*
X89246Y80166D01*
X89211Y80188D01*
X89181Y80206D01*
X89154Y80228D01*
X89132Y80241D01*
X89119Y80259D01*
X89106Y80267D01*
X89097Y80276D01*
X89062Y80316D01*
X89031Y80359D01*
X88979Y80447D01*
X88943Y80531D01*
X88922Y80614D01*
X88904Y80684D01*
X88900Y80715D01*
Y80741D01*
X88895Y80763D01*
Y80781D01*
Y80790D01*
Y80794D01*
X88900Y80882D01*
X88913Y80961D01*
X88935Y81036D01*
X88957Y81101D01*
X88979Y81154D01*
X89001Y81194D01*
X89014Y81220D01*
X89018Y81229D01*
X89066Y81299D01*
X89119Y81356D01*
X89172Y81404D01*
X89224Y81439D01*
X89268Y81470D01*
X89303Y81492D01*
X89330Y81501D01*
X89334Y81505D01*
X89339D01*
X89378Y81518D01*
X89422Y81532D01*
X89514Y81549D01*
X89611Y81567D01*
X89703Y81576D01*
X89791Y81580D01*
X89826D01*
X89861Y81584D01*
X91200D01*
Y78700D01*
D02*
G37*
G36*
X39200D02*
X38818D01*
Y79982D01*
X38326D01*
X38282Y79978D01*
X38247D01*
X38217Y79973D01*
X38195Y79969D01*
X38177D01*
X38168Y79964D01*
X38164D01*
X38098Y79942D01*
X38045Y79916D01*
X38023Y79903D01*
X38006Y79894D01*
X37997Y79890D01*
X37993Y79885D01*
X37958Y79863D01*
X37927Y79833D01*
X37861Y79771D01*
X37839Y79740D01*
X37817Y79714D01*
X37804Y79697D01*
X37800Y79692D01*
X37756Y79635D01*
X37712Y79574D01*
X37663Y79508D01*
X37620Y79442D01*
X37580Y79385D01*
X37549Y79341D01*
X37541Y79323D01*
X37532Y79310D01*
X37523Y79301D01*
Y79297D01*
X37141Y78700D01*
X36663D01*
X37163Y79481D01*
X37220Y79565D01*
X37277Y79640D01*
X37330Y79705D01*
X37378Y79762D01*
X37418Y79806D01*
X37448Y79841D01*
X37470Y79859D01*
X37479Y79868D01*
X37510Y79894D01*
X37549Y79920D01*
X37624Y79969D01*
X37655Y79986D01*
X37681Y79999D01*
X37699Y80008D01*
X37707Y80013D01*
X37633Y80026D01*
X37563Y80039D01*
X37497Y80057D01*
X37440Y80079D01*
X37383Y80100D01*
X37334Y80122D01*
X37286Y80144D01*
X37246Y80166D01*
X37211Y80188D01*
X37181Y80206D01*
X37154Y80228D01*
X37132Y80241D01*
X37119Y80259D01*
X37106Y80267D01*
X37097Y80276D01*
X37062Y80316D01*
X37031Y80359D01*
X36979Y80447D01*
X36944Y80531D01*
X36922Y80614D01*
X36904Y80684D01*
X36900Y80715D01*
Y80741D01*
X36895Y80763D01*
Y80781D01*
Y80790D01*
Y80794D01*
X36900Y80882D01*
X36913Y80961D01*
X36935Y81036D01*
X36957Y81101D01*
X36979Y81154D01*
X37001Y81194D01*
X37014Y81220D01*
X37018Y81229D01*
X37067Y81299D01*
X37119Y81356D01*
X37172Y81404D01*
X37225Y81439D01*
X37268Y81470D01*
X37304Y81492D01*
X37330Y81501D01*
X37334Y81505D01*
X37339D01*
X37378Y81518D01*
X37422Y81532D01*
X37514Y81549D01*
X37611Y81567D01*
X37703Y81576D01*
X37791Y81580D01*
X37826D01*
X37861Y81584D01*
X39200D01*
Y78700D01*
D02*
G37*
G36*
X107100Y78250D02*
X106064D01*
X105967Y78254D01*
X105880Y78259D01*
X105801Y78268D01*
X105735Y78276D01*
X105678Y78285D01*
X105638Y78290D01*
X105612Y78298D01*
X105603D01*
X105528Y78320D01*
X105463Y78342D01*
X105405Y78364D01*
X105357Y78386D01*
X105318Y78408D01*
X105287Y78426D01*
X105265Y78434D01*
X105261Y78439D01*
X105208Y78478D01*
X105160Y78522D01*
X105111Y78566D01*
X105076Y78606D01*
X105041Y78645D01*
X105019Y78676D01*
X105002Y78693D01*
X104997Y78702D01*
X104953Y78768D01*
X104914Y78838D01*
X104879Y78908D01*
X104852Y78974D01*
X104830Y79036D01*
X104813Y79080D01*
X104808Y79097D01*
X104804Y79110D01*
X104800Y79119D01*
Y79124D01*
X104773Y79220D01*
X104756Y79321D01*
X104738Y79422D01*
X104729Y79510D01*
X104725Y79589D01*
Y79624D01*
X104721Y79650D01*
Y79677D01*
Y79694D01*
Y79703D01*
Y79707D01*
X104725Y79848D01*
X104738Y79975D01*
X104756Y80089D01*
X104769Y80142D01*
X104778Y80190D01*
X104787Y80234D01*
X104800Y80274D01*
X104808Y80309D01*
X104817Y80335D01*
X104826Y80357D01*
X104830Y80375D01*
X104835Y80383D01*
Y80388D01*
X104883Y80498D01*
X104936Y80594D01*
X104993Y80678D01*
X105050Y80748D01*
X105098Y80805D01*
X105138Y80849D01*
X105168Y80875D01*
X105173Y80884D01*
X105177D01*
X105247Y80937D01*
X105318Y80981D01*
X105388Y81016D01*
X105454Y81042D01*
X105511Y81064D01*
X105559Y81077D01*
X105577Y81086D01*
X105585D01*
X105594Y81090D01*
X105599D01*
X105669Y81103D01*
X105752Y81117D01*
X105840Y81125D01*
X105919Y81130D01*
X105994Y81134D01*
X107100D01*
Y78250D01*
D02*
G37*
G36*
X52200Y78700D02*
X51164D01*
X51067Y78704D01*
X50980Y78709D01*
X50901Y78718D01*
X50835Y78726D01*
X50778Y78735D01*
X50738Y78740D01*
X50712Y78748D01*
X50703D01*
X50628Y78770D01*
X50563Y78792D01*
X50506Y78814D01*
X50457Y78836D01*
X50418Y78858D01*
X50387Y78876D01*
X50365Y78884D01*
X50361Y78889D01*
X50308Y78928D01*
X50260Y78972D01*
X50211Y79016D01*
X50176Y79056D01*
X50141Y79095D01*
X50119Y79126D01*
X50102Y79143D01*
X50097Y79152D01*
X50053Y79218D01*
X50014Y79288D01*
X49979Y79359D01*
X49952Y79424D01*
X49930Y79486D01*
X49913Y79530D01*
X49908Y79547D01*
X49904Y79560D01*
X49900Y79569D01*
Y79574D01*
X49873Y79670D01*
X49856Y79771D01*
X49838Y79872D01*
X49829Y79960D01*
X49825Y80039D01*
Y80074D01*
X49821Y80100D01*
Y80127D01*
Y80144D01*
Y80153D01*
Y80158D01*
X49825Y80298D01*
X49838Y80425D01*
X49856Y80539D01*
X49869Y80592D01*
X49878Y80640D01*
X49887Y80684D01*
X49900Y80724D01*
X49908Y80759D01*
X49917Y80785D01*
X49926Y80807D01*
X49930Y80825D01*
X49935Y80834D01*
Y80838D01*
X49983Y80948D01*
X50036Y81044D01*
X50093Y81128D01*
X50150Y81198D01*
X50198Y81255D01*
X50238Y81299D01*
X50268Y81325D01*
X50273Y81334D01*
X50277D01*
X50347Y81387D01*
X50418Y81431D01*
X50488Y81466D01*
X50554Y81492D01*
X50611Y81514D01*
X50659Y81527D01*
X50677Y81536D01*
X50685D01*
X50694Y81540D01*
X50699D01*
X50769Y81554D01*
X50852Y81567D01*
X50940Y81576D01*
X51019Y81580D01*
X51094Y81584D01*
X52200D01*
Y78700D01*
D02*
G37*
G36*
X48376Y81527D02*
X48425Y81457D01*
X48477Y81391D01*
X48530Y81330D01*
X48578Y81281D01*
X48618Y81242D01*
X48644Y81216D01*
X48649Y81211D01*
X48653Y81207D01*
X48736Y81137D01*
X48824Y81071D01*
X48912Y81014D01*
X48991Y80965D01*
X49061Y80926D01*
X49092Y80913D01*
X49118Y80899D01*
X49136Y80886D01*
X49153Y80877D01*
X49162Y80873D01*
X49167D01*
Y80526D01*
X49105Y80553D01*
X49039Y80583D01*
X48978Y80610D01*
X48921Y80640D01*
X48872Y80667D01*
X48833Y80689D01*
X48807Y80706D01*
X48802Y80711D01*
X48798D01*
X48723Y80755D01*
X48657Y80803D01*
X48600Y80842D01*
X48552Y80882D01*
X48512Y80913D01*
X48482Y80935D01*
X48464Y80952D01*
X48460Y80957D01*
Y78700D01*
X48104D01*
Y81597D01*
X48337D01*
X48376Y81527D01*
D02*
G37*
G36*
X80461Y81643D02*
X80531Y81639D01*
X80663Y81612D01*
X80720Y81599D01*
X80777Y81582D01*
X80825Y81560D01*
X80869Y81542D01*
X80909Y81520D01*
X80944Y81502D01*
X80974Y81481D01*
X81001Y81467D01*
X81018Y81454D01*
X81031Y81441D01*
X81040Y81437D01*
X81045Y81432D01*
X81089Y81388D01*
X81124Y81344D01*
X81189Y81243D01*
X81238Y81143D01*
X81273Y81042D01*
X81299Y80954D01*
X81304Y80914D01*
X81312Y80879D01*
X81317Y80853D01*
X81321Y80831D01*
Y80818D01*
Y80813D01*
X80957Y80774D01*
X80948Y80870D01*
X80930Y80954D01*
X80909Y81024D01*
X80878Y81085D01*
X80851Y81134D01*
X80825Y81169D01*
X80808Y81186D01*
X80803Y81195D01*
X80742Y81248D01*
X80676Y81287D01*
X80606Y81314D01*
X80540Y81336D01*
X80483Y81344D01*
X80439Y81349D01*
X80421Y81353D01*
X80395D01*
X80307Y81349D01*
X80228Y81331D01*
X80162Y81309D01*
X80105Y81283D01*
X80061Y81252D01*
X80026Y81230D01*
X80009Y81213D01*
X80000Y81208D01*
X79947Y81151D01*
X79912Y81090D01*
X79886Y81033D01*
X79864Y80976D01*
X79855Y80927D01*
X79851Y80888D01*
X79846Y80862D01*
Y80857D01*
Y80853D01*
X79855Y80778D01*
X79872Y80699D01*
X79899Y80629D01*
X79930Y80563D01*
X79960Y80506D01*
X79987Y80462D01*
X79995Y80445D01*
X80004Y80431D01*
X80013Y80427D01*
Y80423D01*
X80048Y80379D01*
X80088Y80330D01*
X80131Y80282D01*
X80184Y80234D01*
X80290Y80133D01*
X80395Y80032D01*
X80491Y79949D01*
X80535Y79909D01*
X80575Y79878D01*
X80606Y79848D01*
X80628Y79830D01*
X80645Y79817D01*
X80650Y79812D01*
X80755Y79720D01*
X80851Y79637D01*
X80930Y79562D01*
X80996Y79501D01*
X81049Y79448D01*
X81084Y79409D01*
X81106Y79382D01*
X81115Y79378D01*
Y79373D01*
X81172Y79303D01*
X81216Y79237D01*
X81260Y79171D01*
X81290Y79114D01*
X81317Y79062D01*
X81334Y79027D01*
X81343Y79000D01*
X81348Y78996D01*
Y78991D01*
X81361Y78948D01*
X81374Y78904D01*
X81378Y78864D01*
X81383Y78829D01*
X81387Y78798D01*
Y78772D01*
Y78754D01*
Y78750D01*
X79477D01*
Y79088D01*
X80895D01*
X80847Y79158D01*
X80799Y79215D01*
X80777Y79242D01*
X80759Y79259D01*
X80750Y79272D01*
X80746Y79277D01*
X80724Y79299D01*
X80702Y79321D01*
X80645Y79373D01*
X80575Y79435D01*
X80509Y79496D01*
X80443Y79553D01*
X80390Y79597D01*
X80369Y79615D01*
X80351Y79628D01*
X80342Y79637D01*
X80338Y79641D01*
X80268Y79703D01*
X80206Y79755D01*
X80145Y79808D01*
X80092Y79856D01*
X80044Y79905D01*
X80000Y79944D01*
X79956Y79984D01*
X79921Y80019D01*
X79890Y80049D01*
X79864Y80076D01*
X79824Y80115D01*
X79802Y80142D01*
X79793Y80150D01*
X79736Y80221D01*
X79684Y80282D01*
X79644Y80344D01*
X79613Y80396D01*
X79587Y80440D01*
X79570Y80471D01*
X79561Y80493D01*
X79556Y80502D01*
X79530Y80563D01*
X79513Y80625D01*
X79499Y80682D01*
X79491Y80734D01*
X79486Y80778D01*
X79482Y80813D01*
Y80835D01*
Y80844D01*
X79486Y80905D01*
X79491Y80967D01*
X79521Y81077D01*
X79561Y81173D01*
X79605Y81257D01*
X79649Y81322D01*
X79671Y81349D01*
X79688Y81375D01*
X79706Y81393D01*
X79719Y81406D01*
X79723Y81410D01*
X79728Y81415D01*
X79776Y81454D01*
X79824Y81494D01*
X79877Y81524D01*
X79934Y81551D01*
X80044Y81590D01*
X80149Y81617D01*
X80197Y81630D01*
X80241Y81634D01*
X80281Y81639D01*
X80316Y81643D01*
X80347Y81647D01*
X80386D01*
X80461Y81643D01*
D02*
G37*
G36*
X103557Y81139D02*
X103667Y81117D01*
X103768Y81086D01*
X103851Y81051D01*
X103917Y81011D01*
X103944Y80994D01*
X103965Y80981D01*
X103988Y80967D01*
X104001Y80959D01*
X104005Y80954D01*
X104009Y80950D01*
X104088Y80871D01*
X104150Y80783D01*
X104203Y80691D01*
X104238Y80603D01*
X104269Y80524D01*
X104277Y80489D01*
X104286Y80458D01*
X104290Y80436D01*
X104295Y80419D01*
X104299Y80405D01*
Y80401D01*
X103944Y80340D01*
X103926Y80432D01*
X103900Y80511D01*
X103873Y80577D01*
X103843Y80629D01*
X103816Y80673D01*
X103794Y80704D01*
X103777Y80722D01*
X103772Y80726D01*
X103715Y80770D01*
X103658Y80801D01*
X103601Y80827D01*
X103544Y80840D01*
X103500Y80849D01*
X103461Y80858D01*
X103426D01*
X103351Y80853D01*
X103285Y80836D01*
X103228Y80818D01*
X103180Y80792D01*
X103140Y80770D01*
X103110Y80748D01*
X103092Y80730D01*
X103087Y80726D01*
X103044Y80678D01*
X103013Y80621D01*
X102987Y80568D01*
X102973Y80520D01*
X102965Y80471D01*
X102956Y80436D01*
Y80414D01*
Y80410D01*
Y80405D01*
X102965Y80318D01*
X102987Y80243D01*
X103013Y80182D01*
X103048Y80133D01*
X103083Y80094D01*
X103110Y80063D01*
X103131Y80045D01*
X103140Y80041D01*
X103210Y80002D01*
X103281Y79975D01*
X103347Y79953D01*
X103408Y79940D01*
X103465Y79931D01*
X103505Y79927D01*
X103562D01*
X103579Y79931D01*
X103601D01*
X103641Y79620D01*
X103588Y79633D01*
X103540Y79642D01*
X103496Y79646D01*
X103461Y79650D01*
X103430Y79655D01*
X103391D01*
X103303Y79646D01*
X103228Y79628D01*
X103158Y79606D01*
X103101Y79576D01*
X103052Y79545D01*
X103017Y79523D01*
X103000Y79505D01*
X102991Y79497D01*
X102938Y79435D01*
X102899Y79369D01*
X102868Y79299D01*
X102850Y79238D01*
X102837Y79181D01*
X102833Y79137D01*
X102829Y79119D01*
Y79106D01*
Y79102D01*
Y79097D01*
X102837Y79005D01*
X102855Y78922D01*
X102881Y78847D01*
X102912Y78786D01*
X102947Y78733D01*
X102973Y78698D01*
X102991Y78676D01*
X103000Y78667D01*
X103066Y78610D01*
X103136Y78566D01*
X103206Y78540D01*
X103276Y78518D01*
X103333Y78505D01*
X103377Y78500D01*
X103395Y78496D01*
X103421D01*
X103496Y78500D01*
X103566Y78518D01*
X103628Y78540D01*
X103676Y78562D01*
X103720Y78588D01*
X103750Y78606D01*
X103768Y78623D01*
X103777Y78628D01*
X103825Y78685D01*
X103869Y78750D01*
X103904Y78825D01*
X103930Y78895D01*
X103952Y78961D01*
X103965Y79014D01*
X103974Y79031D01*
Y79049D01*
X103979Y79058D01*
Y79062D01*
X104334Y79014D01*
X104325Y78948D01*
X104312Y78886D01*
X104273Y78772D01*
X104229Y78671D01*
X104176Y78584D01*
X104154Y78549D01*
X104128Y78518D01*
X104106Y78491D01*
X104088Y78465D01*
X104071Y78448D01*
X104058Y78434D01*
X104053Y78430D01*
X104049Y78426D01*
X104001Y78386D01*
X103948Y78351D01*
X103900Y78320D01*
X103847Y78298D01*
X103742Y78254D01*
X103641Y78228D01*
X103597Y78219D01*
X103553Y78215D01*
X103518Y78211D01*
X103483Y78206D01*
X103456Y78202D01*
X103421D01*
X103347Y78206D01*
X103272Y78215D01*
X103202Y78224D01*
X103136Y78241D01*
X103074Y78263D01*
X103017Y78285D01*
X102965Y78307D01*
X102916Y78333D01*
X102877Y78355D01*
X102837Y78377D01*
X102802Y78399D01*
X102776Y78421D01*
X102754Y78439D01*
X102741Y78448D01*
X102732Y78456D01*
X102728Y78461D01*
X102679Y78513D01*
X102635Y78566D01*
X102600Y78619D01*
X102569Y78671D01*
X102539Y78724D01*
X102517Y78781D01*
X102486Y78882D01*
X102473Y78926D01*
X102464Y78970D01*
X102460Y79005D01*
X102455Y79040D01*
X102451Y79066D01*
Y79084D01*
Y79097D01*
Y79102D01*
X102455Y79203D01*
X102473Y79295D01*
X102495Y79374D01*
X102521Y79440D01*
X102552Y79492D01*
X102574Y79532D01*
X102592Y79558D01*
X102596Y79567D01*
X102653Y79633D01*
X102719Y79685D01*
X102785Y79729D01*
X102846Y79760D01*
X102903Y79786D01*
X102947Y79800D01*
X102965Y79808D01*
X102978D01*
X102987Y79813D01*
X102991D01*
X102921Y79848D01*
X102859Y79892D01*
X102811Y79931D01*
X102767Y79971D01*
X102736Y80006D01*
X102710Y80032D01*
X102697Y80050D01*
X102692Y80059D01*
X102657Y80116D01*
X102635Y80177D01*
X102618Y80234D01*
X102605Y80287D01*
X102596Y80331D01*
X102592Y80366D01*
Y80388D01*
Y80397D01*
X102596Y80471D01*
X102609Y80537D01*
X102627Y80599D01*
X102644Y80656D01*
X102662Y80700D01*
X102679Y80735D01*
X102692Y80757D01*
X102697Y80765D01*
X102741Y80827D01*
X102789Y80884D01*
X102842Y80932D01*
X102890Y80972D01*
X102934Y81002D01*
X102969Y81024D01*
X102995Y81038D01*
X103000Y81042D01*
X103004D01*
X103079Y81077D01*
X103153Y81103D01*
X103228Y81121D01*
X103294Y81134D01*
X103351Y81143D01*
X103395Y81147D01*
X103496D01*
X103557Y81139D01*
D02*
G37*
G36*
X84100Y78750D02*
X83064D01*
X82967Y78754D01*
X82880Y78759D01*
X82801Y78768D01*
X82735Y78776D01*
X82678Y78785D01*
X82638Y78790D01*
X82612Y78798D01*
X82603D01*
X82528Y78820D01*
X82463Y78842D01*
X82406Y78864D01*
X82357Y78886D01*
X82318Y78908D01*
X82287Y78926D01*
X82265Y78934D01*
X82261Y78939D01*
X82208Y78978D01*
X82160Y79022D01*
X82111Y79066D01*
X82076Y79106D01*
X82041Y79145D01*
X82019Y79176D01*
X82002Y79193D01*
X81997Y79202D01*
X81953Y79268D01*
X81914Y79338D01*
X81879Y79409D01*
X81852Y79474D01*
X81830Y79536D01*
X81813Y79580D01*
X81808Y79597D01*
X81804Y79610D01*
X81800Y79619D01*
Y79624D01*
X81773Y79720D01*
X81756Y79821D01*
X81738Y79922D01*
X81729Y80010D01*
X81725Y80089D01*
Y80124D01*
X81721Y80150D01*
Y80177D01*
Y80194D01*
Y80203D01*
Y80208D01*
X81725Y80348D01*
X81738Y80475D01*
X81756Y80589D01*
X81769Y80642D01*
X81778Y80690D01*
X81787Y80734D01*
X81800Y80774D01*
X81808Y80809D01*
X81817Y80835D01*
X81826Y80857D01*
X81830Y80875D01*
X81835Y80884D01*
Y80888D01*
X81883Y80998D01*
X81936Y81094D01*
X81993Y81178D01*
X82050Y81248D01*
X82098Y81305D01*
X82138Y81349D01*
X82168Y81375D01*
X82173Y81384D01*
X82177D01*
X82247Y81437D01*
X82318Y81481D01*
X82388Y81516D01*
X82454Y81542D01*
X82511Y81564D01*
X82559Y81577D01*
X82577Y81586D01*
X82586D01*
X82594Y81590D01*
X82599D01*
X82669Y81603D01*
X82752Y81617D01*
X82840Y81625D01*
X82919Y81630D01*
X82994Y81634D01*
X84100D01*
Y78750D01*
D02*
G37*
G36*
X88562Y79714D02*
Y79389D01*
X87310D01*
Y78700D01*
X86955D01*
Y79389D01*
X86564D01*
Y79714D01*
X86955D01*
Y81580D01*
X87245D01*
X88562Y79714D01*
D02*
G37*
G36*
X56908Y81948D02*
X56987Y81939D01*
X57062Y81921D01*
X57132Y81899D01*
X57198Y81873D01*
X57255Y81847D01*
X57312Y81816D01*
X57360Y81785D01*
X57404Y81755D01*
X57444Y81724D01*
X57474Y81697D01*
X57505Y81671D01*
X57527Y81649D01*
X57540Y81632D01*
X57549Y81623D01*
X57553Y81618D01*
X57606Y81544D01*
X57654Y81456D01*
X57694Y81368D01*
X57729Y81267D01*
X57760Y81171D01*
X57786Y81070D01*
X57808Y80969D01*
X57821Y80868D01*
X57834Y80776D01*
X57843Y80688D01*
X57852Y80609D01*
X57856Y80538D01*
X57861Y80481D01*
Y80438D01*
Y80424D01*
Y80411D01*
Y80407D01*
Y80402D01*
X57856Y80266D01*
X57847Y80143D01*
X57834Y80025D01*
X57817Y79920D01*
X57795Y79823D01*
X57773Y79735D01*
X57746Y79656D01*
X57720Y79586D01*
X57698Y79524D01*
X57672Y79472D01*
X57650Y79428D01*
X57628Y79393D01*
X57610Y79366D01*
X57597Y79349D01*
X57588Y79336D01*
X57584Y79331D01*
X57531Y79274D01*
X57474Y79226D01*
X57413Y79182D01*
X57351Y79142D01*
X57290Y79112D01*
X57233Y79085D01*
X57171Y79063D01*
X57114Y79046D01*
X57062Y79033D01*
X57013Y79024D01*
X56969Y79015D01*
X56934Y79011D01*
X56904D01*
X56877Y79006D01*
X56860D01*
X56767Y79011D01*
X56680Y79024D01*
X56601Y79046D01*
X56530Y79068D01*
X56478Y79090D01*
X56434Y79112D01*
X56408Y79125D01*
X56399Y79129D01*
X56324Y79182D01*
X56263Y79239D01*
X56206Y79296D01*
X56157Y79353D01*
X56122Y79406D01*
X56096Y79445D01*
X56087Y79463D01*
X56078Y79476D01*
X56074Y79481D01*
Y79485D01*
X56034Y79573D01*
X56004Y79660D01*
X55986Y79748D01*
X55969Y79823D01*
X55960Y79893D01*
Y79920D01*
X55955Y79946D01*
Y79963D01*
Y79977D01*
Y79985D01*
Y79990D01*
X55960Y80064D01*
X55964Y80139D01*
X55977Y80205D01*
X55995Y80271D01*
X56012Y80328D01*
X56034Y80385D01*
X56056Y80433D01*
X56078Y80481D01*
X56105Y80521D01*
X56127Y80556D01*
X56148Y80587D01*
X56166Y80613D01*
X56184Y80635D01*
X56197Y80648D01*
X56201Y80657D01*
X56206Y80661D01*
X56254Y80710D01*
X56302Y80749D01*
X56355Y80784D01*
X56408Y80815D01*
X56456Y80841D01*
X56508Y80859D01*
X56601Y80894D01*
X56684Y80912D01*
X56719Y80916D01*
X56750Y80920D01*
X56776Y80925D01*
X56811D01*
X56886Y80920D01*
X56956Y80912D01*
X57022Y80894D01*
X57079Y80877D01*
X57127Y80859D01*
X57167Y80841D01*
X57189Y80833D01*
X57198Y80828D01*
X57264Y80789D01*
X57325Y80745D01*
X57378Y80697D01*
X57422Y80648D01*
X57461Y80604D01*
X57487Y80569D01*
X57505Y80547D01*
X57509Y80543D01*
Y80618D01*
X57505Y80692D01*
X57501Y80762D01*
X57496Y80828D01*
X57487Y80885D01*
X57479Y80942D01*
X57470Y80991D01*
X57461Y81035D01*
X57452Y81074D01*
X57444Y81109D01*
X57435Y81140D01*
X57426Y81162D01*
X57422Y81179D01*
X57417Y81197D01*
X57413Y81201D01*
Y81206D01*
X57373Y81289D01*
X57329Y81364D01*
X57286Y81425D01*
X57242Y81474D01*
X57206Y81513D01*
X57176Y81544D01*
X57158Y81561D01*
X57149Y81566D01*
X57097Y81596D01*
X57048Y81623D01*
X56996Y81640D01*
X56947Y81649D01*
X56908Y81658D01*
X56877Y81662D01*
X56847D01*
X56772Y81658D01*
X56702Y81640D01*
X56640Y81614D01*
X56587Y81588D01*
X56548Y81557D01*
X56517Y81535D01*
X56495Y81517D01*
X56491Y81509D01*
X56460Y81469D01*
X56434Y81425D01*
X56390Y81324D01*
X56377Y81280D01*
X56364Y81245D01*
X56355Y81219D01*
Y81215D01*
Y81210D01*
X56004Y81236D01*
X56026Y81355D01*
X56065Y81460D01*
X56105Y81548D01*
X56153Y81623D01*
X56197Y81680D01*
X56232Y81724D01*
X56258Y81750D01*
X56263Y81759D01*
X56267D01*
X56311Y81794D01*
X56355Y81825D01*
X56447Y81869D01*
X56539Y81904D01*
X56627Y81930D01*
X56706Y81943D01*
X56741Y81948D01*
X56767D01*
X56794Y81952D01*
X56825D01*
X56908Y81948D01*
D02*
G37*
G36*
X60600Y79055D02*
X60218D01*
Y80337D01*
X59726D01*
X59683Y80332D01*
X59647D01*
X59617Y80328D01*
X59595Y80323D01*
X59577D01*
X59568Y80319D01*
X59564D01*
X59498Y80297D01*
X59445Y80271D01*
X59424Y80258D01*
X59406Y80249D01*
X59397Y80244D01*
X59393Y80240D01*
X59358Y80218D01*
X59327Y80187D01*
X59261Y80126D01*
X59239Y80095D01*
X59217Y80069D01*
X59204Y80051D01*
X59200Y80047D01*
X59156Y79990D01*
X59112Y79928D01*
X59064Y79862D01*
X59020Y79797D01*
X58980Y79740D01*
X58949Y79696D01*
X58941Y79678D01*
X58932Y79665D01*
X58923Y79656D01*
Y79652D01*
X58541Y79055D01*
X58063D01*
X58563Y79836D01*
X58620Y79920D01*
X58677Y79994D01*
X58730Y80060D01*
X58778Y80117D01*
X58818Y80161D01*
X58848Y80196D01*
X58870Y80214D01*
X58879Y80222D01*
X58910Y80249D01*
X58949Y80275D01*
X59024Y80323D01*
X59055Y80341D01*
X59081Y80354D01*
X59099Y80363D01*
X59107Y80367D01*
X59033Y80380D01*
X58963Y80394D01*
X58897Y80411D01*
X58840Y80433D01*
X58783Y80455D01*
X58734Y80477D01*
X58686Y80499D01*
X58647Y80521D01*
X58611Y80543D01*
X58581Y80560D01*
X58554Y80582D01*
X58532Y80596D01*
X58519Y80613D01*
X58506Y80622D01*
X58497Y80631D01*
X58462Y80670D01*
X58431Y80714D01*
X58379Y80802D01*
X58343Y80885D01*
X58322Y80969D01*
X58304Y81039D01*
X58300Y81070D01*
Y81096D01*
X58295Y81118D01*
Y81136D01*
Y81144D01*
Y81149D01*
X58300Y81236D01*
X58313Y81316D01*
X58335Y81390D01*
X58357Y81456D01*
X58379Y81509D01*
X58401Y81548D01*
X58414Y81575D01*
X58418Y81583D01*
X58467Y81654D01*
X58519Y81711D01*
X58572Y81759D01*
X58625Y81794D01*
X58668Y81825D01*
X58704Y81847D01*
X58730Y81855D01*
X58734Y81860D01*
X58739D01*
X58778Y81873D01*
X58822Y81886D01*
X58914Y81904D01*
X59011Y81921D01*
X59103Y81930D01*
X59191Y81935D01*
X59226D01*
X59261Y81939D01*
X60600D01*
Y79055D01*
D02*
G37*
%LPC*%
G36*
X81018Y76864D02*
X80109D01*
X79995Y76859D01*
X79899Y76842D01*
X79820Y76824D01*
X79754Y76798D01*
X79706Y76776D01*
X79666Y76754D01*
X79648Y76736D01*
X79640Y76732D01*
X79591Y76679D01*
X79552Y76622D01*
X79526Y76565D01*
X79508Y76513D01*
X79499Y76464D01*
X79490Y76429D01*
Y76403D01*
Y76398D01*
Y76394D01*
X79495Y76341D01*
X79504Y76293D01*
X79517Y76249D01*
X79530Y76214D01*
X79543Y76179D01*
X79556Y76157D01*
X79565Y76139D01*
X79569Y76135D01*
X79600Y76095D01*
X79635Y76060D01*
X79675Y76030D01*
X79710Y76003D01*
X79741Y75986D01*
X79767Y75973D01*
X79785Y75968D01*
X79793Y75964D01*
X79850Y75946D01*
X79916Y75933D01*
X79986Y75924D01*
X80052Y75920D01*
X80109Y75915D01*
X80158Y75911D01*
X81018D01*
Y76864D01*
D02*
G37*
G36*
X77717Y76903D02*
X77695D01*
X77611Y76894D01*
X77537Y76877D01*
X77471Y76846D01*
X77414Y76815D01*
X77366Y76780D01*
X77335Y76750D01*
X77313Y76732D01*
X77304Y76723D01*
X77251Y76649D01*
X77212Y76570D01*
X77181Y76491D01*
X77164Y76412D01*
X77150Y76341D01*
X77146Y76315D01*
Y76289D01*
X77142Y76267D01*
Y76249D01*
Y76240D01*
Y76236D01*
X77150Y76131D01*
X77168Y76034D01*
X77194Y75955D01*
X77221Y75885D01*
X77251Y75832D01*
X77278Y75793D01*
X77295Y75771D01*
X77304Y75762D01*
X77366Y75705D01*
X77431Y75661D01*
X77502Y75635D01*
X77563Y75613D01*
X77620Y75599D01*
X77664Y75595D01*
X77682Y75591D01*
X77704D01*
X77791Y75599D01*
X77870Y75617D01*
X77941Y75643D01*
X78002Y75678D01*
X78050Y75709D01*
X78086Y75735D01*
X78108Y75753D01*
X78116Y75762D01*
X78169Y75832D01*
X78209Y75902D01*
X78239Y75977D01*
X78257Y76052D01*
X78270Y76113D01*
X78274Y76166D01*
X78279Y76183D01*
Y76196D01*
Y76205D01*
Y76210D01*
X78270Y76319D01*
X78252Y76416D01*
X78226Y76504D01*
X78191Y76574D01*
X78160Y76631D01*
X78134Y76675D01*
X78116Y76701D01*
X78108Y76710D01*
X78072Y76745D01*
X78037Y76776D01*
X77967Y76820D01*
X77901Y76855D01*
X77835Y76881D01*
X77778Y76894D01*
X77734Y76899D01*
X77717Y76903D01*
D02*
G37*
G36*
X98006Y76605D02*
Y75314D01*
X98910D01*
X98006Y76605D01*
D02*
G37*
G36*
X71518Y76864D02*
X70609D01*
X70495Y76859D01*
X70399Y76842D01*
X70320Y76824D01*
X70254Y76798D01*
X70205Y76776D01*
X70166Y76754D01*
X70148Y76736D01*
X70140Y76732D01*
X70091Y76679D01*
X70052Y76622D01*
X70025Y76565D01*
X70008Y76513D01*
X69999Y76464D01*
X69990Y76429D01*
Y76403D01*
Y76398D01*
Y76394D01*
X69995Y76341D01*
X70003Y76293D01*
X70017Y76249D01*
X70030Y76214D01*
X70043Y76179D01*
X70056Y76157D01*
X70065Y76139D01*
X70069Y76135D01*
X70100Y76095D01*
X70135Y76060D01*
X70175Y76030D01*
X70210Y76003D01*
X70241Y75986D01*
X70267Y75973D01*
X70284Y75968D01*
X70293Y75964D01*
X70350Y75946D01*
X70416Y75933D01*
X70486Y75924D01*
X70552Y75920D01*
X70609Y75915D01*
X70658Y75911D01*
X71518D01*
Y76864D01*
D02*
G37*
G36*
X106718Y80796D02*
X106117D01*
X105998Y80792D01*
X105897Y80787D01*
X105814Y80779D01*
X105744Y80765D01*
X105691Y80752D01*
X105656Y80743D01*
X105634Y80739D01*
X105625Y80735D01*
X105550Y80695D01*
X105480Y80647D01*
X105419Y80594D01*
X105366Y80537D01*
X105322Y80489D01*
X105291Y80445D01*
X105278Y80427D01*
X105274Y80414D01*
X105265Y80410D01*
Y80405D01*
X105239Y80357D01*
X105217Y80304D01*
X105177Y80195D01*
X105151Y80081D01*
X105133Y79966D01*
X105129Y79918D01*
X105124Y79870D01*
X105120Y79826D01*
X105116Y79786D01*
Y79756D01*
Y79734D01*
Y79716D01*
Y79712D01*
X105120Y79593D01*
X105129Y79488D01*
X105142Y79391D01*
X105155Y79308D01*
X105168Y79242D01*
X105177Y79216D01*
X105182Y79194D01*
X105186Y79176D01*
X105190Y79163D01*
X105195Y79159D01*
Y79154D01*
X105226Y79075D01*
X105261Y79001D01*
X105296Y78939D01*
X105326Y78886D01*
X105357Y78847D01*
X105384Y78816D01*
X105401Y78794D01*
X105405Y78790D01*
X105445Y78755D01*
X105484Y78724D01*
X105528Y78702D01*
X105572Y78680D01*
X105607Y78663D01*
X105638Y78649D01*
X105656Y78645D01*
X105665Y78641D01*
X105730Y78623D01*
X105801Y78610D01*
X105875Y78601D01*
X105945Y78597D01*
X106011Y78592D01*
X106060Y78588D01*
X106718D01*
Y80796D01*
D02*
G37*
G36*
X51818Y81246D02*
X51217D01*
X51098Y81242D01*
X50997Y81237D01*
X50914Y81229D01*
X50844Y81216D01*
X50791Y81202D01*
X50756Y81194D01*
X50734Y81189D01*
X50725Y81185D01*
X50650Y81145D01*
X50580Y81097D01*
X50519Y81044D01*
X50466Y80987D01*
X50422Y80939D01*
X50391Y80895D01*
X50378Y80877D01*
X50374Y80864D01*
X50365Y80860D01*
Y80856D01*
X50339Y80807D01*
X50317Y80755D01*
X50277Y80645D01*
X50251Y80531D01*
X50233Y80417D01*
X50229Y80368D01*
X50225Y80320D01*
X50220Y80276D01*
X50216Y80237D01*
Y80206D01*
Y80184D01*
Y80166D01*
Y80162D01*
X50220Y80043D01*
X50229Y79938D01*
X50242Y79841D01*
X50255Y79758D01*
X50268Y79692D01*
X50277Y79666D01*
X50282Y79644D01*
X50286Y79626D01*
X50290Y79613D01*
X50295Y79609D01*
Y79604D01*
X50326Y79525D01*
X50361Y79451D01*
X50396Y79389D01*
X50426Y79337D01*
X50457Y79297D01*
X50484Y79266D01*
X50501Y79244D01*
X50506Y79240D01*
X50545Y79205D01*
X50585Y79174D01*
X50628Y79152D01*
X50672Y79130D01*
X50707Y79113D01*
X50738Y79100D01*
X50756Y79095D01*
X50765Y79091D01*
X50830Y79073D01*
X50901Y79060D01*
X50975Y79051D01*
X51045Y79047D01*
X51111Y79042D01*
X51160Y79038D01*
X51818D01*
Y81246D01*
D02*
G37*
G36*
X117018Y76714D02*
X116109D01*
X115995Y76709D01*
X115899Y76692D01*
X115820Y76674D01*
X115754Y76648D01*
X115706Y76626D01*
X115666Y76604D01*
X115648Y76587D01*
X115640Y76582D01*
X115591Y76529D01*
X115552Y76472D01*
X115525Y76415D01*
X115508Y76363D01*
X115499Y76314D01*
X115490Y76279D01*
Y76253D01*
Y76248D01*
Y76244D01*
X115495Y76191D01*
X115504Y76143D01*
X115517Y76099D01*
X115530Y76064D01*
X115543Y76029D01*
X115556Y76007D01*
X115565Y75989D01*
X115569Y75985D01*
X115600Y75946D01*
X115635Y75910D01*
X115675Y75880D01*
X115710Y75853D01*
X115741Y75836D01*
X115767Y75823D01*
X115785Y75818D01*
X115793Y75814D01*
X115850Y75796D01*
X115916Y75783D01*
X115986Y75774D01*
X116052Y75770D01*
X116109Y75766D01*
X116158Y75761D01*
X117018D01*
Y76714D01*
D02*
G37*
G36*
X119818Y81264D02*
X118909D01*
X118795Y81259D01*
X118699Y81242D01*
X118620Y81224D01*
X118554Y81198D01*
X118506Y81176D01*
X118466Y81154D01*
X118448Y81137D01*
X118440Y81132D01*
X118391Y81079D01*
X118352Y81022D01*
X118325Y80965D01*
X118308Y80913D01*
X118299Y80864D01*
X118290Y80829D01*
Y80803D01*
Y80798D01*
Y80794D01*
X118295Y80741D01*
X118304Y80693D01*
X118317Y80649D01*
X118330Y80614D01*
X118343Y80579D01*
X118356Y80557D01*
X118365Y80539D01*
X118369Y80535D01*
X118400Y80496D01*
X118435Y80460D01*
X118475Y80430D01*
X118510Y80403D01*
X118541Y80386D01*
X118567Y80373D01*
X118585Y80368D01*
X118593Y80364D01*
X118650Y80346D01*
X118716Y80333D01*
X118786Y80324D01*
X118852Y80320D01*
X118909Y80316D01*
X118958Y80311D01*
X119818D01*
Y81264D01*
D02*
G37*
G36*
X116530Y80114D02*
X116508D01*
X116416Y80105D01*
X116332Y80087D01*
X116258Y80061D01*
X116196Y80030D01*
X116148Y79995D01*
X116113Y79969D01*
X116091Y79951D01*
X116082Y79942D01*
X116025Y79877D01*
X115981Y79806D01*
X115951Y79736D01*
X115933Y79670D01*
X115920Y79609D01*
X115915Y79565D01*
X115911Y79547D01*
Y79534D01*
Y79525D01*
Y79521D01*
X115920Y79429D01*
X115937Y79350D01*
X115964Y79275D01*
X115994Y79218D01*
X116025Y79170D01*
X116051Y79135D01*
X116069Y79113D01*
X116078Y79104D01*
X116144Y79051D01*
X116209Y79012D01*
X116280Y78981D01*
X116346Y78963D01*
X116407Y78950D01*
X116451Y78946D01*
X116469Y78941D01*
X116495D01*
X116556Y78946D01*
X116613Y78955D01*
X116662Y78963D01*
X116710Y78981D01*
X116750Y78994D01*
X116776Y79003D01*
X116793Y79012D01*
X116802Y79016D01*
X116850Y79047D01*
X116894Y79082D01*
X116929Y79121D01*
X116960Y79157D01*
X116982Y79187D01*
X117000Y79214D01*
X117008Y79231D01*
X117013Y79236D01*
X117035Y79288D01*
X117052Y79341D01*
X117066Y79394D01*
X117074Y79438D01*
X117079Y79477D01*
X117083Y79503D01*
Y79525D01*
Y79530D01*
X117074Y79618D01*
X117057Y79701D01*
X117030Y79771D01*
X117000Y79833D01*
X116973Y79881D01*
X116947Y79916D01*
X116929Y79938D01*
X116921Y79947D01*
X116855Y80004D01*
X116789Y80043D01*
X116719Y80074D01*
X116653Y80092D01*
X116596Y80105D01*
X116548Y80109D01*
X116530Y80114D01*
D02*
G37*
G36*
X83718Y81296D02*
X83117D01*
X82998Y81292D01*
X82897Y81287D01*
X82814Y81279D01*
X82744Y81265D01*
X82691Y81252D01*
X82656Y81243D01*
X82634Y81239D01*
X82625Y81235D01*
X82550Y81195D01*
X82480Y81147D01*
X82419Y81094D01*
X82366Y81037D01*
X82322Y80989D01*
X82291Y80945D01*
X82278Y80927D01*
X82274Y80914D01*
X82265Y80910D01*
Y80905D01*
X82239Y80857D01*
X82217Y80805D01*
X82177Y80695D01*
X82151Y80581D01*
X82133Y80467D01*
X82129Y80418D01*
X82125Y80370D01*
X82120Y80326D01*
X82116Y80287D01*
Y80256D01*
Y80234D01*
Y80216D01*
Y80212D01*
X82120Y80093D01*
X82129Y79988D01*
X82142Y79891D01*
X82155Y79808D01*
X82168Y79742D01*
X82177Y79716D01*
X82182Y79694D01*
X82186Y79676D01*
X82190Y79663D01*
X82195Y79659D01*
Y79654D01*
X82226Y79575D01*
X82261Y79501D01*
X82296Y79439D01*
X82326Y79387D01*
X82357Y79347D01*
X82384Y79316D01*
X82401Y79294D01*
X82406Y79290D01*
X82445Y79255D01*
X82485Y79224D01*
X82528Y79202D01*
X82572Y79180D01*
X82607Y79163D01*
X82638Y79150D01*
X82656Y79145D01*
X82665Y79141D01*
X82730Y79123D01*
X82801Y79110D01*
X82875Y79101D01*
X82945Y79097D01*
X83011Y79092D01*
X83060Y79088D01*
X83718D01*
Y81296D01*
D02*
G37*
G36*
X113818Y81264D02*
X112909D01*
X112795Y81259D01*
X112699Y81242D01*
X112620Y81224D01*
X112554Y81198D01*
X112505Y81176D01*
X112466Y81154D01*
X112448Y81137D01*
X112440Y81132D01*
X112391Y81079D01*
X112352Y81022D01*
X112326Y80965D01*
X112308Y80913D01*
X112299Y80864D01*
X112290Y80829D01*
Y80803D01*
Y80798D01*
Y80794D01*
X112295Y80741D01*
X112303Y80693D01*
X112317Y80649D01*
X112330Y80614D01*
X112343Y80579D01*
X112356Y80557D01*
X112365Y80539D01*
X112369Y80535D01*
X112400Y80496D01*
X112435Y80460D01*
X112475Y80430D01*
X112510Y80403D01*
X112541Y80386D01*
X112567Y80373D01*
X112584Y80368D01*
X112593Y80364D01*
X112650Y80346D01*
X112716Y80333D01*
X112786Y80324D01*
X112852Y80320D01*
X112909Y80316D01*
X112958Y80311D01*
X113818D01*
Y81264D01*
D02*
G37*
G36*
X116534Y81308D02*
X116499D01*
X116425Y81303D01*
X116363Y81286D01*
X116306Y81264D01*
X116258Y81242D01*
X116218Y81216D01*
X116188Y81194D01*
X116170Y81176D01*
X116166Y81172D01*
X116122Y81119D01*
X116087Y81066D01*
X116065Y81009D01*
X116047Y80961D01*
X116038Y80917D01*
X116030Y80877D01*
Y80856D01*
Y80851D01*
Y80847D01*
X116034Y80781D01*
X116051Y80719D01*
X116069Y80662D01*
X116095Y80618D01*
X116117Y80579D01*
X116139Y80553D01*
X116157Y80535D01*
X116161Y80531D01*
X116214Y80487D01*
X116271Y80456D01*
X116328Y80434D01*
X116381Y80421D01*
X116429Y80412D01*
X116464Y80403D01*
X116499D01*
X116574Y80408D01*
X116640Y80425D01*
X116701Y80443D01*
X116750Y80469D01*
X116789Y80491D01*
X116820Y80513D01*
X116837Y80526D01*
X116842Y80531D01*
X116885Y80583D01*
X116916Y80640D01*
X116938Y80693D01*
X116951Y80746D01*
X116960Y80794D01*
X116969Y80829D01*
Y80856D01*
Y80864D01*
X116965Y80930D01*
X116947Y80987D01*
X116925Y81044D01*
X116903Y81088D01*
X116877Y81123D01*
X116859Y81154D01*
X116842Y81172D01*
X116837Y81176D01*
X116785Y81220D01*
X116727Y81251D01*
X116670Y81277D01*
X116618Y81290D01*
X116569Y81299D01*
X116534Y81308D01*
D02*
G37*
G36*
X101518Y76846D02*
X100917D01*
X100798Y76842D01*
X100697Y76837D01*
X100614Y76829D01*
X100543Y76815D01*
X100491Y76802D01*
X100456Y76793D01*
X100434Y76789D01*
X100425Y76785D01*
X100350Y76745D01*
X100280Y76697D01*
X100219Y76644D01*
X100166Y76587D01*
X100122Y76539D01*
X100091Y76495D01*
X100078Y76477D01*
X100074Y76464D01*
X100065Y76460D01*
Y76455D01*
X100039Y76407D01*
X100017Y76354D01*
X99977Y76245D01*
X99951Y76131D01*
X99933Y76016D01*
X99929Y75968D01*
X99924Y75920D01*
X99920Y75876D01*
X99916Y75836D01*
Y75806D01*
Y75784D01*
Y75766D01*
Y75762D01*
X99920Y75643D01*
X99929Y75538D01*
X99942Y75441D01*
X99955Y75358D01*
X99968Y75292D01*
X99977Y75266D01*
X99982Y75244D01*
X99986Y75226D01*
X99990Y75213D01*
X99995Y75209D01*
Y75204D01*
X100025Y75125D01*
X100061Y75051D01*
X100096Y74989D01*
X100126Y74936D01*
X100157Y74897D01*
X100183Y74866D01*
X100201Y74844D01*
X100206Y74840D01*
X100245Y74805D01*
X100285Y74774D01*
X100328Y74752D01*
X100372Y74730D01*
X100407Y74713D01*
X100438Y74699D01*
X100456Y74695D01*
X100464Y74691D01*
X100530Y74673D01*
X100601Y74660D01*
X100675Y74651D01*
X100745Y74647D01*
X100811Y74642D01*
X100860Y74638D01*
X101518D01*
Y76846D01*
D02*
G37*
G36*
X46272Y76605D02*
Y75314D01*
X47176D01*
X46272Y76605D01*
D02*
G37*
G36*
X90818Y81264D02*
X89909D01*
X89795Y81259D01*
X89699Y81242D01*
X89620Y81224D01*
X89554Y81198D01*
X89505Y81176D01*
X89466Y81154D01*
X89448Y81137D01*
X89440Y81132D01*
X89391Y81079D01*
X89352Y81022D01*
X89325Y80965D01*
X89308Y80913D01*
X89299Y80864D01*
X89290Y80829D01*
Y80803D01*
Y80798D01*
Y80794D01*
X89295Y80741D01*
X89303Y80693D01*
X89317Y80649D01*
X89330Y80614D01*
X89343Y80579D01*
X89356Y80557D01*
X89365Y80539D01*
X89369Y80535D01*
X89400Y80496D01*
X89435Y80460D01*
X89475Y80430D01*
X89510Y80403D01*
X89541Y80386D01*
X89567Y80373D01*
X89584Y80368D01*
X89593Y80364D01*
X89650Y80346D01*
X89716Y80333D01*
X89786Y80324D01*
X89852Y80320D01*
X89909Y80316D01*
X89958Y80311D01*
X90818D01*
Y81264D01*
D02*
G37*
G36*
X38818D02*
X37909D01*
X37795Y81259D01*
X37699Y81242D01*
X37620Y81224D01*
X37554Y81198D01*
X37505Y81176D01*
X37466Y81154D01*
X37448Y81137D01*
X37440Y81132D01*
X37391Y81079D01*
X37352Y81022D01*
X37326Y80965D01*
X37308Y80913D01*
X37299Y80864D01*
X37290Y80829D01*
Y80803D01*
Y80798D01*
Y80794D01*
X37295Y80741D01*
X37304Y80693D01*
X37317Y80649D01*
X37330Y80614D01*
X37343Y80579D01*
X37356Y80557D01*
X37365Y80539D01*
X37369Y80535D01*
X37400Y80496D01*
X37435Y80460D01*
X37475Y80430D01*
X37510Y80403D01*
X37541Y80386D01*
X37567Y80373D01*
X37584Y80368D01*
X37593Y80364D01*
X37650Y80346D01*
X37716Y80333D01*
X37786Y80324D01*
X37852Y80320D01*
X37909Y80316D01*
X37958Y80311D01*
X38818D01*
Y81264D01*
D02*
G37*
G36*
X62018Y76864D02*
X61109D01*
X60995Y76859D01*
X60899Y76842D01*
X60820Y76824D01*
X60754Y76798D01*
X60706Y76776D01*
X60666Y76754D01*
X60648Y76736D01*
X60640Y76732D01*
X60591Y76679D01*
X60552Y76622D01*
X60526Y76565D01*
X60508Y76513D01*
X60499Y76464D01*
X60490Y76429D01*
Y76403D01*
Y76398D01*
Y76394D01*
X60495Y76341D01*
X60504Y76293D01*
X60517Y76249D01*
X60530Y76214D01*
X60543Y76179D01*
X60556Y76157D01*
X60565Y76139D01*
X60569Y76135D01*
X60600Y76095D01*
X60635Y76060D01*
X60675Y76030D01*
X60710Y76003D01*
X60741Y75986D01*
X60767Y75973D01*
X60785Y75968D01*
X60793Y75964D01*
X60850Y75946D01*
X60916Y75933D01*
X60986Y75924D01*
X61052Y75920D01*
X61109Y75915D01*
X61158Y75911D01*
X62018D01*
Y76864D01*
D02*
G37*
G36*
X87310Y81005D02*
Y79714D01*
X88215D01*
X87310Y81005D01*
D02*
G37*
G36*
X52018Y76864D02*
X51109D01*
X50995Y76859D01*
X50899Y76842D01*
X50820Y76824D01*
X50754Y76798D01*
X50705Y76776D01*
X50666Y76754D01*
X50648Y76736D01*
X50640Y76732D01*
X50591Y76679D01*
X50552Y76622D01*
X50525Y76565D01*
X50508Y76513D01*
X50499Y76464D01*
X50490Y76429D01*
Y76403D01*
Y76398D01*
Y76394D01*
X50495Y76341D01*
X50503Y76293D01*
X50517Y76249D01*
X50530Y76214D01*
X50543Y76179D01*
X50556Y76157D01*
X50565Y76139D01*
X50569Y76135D01*
X50600Y76095D01*
X50635Y76060D01*
X50675Y76030D01*
X50710Y76003D01*
X50741Y75986D01*
X50767Y75973D01*
X50784Y75968D01*
X50793Y75964D01*
X50850Y75946D01*
X50916Y75933D01*
X50986Y75924D01*
X51052Y75920D01*
X51109Y75915D01*
X51158Y75911D01*
X52018D01*
Y76864D01*
D02*
G37*
G36*
X68318Y81564D02*
X67409D01*
X67295Y81559D01*
X67199Y81542D01*
X67120Y81524D01*
X67054Y81498D01*
X67005Y81476D01*
X66966Y81454D01*
X66948Y81436D01*
X66940Y81432D01*
X66891Y81379D01*
X66852Y81322D01*
X66825Y81265D01*
X66808Y81213D01*
X66799Y81164D01*
X66790Y81129D01*
Y81103D01*
Y81098D01*
Y81094D01*
X66795Y81041D01*
X66803Y80993D01*
X66817Y80949D01*
X66830Y80914D01*
X66843Y80879D01*
X66856Y80857D01*
X66865Y80839D01*
X66869Y80835D01*
X66900Y80796D01*
X66935Y80760D01*
X66975Y80730D01*
X67010Y80703D01*
X67041Y80686D01*
X67067Y80673D01*
X67084Y80668D01*
X67093Y80664D01*
X67150Y80646D01*
X67216Y80633D01*
X67286Y80624D01*
X67352Y80620D01*
X67409Y80616D01*
X67458Y80611D01*
X68318D01*
Y81564D01*
D02*
G37*
G36*
X86496Y76958D02*
X86460D01*
X86386Y76953D01*
X86324Y76936D01*
X86267Y76914D01*
X86219Y76892D01*
X86179Y76866D01*
X86149Y76844D01*
X86131Y76826D01*
X86127Y76822D01*
X86083Y76769D01*
X86048Y76716D01*
X86026Y76659D01*
X86008Y76611D01*
X85999Y76567D01*
X85991Y76527D01*
Y76506D01*
Y76501D01*
Y76497D01*
X85995Y76431D01*
X86013Y76369D01*
X86030Y76312D01*
X86056Y76268D01*
X86078Y76229D01*
X86100Y76203D01*
X86118Y76185D01*
X86122Y76181D01*
X86175Y76137D01*
X86232Y76106D01*
X86289Y76084D01*
X86342Y76071D01*
X86390Y76062D01*
X86425Y76053D01*
X86460D01*
X86535Y76058D01*
X86601Y76075D01*
X86662Y76093D01*
X86711Y76119D01*
X86750Y76141D01*
X86781Y76163D01*
X86798Y76176D01*
X86803Y76181D01*
X86847Y76233D01*
X86877Y76290D01*
X86899Y76343D01*
X86913Y76396D01*
X86921Y76444D01*
X86930Y76479D01*
Y76506D01*
Y76514D01*
X86926Y76580D01*
X86908Y76637D01*
X86886Y76694D01*
X86864Y76738D01*
X86838Y76773D01*
X86820Y76804D01*
X86803Y76822D01*
X86798Y76826D01*
X86746Y76870D01*
X86689Y76901D01*
X86632Y76927D01*
X86579Y76940D01*
X86531Y76949D01*
X86496Y76958D01*
D02*
G37*
G36*
X92018Y76914D02*
X91109D01*
X90995Y76909D01*
X90899Y76892D01*
X90820Y76874D01*
X90754Y76848D01*
X90706Y76826D01*
X90666Y76804D01*
X90648Y76787D01*
X90640Y76782D01*
X90591Y76729D01*
X90552Y76672D01*
X90526Y76615D01*
X90508Y76563D01*
X90499Y76514D01*
X90490Y76479D01*
Y76453D01*
Y76448D01*
Y76444D01*
X90495Y76391D01*
X90504Y76343D01*
X90517Y76299D01*
X90530Y76264D01*
X90543Y76229D01*
X90556Y76207D01*
X90565Y76189D01*
X90569Y76185D01*
X90600Y76145D01*
X90635Y76110D01*
X90675Y76080D01*
X90710Y76053D01*
X90741Y76036D01*
X90767Y76023D01*
X90785Y76018D01*
X90793Y76014D01*
X90850Y75996D01*
X90916Y75983D01*
X90986Y75974D01*
X91052Y75970D01*
X91109Y75965D01*
X91158Y75961D01*
X92018D01*
Y76914D01*
D02*
G37*
G36*
X86491Y75764D02*
X86469D01*
X86377Y75755D01*
X86294Y75737D01*
X86219Y75711D01*
X86157Y75680D01*
X86109Y75645D01*
X86074Y75619D01*
X86052Y75601D01*
X86043Y75592D01*
X85986Y75526D01*
X85942Y75456D01*
X85912Y75386D01*
X85894Y75320D01*
X85881Y75259D01*
X85877Y75215D01*
X85872Y75197D01*
Y75184D01*
Y75175D01*
Y75171D01*
X85881Y75079D01*
X85898Y75000D01*
X85925Y74925D01*
X85956Y74868D01*
X85986Y74820D01*
X86013Y74785D01*
X86030Y74763D01*
X86039Y74754D01*
X86105Y74701D01*
X86171Y74662D01*
X86241Y74631D01*
X86307Y74613D01*
X86368Y74600D01*
X86412Y74596D01*
X86430Y74591D01*
X86456D01*
X86517Y74596D01*
X86575Y74605D01*
X86623Y74613D01*
X86671Y74631D01*
X86711Y74644D01*
X86737Y74653D01*
X86755Y74662D01*
X86763Y74666D01*
X86812Y74697D01*
X86855Y74732D01*
X86891Y74771D01*
X86921Y74807D01*
X86943Y74837D01*
X86961Y74864D01*
X86970Y74881D01*
X86974Y74886D01*
X86996Y74938D01*
X87014Y74991D01*
X87027Y75044D01*
X87035Y75087D01*
X87040Y75127D01*
X87044Y75153D01*
Y75175D01*
Y75180D01*
X87035Y75267D01*
X87018Y75351D01*
X86992Y75421D01*
X86961Y75483D01*
X86935Y75531D01*
X86908Y75566D01*
X86891Y75588D01*
X86882Y75597D01*
X86816Y75654D01*
X86750Y75693D01*
X86680Y75724D01*
X86614Y75742D01*
X86557Y75755D01*
X86509Y75759D01*
X86491Y75764D01*
D02*
G37*
G36*
X60218Y81618D02*
X59309D01*
X59195Y81614D01*
X59099Y81596D01*
X59020Y81579D01*
X58954Y81553D01*
X58906Y81531D01*
X58866Y81509D01*
X58848Y81491D01*
X58840Y81487D01*
X58791Y81434D01*
X58752Y81377D01*
X58726Y81320D01*
X58708Y81267D01*
X58699Y81219D01*
X58690Y81184D01*
Y81157D01*
Y81153D01*
Y81149D01*
X58695Y81096D01*
X58704Y81048D01*
X58717Y81004D01*
X58730Y80969D01*
X58743Y80934D01*
X58756Y80912D01*
X58765Y80894D01*
X58769Y80890D01*
X58800Y80850D01*
X58835Y80815D01*
X58875Y80784D01*
X58910Y80758D01*
X58941Y80740D01*
X58967Y80727D01*
X58985Y80723D01*
X58993Y80718D01*
X59050Y80701D01*
X59116Y80688D01*
X59186Y80679D01*
X59252Y80675D01*
X59309Y80670D01*
X59358Y80666D01*
X60218D01*
Y81618D01*
D02*
G37*
G36*
X62765Y80558D02*
X62743D01*
X62655Y80550D01*
X62576Y80532D01*
X62506Y80501D01*
X62449Y80471D01*
X62400Y80440D01*
X62365Y80409D01*
X62348Y80392D01*
X62339Y80383D01*
X62286Y80313D01*
X62247Y80238D01*
X62220Y80159D01*
X62198Y80084D01*
X62190Y80019D01*
X62185Y79988D01*
Y79961D01*
X62181Y79944D01*
Y79926D01*
Y79918D01*
Y79913D01*
X62190Y79803D01*
X62207Y79707D01*
X62234Y79619D01*
X62260Y79549D01*
X62291Y79496D01*
X62317Y79457D01*
X62335Y79430D01*
X62343Y79421D01*
X62405Y79360D01*
X62471Y79316D01*
X62536Y79285D01*
X62594Y79263D01*
X62651Y79250D01*
X62690Y79246D01*
X62708Y79241D01*
X62730D01*
X62787Y79246D01*
X62839Y79255D01*
X62892Y79268D01*
X62936Y79285D01*
X62971Y79299D01*
X62997Y79312D01*
X63019Y79321D01*
X63024Y79325D01*
X63072Y79360D01*
X63116Y79404D01*
X63151Y79443D01*
X63182Y79487D01*
X63208Y79522D01*
X63226Y79553D01*
X63234Y79571D01*
X63239Y79580D01*
X63265Y79645D01*
X63283Y79707D01*
X63296Y79764D01*
X63305Y79821D01*
X63309Y79865D01*
X63314Y79900D01*
Y79922D01*
Y79931D01*
X63305Y80032D01*
X63287Y80119D01*
X63261Y80199D01*
X63230Y80264D01*
X63199Y80313D01*
X63173Y80352D01*
X63155Y80374D01*
X63147Y80383D01*
X63081Y80440D01*
X63015Y80484D01*
X62945Y80515D01*
X62883Y80537D01*
X62826Y80550D01*
X62782Y80554D01*
X62765Y80558D01*
D02*
G37*
G36*
X56904Y80613D02*
X56882D01*
X56794Y80604D01*
X56715Y80587D01*
X56645Y80556D01*
X56587Y80525D01*
X56539Y80495D01*
X56504Y80464D01*
X56487Y80446D01*
X56478Y80438D01*
X56425Y80367D01*
X56386Y80293D01*
X56359Y80214D01*
X56337Y80139D01*
X56328Y80073D01*
X56324Y80042D01*
Y80016D01*
X56320Y79999D01*
Y79981D01*
Y79972D01*
Y79968D01*
X56328Y79858D01*
X56346Y79761D01*
X56372Y79674D01*
X56399Y79603D01*
X56429Y79551D01*
X56456Y79511D01*
X56473Y79485D01*
X56482Y79476D01*
X56544Y79415D01*
X56609Y79371D01*
X56675Y79340D01*
X56732Y79318D01*
X56789Y79305D01*
X56829Y79301D01*
X56847Y79296D01*
X56868D01*
X56926Y79301D01*
X56978Y79309D01*
X57031Y79322D01*
X57075Y79340D01*
X57110Y79353D01*
X57136Y79366D01*
X57158Y79375D01*
X57163Y79380D01*
X57211Y79415D01*
X57255Y79459D01*
X57290Y79498D01*
X57321Y79542D01*
X57347Y79577D01*
X57365Y79608D01*
X57373Y79625D01*
X57378Y79634D01*
X57404Y79700D01*
X57422Y79761D01*
X57435Y79819D01*
X57444Y79876D01*
X57448Y79920D01*
X57452Y79955D01*
Y79977D01*
Y79985D01*
X57444Y80086D01*
X57426Y80174D01*
X57400Y80253D01*
X57369Y80319D01*
X57338Y80367D01*
X57312Y80407D01*
X57294Y80429D01*
X57286Y80438D01*
X57220Y80495D01*
X57154Y80538D01*
X57084Y80569D01*
X57022Y80591D01*
X56965Y80604D01*
X56921Y80609D01*
X56904Y80613D01*
D02*
G37*
%LPD*%
D38*
X98300Y62300D02*
X103963D01*
X98300Y70888D02*
Y73800D01*
X108263Y67088D02*
Y68988D01*
X98300Y62300D02*
Y65288D01*
Y73800D02*
X103863D01*
X96400Y81700D02*
X102063D01*
X96400Y90288D02*
Y93200D01*
X106363Y86488D02*
Y88388D01*
X96400Y81700D02*
Y84688D01*
Y93200D02*
X101963D01*
X73500Y82200D02*
X79163D01*
X73500Y90788D02*
Y93700D01*
X83463Y86988D02*
Y88888D01*
X73500Y82200D02*
Y85188D01*
Y93700D02*
X79063D01*
X45237Y93650D02*
X50900D01*
Y82150D02*
Y85062D01*
X40937Y86962D02*
Y88862D01*
X50900Y90662D02*
Y93650D01*
X45337Y82150D02*
X50900D01*
D39*
X111300Y70550D02*
Y73550D01*
X116300Y70550D02*
Y73550D01*
Y62550D02*
Y65550D01*
X111300Y62550D02*
Y65550D01*
Y73550D02*
X116300D01*
X111300Y62550D02*
X116300D01*
X113200Y82400D02*
Y85400D01*
X108200Y82400D02*
Y85400D01*
Y90400D02*
Y93400D01*
X113200Y90400D02*
Y93400D01*
X108200Y82400D02*
X113200D01*
X108200Y93400D02*
X113200D01*
X66400Y70550D02*
Y73550D01*
X71400Y70550D02*
Y73550D01*
Y62550D02*
Y65550D01*
X66400Y62550D02*
Y65550D01*
Y73550D02*
X71400D01*
X66400Y62550D02*
X71400D01*
X86400Y70550D02*
Y73550D01*
X91400Y70550D02*
Y73550D01*
Y62550D02*
Y65550D01*
X86400Y62550D02*
Y65550D01*
Y73550D02*
X91400D01*
X86400Y62550D02*
X91400D01*
X67900Y82700D02*
Y85700D01*
X62900Y82700D02*
Y85700D01*
Y90700D02*
Y93700D01*
X67900Y90700D02*
Y93700D01*
X62900Y82700D02*
X67900D01*
X62900Y93700D02*
X67900D01*
X46400Y70550D02*
Y73550D01*
X51400Y70550D02*
Y73550D01*
Y62550D02*
Y65550D01*
X46400Y62550D02*
Y65550D01*
Y73550D02*
X51400D01*
X46400Y62550D02*
X51400D01*
X56400Y70550D02*
Y73550D01*
X61400Y70550D02*
Y73550D01*
Y62550D02*
Y65550D01*
X56400Y62550D02*
Y65550D01*
Y73550D02*
X61400D01*
X56400Y62550D02*
X61400D01*
X76400Y70550D02*
Y73550D01*
X81400Y70550D02*
Y73550D01*
Y62550D02*
Y65550D01*
X76400Y62550D02*
Y65550D01*
Y73550D02*
X81400D01*
X76400Y62550D02*
X81400D01*
X120200Y82400D02*
Y85400D01*
X115200Y82400D02*
Y85400D01*
Y90400D02*
Y93400D01*
X120200Y90400D02*
Y93400D01*
X115200Y82400D02*
X120200D01*
X115200Y93400D02*
X120200D01*
X60800Y82755D02*
Y85755D01*
X55800Y82755D02*
Y85755D01*
Y90755D02*
Y93755D01*
X60800Y90755D02*
Y93755D01*
X55800Y82755D02*
X60800D01*
X55800Y93755D02*
X60800D01*
X91700Y82400D02*
Y85400D01*
X86700Y82400D02*
Y85400D01*
Y90400D02*
Y93400D01*
X91700Y90400D02*
Y93400D01*
X86700Y82400D02*
X91700D01*
X86700Y93400D02*
X91700D01*
X34300Y90400D02*
Y93400D01*
X39300Y90400D02*
Y93400D01*
Y82400D02*
Y85400D01*
X34300Y82400D02*
Y85400D01*
Y93400D02*
X39300D01*
X34300Y82400D02*
X39300D01*
M02*
