G04 Layer_Color=16711935*
%FSLAX25Y25*%
%MOIN*%
G70*
G01*
G75*
%ADD49R,0.04300X0.04300*%
%ADD54R,0.10839X0.03162*%
%ADD57C,0.13398*%
G04:AMPARAMS|DCode=58|XSize=67.06mil|YSize=47.37mil|CornerRadius=13.84mil|HoleSize=0mil|Usage=FLASHONLY|Rotation=0.000|XOffset=0mil|YOffset=0mil|HoleType=Round|Shape=RoundedRectangle|*
%AMROUNDEDRECTD58*
21,1,0.06706,0.01969,0,0,0.0*
21,1,0.03937,0.04737,0,0,0.0*
1,1,0.02769,0.01969,-0.00984*
1,1,0.02769,-0.01969,-0.00984*
1,1,0.02769,-0.01969,0.00984*
1,1,0.02769,0.01969,0.00984*
%
%ADD58ROUNDEDRECTD58*%
%ADD59R,0.05524X0.05524*%
%ADD60C,0.05524*%
%ADD61C,0.05131*%
%ADD62C,0.03950*%
%ADD63C,0.06706*%
%ADD64R,0.06706X0.06706*%
%ADD65O,0.17335X0.08674*%
%ADD66C,0.05918*%
%ADD67R,0.12402X1.02700*%
%ADD68R,0.04800X0.04800*%
%ADD69R,0.05800X0.04800*%
D49*
X113800Y71050D02*
D03*
Y65050D02*
D03*
X110700Y84900D02*
D03*
Y90900D02*
D03*
X68900Y71050D02*
D03*
Y65050D02*
D03*
X88900Y71050D02*
D03*
Y65050D02*
D03*
X65400Y85200D02*
D03*
Y91200D02*
D03*
X48900Y71050D02*
D03*
Y65050D02*
D03*
X58900Y71050D02*
D03*
Y65050D02*
D03*
X78900Y71050D02*
D03*
Y65050D02*
D03*
X117700Y84900D02*
D03*
Y90900D02*
D03*
X58300Y85255D02*
D03*
Y91255D02*
D03*
X89200Y84900D02*
D03*
Y90900D02*
D03*
X36800D02*
D03*
Y84900D02*
D03*
D54*
X-6900Y32300D02*
D03*
Y35450D02*
D03*
Y38599D02*
D03*
Y41749D02*
D03*
Y44898D02*
D03*
Y48048D02*
D03*
Y51198D02*
D03*
Y54347D02*
D03*
Y57497D02*
D03*
Y60646D02*
D03*
Y63796D02*
D03*
Y66946D02*
D03*
Y70095D02*
D03*
Y73245D02*
D03*
Y76394D02*
D03*
Y79544D02*
D03*
Y82694D02*
D03*
Y85843D02*
D03*
Y101591D02*
D03*
Y104741D02*
D03*
Y107891D02*
D03*
Y111040D02*
D03*
Y114190D02*
D03*
Y117339D02*
D03*
Y120489D02*
D03*
X-6901Y123639D02*
D03*
D57*
X211200Y13400D02*
D03*
Y144200D02*
D03*
D58*
X218200Y125900D02*
D03*
X218000Y97157D02*
D03*
D59*
X48800Y58200D02*
D03*
D60*
X58800D02*
D03*
X68800D02*
D03*
X78800D02*
D03*
X88800D02*
D03*
X98800D02*
D03*
Y98200D02*
D03*
X88800D02*
D03*
X78800D02*
D03*
X68800D02*
D03*
X58800D02*
D03*
X48800D02*
D03*
D61*
X183643Y19886D02*
D03*
D62*
X173064Y30464D02*
D03*
D63*
X58929Y40000D02*
D03*
X48929D02*
D03*
X38929D02*
D03*
X28929D02*
D03*
X68929D02*
D03*
X133400D02*
D03*
X123400D02*
D03*
X113400D02*
D03*
X103400D02*
D03*
X143400D02*
D03*
D64*
X18929D02*
D03*
X93400D02*
D03*
D65*
X124690Y137657D02*
D03*
X26304D02*
D03*
D66*
X94513Y145453D02*
D03*
X85497D02*
D03*
X76481D02*
D03*
X67465D02*
D03*
X58450D02*
D03*
X90005Y137657D02*
D03*
X80989D02*
D03*
X71973D02*
D03*
X62958D02*
D03*
X53942D02*
D03*
X94513Y129862D02*
D03*
X85497D02*
D03*
X76481D02*
D03*
X67465D02*
D03*
X58450D02*
D03*
D67*
X-7392Y79516D02*
D03*
D68*
X106800Y64300D02*
D03*
Y71800D02*
D03*
X104900Y83700D02*
D03*
Y91200D02*
D03*
X82000Y84200D02*
D03*
Y91700D02*
D03*
X42400Y91650D02*
D03*
Y84150D02*
D03*
D69*
X98800Y68100D02*
D03*
X96900Y87500D02*
D03*
X74000Y88000D02*
D03*
X50400Y87850D02*
D03*
M02*
