G04 Layer_Color=2752767*
%FSLAX25Y25*%
%MOIN*%
G70*
G01*
G75*
%ADD10C,0.00500*%
%ADD11C,0.00200*%
%ADD12C,0.00267*%
%ADD13C,0.00133*%
D10*
X-18Y26128D02*
G03*
X-1923Y28145I-1961J56D01*
G01*
X-2225Y129368D02*
G03*
X-22Y131533I61J2141D01*
G01*
X-11600Y28166D02*
X-1979D01*
X-13100Y98366D02*
X-11847Y97113D01*
X-13100Y127872D02*
X-11624Y129347D01*
X-2213D01*
X-13100Y98366D02*
Y127872D01*
X-11847Y97113D02*
X-10D01*
X-13100Y89466D02*
X-11853Y90713D01*
X-10D01*
X-13100Y29666D02*
Y89466D01*
Y29666D02*
X-11600Y28166D01*
D11*
X210400Y12600D02*
Y14200D01*
X212000D01*
Y12600D01*
X210400D01*
Y143400D02*
Y145000D01*
X212000D01*
Y143400D01*
X210400D01*
X48800Y57400D02*
X48000Y59000D01*
X49600D01*
X48800Y57400D01*
X58800D02*
X59200Y57800D01*
X59600D01*
X59200Y58200D01*
X59600Y58600D01*
X59200D01*
X58800Y59000D01*
X58400Y58600D01*
X58000D01*
X58400Y58200D01*
X58000Y57800D01*
X58400D01*
X58800Y57400D01*
X68800D02*
X69200Y57800D01*
X69600D01*
X69200Y58200D01*
X69600Y58600D01*
X69200D01*
X68800Y59000D01*
X68400Y58600D01*
X68000D01*
X68400Y58200D01*
X68000Y57800D01*
X68400D01*
X68800Y57400D01*
X78800D02*
X79200Y57800D01*
X79600D01*
X79200Y58200D01*
X79600Y58600D01*
X79200D01*
X78800Y59000D01*
X78400Y58600D01*
X78000D01*
X78400Y58200D01*
X78000Y57800D01*
X78400D01*
X78800Y57400D01*
X88800D02*
X89200Y57800D01*
X89600D01*
X89200Y58200D01*
X89600Y58600D01*
X89200D01*
X88800Y59000D01*
X88400Y58600D01*
X88000D01*
X88400Y58200D01*
X88000Y57800D01*
X88400D01*
X88800Y57400D01*
X98800D02*
X99200Y57800D01*
X99600D01*
X99200Y58200D01*
X99600Y58600D01*
X99200D01*
X98800Y59000D01*
X98400Y58600D01*
X98000D01*
X98400Y58200D01*
X98000Y57800D01*
X98400D01*
X98800Y57400D01*
Y97400D02*
X99200Y97800D01*
X99600D01*
X99200Y98200D01*
X99600Y98600D01*
X99200D01*
X98800Y99000D01*
X98400Y98600D01*
X98000D01*
X98400Y98200D01*
X98000Y97800D01*
X98400D01*
X98800Y97400D01*
X88800D02*
X89200Y97800D01*
X89600D01*
X89200Y98200D01*
X89600Y98600D01*
X89200D01*
X88800Y99000D01*
X88400Y98600D01*
X88000D01*
X88400Y98200D01*
X88000Y97800D01*
X88400D01*
X88800Y97400D01*
X78800D02*
X79200Y97800D01*
X79600D01*
X79200Y98200D01*
X79600Y98600D01*
X79200D01*
X78800Y99000D01*
X78400Y98600D01*
X78000D01*
X78400Y98200D01*
X78000Y97800D01*
X78400D01*
X78800Y97400D01*
X68800D02*
X69200Y97800D01*
X69600D01*
X69200Y98200D01*
X69600Y98600D01*
X69200D01*
X68800Y99000D01*
X68400Y98600D01*
X68000D01*
X68400Y98200D01*
X68000Y97800D01*
X68400D01*
X68800Y97400D01*
X58800D02*
X59200Y97800D01*
X59600D01*
X59200Y98200D01*
X59600Y98600D01*
X59200D01*
X58800Y99000D01*
X58400Y98600D01*
X58000D01*
X58400Y98200D01*
X58000Y97800D01*
X58400D01*
X58800Y97400D01*
X48800D02*
X49200Y97800D01*
X49600D01*
X49200Y98200D01*
X49600Y98600D01*
X49200D01*
X48800Y99000D01*
X48400Y98600D01*
X48000D01*
X48400Y98200D01*
X48000Y97800D01*
X48400D01*
X48800Y97400D01*
X182843Y19086D02*
X183243Y19886D01*
X182843Y20686D01*
X183643Y20286D01*
X184443Y20686D01*
X184043Y19886D01*
X184443Y19086D01*
X183643Y19486D01*
X182843Y19086D01*
X172664Y30064D02*
Y29664D01*
X173464D01*
Y30064D01*
X173864D01*
Y30864D01*
X173464D01*
Y31264D01*
X172664D01*
Y30864D01*
X172264D01*
Y30064D01*
X172664D01*
X58129Y39200D02*
X58529D01*
X58929Y39600D01*
X59329Y39200D01*
X59729D01*
Y39600D01*
X59329Y40000D01*
X59729Y40400D01*
Y40800D01*
X59329D01*
X58929Y40400D01*
X58529Y40800D01*
X58129D01*
Y40400D01*
X58529Y40000D01*
X58129Y39600D01*
Y39200D01*
X48129D02*
X48529D01*
X48929Y39600D01*
X49329Y39200D01*
X49729D01*
Y39600D01*
X49329Y40000D01*
X49729Y40400D01*
Y40800D01*
X49329D01*
X48929Y40400D01*
X48529Y40800D01*
X48129D01*
Y40400D01*
X48529Y40000D01*
X48129Y39600D01*
Y39200D01*
X38129D02*
X38529D01*
X38929Y39600D01*
X39329Y39200D01*
X39729D01*
Y39600D01*
X39329Y40000D01*
X39729Y40400D01*
Y40800D01*
X39329D01*
X38929Y40400D01*
X38529Y40800D01*
X38129D01*
Y40400D01*
X38529Y40000D01*
X38129Y39600D01*
Y39200D01*
X28129D02*
X28529D01*
X28929Y39600D01*
X29329Y39200D01*
X29729D01*
Y39600D01*
X29329Y40000D01*
X29729Y40400D01*
Y40800D01*
X29329D01*
X28929Y40400D01*
X28529Y40800D01*
X28129D01*
Y40400D01*
X28529Y40000D01*
X28129Y39600D01*
Y39200D01*
X18129D02*
X18529D01*
X18929Y39600D01*
X19329Y39200D01*
X19729D01*
Y39600D01*
X19329Y40000D01*
X19729Y40400D01*
Y40800D01*
X19329D01*
X18929Y40400D01*
X18529Y40800D01*
X18129D01*
Y40400D01*
X18529Y40000D01*
X18129Y39600D01*
Y39200D01*
X68129D02*
X68529D01*
X68929Y39600D01*
X69329Y39200D01*
X69729D01*
Y39600D01*
X69329Y40000D01*
X69729Y40400D01*
Y40800D01*
X69329D01*
X68929Y40400D01*
X68529Y40800D01*
X68129D01*
Y40400D01*
X68529Y40000D01*
X68129Y39600D01*
Y39200D01*
X132600D02*
X133000D01*
X133400Y39600D01*
X133800Y39200D01*
X134200D01*
Y39600D01*
X133800Y40000D01*
X134200Y40400D01*
Y40800D01*
X133800D01*
X133400Y40400D01*
X133000Y40800D01*
X132600D01*
Y40400D01*
X133000Y40000D01*
X132600Y39600D01*
Y39200D01*
X122600D02*
X123000D01*
X123400Y39600D01*
X123800Y39200D01*
X124200D01*
Y39600D01*
X123800Y40000D01*
X124200Y40400D01*
Y40800D01*
X123800D01*
X123400Y40400D01*
X123000Y40800D01*
X122600D01*
Y40400D01*
X123000Y40000D01*
X122600Y39600D01*
Y39200D01*
X112600D02*
X113000D01*
X113400Y39600D01*
X113800Y39200D01*
X114200D01*
Y39600D01*
X113800Y40000D01*
X114200Y40400D01*
Y40800D01*
X113800D01*
X113400Y40400D01*
X113000Y40800D01*
X112600D01*
Y40400D01*
X113000Y40000D01*
X112600Y39600D01*
Y39200D01*
X102600D02*
X103000D01*
X103400Y39600D01*
X103800Y39200D01*
X104200D01*
Y39600D01*
X103800Y40000D01*
X104200Y40400D01*
Y40800D01*
X103800D01*
X103400Y40400D01*
X103000Y40800D01*
X102600D01*
Y40400D01*
X103000Y40000D01*
X102600Y39600D01*
Y39200D01*
X92600D02*
X93000D01*
X93400Y39600D01*
X93800Y39200D01*
X94200D01*
Y39600D01*
X93800Y40000D01*
X94200Y40400D01*
Y40800D01*
X93800D01*
X93400Y40400D01*
X93000Y40800D01*
X92600D01*
Y40400D01*
X93000Y40000D01*
X92600Y39600D01*
Y39200D01*
X142600D02*
X143000D01*
X143400Y39600D01*
X143800Y39200D01*
X144200D01*
Y39600D01*
X143800Y40000D01*
X144200Y40400D01*
Y40800D01*
X143800D01*
X143400Y40400D01*
X143000Y40800D01*
X142600D01*
Y40400D01*
X143000Y40000D01*
X142600Y39600D01*
Y39200D01*
X123890Y137657D02*
X124690Y138457D01*
X125490Y137657D01*
X124690Y136857D01*
X123890Y137657D01*
X25504D02*
X26304Y138457D01*
X27104Y137657D01*
X26304Y136857D01*
X25504Y137657D01*
X93713Y144653D02*
X94113Y145453D01*
X93713Y146253D01*
X94513Y145853D01*
X95313Y146253D01*
X94913Y145453D01*
X95313Y144653D01*
X94513Y145053D01*
X93713Y144653D01*
X84697D02*
X85097Y145453D01*
X84697Y146253D01*
X85497Y145853D01*
X86297Y146253D01*
X85897Y145453D01*
X86297Y144653D01*
X85497Y145053D01*
X84697Y144653D01*
X75681D02*
X76081Y145453D01*
X75681Y146253D01*
X76481Y145853D01*
X77281Y146253D01*
X76881Y145453D01*
X77281Y144653D01*
X76481Y145053D01*
X75681Y144653D01*
X66665D02*
X67065Y145453D01*
X66665Y146253D01*
X67465Y145853D01*
X68265Y146253D01*
X67865Y145453D01*
X68265Y144653D01*
X67465Y145053D01*
X66665Y144653D01*
X57650D02*
X58050Y145453D01*
X57650Y146253D01*
X58450Y145853D01*
X59250Y146253D01*
X58850Y145453D01*
X59250Y144653D01*
X58450Y145053D01*
X57650Y144653D01*
X89205Y136857D02*
X89605Y137657D01*
X89205Y138457D01*
X90005Y138057D01*
X90805Y138457D01*
X90405Y137657D01*
X90805Y136857D01*
X90005Y137257D01*
X89205Y136857D01*
X80189D02*
X80589Y137657D01*
X80189Y138457D01*
X80989Y138057D01*
X81789Y138457D01*
X81389Y137657D01*
X81789Y136857D01*
X80989Y137257D01*
X80189Y136857D01*
X71173D02*
X71573Y137657D01*
X71173Y138457D01*
X71973Y138057D01*
X72773Y138457D01*
X72373Y137657D01*
X72773Y136857D01*
X71973Y137257D01*
X71173Y136857D01*
X62158D02*
X62558Y137657D01*
X62158Y138457D01*
X62958Y138057D01*
X63758Y138457D01*
X63358Y137657D01*
X63758Y136857D01*
X62958Y137257D01*
X62158Y136857D01*
X53142D02*
X53542Y137657D01*
X53142Y138457D01*
X53942Y138057D01*
X54742Y138457D01*
X54342Y137657D01*
X54742Y136857D01*
X53942Y137257D01*
X53142Y136857D01*
X93713Y129062D02*
X94113Y129862D01*
X93713Y130662D01*
X94513Y130262D01*
X95313Y130662D01*
X94913Y129862D01*
X95313Y129062D01*
X94513Y129462D01*
X93713Y129062D01*
X84697D02*
X85097Y129862D01*
X84697Y130662D01*
X85497Y130262D01*
X86297Y130662D01*
X85897Y129862D01*
X86297Y129062D01*
X85497Y129462D01*
X84697Y129062D01*
X75681D02*
X76081Y129862D01*
X75681Y130662D01*
X76481Y130262D01*
X77281Y130662D01*
X76881Y129862D01*
X77281Y129062D01*
X76481Y129462D01*
X75681Y129062D01*
X66665D02*
X67065Y129862D01*
X66665Y130662D01*
X67465Y130262D01*
X68265Y130662D01*
X67865Y129862D01*
X68265Y129062D01*
X67465Y129462D01*
X66665Y129062D01*
X57650D02*
X58050Y129862D01*
X57650Y130662D01*
X58450Y130262D01*
X59250Y130662D01*
X58850Y129862D01*
X59250Y129062D01*
X58450Y129462D01*
X57650Y129062D01*
X206767Y120176D02*
Y121776D01*
X208367D01*
Y120176D01*
X206767D01*
X207167Y120576D02*
Y121376D01*
X207967D01*
Y120576D01*
X207167D01*
X206767Y101081D02*
Y102681D01*
X208367D01*
Y101081D01*
X206767D01*
X207167Y101481D02*
Y102281D01*
X207967D01*
Y101481D01*
X207167D01*
D12*
X219000Y125900D02*
G03*
X219000Y125900I-800J0D01*
G01*
X218800Y97157D02*
G03*
X218800Y97157I-800J0D01*
G01*
X175700Y114700D02*
G03*
X175700Y114700I-800J0D01*
G01*
X194500Y107600D02*
G03*
X194500Y107600I-800J0D01*
G01*
X124200Y19100D02*
G03*
X124200Y19100I-800J0D01*
G01*
X104200D02*
G03*
X104200Y19100I-800J0D01*
G01*
X114200D02*
G03*
X114200Y19100I-800J0D01*
G01*
X94300D02*
G03*
X94300Y19100I-800J0D01*
G01*
X29100Y123800D02*
G03*
X29100Y123800I-800J0D01*
G01*
X24500Y121400D02*
G03*
X24500Y121400I-800J0D01*
G01*
X19600Y118900D02*
G03*
X19600Y118900I-800J0D01*
G01*
X34300Y126600D02*
G03*
X34300Y126600I-800J0D01*
G01*
X9900Y26700D02*
G03*
X9900Y26700I-800J0D01*
G01*
Y20800D02*
G03*
X9900Y20800I-800J0D01*
G01*
X11700Y105300D02*
G03*
X11700Y105300I-800J0D01*
G01*
X134800Y98500D02*
G03*
X134800Y98500I-800J0D01*
G01*
X154100Y110800D02*
G03*
X154100Y110800I-800J0D01*
G01*
X145200Y111200D02*
G03*
X145200Y111200I-800J0D01*
G01*
X149900Y107800D02*
G03*
X149900Y107800I-800J0D01*
G01*
X8100Y125200D02*
G03*
X8100Y125200I-800J0D01*
G01*
X11700Y121600D02*
G03*
X11700Y121600I-800J0D01*
G01*
X11600Y100600D02*
G03*
X11600Y100600I-800J0D01*
G01*
X3500Y33700D02*
G03*
X3500Y33700I-800J0D01*
G01*
X201100Y129800D02*
G03*
X201100Y129800I-800J0D01*
G01*
Y122100D02*
G03*
X201100Y122100I-800J0D01*
G01*
X175700Y103000D02*
G03*
X175700Y103000I-800J0D01*
G01*
X187500Y94600D02*
G03*
X187500Y94600I-800J0D01*
G01*
X181300Y79000D02*
G03*
X181300Y79000I-800J0D01*
G01*
X186800Y66100D02*
G03*
X186800Y66100I-800J0D01*
G01*
X201200Y68500D02*
G03*
X201200Y68500I-800J0D01*
G01*
X214000Y51200D02*
G03*
X214000Y51200I-800J0D01*
G01*
X197400Y48900D02*
G03*
X197400Y48900I-800J0D01*
G01*
X173900Y46600D02*
G03*
X173900Y46600I-800J0D01*
G01*
X178700Y38200D02*
G03*
X178700Y38200I-800J0D01*
G01*
X189100Y25700D02*
G03*
X189100Y25700I-800J0D01*
G01*
X202500Y28000D02*
G03*
X202500Y28000I-800J0D01*
G01*
X218600Y25100D02*
G03*
X218600Y25100I-800J0D01*
G01*
X199900Y8500D02*
G03*
X199900Y8500I-800J0D01*
G01*
X142900Y30600D02*
G03*
X142900Y30600I-800J0D01*
G01*
X128500Y54300D02*
G03*
X128500Y54300I-800J0D01*
G01*
X104000Y53000D02*
G03*
X104000Y53000I-800J0D01*
G01*
X131300Y66800D02*
G03*
X131300Y66800I-800J0D01*
G01*
X130400Y77100D02*
G03*
X130400Y77100I-800J0D01*
G01*
X121200Y97300D02*
G03*
X121200Y97300I-800J0D01*
G01*
X110200Y132900D02*
G03*
X110200Y132900I-800J0D01*
G01*
X119400Y148300D02*
G03*
X119400Y148300I-800J0D01*
G01*
X151100Y151300D02*
G03*
X151100Y151300I-800J0D01*
G01*
X196800Y151900D02*
G03*
X196800Y151900I-800J0D01*
G01*
X48000Y147200D02*
G03*
X48000Y147200I-800J0D01*
G01*
X46100Y135500D02*
G03*
X46100Y135500I-800J0D01*
G01*
X12000Y136600D02*
G03*
X12000Y136600I-800J0D01*
G01*
X20100Y150400D02*
G03*
X20100Y150400I-800J0D01*
G01*
X21400Y101100D02*
G03*
X21400Y101100I-800J0D01*
G01*
X115900Y55500D02*
G03*
X115900Y55500I-800J0D01*
G01*
X37300Y26100D02*
G03*
X37300Y26100I-800J0D01*
G01*
X55000Y18800D02*
G03*
X55000Y18800I-800J0D01*
G01*
X7900Y7800D02*
G03*
X7900Y7800I-800J0D01*
G01*
X21700Y3000D02*
G03*
X21700Y3000I-800J0D01*
G01*
X77000Y17300D02*
G03*
X77000Y17300I-800J0D01*
G01*
X70300Y28800D02*
G03*
X70300Y28800I-800J0D01*
G01*
X111100Y143200D02*
G03*
X111100Y143200I-800J0D01*
G01*
X133200Y147900D02*
G03*
X133200Y147900I-800J0D01*
G01*
X169200Y151000D02*
G03*
X169200Y151000I-800J0D01*
G01*
X194800Y143200D02*
G03*
X194800Y143200I-800J0D01*
G01*
X204000Y136400D02*
G03*
X204000Y136400I-800J0D01*
G01*
X196500Y98800D02*
G03*
X196500Y98800I-800J0D01*
G01*
X192800Y69100D02*
G03*
X192800Y69100I-800J0D01*
G01*
X124300Y72700D02*
G03*
X124300Y72700I-800J0D01*
G01*
X122200Y57500D02*
G03*
X122200Y57500I-800J0D01*
G01*
X191000Y53300D02*
G03*
X191000Y53300I-800J0D01*
G01*
X132500Y29800D02*
G03*
X132500Y29800I-800J0D01*
G01*
X66000Y15300D02*
G03*
X66000Y15300I-800J0D01*
G01*
X41000Y18900D02*
G03*
X41000Y18900I-800J0D01*
G01*
X16300Y92800D02*
G03*
X16300Y92800I-800J0D01*
G01*
X24200Y31500D02*
G03*
X24200Y31500I-800J0D01*
G01*
D13*
X175300Y114700D02*
G03*
X175300Y114700I-400J0D01*
G01*
X194100Y107600D02*
G03*
X194100Y107600I-400J0D01*
G01*
X123800Y19100D02*
G03*
X123800Y19100I-400J0D01*
G01*
X103800D02*
G03*
X103800Y19100I-400J0D01*
G01*
X113800D02*
G03*
X113800Y19100I-400J0D01*
G01*
X93900D02*
G03*
X93900Y19100I-400J0D01*
G01*
X28700Y123800D02*
G03*
X28700Y123800I-400J0D01*
G01*
X24100Y121400D02*
G03*
X24100Y121400I-400J0D01*
G01*
X19200Y118900D02*
G03*
X19200Y118900I-400J0D01*
G01*
X33900Y126600D02*
G03*
X33900Y126600I-400J0D01*
G01*
X9500Y26700D02*
G03*
X9500Y26700I-400J0D01*
G01*
Y20800D02*
G03*
X9500Y20800I-400J0D01*
G01*
X11300Y105300D02*
G03*
X11300Y105300I-400J0D01*
G01*
X134400Y98500D02*
G03*
X134400Y98500I-400J0D01*
G01*
X153700Y110800D02*
G03*
X153700Y110800I-400J0D01*
G01*
X144800Y111200D02*
G03*
X144800Y111200I-400J0D01*
G01*
X149500Y107800D02*
G03*
X149500Y107800I-400J0D01*
G01*
X7700Y125200D02*
G03*
X7700Y125200I-400J0D01*
G01*
X11300Y121600D02*
G03*
X11300Y121600I-400J0D01*
G01*
X11200Y100600D02*
G03*
X11200Y100600I-400J0D01*
G01*
X3100Y33700D02*
G03*
X3100Y33700I-400J0D01*
G01*
X200700Y129800D02*
G03*
X200700Y129800I-400J0D01*
G01*
Y122100D02*
G03*
X200700Y122100I-400J0D01*
G01*
X175300Y103000D02*
G03*
X175300Y103000I-400J0D01*
G01*
X187100Y94600D02*
G03*
X187100Y94600I-400J0D01*
G01*
X180900Y79000D02*
G03*
X180900Y79000I-400J0D01*
G01*
X186400Y66100D02*
G03*
X186400Y66100I-400J0D01*
G01*
X200800Y68500D02*
G03*
X200800Y68500I-400J0D01*
G01*
X213600Y51200D02*
G03*
X213600Y51200I-400J0D01*
G01*
X197000Y48900D02*
G03*
X197000Y48900I-400J0D01*
G01*
X173500Y46600D02*
G03*
X173500Y46600I-400J0D01*
G01*
X178300Y38200D02*
G03*
X178300Y38200I-400J0D01*
G01*
X188700Y25700D02*
G03*
X188700Y25700I-400J0D01*
G01*
X202100Y28000D02*
G03*
X202100Y28000I-400J0D01*
G01*
X218200Y25100D02*
G03*
X218200Y25100I-400J0D01*
G01*
X199500Y8500D02*
G03*
X199500Y8500I-400J0D01*
G01*
X142500Y30600D02*
G03*
X142500Y30600I-400J0D01*
G01*
X128100Y54300D02*
G03*
X128100Y54300I-400J0D01*
G01*
X103600Y53000D02*
G03*
X103600Y53000I-400J0D01*
G01*
X130900Y66800D02*
G03*
X130900Y66800I-400J0D01*
G01*
X130000Y77100D02*
G03*
X130000Y77100I-400J0D01*
G01*
X120800Y97300D02*
G03*
X120800Y97300I-400J0D01*
G01*
X109800Y132900D02*
G03*
X109800Y132900I-400J0D01*
G01*
X119000Y148300D02*
G03*
X119000Y148300I-400J0D01*
G01*
X150700Y151300D02*
G03*
X150700Y151300I-400J0D01*
G01*
X196400Y151900D02*
G03*
X196400Y151900I-400J0D01*
G01*
X47600Y147200D02*
G03*
X47600Y147200I-400J0D01*
G01*
X45700Y135500D02*
G03*
X45700Y135500I-400J0D01*
G01*
X11600Y136600D02*
G03*
X11600Y136600I-400J0D01*
G01*
X19700Y150400D02*
G03*
X19700Y150400I-400J0D01*
G01*
X21000Y101100D02*
G03*
X21000Y101100I-400J0D01*
G01*
X115500Y55500D02*
G03*
X115500Y55500I-400J0D01*
G01*
X36900Y26100D02*
G03*
X36900Y26100I-400J0D01*
G01*
X54600Y18800D02*
G03*
X54600Y18800I-400J0D01*
G01*
X7500Y7800D02*
G03*
X7500Y7800I-400J0D01*
G01*
X21300Y3000D02*
G03*
X21300Y3000I-400J0D01*
G01*
X76600Y17300D02*
G03*
X76600Y17300I-400J0D01*
G01*
X69900Y28800D02*
G03*
X69900Y28800I-400J0D01*
G01*
X110700Y143200D02*
G03*
X110700Y143200I-400J0D01*
G01*
X132800Y147900D02*
G03*
X132800Y147900I-400J0D01*
G01*
X168800Y151000D02*
G03*
X168800Y151000I-400J0D01*
G01*
X194400Y143200D02*
G03*
X194400Y143200I-400J0D01*
G01*
X203600Y136400D02*
G03*
X203600Y136400I-400J0D01*
G01*
X196100Y98800D02*
G03*
X196100Y98800I-400J0D01*
G01*
X192400Y69100D02*
G03*
X192400Y69100I-400J0D01*
G01*
X123900Y72700D02*
G03*
X123900Y72700I-400J0D01*
G01*
X121800Y57500D02*
G03*
X121800Y57500I-400J0D01*
G01*
X190600Y53300D02*
G03*
X190600Y53300I-400J0D01*
G01*
X132100Y29800D02*
G03*
X132100Y29800I-400J0D01*
G01*
X65600Y15300D02*
G03*
X65600Y15300I-400J0D01*
G01*
X40600Y18900D02*
G03*
X40600Y18900I-400J0D01*
G01*
X15900Y92800D02*
G03*
X15900Y92800I-400J0D01*
G01*
X23800Y31500D02*
G03*
X23800Y31500I-400J0D01*
G01*
M02*
