G04 Layer_Color=255*
%FSLAX25Y25*%
%MOIN*%
G70*
G01*
G75*
%ADD10R,0.03500X0.03500*%
%ADD11R,0.05512X0.03937*%
%ADD12R,0.05512X0.01575*%
%ADD13R,0.03500X0.03500*%
%ADD14R,0.00984X0.03543*%
%ADD15R,0.03543X0.00984*%
%ADD16R,0.12598X0.12598*%
%ADD17R,0.02559X0.04134*%
%ADD18R,0.10039X0.02362*%
G04:AMPARAMS|DCode=19|XSize=70.87mil|YSize=78.74mil|CornerRadius=0mil|HoleSize=0mil|Usage=FLASHONLY|Rotation=315.000|XOffset=0mil|YOffset=0mil|HoleType=Round|Shape=Rectangle|*
%AMROTATEDRECTD19*
4,1,4,-0.05289,-0.00278,0.00278,0.05289,0.05289,0.00278,-0.00278,-0.05289,-0.05289,-0.00278,0.0*
%
%ADD19ROTATEDRECTD19*%

G04:AMPARAMS|DCode=20|XSize=27.56mil|YSize=53.15mil|CornerRadius=0mil|HoleSize=0mil|Usage=FLASHONLY|Rotation=315.000|XOffset=0mil|YOffset=0mil|HoleType=Round|Shape=Rectangle|*
%AMROTATEDRECTD20*
4,1,4,-0.02854,-0.00905,0.00905,0.02854,0.02854,0.00905,-0.00905,-0.02854,-0.02854,-0.00905,0.0*
%
%ADD20ROTATEDRECTD20*%

%ADD22C,0.12598*%
G04:AMPARAMS|DCode=23|XSize=59.06mil|YSize=39.37mil|CornerRadius=9.84mil|HoleSize=0mil|Usage=FLASHONLY|Rotation=0.000|XOffset=0mil|YOffset=0mil|HoleType=Round|Shape=RoundedRectangle|*
%AMROUNDEDRECTD23*
21,1,0.05906,0.01969,0,0,0.0*
21,1,0.03937,0.03937,0,0,0.0*
1,1,0.01969,0.01969,-0.00984*
1,1,0.01969,-0.01969,-0.00984*
1,1,0.01969,-0.01969,0.00984*
1,1,0.01969,0.01969,0.00984*
%
%ADD23ROUNDEDRECTD23*%
%ADD24R,0.04724X0.04724*%
%ADD25C,0.04724*%
%ADD26C,0.04331*%
%ADD27C,0.03150*%
%ADD28C,0.05906*%
%ADD29R,0.05906X0.05906*%
%ADD30O,0.16535X0.07874*%
%ADD31C,0.05118*%
D10*
X188500Y122300D02*
D03*
X182500D02*
D03*
X188500Y129900D02*
D03*
X182500D02*
D03*
X216900Y75300D02*
D03*
X210900D02*
D03*
X216900Y83300D02*
D03*
X210900D02*
D03*
X140100Y85500D02*
D03*
X146100D02*
D03*
Y92100D02*
D03*
X140100D02*
D03*
X146100Y98700D02*
D03*
X140100D02*
D03*
X84200Y36300D02*
D03*
X78200D02*
D03*
X84200Y42300D02*
D03*
X78200D02*
D03*
X188500Y137500D02*
D03*
X182500D02*
D03*
X146100Y52500D02*
D03*
X140100D02*
D03*
Y79000D02*
D03*
X146100D02*
D03*
Y59100D02*
D03*
X140100D02*
D03*
X146100Y65700D02*
D03*
X140100D02*
D03*
Y72300D02*
D03*
X146100D02*
D03*
D11*
X218167Y103576D02*
D03*
X218267Y119276D02*
D03*
D12*
X207567Y116546D02*
D03*
Y113987D02*
D03*
Y111428D02*
D03*
Y108869D02*
D03*
Y106310D02*
D03*
D13*
X49690Y111810D02*
D03*
Y117810D02*
D03*
X55490Y111810D02*
D03*
Y117810D02*
D03*
X61310Y111810D02*
D03*
Y117810D02*
D03*
X67090Y111810D02*
D03*
Y117810D02*
D03*
X72940Y111810D02*
D03*
Y117810D02*
D03*
X78750Y111810D02*
D03*
Y117810D02*
D03*
X101800D02*
D03*
Y111810D02*
D03*
X84510D02*
D03*
Y117810D02*
D03*
X90260Y111810D02*
D03*
Y117810D02*
D03*
X96020D02*
D03*
Y111810D02*
D03*
D14*
X156946Y121346D02*
D03*
X158914D02*
D03*
X160883D02*
D03*
X162851D02*
D03*
X164820D02*
D03*
X166788D02*
D03*
X168757D02*
D03*
Y140243D02*
D03*
X166788D02*
D03*
X164820D02*
D03*
X162851D02*
D03*
X160883D02*
D03*
X158914D02*
D03*
X156946D02*
D03*
D15*
X172300Y124889D02*
D03*
Y126857D02*
D03*
Y128826D02*
D03*
Y130794D02*
D03*
Y132763D02*
D03*
Y134731D02*
D03*
Y136700D02*
D03*
X153402D02*
D03*
Y134731D02*
D03*
Y132763D02*
D03*
Y130794D02*
D03*
Y128826D02*
D03*
Y126857D02*
D03*
Y124889D02*
D03*
D16*
X162851Y130794D02*
D03*
D17*
X209042Y58900D02*
D03*
X217900D02*
D03*
Y40790D02*
D03*
X209042D02*
D03*
D18*
X-6900Y125213D02*
D03*
Y122064D02*
D03*
Y118914D02*
D03*
Y115765D02*
D03*
Y112615D02*
D03*
Y109465D02*
D03*
Y106316D02*
D03*
Y103166D02*
D03*
Y87420D02*
D03*
Y84270D02*
D03*
Y81120D02*
D03*
Y77971D02*
D03*
Y74821D02*
D03*
Y71672D02*
D03*
Y68522D02*
D03*
Y65372D02*
D03*
Y62223D02*
D03*
Y59073D02*
D03*
Y55924D02*
D03*
Y52774D02*
D03*
Y49624D02*
D03*
Y46475D02*
D03*
Y43325D02*
D03*
Y40176D02*
D03*
Y37026D02*
D03*
Y33876D02*
D03*
D19*
X189101Y14427D02*
D03*
X167605Y35923D02*
D03*
D20*
X171706Y10750D02*
D03*
X167817Y14639D02*
D03*
X163928Y18528D02*
D03*
X192778Y31822D02*
D03*
X188889Y35711D02*
D03*
X185000Y39600D02*
D03*
D22*
X211200Y13400D02*
D03*
Y144200D02*
D03*
D23*
X218200Y125900D02*
D03*
X218000Y97157D02*
D03*
D24*
X48800Y58200D02*
D03*
D25*
X58800D02*
D03*
X68800D02*
D03*
X78800D02*
D03*
X88800D02*
D03*
X98800D02*
D03*
Y98200D02*
D03*
X88800D02*
D03*
X78800D02*
D03*
X68800D02*
D03*
X58800D02*
D03*
X48800D02*
D03*
D26*
X183643Y19886D02*
D03*
D27*
X173064Y30464D02*
D03*
D28*
X58929Y40000D02*
D03*
X48929D02*
D03*
X38929D02*
D03*
X28929D02*
D03*
X68929D02*
D03*
X133400D02*
D03*
X123400D02*
D03*
X113400D02*
D03*
X103400D02*
D03*
X143400D02*
D03*
D29*
X18929D02*
D03*
X93400D02*
D03*
D30*
X124690Y137657D02*
D03*
X26304D02*
D03*
D31*
X94513Y145453D02*
D03*
X85497D02*
D03*
X76481D02*
D03*
X67465D02*
D03*
X58450D02*
D03*
X90005Y137657D02*
D03*
X80989D02*
D03*
X71973D02*
D03*
X62958D02*
D03*
X53942D02*
D03*
X94513Y129862D02*
D03*
X85497D02*
D03*
X76481D02*
D03*
X67465D02*
D03*
X58450D02*
D03*
M02*
