G04 Layer_Color=128*
%FSLAX25Y25*%
%MOIN*%
G70*
G01*
G75*
%ADD10C,0.00500*%
%ADD11C,0.00200*%
D10*
X-18Y26128D02*
G03*
X-1923Y28145I-1961J56D01*
G01*
X-2225Y129368D02*
G03*
X-22Y131533I61J2141D01*
G01*
X-11600Y28166D02*
X-1979D01*
X-13100Y98366D02*
X-11847Y97113D01*
X-13100Y127872D02*
X-11624Y129347D01*
X-2213D01*
X-13100Y98366D02*
Y127872D01*
X-11847Y97113D02*
X-10D01*
X-13100Y89466D02*
X-11853Y90713D01*
X-10D01*
X-13100Y29666D02*
Y89466D01*
Y29666D02*
X-11600Y28166D01*
D11*
X205294Y13400D02*
X217106D01*
X211200Y7495D02*
Y19306D01*
X205294Y144200D02*
X217106D01*
X211200Y138294D02*
Y150106D01*
X216822Y125900D02*
X219578D01*
X218200Y124522D02*
Y127278D01*
X216622Y97157D02*
X219378D01*
X218000Y95779D02*
Y98535D01*
X47442Y58200D02*
X50158D01*
X48800Y56842D02*
Y59558D01*
X57461Y58200D02*
X60139D01*
X58800Y56861D02*
Y59539D01*
X67461Y58200D02*
X70139D01*
X68800Y56861D02*
Y59539D01*
X77461Y58200D02*
X80139D01*
X78800Y56861D02*
Y59539D01*
X87461Y58200D02*
X90139D01*
X88800Y56861D02*
Y59539D01*
X97461Y58200D02*
X100139D01*
X98800Y56861D02*
Y59539D01*
X97461Y98200D02*
X100139D01*
X98800Y96861D02*
Y99539D01*
X87461Y98200D02*
X90139D01*
X88800Y96861D02*
Y99539D01*
X77461Y98200D02*
X80139D01*
X78800Y96861D02*
Y99539D01*
X67461Y98200D02*
X70139D01*
X68800Y96861D02*
Y99539D01*
X57461Y98200D02*
X60139D01*
X58800Y96861D02*
Y99539D01*
X47461Y98200D02*
X50139D01*
X48800Y96861D02*
Y99539D01*
X181477Y19886D02*
X185808D01*
X183643Y17720D02*
Y22051D01*
X171489Y30464D02*
X174639D01*
X173064Y28890D02*
Y32039D01*
X57158Y40000D02*
X60701D01*
X58929Y38228D02*
Y41772D01*
X47157Y40000D02*
X50701D01*
X48929Y38228D02*
Y41772D01*
X37157Y40000D02*
X40701D01*
X38929Y38228D02*
Y41772D01*
X27158Y40000D02*
X30701D01*
X28929Y38228D02*
Y41772D01*
X17158Y40000D02*
X20701D01*
X18929Y38228D02*
Y41772D01*
X67158Y40000D02*
X70701D01*
X68929Y38228D02*
Y41772D01*
X131628Y40000D02*
X135172D01*
X133400Y38228D02*
Y41772D01*
X121628Y40000D02*
X125172D01*
X123400Y38228D02*
Y41772D01*
X111628Y40000D02*
X115172D01*
X113400Y38228D02*
Y41772D01*
X101628Y40000D02*
X105172D01*
X103400Y38228D02*
Y41772D01*
X91628Y40000D02*
X95172D01*
X93400Y38228D02*
Y41772D01*
X141628Y40000D02*
X145172D01*
X143400Y38228D02*
Y41772D01*
X122328Y137657D02*
X127052D01*
X124690Y135295D02*
Y140020D01*
X23942Y137657D02*
X28666D01*
X26304Y135295D02*
Y140020D01*
X92347Y145453D02*
X96678D01*
X94513Y143287D02*
Y147618D01*
X83332Y145453D02*
X87662D01*
X85497Y143287D02*
Y147618D01*
X74316Y145453D02*
X78647D01*
X76481Y143287D02*
Y147618D01*
X65300Y145453D02*
X69631D01*
X67465Y143287D02*
Y147618D01*
X56284Y145453D02*
X60615D01*
X58450Y143287D02*
Y147618D01*
X87839Y137657D02*
X92170D01*
X90005Y135492D02*
Y139823D01*
X78824Y137657D02*
X83154D01*
X80989Y135492D02*
Y139823D01*
X69808Y137657D02*
X74139D01*
X71973Y135492D02*
Y139823D01*
X60792Y137657D02*
X65123D01*
X62958Y135492D02*
Y139823D01*
X51776Y137657D02*
X56107D01*
X53942Y135492D02*
Y139823D01*
X92347Y129862D02*
X96678D01*
X94513Y127697D02*
Y132027D01*
X83332Y129862D02*
X87662D01*
X85497Y127697D02*
Y132027D01*
X74316Y129862D02*
X78647D01*
X76481Y127697D02*
Y132027D01*
X65300Y129862D02*
X69631D01*
X67465Y127697D02*
Y132027D01*
X56284Y129862D02*
X60615D01*
X58450Y127697D02*
Y132027D01*
X206189Y120976D02*
X208945D01*
X207567Y119598D02*
Y122353D01*
X206189Y101881D02*
X208945D01*
X207567Y100503D02*
Y103259D01*
X174309Y114700D02*
X175491D01*
X174900Y114109D02*
Y115291D01*
X193109Y107600D02*
X194291D01*
X193700Y107009D02*
Y108191D01*
X122809Y19100D02*
X123991D01*
X123400Y18509D02*
Y19691D01*
X102809Y19100D02*
X103991D01*
X103400Y18509D02*
Y19691D01*
X112809Y19100D02*
X113991D01*
X113400Y18509D02*
Y19691D01*
X92909Y19100D02*
X94090D01*
X93500Y18509D02*
Y19691D01*
X27709Y123800D02*
X28891D01*
X28300Y123209D02*
Y124391D01*
X23110Y121400D02*
X24291D01*
X23700Y120809D02*
Y121991D01*
X18210Y118900D02*
X19390D01*
X18800Y118309D02*
Y119491D01*
X32909Y126600D02*
X34091D01*
X33500Y126009D02*
Y127191D01*
X8509Y26700D02*
X9691D01*
X9100Y26109D02*
Y27291D01*
X8509Y20800D02*
X9691D01*
X9100Y20210D02*
Y21391D01*
X10309Y105300D02*
X11491D01*
X10900Y104709D02*
Y105891D01*
X133409Y98500D02*
X134591D01*
X134000Y97909D02*
Y99090D01*
X152709Y110800D02*
X153891D01*
X153300Y110209D02*
Y111391D01*
X143809Y111200D02*
X144991D01*
X144400Y110609D02*
Y111791D01*
X148509Y107800D02*
X149691D01*
X149100Y107209D02*
Y108391D01*
X6709Y125200D02*
X7891D01*
X7300Y124609D02*
Y125791D01*
X10309Y121600D02*
X11491D01*
X10900Y121009D02*
Y122191D01*
X10209Y100600D02*
X11391D01*
X10800Y100010D02*
Y101190D01*
X2110Y33700D02*
X3291D01*
X2700Y33109D02*
Y34291D01*
X199709Y129800D02*
X200891D01*
X200300Y129209D02*
Y130391D01*
X199709Y122100D02*
X200891D01*
X200300Y121509D02*
Y122691D01*
X174309Y103000D02*
X175491D01*
X174900Y102409D02*
Y103591D01*
X186109Y94600D02*
X187291D01*
X186700Y94010D02*
Y95191D01*
X179909Y79000D02*
X181091D01*
X180500Y78409D02*
Y79590D01*
X185409Y66100D02*
X186591D01*
X186000Y65509D02*
Y66690D01*
X199809Y68500D02*
X200991D01*
X200400Y67909D02*
Y69090D01*
X212610Y51200D02*
X213790D01*
X213200Y50609D02*
Y51790D01*
X196009Y48900D02*
X197191D01*
X196600Y48309D02*
Y49491D01*
X172509Y46600D02*
X173691D01*
X173100Y46009D02*
Y47191D01*
X177309Y38200D02*
X178491D01*
X177900Y37609D02*
Y38791D01*
X187709Y25700D02*
X188891D01*
X188300Y25109D02*
Y26291D01*
X201109Y28000D02*
X202291D01*
X201700Y27409D02*
Y28591D01*
X217210Y25100D02*
X218390D01*
X217800Y24509D02*
Y25691D01*
X198509Y8500D02*
X199691D01*
X199100Y7909D02*
Y9091D01*
X141509Y30600D02*
X142691D01*
X142100Y30009D02*
Y31191D01*
X127109Y54300D02*
X128291D01*
X127700Y53710D02*
Y54891D01*
X102609Y53000D02*
X103791D01*
X103200Y52409D02*
Y53591D01*
X129909Y66800D02*
X131091D01*
X130500Y66210D02*
Y67391D01*
X129009Y77100D02*
X130191D01*
X129600Y76509D02*
Y77691D01*
X119809Y97300D02*
X120991D01*
X120400Y96710D02*
Y97891D01*
X108809Y132900D02*
X109991D01*
X109400Y132309D02*
Y133491D01*
X118009Y148300D02*
X119191D01*
X118600Y147709D02*
Y148891D01*
X149709Y151300D02*
X150891D01*
X150300Y150709D02*
Y151891D01*
X195409Y151900D02*
X196591D01*
X196000Y151309D02*
Y152491D01*
X46609Y147200D02*
X47791D01*
X47200Y146609D02*
Y147791D01*
X44709Y135500D02*
X45891D01*
X45300Y134909D02*
Y136091D01*
X10609Y136600D02*
X11791D01*
X11200Y136009D02*
Y137191D01*
X18710Y150400D02*
X19891D01*
X19300Y149809D02*
Y150991D01*
X20009Y101100D02*
X21191D01*
X20600Y100510D02*
Y101690D01*
X114509Y55500D02*
X115691D01*
X115100Y54909D02*
Y56090D01*
X35909Y26100D02*
X37091D01*
X36500Y25510D02*
Y26691D01*
X53610Y18800D02*
X54791D01*
X54200Y18210D02*
Y19390D01*
X6509Y7800D02*
X7691D01*
X7100Y7209D02*
Y8391D01*
X20310Y3000D02*
X21490D01*
X20900Y2410D02*
Y3591D01*
X75609Y17300D02*
X76790D01*
X76200Y16710D02*
Y17890D01*
X68910Y28800D02*
X70091D01*
X69500Y28209D02*
Y29391D01*
X109709Y143200D02*
X110891D01*
X110300Y142609D02*
Y143791D01*
X131809Y147900D02*
X132991D01*
X132400Y147309D02*
Y148491D01*
X167809Y151000D02*
X168991D01*
X168400Y150409D02*
Y151591D01*
X193409Y143200D02*
X194591D01*
X194000Y142609D02*
Y143791D01*
X202609Y136400D02*
X203791D01*
X203200Y135809D02*
Y136991D01*
X195109Y98800D02*
X196291D01*
X195700Y98210D02*
Y99391D01*
X191409Y69100D02*
X192591D01*
X192000Y68510D02*
Y69691D01*
X122909Y72700D02*
X124091D01*
X123500Y72110D02*
Y73290D01*
X120809Y57500D02*
X121991D01*
X121400Y56910D02*
Y58091D01*
X189609Y53300D02*
X190791D01*
X190200Y52710D02*
Y53891D01*
X131109Y29800D02*
X132291D01*
X131700Y29209D02*
Y30391D01*
X64609Y15300D02*
X65790D01*
X65200Y14709D02*
Y15890D01*
X39609Y18900D02*
X40791D01*
X40200Y18309D02*
Y19490D01*
X14909Y92800D02*
X16091D01*
X15500Y92210D02*
Y93391D01*
X22809Y31500D02*
X23990D01*
X23400Y30909D02*
Y32091D01*
M02*
