G04 Layer_Physical_Order=2*
G04 Layer_Color=16711680*
%FSLAX25Y25*%
%MOIN*%
G70*
G01*
G75*
%ADD13R,0.03500X0.03500*%
%ADD18R,0.10039X0.02362*%
%ADD21C,0.00800*%
%ADD22C,0.12598*%
G04:AMPARAMS|DCode=23|XSize=59.06mil|YSize=39.37mil|CornerRadius=9.84mil|HoleSize=0mil|Usage=FLASHONLY|Rotation=0.000|XOffset=0mil|YOffset=0mil|HoleType=Round|Shape=RoundedRectangle|*
%AMROUNDEDRECTD23*
21,1,0.05906,0.01969,0,0,0.0*
21,1,0.03937,0.03937,0,0,0.0*
1,1,0.01969,0.01969,-0.00984*
1,1,0.01969,-0.01969,-0.00984*
1,1,0.01969,-0.01969,0.00984*
1,1,0.01969,0.01969,0.00984*
%
%ADD23ROUNDEDRECTD23*%
%ADD24R,0.04724X0.04724*%
%ADD25C,0.04724*%
%ADD26C,0.04331*%
%ADD27C,0.03150*%
%ADD28C,0.05906*%
%ADD29R,0.05906X0.05906*%
%ADD30O,0.16535X0.07874*%
%ADD31C,0.05118*%
%ADD32C,0.03937*%
%ADD33C,0.02362*%
%ADD34R,0.04000X0.04000*%
%ADD35R,0.05000X0.04000*%
G36*
X86296Y100097D02*
X86056Y99784D01*
X85739Y99020D01*
X85631Y98200D01*
X85739Y97380D01*
X86056Y96616D01*
X86559Y95959D01*
X87216Y95456D01*
X87980Y95139D01*
X88800Y95031D01*
X89620Y95139D01*
X90002Y95297D01*
X91270Y94029D01*
X91021Y93429D01*
X86671D01*
Y92903D01*
X84780D01*
Y94480D01*
X79220D01*
Y88920D01*
X84171D01*
X84420Y88320D01*
X83079Y86980D01*
X79220D01*
Y85203D01*
X77872D01*
X77280Y85220D01*
Y90780D01*
X76303D01*
Y94002D01*
X77598Y95297D01*
X77980Y95139D01*
X78800Y95031D01*
X79620Y95139D01*
X80384Y95456D01*
X81041Y95959D01*
X81544Y96616D01*
X81861Y97380D01*
X81969Y98200D01*
X81861Y99020D01*
X81544Y99784D01*
X81304Y100097D01*
X81600Y100697D01*
X86000D01*
X86296Y100097D01*
D02*
G37*
G36*
X223450Y149535D02*
Y7874D01*
Y1050D01*
X22905D01*
X22621Y1650D01*
X22955Y2149D01*
X23024Y2500D01*
X18776D01*
X18845Y2149D01*
X19179Y1650D01*
X18895Y1050D01*
X1050D01*
Y7874D01*
Y25994D01*
X1046Y26013D01*
X1060Y26120D01*
X954Y26924D01*
X644Y27673D01*
X150Y28316D01*
X0Y28432D01*
Y33018D01*
X600Y33077D01*
X646Y32849D01*
X1127Y32127D01*
X1849Y31645D01*
X2200Y31576D01*
Y33700D01*
X3200D01*
Y31576D01*
X3551Y31645D01*
X4273Y32127D01*
X4597Y32614D01*
X5197Y32432D01*
Y23500D01*
X5289Y23040D01*
X5550Y22650D01*
X7150Y21049D01*
X7101Y20800D01*
X7253Y20035D01*
X7687Y19387D01*
X8335Y18953D01*
X9100Y18801D01*
X9865Y18953D01*
X10514Y19387D01*
X10947Y20035D01*
X11099Y20800D01*
X10947Y21565D01*
X10514Y22214D01*
X9865Y22647D01*
X9100Y22799D01*
X8851Y22750D01*
X7603Y23998D01*
Y24621D01*
X8203Y24942D01*
X8335Y24853D01*
X9100Y24701D01*
X9865Y24853D01*
X10514Y25286D01*
X10947Y25935D01*
X11099Y26700D01*
X10947Y27465D01*
X10514Y28113D01*
X10303Y28254D01*
Y37900D01*
X10211Y38360D01*
X9950Y38750D01*
X6102Y42599D01*
X5711Y42860D01*
X5251Y42951D01*
X0D01*
Y43696D01*
X15197D01*
Y36268D01*
X22661D01*
Y43696D01*
X26629D01*
X26833Y43096D01*
X26267Y42662D01*
X25669Y41882D01*
X25293Y40974D01*
X25165Y40000D01*
X25293Y39026D01*
X25669Y38118D01*
X26267Y37338D01*
X27047Y36740D01*
X27955Y36364D01*
X28929Y36235D01*
X29904Y36364D01*
X30811Y36740D01*
X31591Y37338D01*
X32189Y38118D01*
X32565Y39026D01*
X32694Y40000D01*
X32565Y40974D01*
X32189Y41882D01*
X31591Y42662D01*
X31026Y43096D01*
X31229Y43696D01*
X36629D01*
X36833Y43096D01*
X36267Y42662D01*
X35669Y41882D01*
X35293Y40974D01*
X35165Y40000D01*
X35293Y39026D01*
X35669Y38118D01*
X36267Y37338D01*
X37047Y36740D01*
X37955Y36364D01*
X38929Y36235D01*
X39904Y36364D01*
X40583Y36645D01*
X55079Y22150D01*
X55469Y21889D01*
X55929Y21797D01*
X153138D01*
X153368Y21243D01*
X150346Y18222D01*
X125979D01*
X125350Y18851D01*
X125399Y19100D01*
X125247Y19865D01*
X124813Y20514D01*
X124165Y20947D01*
X123400Y21099D01*
X122635Y20947D01*
X121986Y20514D01*
X121553Y19865D01*
X121401Y19100D01*
X121553Y18335D01*
X121986Y17686D01*
X122635Y17253D01*
X122794Y17221D01*
X122735Y16622D01*
X117579D01*
X115350Y18851D01*
X115399Y19100D01*
X115247Y19865D01*
X114813Y20514D01*
X114165Y20947D01*
X113400Y21099D01*
X112635Y20947D01*
X111986Y20514D01*
X111553Y19865D01*
X111401Y19100D01*
X111553Y18335D01*
X111986Y17686D01*
X112635Y17253D01*
X113400Y17101D01*
X113649Y17150D01*
X115223Y15576D01*
X114994Y15021D01*
X109179D01*
X105350Y18851D01*
X105399Y19100D01*
X105247Y19865D01*
X104814Y20514D01*
X104165Y20947D01*
X103400Y21099D01*
X102635Y20947D01*
X101987Y20514D01*
X101553Y19865D01*
X101401Y19100D01*
X101553Y18335D01*
X101987Y17686D01*
X102635Y17253D01*
X103400Y17101D01*
X103649Y17150D01*
X107142Y13657D01*
X106913Y13103D01*
X101198D01*
X95450Y18851D01*
X95499Y19100D01*
X95347Y19865D01*
X94914Y20514D01*
X94265Y20947D01*
X93500Y21099D01*
X92735Y20947D01*
X92086Y20514D01*
X91653Y19865D01*
X91501Y19100D01*
X91653Y18335D01*
X92086Y17686D01*
X92735Y17253D01*
X93500Y17101D01*
X93749Y17150D01*
X99850Y11050D01*
X100240Y10789D01*
X100700Y10697D01*
X152926D01*
X153386Y10789D01*
X153776Y11050D01*
X168019Y25293D01*
X168280Y25683D01*
X168371Y26143D01*
Y113345D01*
X168280Y113805D01*
X168019Y114196D01*
X155664Y126550D01*
X155274Y126811D01*
X154814Y126903D01*
X97430D01*
X97188Y127503D01*
X97621Y128067D01*
X97980Y128933D01*
X98036Y129362D01*
X90989D01*
X91045Y128933D01*
X91404Y128067D01*
X91837Y127503D01*
X91595Y126903D01*
X88110D01*
X87910Y127402D01*
X87895Y127503D01*
X88413Y128179D01*
X88750Y128991D01*
X88864Y129862D01*
X88750Y130734D01*
X88413Y131546D01*
X87878Y132243D01*
X87181Y132778D01*
X86369Y133115D01*
X85497Y133230D01*
X84626Y133115D01*
X83813Y132778D01*
X83116Y132243D01*
X82581Y131546D01*
X82244Y130734D01*
X82130Y129862D01*
X82244Y128991D01*
X82581Y128179D01*
X83099Y127503D01*
X83084Y127402D01*
X82884Y126903D01*
X79094D01*
X78894Y127402D01*
X78879Y127503D01*
X79397Y128179D01*
X79734Y128991D01*
X79849Y129862D01*
X79734Y130734D01*
X79397Y131546D01*
X78862Y132243D01*
X78165Y132778D01*
X77353Y133115D01*
X76481Y133230D01*
X75610Y133115D01*
X74797Y132778D01*
X74100Y132243D01*
X73565Y131546D01*
X73229Y130734D01*
X73114Y129862D01*
X73229Y128991D01*
X73565Y128179D01*
X74084Y127503D01*
X74068Y127402D01*
X73868Y126903D01*
X70078D01*
X69878Y127402D01*
X69863Y127503D01*
X70382Y128179D01*
X70718Y128991D01*
X70833Y129862D01*
X70718Y130734D01*
X70382Y131546D01*
X69846Y132243D01*
X69149Y132778D01*
X68337Y133115D01*
X67465Y133230D01*
X66594Y133115D01*
X65782Y132778D01*
X65084Y132243D01*
X64549Y131546D01*
X64213Y130734D01*
X64098Y129862D01*
X64213Y128991D01*
X64549Y128179D01*
X65068Y127503D01*
X65053Y127402D01*
X64852Y126903D01*
X61063D01*
X60862Y127402D01*
X60847Y127503D01*
X61366Y128179D01*
X61702Y128991D01*
X61817Y129862D01*
X61702Y130734D01*
X61366Y131546D01*
X60831Y132243D01*
X60133Y132778D01*
X59321Y133115D01*
X58450Y133230D01*
X57578Y133115D01*
X56766Y132778D01*
X56068Y132243D01*
X55533Y131546D01*
X55197Y130734D01*
X55082Y129862D01*
X55197Y128991D01*
X55533Y128179D01*
X56052Y127503D01*
X56037Y127402D01*
X55837Y126903D01*
X35439D01*
X35347Y127365D01*
X34914Y128014D01*
X34265Y128447D01*
X33500Y128599D01*
X32735Y128447D01*
X32087Y128014D01*
X31653Y127365D01*
X31501Y126600D01*
X31653Y125835D01*
X31742Y125703D01*
X31421Y125103D01*
X29788D01*
X29713Y125214D01*
X29065Y125647D01*
X28300Y125799D01*
X27535Y125647D01*
X26886Y125214D01*
X26453Y124565D01*
X26301Y123800D01*
X26420Y123203D01*
X26075Y122603D01*
X25254D01*
X25113Y122813D01*
X24465Y123247D01*
X23700Y123399D01*
X22935Y123247D01*
X22287Y122813D01*
X21853Y122165D01*
X21701Y121400D01*
X21840Y120703D01*
X21792Y120513D01*
X21572Y120103D01*
X20354D01*
X20213Y120314D01*
X19565Y120747D01*
X18800Y120899D01*
X18035Y120747D01*
X17387Y120314D01*
X16953Y119665D01*
X16801Y118900D01*
X16940Y118203D01*
X16892Y118013D01*
X16672Y117603D01*
X15538D01*
X14950Y118190D01*
X14560Y118450D01*
X14100Y118542D01*
X0D01*
Y119286D01*
X9789D01*
X10249Y119378D01*
X10639Y119639D01*
X10651Y119650D01*
X10900Y119601D01*
X11665Y119753D01*
X12314Y120186D01*
X12747Y120835D01*
X12899Y121600D01*
X12747Y122365D01*
X12314Y123013D01*
X11665Y123447D01*
X10900Y123599D01*
X10135Y123447D01*
X9487Y123013D01*
X9053Y122365D01*
X8919Y121692D01*
X0D01*
Y129165D01*
X81Y129227D01*
X616Y129925D01*
X953Y130738D01*
X1022Y131259D01*
X1050Y131400D01*
Y156450D01*
X223450D01*
Y149535D01*
D02*
G37*
G36*
X76296Y100097D02*
X76056Y99784D01*
X75739Y99020D01*
X75631Y98200D01*
X75739Y97380D01*
X75897Y96998D01*
X74250Y95350D01*
X73989Y94960D01*
X73897Y94500D01*
Y90780D01*
X70720D01*
Y87567D01*
X70166Y87338D01*
X69173Y88331D01*
X69106Y88665D01*
X68846Y89055D01*
X68455Y89316D01*
X67995Y89407D01*
X67930D01*
Y93730D01*
X66603D01*
Y94502D01*
X67457Y95356D01*
X67980Y95139D01*
X68800Y95031D01*
X69620Y95139D01*
X70384Y95456D01*
X71041Y95959D01*
X71544Y96616D01*
X71861Y97380D01*
X71969Y98200D01*
X71861Y99020D01*
X71544Y99784D01*
X71304Y100097D01*
X71600Y100697D01*
X76000D01*
X76296Y100097D01*
D02*
G37*
G36*
X66296D02*
X66056Y99784D01*
X65739Y99020D01*
X65631Y98200D01*
X65739Y97380D01*
X65839Y97140D01*
X64550Y95850D01*
X64289Y95460D01*
X64197Y95000D01*
Y93730D01*
X62871D01*
Y89407D01*
X60830D01*
Y93784D01*
X59403D01*
Y95110D01*
X59620Y95139D01*
X60384Y95456D01*
X61041Y95959D01*
X61544Y96616D01*
X61861Y97380D01*
X61969Y98200D01*
X61861Y99020D01*
X61544Y99784D01*
X61304Y100097D01*
X61600Y100697D01*
X66000D01*
X66296Y100097D01*
D02*
G37*
G36*
X124997Y99302D02*
Y86498D01*
X123702Y85203D01*
X120229D01*
Y87429D01*
X115171D01*
Y82371D01*
X120229D01*
Y82797D01*
X124200D01*
X124260Y82809D01*
X124556Y82256D01*
X123102Y80803D01*
X115798D01*
X113230Y83371D01*
Y87429D01*
X108170D01*
Y86743D01*
X107679Y86480D01*
X102120D01*
Y84903D01*
X100180D01*
Y90280D01*
X97403D01*
Y90800D01*
X97311Y91260D01*
X97050Y91650D01*
X91703Y96998D01*
X91861Y97380D01*
X91969Y98200D01*
X91861Y99020D01*
X91544Y99784D01*
X91304Y100097D01*
X91600Y100697D01*
X96000D01*
X96296Y100097D01*
X96056Y99784D01*
X95739Y99020D01*
X95631Y98200D01*
X95739Y97380D01*
X96056Y96616D01*
X96559Y95959D01*
X97216Y95456D01*
X97980Y95139D01*
X98800Y95031D01*
X99620Y95139D01*
X100384Y95456D01*
X101041Y95959D01*
X101544Y96616D01*
X101702Y96997D01*
X109202D01*
X112215Y93984D01*
X111986Y93429D01*
X108170D01*
X107679Y93693D01*
Y93980D01*
X102120D01*
Y88420D01*
X107679D01*
Y88420D01*
X108170Y88370D01*
Y88371D01*
X108259Y88371D01*
X113230D01*
Y92186D01*
X113784Y92415D01*
X115171Y91029D01*
Y88371D01*
X120229D01*
Y93429D01*
X116171D01*
X110550Y99050D01*
X110160Y99311D01*
X109700Y99403D01*
X101702D01*
X101544Y99784D01*
X101304Y100097D01*
X101600Y100697D01*
X123602D01*
X124997Y99302D01*
D02*
G37*
G36*
X157966Y109533D02*
Y30367D01*
X153402Y25803D01*
X64827D01*
X52284Y38346D01*
X52565Y39026D01*
X52694Y40000D01*
X52565Y40974D01*
X52189Y41882D01*
X51591Y42662D01*
X51026Y43096D01*
X51229Y43696D01*
X56267D01*
X56471Y43096D01*
X56110Y42819D01*
X55476Y41993D01*
X55078Y41032D01*
X55008Y40500D01*
X62850D01*
X62780Y41032D01*
X62382Y41993D01*
X61748Y42819D01*
X61388Y43096D01*
X61592Y43696D01*
X66629D01*
X66833Y43096D01*
X66267Y42662D01*
X65669Y41882D01*
X65293Y40974D01*
X65165Y40000D01*
X65293Y39026D01*
X65669Y38118D01*
X66267Y37338D01*
X67047Y36740D01*
X67955Y36364D01*
X68929Y36235D01*
X69903Y36364D01*
X70811Y36740D01*
X71591Y37338D01*
X72189Y38118D01*
X72565Y39026D01*
X72694Y40000D01*
X72565Y40974D01*
X72189Y41882D01*
X71591Y42662D01*
X71026Y43096D01*
X71229Y43696D01*
X89668D01*
Y36268D01*
X97132D01*
Y43696D01*
X101100D01*
X101304Y43096D01*
X100738Y42662D01*
X100140Y41882D01*
X99764Y40974D01*
X99635Y40000D01*
X99764Y39026D01*
X100140Y38118D01*
X100738Y37338D01*
X101518Y36740D01*
X102426Y36364D01*
X103400Y36235D01*
X104374Y36364D01*
X105282Y36740D01*
X106062Y37338D01*
X106660Y38118D01*
X107036Y39026D01*
X107165Y40000D01*
X107036Y40974D01*
X106660Y41882D01*
X106062Y42662D01*
X105282Y43260D01*
X104374Y43636D01*
X103677Y43728D01*
X103454Y44353D01*
X110525Y51425D01*
X110786Y51815D01*
X110878Y52275D01*
Y60427D01*
X112971Y62520D01*
X116330D01*
Y66797D01*
X119502D01*
X142197Y44102D01*
Y43542D01*
X141518Y43260D01*
X140738Y42662D01*
X140140Y41882D01*
X139764Y40974D01*
X139636Y40000D01*
X139764Y39026D01*
X140140Y38118D01*
X140738Y37338D01*
X141518Y36740D01*
X142426Y36364D01*
X143400Y36235D01*
X144374Y36364D01*
X145282Y36740D01*
X146062Y37338D01*
X146660Y38118D01*
X147036Y39026D01*
X147164Y40000D01*
X147036Y40974D01*
X146660Y41882D01*
X146062Y42662D01*
X145282Y43260D01*
X144603Y43542D01*
Y44600D01*
X144511Y45060D01*
X144250Y45450D01*
X120850Y68850D01*
X120460Y69111D01*
X120000Y69203D01*
X116330D01*
Y73580D01*
X111270D01*
Y73003D01*
X109580D01*
Y74580D01*
X104303D01*
Y80602D01*
X104621Y80920D01*
X107679D01*
Y82107D01*
X108170Y82371D01*
X110829D01*
X114450Y78750D01*
X114840Y78489D01*
X115300Y78397D01*
X123600D01*
X124060Y78489D01*
X124450Y78750D01*
X128650Y82950D01*
X128911Y83340D01*
X129003Y83800D01*
Y100463D01*
X128911Y100923D01*
X128650Y101313D01*
X129084Y101716D01*
X132050Y98749D01*
X132001Y98500D01*
X132153Y97735D01*
X132587Y97087D01*
X133235Y96653D01*
X134000Y96501D01*
X134765Y96653D01*
X135414Y97087D01*
X135847Y97735D01*
X135999Y98500D01*
X135847Y99265D01*
X135414Y99914D01*
X134765Y100347D01*
X134000Y100499D01*
X133751Y100450D01*
X128113Y106088D01*
X128151Y106346D01*
X128326Y106688D01*
X147485D01*
X147687Y106386D01*
X148335Y105953D01*
X149100Y105801D01*
X149865Y105953D01*
X150514Y106386D01*
X150947Y107035D01*
X151099Y107800D01*
X150947Y108565D01*
X150514Y109213D01*
X150238Y109397D01*
X150420Y109997D01*
X151478D01*
X151886Y109387D01*
X152535Y108953D01*
X153300Y108801D01*
X154065Y108953D01*
X154713Y109387D01*
X155147Y110035D01*
X155299Y110800D01*
X155274Y110925D01*
X155754Y111590D01*
X155893Y111607D01*
X157966Y109533D01*
D02*
G37*
G36*
X142900Y109693D02*
X142632Y109093D01*
X0D01*
Y109997D01*
X142658D01*
X142900Y109693D01*
D02*
G37*
G36*
X36142Y103543D02*
X13346Y80747D01*
X0D01*
Y89066D01*
X27Y89647D01*
X1129Y89793D01*
X2156Y90218D01*
X3039Y90895D01*
X3715Y91777D01*
X4141Y92804D01*
X4286Y93907D01*
X4141Y95009D01*
X3715Y96036D01*
X3039Y96919D01*
X2156Y97596D01*
X2154Y97597D01*
X2139Y97608D01*
X1110Y98034D01*
X6Y98179D01*
X0Y98185D01*
Y103538D01*
X9978D01*
X10062Y103502D01*
X10135Y103453D01*
X10208Y103439D01*
X10406Y103353D01*
X10447Y102754D01*
X9949Y102655D01*
X9228Y102173D01*
X8745Y101451D01*
X8676Y101100D01*
X12924D01*
X12855Y101451D01*
X12372Y102173D01*
X11651Y102655D01*
X11188Y102747D01*
Y103358D01*
X11665Y103453D01*
X12314Y103886D01*
X12454Y104097D01*
X35913D01*
X36142Y103543D01*
D02*
G37*
G36*
X46833Y43096D02*
X46267Y42662D01*
X45669Y41882D01*
X45293Y40974D01*
X45165Y40000D01*
X45293Y39026D01*
X45669Y38118D01*
X46267Y37338D01*
X47047Y36740D01*
X47955Y36364D01*
X48929Y36235D01*
X49904Y36364D01*
X50583Y36645D01*
X62471Y24757D01*
X62242Y24203D01*
X56427D01*
X42284Y38346D01*
X42565Y39026D01*
X42694Y40000D01*
X42565Y40974D01*
X42189Y41882D01*
X41591Y42662D01*
X41026Y43096D01*
X41229Y43696D01*
X46629D01*
X46833Y43096D01*
D02*
G37*
G36*
X93550Y82850D02*
X93940Y82589D01*
X94400Y82497D01*
X102120D01*
Y81757D01*
X101989Y81560D01*
X101897Y81100D01*
Y70880D01*
X95521D01*
Y65320D01*
X97597D01*
Y61102D01*
X97216Y60944D01*
X96559Y60441D01*
X96056Y59784D01*
X95739Y59020D01*
X95631Y58200D01*
X95739Y57380D01*
X96056Y56616D01*
X96559Y55959D01*
X97216Y55456D01*
X97980Y55139D01*
X98800Y55031D01*
X99620Y55139D01*
X100384Y55456D01*
X101041Y55959D01*
X101544Y56616D01*
X101861Y57380D01*
X101969Y58200D01*
X101861Y59020D01*
X101544Y59784D01*
X101041Y60441D01*
X100384Y60944D01*
X100003Y61102D01*
Y65320D01*
X102079D01*
Y66471D01*
X102680Y66720D01*
X104021Y65379D01*
Y61520D01*
X107988D01*
X108472Y60925D01*
Y52773D01*
X101800Y46101D01*
X0D01*
Y46845D01*
X77748D01*
X78208Y46937D01*
X78598Y47198D01*
X84850Y53450D01*
X85111Y53840D01*
X85203Y54300D01*
Y57107D01*
X85803Y57227D01*
X86056Y56616D01*
X86559Y55959D01*
X87216Y55456D01*
X87980Y55139D01*
X88800Y55031D01*
X89620Y55139D01*
X90384Y55456D01*
X91041Y55959D01*
X91544Y56616D01*
X91861Y57380D01*
X91969Y58200D01*
X91861Y59020D01*
X91544Y59784D01*
X91041Y60441D01*
X90384Y60944D01*
X90003Y61102D01*
Y62520D01*
X91430D01*
Y67580D01*
X86757D01*
X86515Y68132D01*
X86823Y68520D01*
X91430D01*
Y73580D01*
X86370D01*
Y71571D01*
X83150Y68350D01*
X82889Y67960D01*
X82797Y67500D01*
Y54798D01*
X77250Y49251D01*
X0D01*
Y49995D01*
X70698D01*
X71158Y50086D01*
X71548Y50347D01*
X74750Y53550D01*
X75011Y53940D01*
X75103Y54400D01*
Y57618D01*
X75703Y57657D01*
X75739Y57380D01*
X76056Y56616D01*
X76559Y55959D01*
X77216Y55456D01*
X77980Y55139D01*
X78800Y55031D01*
X79620Y55139D01*
X80384Y55456D01*
X81041Y55959D01*
X81544Y56616D01*
X81861Y57380D01*
X81969Y58200D01*
X81861Y59020D01*
X81544Y59784D01*
X81041Y60441D01*
X80384Y60944D01*
X80003Y61102D01*
Y62520D01*
X81429D01*
Y67580D01*
X76529D01*
X76217Y68116D01*
X76621Y68520D01*
X81429D01*
Y73580D01*
X76371D01*
Y71671D01*
X73050Y68350D01*
X72789Y67960D01*
X72697Y67500D01*
Y54898D01*
X70200Y52400D01*
X0D01*
Y53145D01*
X62647D01*
X63107Y53236D01*
X63498Y53497D01*
X64650Y54650D01*
X64911Y55040D01*
X65003Y55500D01*
Y66902D01*
X65834Y67733D01*
X66370Y67421D01*
X66370Y67045D01*
Y62520D01*
X67597D01*
Y61102D01*
X67216Y60944D01*
X66559Y60441D01*
X66056Y59784D01*
X65739Y59020D01*
X65631Y58200D01*
X65739Y57380D01*
X66056Y56616D01*
X66559Y55959D01*
X67216Y55456D01*
X67980Y55139D01*
X68800Y55031D01*
X69620Y55139D01*
X70384Y55456D01*
X71041Y55959D01*
X71544Y56616D01*
X71861Y57380D01*
X71969Y58200D01*
X71861Y59020D01*
X71544Y59784D01*
X71041Y60441D01*
X70384Y60944D01*
X70003Y61102D01*
Y62520D01*
X71430D01*
Y67580D01*
X66947D01*
X66529Y67580D01*
X66217Y68116D01*
X66621Y68520D01*
X71430D01*
Y73580D01*
X66370D01*
Y71671D01*
X62950Y68250D01*
X62689Y67860D01*
X62597Y67400D01*
Y55998D01*
X62149Y55550D01*
X61440D01*
X61187Y56150D01*
X61544Y56616D01*
X61861Y57380D01*
X61969Y58200D01*
X61861Y59020D01*
X61544Y59784D01*
X61041Y60441D01*
X60384Y60944D01*
X60003Y61102D01*
Y62520D01*
X61430D01*
Y67580D01*
X56371D01*
Y62520D01*
X57597D01*
Y61102D01*
X57216Y60944D01*
X56559Y60441D01*
X56056Y59784D01*
X55739Y59020D01*
X55631Y58200D01*
X55739Y57380D01*
X56056Y56616D01*
X56413Y56150D01*
X56160Y55550D01*
X51942D01*
Y61342D01*
X50003D01*
Y62520D01*
X51429D01*
Y67580D01*
X46371D01*
Y62520D01*
X47597D01*
Y61342D01*
X45658D01*
Y55550D01*
X0D01*
Y56294D01*
X13897D01*
X14357Y56386D01*
X14747Y56646D01*
X27948Y69847D01*
X46371D01*
Y68520D01*
X51429D01*
Y73197D01*
X55052D01*
X56371Y71879D01*
Y68520D01*
X61430D01*
Y73580D01*
X58071D01*
X57408Y74243D01*
X57637Y74797D01*
X82700D01*
X83160Y74889D01*
X83550Y75150D01*
X90050Y81650D01*
X90311Y82040D01*
X90377Y82371D01*
X91729D01*
Y83821D01*
X92330Y84070D01*
X93550Y82850D01*
D02*
G37*
G36*
X46296Y100097D02*
X46056Y99784D01*
X45739Y99020D01*
X45631Y98200D01*
X45739Y97380D01*
X46056Y96616D01*
X46559Y95959D01*
X47216Y95456D01*
X47980Y95139D01*
X48800Y95031D01*
X48941Y95050D01*
X49397Y94630D01*
Y90630D01*
X47120D01*
Y89479D01*
X46521Y89230D01*
X45180Y90571D01*
Y94429D01*
X39621D01*
Y93909D01*
X39329Y93429D01*
X34271D01*
Y92503D01*
X32452D01*
X32203Y93103D01*
X39798Y100697D01*
X46000D01*
X46296Y100097D01*
D02*
G37*
G36*
X34271Y88371D02*
X39329D01*
Y88391D01*
X39621Y88871D01*
X43479D01*
X44797Y87552D01*
Y86930D01*
X39621D01*
X39329Y87409D01*
Y87429D01*
X34271D01*
Y82371D01*
X39329D01*
X39621Y81891D01*
Y81371D01*
X45180D01*
Y83036D01*
X45734Y83265D01*
X46650Y82350D01*
X47040Y82089D01*
X47500Y81997D01*
X51947D01*
X51948Y81998D01*
X52244Y81445D01*
X51202Y80403D01*
X23552D01*
X23303Y81003D01*
X32398Y90097D01*
X34271D01*
Y88371D01*
D02*
G37*
G36*
X86671Y86389D02*
Y82371D01*
X86671D01*
X86875Y81876D01*
X82202Y77203D01*
X59887D01*
X59658Y77757D01*
X64571Y82670D01*
X67930D01*
Y85389D01*
X68484Y85618D01*
X70953Y83150D01*
X71343Y82889D01*
X71803Y82797D01*
X79220D01*
Y81420D01*
X84780D01*
Y85279D01*
X86071Y86570D01*
X86671Y86389D01*
D02*
G37*
G36*
X56296Y100097D02*
X56056Y99784D01*
X55739Y99020D01*
X55631Y98200D01*
X55739Y97380D01*
X56056Y96616D01*
X56559Y95959D01*
X56997Y95623D01*
Y93784D01*
X55770D01*
Y89381D01*
X55445Y89316D01*
X55054Y89055D01*
X54280Y88280D01*
X53680Y88529D01*
Y90630D01*
X51803D01*
Y95200D01*
X51711Y95660D01*
X51450Y96050D01*
X51258Y96243D01*
X51544Y96616D01*
X51861Y97380D01*
X51969Y98200D01*
X51861Y99020D01*
X51544Y99784D01*
X51304Y100097D01*
X51600Y100697D01*
X56000D01*
X56296Y100097D01*
D02*
G37*
%LPC*%
G36*
X213700Y53324D02*
Y51700D01*
X215324D01*
X215255Y52051D01*
X214773Y52772D01*
X214051Y53254D01*
X213700Y53324D01*
D02*
G37*
G36*
X127200Y53800D02*
X125576D01*
X125645Y53449D01*
X126128Y52728D01*
X126849Y52245D01*
X127200Y52176D01*
Y53800D01*
D02*
G37*
G36*
X212700Y53324D02*
X212349Y53254D01*
X211628Y52772D01*
X211145Y52051D01*
X211076Y51700D01*
X212700D01*
Y53324D01*
D02*
G37*
G36*
X105324Y52500D02*
X103700D01*
Y50876D01*
X104051Y50945D01*
X104772Y51428D01*
X105254Y52149D01*
X105324Y52500D01*
D02*
G37*
G36*
X102700D02*
X101076D01*
X101146Y52149D01*
X101628Y51428D01*
X102349Y50945D01*
X102700Y50876D01*
Y52500D01*
D02*
G37*
G36*
X192324Y52800D02*
X190700D01*
Y51176D01*
X191051Y51245D01*
X191772Y51727D01*
X192254Y52449D01*
X192324Y52800D01*
D02*
G37*
G36*
X189700D02*
X188076D01*
X188145Y52449D01*
X188628Y51727D01*
X189349Y51245D01*
X189700Y51176D01*
Y52800D01*
D02*
G37*
G36*
X117224Y55000D02*
X115600D01*
Y53376D01*
X115951Y53446D01*
X116673Y53927D01*
X117155Y54649D01*
X117224Y55000D01*
D02*
G37*
G36*
X102700Y55124D02*
X102349Y55054D01*
X101628Y54572D01*
X101146Y53851D01*
X101076Y53500D01*
X102700D01*
Y55124D01*
D02*
G37*
G36*
X103700D02*
Y53500D01*
X105324D01*
X105254Y53851D01*
X104772Y54572D01*
X104051Y55054D01*
X103700Y55124D01*
D02*
G37*
G36*
X114600Y55000D02*
X112976D01*
X113046Y54649D01*
X113528Y53927D01*
X114249Y53446D01*
X114600Y53376D01*
Y55000D01*
D02*
G37*
G36*
X129824Y53800D02*
X128200D01*
Y52176D01*
X128551Y52245D01*
X129272Y52728D01*
X129754Y53449D01*
X129824Y53800D01*
D02*
G37*
G36*
X129100Y76600D02*
X127476D01*
X127545Y76249D01*
X128027Y75528D01*
X128749Y75046D01*
X129100Y74976D01*
Y76600D01*
D02*
G37*
G36*
X124000Y74824D02*
Y73200D01*
X125624D01*
X125555Y73551D01*
X125073Y74273D01*
X124351Y74755D01*
X124000Y74824D01*
D02*
G37*
G36*
X172600Y46100D02*
X170976D01*
X171045Y45749D01*
X171528Y45028D01*
X172249Y44545D01*
X172600Y44476D01*
Y46100D01*
D02*
G37*
G36*
X175224D02*
X173600D01*
Y44476D01*
X173951Y44545D01*
X174672Y45028D01*
X175154Y45749D01*
X175224Y46100D01*
D02*
G37*
G36*
X196100Y48400D02*
X194476D01*
X194545Y48049D01*
X195027Y47328D01*
X195749Y46845D01*
X196100Y46776D01*
Y48400D01*
D02*
G37*
G36*
X133900Y43921D02*
Y40500D01*
X137321D01*
X137251Y41032D01*
X136853Y41993D01*
X136219Y42819D01*
X135393Y43453D01*
X134432Y43851D01*
X133900Y43921D01*
D02*
G37*
G36*
X177400Y40324D02*
X177049Y40255D01*
X176328Y39772D01*
X175846Y39051D01*
X175776Y38700D01*
X177400D01*
Y40324D01*
D02*
G37*
G36*
X178400D02*
Y38700D01*
X180024D01*
X179955Y39051D01*
X179472Y39772D01*
X178751Y40255D01*
X178400Y40324D01*
D02*
G37*
G36*
X132900Y43921D02*
X132368Y43851D01*
X131407Y43453D01*
X130581Y42819D01*
X129947Y41993D01*
X129549Y41032D01*
X129479Y40500D01*
X132900D01*
Y43921D01*
D02*
G37*
G36*
X215324Y50700D02*
X213700D01*
Y49076D01*
X214051Y49145D01*
X214773Y49628D01*
X215255Y50349D01*
X215324Y50700D01*
D02*
G37*
G36*
X196100Y51024D02*
X195749Y50955D01*
X195027Y50472D01*
X194545Y49751D01*
X194476Y49400D01*
X196100D01*
Y51024D01*
D02*
G37*
G36*
X197100D02*
Y49400D01*
X198724D01*
X198654Y49751D01*
X198172Y50472D01*
X197451Y50955D01*
X197100Y51024D01*
D02*
G37*
G36*
X212700Y50700D02*
X211076D01*
X211145Y50349D01*
X211628Y49628D01*
X212349Y49145D01*
X212700Y49076D01*
Y50700D01*
D02*
G37*
G36*
X198724Y48400D02*
X197100D01*
Y46776D01*
X197451Y46845D01*
X198172Y47328D01*
X198654Y48049D01*
X198724Y48400D01*
D02*
G37*
G36*
X172600Y48724D02*
X172249Y48655D01*
X171528Y48173D01*
X171045Y47451D01*
X170976Y47100D01*
X172600D01*
Y48724D01*
D02*
G37*
G36*
X173600D02*
Y47100D01*
X175224D01*
X175154Y47451D01*
X174672Y48173D01*
X173951Y48655D01*
X173600Y48724D01*
D02*
G37*
G36*
X189700Y55424D02*
X189349Y55354D01*
X188628Y54873D01*
X188145Y54151D01*
X188076Y53800D01*
X189700D01*
Y55424D01*
D02*
G37*
G36*
X202524Y68000D02*
X200900D01*
Y66376D01*
X201251Y66445D01*
X201973Y66927D01*
X202454Y67649D01*
X202524Y68000D01*
D02*
G37*
G36*
X185500Y68224D02*
X185149Y68155D01*
X184427Y67672D01*
X183946Y66951D01*
X183876Y66600D01*
X185500D01*
Y68224D01*
D02*
G37*
G36*
X191500Y71224D02*
X191149Y71154D01*
X190427Y70673D01*
X189945Y69951D01*
X189876Y69600D01*
X191500D01*
Y71224D01*
D02*
G37*
G36*
X192500D02*
Y69600D01*
X194124D01*
X194054Y69951D01*
X193572Y70673D01*
X192851Y71154D01*
X192500Y71224D01*
D02*
G37*
G36*
X130000Y66300D02*
X128376D01*
X128445Y65949D01*
X128928Y65228D01*
X129649Y64745D01*
X130000Y64676D01*
Y66300D01*
D02*
G37*
G36*
X132624D02*
X131000D01*
Y64676D01*
X131351Y64745D01*
X132072Y65228D01*
X132554Y65949D01*
X132624Y66300D01*
D02*
G37*
G36*
X199900Y68000D02*
X198276D01*
X198345Y67649D01*
X198828Y66927D01*
X199549Y66445D01*
X199900Y66376D01*
Y68000D01*
D02*
G37*
G36*
X131000Y68924D02*
Y67300D01*
X132624D01*
X132554Y67651D01*
X132072Y68372D01*
X131351Y68854D01*
X131000Y68924D01*
D02*
G37*
G36*
X199900Y70624D02*
X199549Y70555D01*
X198828Y70073D01*
X198345Y69351D01*
X198276Y69000D01*
X199900D01*
Y70624D01*
D02*
G37*
G36*
X200900D02*
Y69000D01*
X202524D01*
X202454Y69351D01*
X201973Y70073D01*
X201251Y70555D01*
X200900Y70624D01*
D02*
G37*
G36*
X130000Y68924D02*
X129649Y68854D01*
X128928Y68372D01*
X128445Y67651D01*
X128376Y67300D01*
X130000D01*
Y68924D01*
D02*
G37*
G36*
X186500Y68224D02*
Y66600D01*
X188124D01*
X188055Y66951D01*
X187573Y67672D01*
X186851Y68155D01*
X186500Y68224D01*
D02*
G37*
G36*
X191500Y68600D02*
X189876D01*
X189945Y68249D01*
X190427Y67528D01*
X191149Y67045D01*
X191500Y66976D01*
Y68600D01*
D02*
G37*
G36*
X194124D02*
X192500D01*
Y66976D01*
X192851Y67045D01*
X193572Y67528D01*
X194054Y68249D01*
X194124Y68600D01*
D02*
G37*
G36*
X125624Y72200D02*
X124000D01*
Y70576D01*
X124351Y70645D01*
X125073Y71127D01*
X125555Y71849D01*
X125624Y72200D01*
D02*
G37*
G36*
X120900Y57000D02*
X119276D01*
X119345Y56649D01*
X119827Y55927D01*
X120549Y55445D01*
X120900Y55376D01*
Y57000D01*
D02*
G37*
G36*
X123000Y72200D02*
X121376D01*
X121446Y71849D01*
X121927Y71127D01*
X122649Y70645D01*
X123000Y70576D01*
Y72200D01*
D02*
G37*
G36*
X128200Y56424D02*
Y54800D01*
X129824D01*
X129754Y55151D01*
X129272Y55872D01*
X128551Y56354D01*
X128200Y56424D01*
D02*
G37*
G36*
X123000Y74824D02*
X122649Y74755D01*
X121927Y74273D01*
X121446Y73551D01*
X121376Y73200D01*
X123000D01*
Y74824D01*
D02*
G37*
G36*
X190700Y55424D02*
Y53800D01*
X192324D01*
X192254Y54151D01*
X191772Y54873D01*
X191051Y55354D01*
X190700Y55424D01*
D02*
G37*
G36*
X127200Y56424D02*
X126849Y56354D01*
X126128Y55872D01*
X125645Y55151D01*
X125576Y54800D01*
X127200D01*
Y56424D01*
D02*
G37*
G36*
X121900Y59624D02*
Y58000D01*
X123524D01*
X123454Y58351D01*
X122973Y59073D01*
X122251Y59554D01*
X121900Y59624D01*
D02*
G37*
G36*
X185500Y65600D02*
X183876D01*
X183946Y65249D01*
X184427Y64527D01*
X185149Y64046D01*
X185500Y63976D01*
Y65600D01*
D02*
G37*
G36*
X188124D02*
X186500D01*
Y63976D01*
X186851Y64046D01*
X187573Y64527D01*
X188055Y65249D01*
X188124Y65600D01*
D02*
G37*
G36*
X120900Y59624D02*
X120549Y59554D01*
X119827Y59073D01*
X119345Y58351D01*
X119276Y58000D01*
X120900D01*
Y59624D01*
D02*
G37*
G36*
X123524Y57000D02*
X121900D01*
Y55376D01*
X122251Y55445D01*
X122973Y55927D01*
X123454Y56649D01*
X123524Y57000D01*
D02*
G37*
G36*
X114600Y57624D02*
X114249Y57555D01*
X113528Y57073D01*
X113046Y56351D01*
X112976Y56000D01*
X114600D01*
Y57624D01*
D02*
G37*
G36*
X115600D02*
Y56000D01*
X117224D01*
X117155Y56351D01*
X116673Y57073D01*
X115951Y57555D01*
X115600Y57624D01*
D02*
G37*
G36*
X75700Y19424D02*
X75349Y19355D01*
X74628Y18872D01*
X74146Y18151D01*
X74076Y17800D01*
X75700D01*
Y19424D01*
D02*
G37*
G36*
X183643Y22856D02*
X182874Y22755D01*
X182158Y22458D01*
X181542Y21986D01*
X181070Y21371D01*
X180773Y20654D01*
X180672Y19886D01*
X180773Y19117D01*
X181070Y18401D01*
X181542Y17785D01*
X182158Y17313D01*
X182874Y17017D01*
X183643Y16915D01*
X184411Y17017D01*
X185128Y17313D01*
X185743Y17785D01*
X186215Y18401D01*
X186512Y19117D01*
X186613Y19886D01*
X186512Y20654D01*
X186215Y21371D01*
X185743Y21986D01*
X185128Y22458D01*
X184411Y22755D01*
X183643Y22856D01*
D02*
G37*
G36*
X53700Y20924D02*
X53349Y20855D01*
X52627Y20372D01*
X52145Y19651D01*
X52076Y19300D01*
X53700D01*
Y20924D01*
D02*
G37*
G36*
X76700Y19424D02*
Y17800D01*
X78324D01*
X78254Y18151D01*
X77772Y18872D01*
X77051Y19355D01*
X76700Y19424D01*
D02*
G37*
G36*
X56324Y18300D02*
X54700D01*
Y16676D01*
X55051Y16745D01*
X55773Y17228D01*
X56255Y17949D01*
X56324Y18300D01*
D02*
G37*
G36*
X53700D02*
X52076D01*
X52145Y17949D01*
X52627Y17228D01*
X53349Y16745D01*
X53700Y16676D01*
Y18300D01*
D02*
G37*
G36*
X42324Y18400D02*
X40700D01*
Y16776D01*
X41051Y16845D01*
X41772Y17327D01*
X42255Y18049D01*
X42324Y18400D01*
D02*
G37*
G36*
X39700D02*
X38076D01*
X38145Y18049D01*
X38627Y17327D01*
X39349Y16845D01*
X39700Y16776D01*
Y18400D01*
D02*
G37*
G36*
X54700Y20924D02*
Y19300D01*
X56324D01*
X56255Y19651D01*
X55773Y20372D01*
X55051Y20855D01*
X54700Y20924D01*
D02*
G37*
G36*
X190424Y25200D02*
X188800D01*
Y23576D01*
X189151Y23645D01*
X189873Y24127D01*
X190355Y24849D01*
X190424Y25200D01*
D02*
G37*
G36*
X187800D02*
X186176D01*
X186246Y24849D01*
X186727Y24127D01*
X187449Y23645D01*
X187800Y23576D01*
Y25200D01*
D02*
G37*
G36*
X38624Y25600D02*
X37000D01*
Y23976D01*
X37351Y24045D01*
X38072Y24528D01*
X38555Y25249D01*
X38624Y25600D01*
D02*
G37*
G36*
X36000D02*
X34376D01*
X34445Y25249D01*
X34927Y24528D01*
X35649Y24045D01*
X36000Y23976D01*
Y25600D01*
D02*
G37*
G36*
X40700Y21024D02*
Y19400D01*
X42324D01*
X42255Y19751D01*
X41772Y20472D01*
X41051Y20955D01*
X40700Y21024D01*
D02*
G37*
G36*
X39700D02*
X39349Y20955D01*
X38627Y20472D01*
X38145Y19751D01*
X38076Y19400D01*
X39700D01*
Y21024D01*
D02*
G37*
G36*
X219924Y24600D02*
X218300D01*
Y22976D01*
X218651Y23045D01*
X219373Y23528D01*
X219855Y24249D01*
X219924Y24600D01*
D02*
G37*
G36*
X217300D02*
X215676D01*
X215745Y24249D01*
X216228Y23528D01*
X216949Y23045D01*
X217300Y22976D01*
Y24600D01*
D02*
G37*
G36*
X198600Y8000D02*
X196976D01*
X197046Y7649D01*
X197528Y6927D01*
X198249Y6445D01*
X198600Y6376D01*
Y8000D01*
D02*
G37*
G36*
X211200Y20513D02*
X209812Y20376D01*
X208478Y19972D01*
X207248Y19314D01*
X206170Y18430D01*
X205286Y17352D01*
X204628Y16122D01*
X204224Y14788D01*
X204087Y13400D01*
X204224Y12012D01*
X204628Y10678D01*
X205286Y9448D01*
X206170Y8370D01*
X207248Y7486D01*
X208478Y6828D01*
X209812Y6424D01*
X211200Y6287D01*
X212588Y6424D01*
X213922Y6828D01*
X215152Y7486D01*
X216230Y8370D01*
X217114Y9448D01*
X217772Y10678D01*
X218176Y12012D01*
X218313Y13400D01*
X218176Y14788D01*
X217772Y16122D01*
X217114Y17352D01*
X216230Y18430D01*
X215152Y19314D01*
X213922Y19972D01*
X212588Y20376D01*
X211200Y20513D01*
D02*
G37*
G36*
X6600Y9924D02*
X6249Y9855D01*
X5528Y9373D01*
X5046Y8651D01*
X4976Y8300D01*
X6600D01*
Y9924D01*
D02*
G37*
G36*
X201224Y8000D02*
X199600D01*
Y6376D01*
X199951Y6445D01*
X200673Y6927D01*
X201154Y7649D01*
X201224Y8000D01*
D02*
G37*
G36*
X21400Y5124D02*
Y3500D01*
X23024D01*
X22955Y3851D01*
X22472Y4572D01*
X21751Y5054D01*
X21400Y5124D01*
D02*
G37*
G36*
X20400D02*
X20049Y5054D01*
X19328Y4572D01*
X18845Y3851D01*
X18776Y3500D01*
X20400D01*
Y5124D01*
D02*
G37*
G36*
X9224Y7300D02*
X7600D01*
Y5676D01*
X7951Y5745D01*
X8672Y6227D01*
X9155Y6949D01*
X9224Y7300D01*
D02*
G37*
G36*
X6600D02*
X4976D01*
X5046Y6949D01*
X5528Y6227D01*
X6249Y5745D01*
X6600Y5676D01*
Y7300D01*
D02*
G37*
G36*
X7600Y9924D02*
Y8300D01*
X9224D01*
X9155Y8651D01*
X8672Y9373D01*
X7951Y9855D01*
X7600Y9924D01*
D02*
G37*
G36*
X78324Y16800D02*
X76700D01*
Y15176D01*
X77051Y15245D01*
X77772Y15728D01*
X78254Y16449D01*
X78324Y16800D01*
D02*
G37*
G36*
X75700D02*
X74076D01*
X74146Y16449D01*
X74628Y15728D01*
X75349Y15245D01*
X75700Y15176D01*
Y16800D01*
D02*
G37*
G36*
X65700Y17424D02*
Y15800D01*
X67324D01*
X67255Y16151D01*
X66773Y16872D01*
X66051Y17355D01*
X65700Y17424D01*
D02*
G37*
G36*
X64700D02*
X64349Y17355D01*
X63627Y16872D01*
X63146Y16151D01*
X63076Y15800D01*
X64700D01*
Y17424D01*
D02*
G37*
G36*
X199600Y10624D02*
Y9000D01*
X201224D01*
X201154Y9351D01*
X200673Y10073D01*
X199951Y10555D01*
X199600Y10624D01*
D02*
G37*
G36*
X198600D02*
X198249Y10555D01*
X197528Y10073D01*
X197046Y9351D01*
X196976Y9000D01*
X198600D01*
Y10624D01*
D02*
G37*
G36*
X67324Y14800D02*
X65700D01*
Y13176D01*
X66051Y13245D01*
X66773Y13727D01*
X67255Y14449D01*
X67324Y14800D01*
D02*
G37*
G36*
X64700D02*
X63076D01*
X63146Y14449D01*
X63627Y13727D01*
X64349Y13245D01*
X64700Y13176D01*
Y14800D01*
D02*
G37*
G36*
X217300Y27224D02*
X216949Y27155D01*
X216228Y26673D01*
X215745Y25951D01*
X215676Y25600D01*
X217300D01*
Y27224D01*
D02*
G37*
G36*
X141600Y32724D02*
X141249Y32655D01*
X140527Y32173D01*
X140045Y31451D01*
X139976Y31100D01*
X141600D01*
Y32724D01*
D02*
G37*
G36*
X132200Y31924D02*
Y30300D01*
X133824D01*
X133755Y30651D01*
X133273Y31372D01*
X132551Y31855D01*
X132200Y31924D01*
D02*
G37*
G36*
X22900Y33624D02*
X22549Y33555D01*
X21827Y33073D01*
X21345Y32351D01*
X21276Y32000D01*
X22900D01*
Y33624D01*
D02*
G37*
G36*
X142600Y32724D02*
Y31100D01*
X144224D01*
X144155Y31451D01*
X143673Y32173D01*
X142951Y32655D01*
X142600Y32724D01*
D02*
G37*
G36*
X22900Y31000D02*
X21276D01*
X21345Y30649D01*
X21827Y29928D01*
X22549Y29445D01*
X22900Y29376D01*
Y31000D01*
D02*
G37*
G36*
X70000Y30924D02*
Y29300D01*
X71624D01*
X71554Y29651D01*
X71073Y30373D01*
X70351Y30855D01*
X70000Y30924D01*
D02*
G37*
G36*
X131200Y31924D02*
X130849Y31855D01*
X130128Y31372D01*
X129646Y30651D01*
X129576Y30300D01*
X131200D01*
Y31924D01*
D02*
G37*
G36*
X25524Y31000D02*
X23900D01*
Y29376D01*
X24251Y29445D01*
X24972Y29928D01*
X25455Y30649D01*
X25524Y31000D01*
D02*
G37*
G36*
X23900Y33624D02*
Y32000D01*
X25524D01*
X25455Y32351D01*
X24972Y33073D01*
X24251Y33555D01*
X23900Y33624D01*
D02*
G37*
G36*
X137321Y39500D02*
X133900D01*
Y36079D01*
X134432Y36149D01*
X135393Y36547D01*
X136219Y37181D01*
X136853Y38007D01*
X137251Y38968D01*
X137321Y39500D01*
D02*
G37*
G36*
X132900D02*
X129479D01*
X129549Y38968D01*
X129947Y38007D01*
X130581Y37181D01*
X131407Y36547D01*
X132368Y36149D01*
X132900Y36079D01*
Y39500D01*
D02*
G37*
G36*
X123400Y43764D02*
X122426Y43636D01*
X121518Y43260D01*
X120738Y42662D01*
X120140Y41882D01*
X119764Y40974D01*
X119635Y40000D01*
X119764Y39026D01*
X120140Y38118D01*
X120738Y37338D01*
X121518Y36740D01*
X122426Y36364D01*
X123400Y36235D01*
X124374Y36364D01*
X125282Y36740D01*
X126062Y37338D01*
X126660Y38118D01*
X127036Y39026D01*
X127164Y40000D01*
X127036Y40974D01*
X126660Y41882D01*
X126062Y42662D01*
X125282Y43260D01*
X124374Y43636D01*
X123400Y43764D01*
D02*
G37*
G36*
X113400D02*
X112426Y43636D01*
X111518Y43260D01*
X110738Y42662D01*
X110140Y41882D01*
X109764Y40974D01*
X109635Y40000D01*
X109764Y39026D01*
X110140Y38118D01*
X110738Y37338D01*
X111518Y36740D01*
X112426Y36364D01*
X113400Y36235D01*
X114374Y36364D01*
X115282Y36740D01*
X116062Y37338D01*
X116660Y38118D01*
X117036Y39026D01*
X117165Y40000D01*
X117036Y40974D01*
X116660Y41882D01*
X116062Y42662D01*
X115282Y43260D01*
X114374Y43636D01*
X113400Y43764D01*
D02*
G37*
G36*
X180024Y37700D02*
X178400D01*
Y36076D01*
X178751Y36145D01*
X179472Y36628D01*
X179955Y37349D01*
X180024Y37700D01*
D02*
G37*
G36*
X177400D02*
X175776D01*
X175846Y37349D01*
X176328Y36628D01*
X177049Y36145D01*
X177400Y36076D01*
Y37700D01*
D02*
G37*
G36*
X62850Y39500D02*
X59429D01*
Y36079D01*
X59961Y36149D01*
X60923Y36547D01*
X61748Y37181D01*
X62382Y38007D01*
X62780Y38968D01*
X62850Y39500D01*
D02*
G37*
G36*
X58429D02*
X55008D01*
X55078Y38968D01*
X55476Y38007D01*
X56110Y37181D01*
X56936Y36547D01*
X57897Y36149D01*
X58429Y36079D01*
Y39500D01*
D02*
G37*
G36*
X36000Y28224D02*
X35649Y28155D01*
X34927Y27672D01*
X34445Y26951D01*
X34376Y26600D01*
X36000D01*
Y28224D01*
D02*
G37*
G36*
X188800Y27824D02*
Y26200D01*
X190424D01*
X190355Y26551D01*
X189873Y27272D01*
X189151Y27755D01*
X188800Y27824D01*
D02*
G37*
G36*
X69000Y28300D02*
X67376D01*
X67445Y27949D01*
X67927Y27228D01*
X68649Y26745D01*
X69000Y26676D01*
Y28300D01*
D02*
G37*
G36*
X37000Y28224D02*
Y26600D01*
X38624D01*
X38555Y26951D01*
X38072Y27672D01*
X37351Y28155D01*
X37000Y28224D01*
D02*
G37*
G36*
X201200Y27500D02*
X199576D01*
X199645Y27149D01*
X200128Y26428D01*
X200849Y25945D01*
X201200Y25876D01*
Y27500D01*
D02*
G37*
G36*
X218300Y27224D02*
Y25600D01*
X219924D01*
X219855Y25951D01*
X219373Y26673D01*
X218651Y27155D01*
X218300Y27224D01*
D02*
G37*
G36*
X187800Y27824D02*
X187449Y27755D01*
X186727Y27272D01*
X186246Y26551D01*
X186176Y26200D01*
X187800D01*
Y27824D01*
D02*
G37*
G36*
X203824Y27500D02*
X202200D01*
Y25876D01*
X202551Y25945D01*
X203273Y26428D01*
X203754Y27149D01*
X203824Y27500D01*
D02*
G37*
G36*
X71624Y28300D02*
X70000D01*
Y26676D01*
X70351Y26745D01*
X71073Y27228D01*
X71554Y27949D01*
X71624Y28300D01*
D02*
G37*
G36*
X201200Y30124D02*
X200849Y30055D01*
X200128Y29572D01*
X199645Y28851D01*
X199576Y28500D01*
X201200D01*
Y30124D01*
D02*
G37*
G36*
X144224Y30100D02*
X142600D01*
Y28476D01*
X142951Y28545D01*
X143673Y29028D01*
X144155Y29749D01*
X144224Y30100D01*
D02*
G37*
G36*
X69000Y30924D02*
X68649Y30855D01*
X67927Y30373D01*
X67445Y29651D01*
X67376Y29300D01*
X69000D01*
Y30924D01*
D02*
G37*
G36*
X202200Y30124D02*
Y28500D01*
X203824D01*
X203754Y28851D01*
X203273Y29572D01*
X202551Y30055D01*
X202200Y30124D01*
D02*
G37*
G36*
X133824Y29300D02*
X132200D01*
Y27676D01*
X132551Y27745D01*
X133273Y28227D01*
X133755Y28949D01*
X133824Y29300D01*
D02*
G37*
G36*
X131200D02*
X129576D01*
X129646Y28949D01*
X130128Y28227D01*
X130849Y27745D01*
X131200Y27676D01*
Y29300D01*
D02*
G37*
G36*
X141600Y30100D02*
X139976D01*
X140045Y29749D01*
X140527Y29028D01*
X141249Y28545D01*
X141600Y28476D01*
Y30100D01*
D02*
G37*
G36*
X173064Y32865D02*
X172145Y32682D01*
X171366Y32162D01*
X170846Y31383D01*
X170663Y30464D01*
X170846Y29546D01*
X171366Y28767D01*
X172145Y28247D01*
X173064Y28064D01*
X173982Y28247D01*
X174761Y28767D01*
X175282Y29546D01*
X175464Y30464D01*
X175282Y31383D01*
X174761Y32162D01*
X173982Y32682D01*
X173064Y32865D01*
D02*
G37*
G36*
X89505Y141181D02*
X89076Y141125D01*
X88210Y140766D01*
X87467Y140196D01*
X86896Y139452D01*
X86537Y138586D01*
X86481Y138157D01*
X89505D01*
Y141181D01*
D02*
G37*
G36*
X72473D02*
Y138157D01*
X75497D01*
X75441Y138586D01*
X75082Y139452D01*
X74512Y140196D01*
X73768Y140766D01*
X72903Y141125D01*
X72473Y141181D01*
D02*
G37*
G36*
X109800Y142700D02*
X108176D01*
X108246Y142349D01*
X108728Y141628D01*
X109449Y141146D01*
X109800Y141076D01*
Y142700D01*
D02*
G37*
G36*
X90505Y141181D02*
Y138157D01*
X93529D01*
X93472Y138586D01*
X93114Y139452D01*
X92543Y140196D01*
X91800Y140766D01*
X90934Y141125D01*
X90505Y141181D01*
D02*
G37*
G36*
X62458D02*
X62028Y141125D01*
X61163Y140766D01*
X60419Y140196D01*
X59849Y139452D01*
X59490Y138586D01*
X59434Y138157D01*
X62458D01*
Y141181D01*
D02*
G37*
G36*
X54442D02*
Y138157D01*
X57466D01*
X57409Y138586D01*
X57051Y139452D01*
X56480Y140196D01*
X55737Y140766D01*
X54871Y141125D01*
X54442Y141181D01*
D02*
G37*
G36*
X71473D02*
X71044Y141125D01*
X70179Y140766D01*
X69435Y140196D01*
X68865Y139452D01*
X68506Y138586D01*
X68449Y138157D01*
X71473D01*
Y141181D01*
D02*
G37*
G36*
X63458D02*
Y138157D01*
X66482D01*
X66425Y138586D01*
X66066Y139452D01*
X65496Y140196D01*
X64753Y140766D01*
X63887Y141125D01*
X63458Y141181D01*
D02*
G37*
G36*
X76481Y148820D02*
X75610Y148705D01*
X74797Y148369D01*
X74100Y147834D01*
X73565Y147136D01*
X73229Y146324D01*
X73114Y145453D01*
X73229Y144581D01*
X73565Y143769D01*
X74100Y143071D01*
X74797Y142536D01*
X75610Y142200D01*
X76481Y142085D01*
X77353Y142200D01*
X78165Y142536D01*
X78862Y143071D01*
X79397Y143769D01*
X79734Y144581D01*
X79849Y145453D01*
X79734Y146324D01*
X79397Y147136D01*
X78862Y147834D01*
X78165Y148369D01*
X77353Y148705D01*
X76481Y148820D01*
D02*
G37*
G36*
X67465D02*
X66594Y148705D01*
X65782Y148369D01*
X65084Y147834D01*
X64549Y147136D01*
X64213Y146324D01*
X64098Y145453D01*
X64213Y144581D01*
X64549Y143769D01*
X65084Y143071D01*
X65782Y142536D01*
X66594Y142200D01*
X67465Y142085D01*
X68337Y142200D01*
X69149Y142536D01*
X69846Y143071D01*
X70382Y143769D01*
X70718Y144581D01*
X70833Y145453D01*
X70718Y146324D01*
X70382Y147136D01*
X69846Y147834D01*
X69149Y148369D01*
X68337Y148705D01*
X67465Y148820D01*
D02*
G37*
G36*
X94513D02*
X93641Y148705D01*
X92829Y148369D01*
X92132Y147834D01*
X91596Y147136D01*
X91260Y146324D01*
X91145Y145453D01*
X91260Y144581D01*
X91596Y143769D01*
X92132Y143071D01*
X92829Y142536D01*
X93641Y142200D01*
X94513Y142085D01*
X95384Y142200D01*
X96196Y142536D01*
X96894Y143071D01*
X97429Y143769D01*
X97765Y144581D01*
X97880Y145453D01*
X97765Y146324D01*
X97429Y147136D01*
X96894Y147834D01*
X96196Y148369D01*
X95384Y148705D01*
X94513Y148820D01*
D02*
G37*
G36*
X85497D02*
X84626Y148705D01*
X83813Y148369D01*
X83116Y147834D01*
X82581Y147136D01*
X82244Y146324D01*
X82130Y145453D01*
X82244Y144581D01*
X82581Y143769D01*
X83116Y143071D01*
X83813Y142536D01*
X84626Y142200D01*
X85497Y142085D01*
X86369Y142200D01*
X87181Y142536D01*
X87878Y143071D01*
X88413Y143769D01*
X88750Y144581D01*
X88864Y145453D01*
X88750Y146324D01*
X88413Y147136D01*
X87878Y147834D01*
X87181Y148369D01*
X86369Y148705D01*
X85497Y148820D01*
D02*
G37*
G36*
X193500Y142700D02*
X191876D01*
X191946Y142349D01*
X192428Y141628D01*
X193149Y141146D01*
X193500Y141076D01*
Y142700D01*
D02*
G37*
G36*
X112424D02*
X110800D01*
Y141076D01*
X111151Y141146D01*
X111872Y141628D01*
X112355Y142349D01*
X112424Y142700D01*
D02*
G37*
G36*
X58450Y148820D02*
X57578Y148705D01*
X56766Y148369D01*
X56068Y147834D01*
X55533Y147136D01*
X55197Y146324D01*
X55082Y145453D01*
X55197Y144581D01*
X55533Y143769D01*
X56068Y143071D01*
X56766Y142536D01*
X57578Y142200D01*
X58450Y142085D01*
X59321Y142200D01*
X60133Y142536D01*
X60831Y143071D01*
X61366Y143769D01*
X61702Y144581D01*
X61817Y145453D01*
X61702Y146324D01*
X61366Y147136D01*
X60831Y147834D01*
X60133Y148369D01*
X59321Y148705D01*
X58450Y148820D01*
D02*
G37*
G36*
X196124Y142700D02*
X194500D01*
Y141076D01*
X194851Y141146D01*
X195572Y141628D01*
X196054Y142349D01*
X196124Y142700D01*
D02*
G37*
G36*
X80989Y141025D02*
X80117Y140910D01*
X79305Y140574D01*
X78608Y140039D01*
X78073Y139341D01*
X77736Y138529D01*
X77622Y137657D01*
X77736Y136786D01*
X78073Y135974D01*
X78608Y135276D01*
X79305Y134741D01*
X80117Y134405D01*
X80989Y134290D01*
X81861Y134405D01*
X82673Y134741D01*
X83370Y135276D01*
X83905Y135974D01*
X84242Y136786D01*
X84356Y137657D01*
X84242Y138529D01*
X83905Y139341D01*
X83370Y140039D01*
X82673Y140574D01*
X81861Y140910D01*
X80989Y141025D01*
D02*
G37*
G36*
X205324Y135900D02*
X203700D01*
Y134276D01*
X204051Y134345D01*
X204772Y134827D01*
X205255Y135549D01*
X205324Y135900D01*
D02*
G37*
G36*
X13324Y136100D02*
X11700D01*
Y134476D01*
X12051Y134546D01*
X12773Y135028D01*
X13255Y135749D01*
X13324Y136100D01*
D02*
G37*
G36*
X10700D02*
X9076D01*
X9145Y135749D01*
X9628Y135028D01*
X10349Y134546D01*
X10700Y134476D01*
Y136100D01*
D02*
G37*
G36*
X89505Y137157D02*
X86481D01*
X86537Y136728D01*
X86896Y135863D01*
X87467Y135119D01*
X88210Y134549D01*
X89076Y134190D01*
X89505Y134134D01*
Y137157D01*
D02*
G37*
G36*
X75497D02*
X72473D01*
Y134134D01*
X72903Y134190D01*
X73768Y134549D01*
X74512Y135119D01*
X75082Y135863D01*
X75441Y136728D01*
X75497Y137157D01*
D02*
G37*
G36*
X202700Y135900D02*
X201076D01*
X201146Y135549D01*
X201627Y134827D01*
X202349Y134345D01*
X202700Y134276D01*
Y135900D01*
D02*
G37*
G36*
X93529Y137157D02*
X90505D01*
Y134134D01*
X90934Y134190D01*
X91800Y134549D01*
X92543Y135119D01*
X93114Y135863D01*
X93472Y136728D01*
X93529Y137157D01*
D02*
G37*
G36*
X10700Y138724D02*
X10349Y138654D01*
X9628Y138172D01*
X9145Y137451D01*
X9076Y137100D01*
X10700D01*
Y138724D01*
D02*
G37*
G36*
X211200Y151313D02*
X209812Y151176D01*
X208478Y150772D01*
X207248Y150114D01*
X206170Y149230D01*
X205286Y148152D01*
X204628Y146922D01*
X204224Y145588D01*
X204087Y144200D01*
X204224Y142812D01*
X204628Y141478D01*
X205286Y140248D01*
X206170Y139170D01*
X207248Y138286D01*
X208478Y137628D01*
X209812Y137224D01*
X211200Y137087D01*
X212588Y137224D01*
X213922Y137628D01*
X215152Y138286D01*
X216230Y139170D01*
X217114Y140248D01*
X217772Y141478D01*
X218176Y142812D01*
X218313Y144200D01*
X218176Y145588D01*
X217772Y146922D01*
X217114Y148152D01*
X216230Y149230D01*
X215152Y150114D01*
X213922Y150772D01*
X212588Y151176D01*
X211200Y151313D01*
D02*
G37*
G36*
X53442Y141181D02*
X53013Y141125D01*
X52147Y140766D01*
X51403Y140196D01*
X50833Y139452D01*
X50474Y138586D01*
X50418Y138157D01*
X53442D01*
Y141181D01*
D02*
G37*
G36*
X11700Y138724D02*
Y137100D01*
X13324D01*
X13255Y137451D01*
X12773Y138172D01*
X12051Y138654D01*
X11700Y138724D01*
D02*
G37*
G36*
X45800Y137624D02*
Y136000D01*
X47424D01*
X47355Y136351D01*
X46872Y137073D01*
X46151Y137555D01*
X45800Y137624D01*
D02*
G37*
G36*
X44800D02*
X44449Y137555D01*
X43727Y137073D01*
X43245Y136351D01*
X43176Y136000D01*
X44800D01*
Y137624D01*
D02*
G37*
G36*
X203700Y138524D02*
Y136900D01*
X205324D01*
X205255Y137251D01*
X204772Y137972D01*
X204051Y138454D01*
X203700Y138524D01*
D02*
G37*
G36*
X202700D02*
X202349Y138454D01*
X201627Y137972D01*
X201146Y137251D01*
X201076Y136900D01*
X202700D01*
Y138524D01*
D02*
G37*
G36*
X152424Y150800D02*
X150800D01*
Y149176D01*
X151151Y149246D01*
X151873Y149727D01*
X152355Y150449D01*
X152424Y150800D01*
D02*
G37*
G36*
X149800D02*
X148176D01*
X148246Y150449D01*
X148728Y149727D01*
X149449Y149246D01*
X149800Y149176D01*
Y150800D01*
D02*
G37*
G36*
X198124Y151400D02*
X196500D01*
Y149776D01*
X196851Y149846D01*
X197573Y150328D01*
X198055Y151049D01*
X198124Y151400D01*
D02*
G37*
G36*
X195500D02*
X193876D01*
X193946Y151049D01*
X194428Y150328D01*
X195149Y149846D01*
X195500Y149776D01*
Y151400D01*
D02*
G37*
G36*
X119100Y150424D02*
Y148800D01*
X120724D01*
X120654Y149151D01*
X120173Y149873D01*
X119451Y150355D01*
X119100Y150424D01*
D02*
G37*
G36*
X118100D02*
X117749Y150355D01*
X117027Y149873D01*
X116545Y149151D01*
X116476Y148800D01*
X118100D01*
Y150424D01*
D02*
G37*
G36*
X170524Y150500D02*
X168900D01*
Y148876D01*
X169251Y148945D01*
X169973Y149427D01*
X170455Y150149D01*
X170524Y150500D01*
D02*
G37*
G36*
X167900D02*
X166276D01*
X166346Y150149D01*
X166827Y149427D01*
X167549Y148945D01*
X167900Y148876D01*
Y150500D01*
D02*
G37*
G36*
X150800Y153424D02*
Y151800D01*
X152424D01*
X152355Y152151D01*
X151873Y152873D01*
X151151Y153355D01*
X150800Y153424D01*
D02*
G37*
G36*
X149800D02*
X149449Y153355D01*
X148728Y152873D01*
X148246Y152151D01*
X148176Y151800D01*
X149800D01*
Y153424D01*
D02*
G37*
G36*
X196500Y154024D02*
Y152400D01*
X198124D01*
X198055Y152751D01*
X197573Y153472D01*
X196851Y153955D01*
X196500Y154024D01*
D02*
G37*
G36*
X195500D02*
X195149Y153955D01*
X194428Y153472D01*
X193946Y152751D01*
X193876Y152400D01*
X195500D01*
Y154024D01*
D02*
G37*
G36*
X19800Y152524D02*
Y150900D01*
X21424D01*
X21355Y151251D01*
X20873Y151972D01*
X20151Y152454D01*
X19800Y152524D01*
D02*
G37*
G36*
X18800D02*
X18449Y152454D01*
X17728Y151972D01*
X17245Y151251D01*
X17176Y150900D01*
X18800D01*
Y152524D01*
D02*
G37*
G36*
X168900Y153124D02*
Y151500D01*
X170524D01*
X170455Y151851D01*
X169973Y152573D01*
X169251Y153054D01*
X168900Y153124D01*
D02*
G37*
G36*
X167900D02*
X167549Y153054D01*
X166827Y152573D01*
X166346Y151851D01*
X166276Y151500D01*
X167900D01*
Y153124D01*
D02*
G37*
G36*
X49324Y146700D02*
X47700D01*
Y145076D01*
X48051Y145145D01*
X48772Y145627D01*
X49255Y146349D01*
X49324Y146700D01*
D02*
G37*
G36*
X46700D02*
X45076D01*
X45145Y146349D01*
X45627Y145627D01*
X46349Y145145D01*
X46700Y145076D01*
Y146700D01*
D02*
G37*
G36*
X134524Y147400D02*
X132900D01*
Y145776D01*
X133251Y145845D01*
X133973Y146327D01*
X134455Y147049D01*
X134524Y147400D01*
D02*
G37*
G36*
X131900D02*
X130276D01*
X130345Y147049D01*
X130827Y146327D01*
X131549Y145845D01*
X131900Y145776D01*
Y147400D01*
D02*
G37*
G36*
X110800Y145324D02*
Y143700D01*
X112424D01*
X112355Y144051D01*
X111872Y144773D01*
X111151Y145255D01*
X110800Y145324D01*
D02*
G37*
G36*
X109800D02*
X109449Y145255D01*
X108728Y144773D01*
X108246Y144051D01*
X108176Y143700D01*
X109800D01*
Y145324D01*
D02*
G37*
G36*
X194500D02*
Y143700D01*
X196124D01*
X196054Y144051D01*
X195572Y144773D01*
X194851Y145255D01*
X194500Y145324D01*
D02*
G37*
G36*
X193500D02*
X193149Y145255D01*
X192428Y144773D01*
X191946Y144051D01*
X191876Y143700D01*
X193500D01*
Y145324D01*
D02*
G37*
G36*
X21424Y149900D02*
X19800D01*
Y148276D01*
X20151Y148345D01*
X20873Y148828D01*
X21355Y149549D01*
X21424Y149900D01*
D02*
G37*
G36*
X18800D02*
X17176D01*
X17245Y149549D01*
X17728Y148828D01*
X18449Y148345D01*
X18800Y148276D01*
Y149900D01*
D02*
G37*
G36*
X132900Y150024D02*
Y148400D01*
X134524D01*
X134455Y148751D01*
X133973Y149472D01*
X133251Y149954D01*
X132900Y150024D01*
D02*
G37*
G36*
X131900D02*
X131549Y149954D01*
X130827Y149472D01*
X130345Y148751D01*
X130276Y148400D01*
X131900D01*
Y150024D01*
D02*
G37*
G36*
X120724Y147800D02*
X119100D01*
Y146176D01*
X119451Y146246D01*
X120173Y146728D01*
X120654Y147449D01*
X120724Y147800D01*
D02*
G37*
G36*
X118100D02*
X116476D01*
X116545Y147449D01*
X117027Y146728D01*
X117749Y146246D01*
X118100Y146176D01*
Y147800D01*
D02*
G37*
G36*
X47700Y149324D02*
Y147700D01*
X49324D01*
X49255Y148051D01*
X48772Y148773D01*
X48051Y149255D01*
X47700Y149324D01*
D02*
G37*
G36*
X46700D02*
X46349Y149255D01*
X45627Y148773D01*
X45145Y148051D01*
X45076Y147700D01*
X46700D01*
Y149324D01*
D02*
G37*
G36*
X71473Y137157D02*
X68449D01*
X68506Y136728D01*
X68865Y135863D01*
X69435Y135119D01*
X70179Y134549D01*
X71044Y134190D01*
X71473Y134134D01*
Y137157D01*
D02*
G37*
G36*
X120900Y99424D02*
Y97800D01*
X122524D01*
X122455Y98151D01*
X121973Y98873D01*
X121251Y99354D01*
X120900Y99424D01*
D02*
G37*
G36*
X119900D02*
X119549Y99354D01*
X118827Y98873D01*
X118345Y98151D01*
X118276Y97800D01*
X119900D01*
Y99424D01*
D02*
G37*
G36*
X12924Y100100D02*
X11300D01*
Y98476D01*
X11651Y98545D01*
X12372Y99028D01*
X12855Y99749D01*
X12924Y100100D01*
D02*
G37*
G36*
X10300D02*
X8676D01*
X8745Y99749D01*
X9228Y99028D01*
X9949Y98545D01*
X10300Y98476D01*
Y100100D01*
D02*
G37*
G36*
X122524Y96800D02*
X120900D01*
Y95176D01*
X121251Y95245D01*
X121973Y95727D01*
X122455Y96449D01*
X122524Y96800D01*
D02*
G37*
G36*
X119900D02*
X118276D01*
X118345Y96449D01*
X118827Y95727D01*
X119549Y95245D01*
X119900Y95176D01*
Y96800D01*
D02*
G37*
G36*
X197824Y98300D02*
X196200D01*
Y96676D01*
X196551Y96746D01*
X197273Y97228D01*
X197755Y97949D01*
X197824Y98300D01*
D02*
G37*
G36*
X195200D02*
X193576D01*
X193646Y97949D01*
X194128Y97228D01*
X194849Y96746D01*
X195200Y96676D01*
Y98300D01*
D02*
G37*
G36*
X174400Y102500D02*
X172776D01*
X172845Y102149D01*
X173328Y101427D01*
X174049Y100945D01*
X174400Y100876D01*
Y102500D01*
D02*
G37*
G36*
X196200Y100924D02*
Y99300D01*
X197824D01*
X197755Y99651D01*
X197273Y100373D01*
X196551Y100855D01*
X196200Y100924D01*
D02*
G37*
G36*
X20100Y103224D02*
X19749Y103155D01*
X19027Y102673D01*
X18545Y101951D01*
X18476Y101600D01*
X20100D01*
Y103224D01*
D02*
G37*
G36*
X177024Y102500D02*
X175400D01*
Y100876D01*
X175751Y100945D01*
X176472Y101427D01*
X176954Y102149D01*
X177024Y102500D01*
D02*
G37*
G36*
X22724Y100600D02*
X21100D01*
Y98976D01*
X21451Y99045D01*
X22173Y99528D01*
X22655Y100249D01*
X22724Y100600D01*
D02*
G37*
G36*
X20100D02*
X18476D01*
X18545Y100249D01*
X19027Y99528D01*
X19749Y99045D01*
X20100Y98976D01*
Y100600D01*
D02*
G37*
G36*
X195200Y100924D02*
X194849Y100855D01*
X194128Y100373D01*
X193646Y99651D01*
X193576Y99300D01*
X195200D01*
Y100924D01*
D02*
G37*
G36*
X207567Y104653D02*
X206850Y104559D01*
X206181Y104282D01*
X205607Y103841D01*
X205167Y103267D01*
X204890Y102599D01*
X204795Y101881D01*
X204890Y101164D01*
X205167Y100495D01*
X205607Y99921D01*
X206181Y99481D01*
X206850Y99204D01*
X207567Y99110D01*
X208284Y99204D01*
X208953Y99481D01*
X209527Y99921D01*
X209967Y100495D01*
X210244Y101164D01*
X210339Y101881D01*
X210244Y102599D01*
X209967Y103267D01*
X209527Y103841D01*
X208953Y104282D01*
X208284Y104559D01*
X207567Y104653D01*
D02*
G37*
G36*
X180000Y81124D02*
X179649Y81055D01*
X178928Y80572D01*
X178445Y79851D01*
X178376Y79500D01*
X180000D01*
Y81124D01*
D02*
G37*
G36*
X130100Y79224D02*
Y77600D01*
X131724D01*
X131655Y77951D01*
X131173Y78672D01*
X130451Y79154D01*
X130100Y79224D01*
D02*
G37*
G36*
X15000Y92300D02*
X13376D01*
X13445Y91949D01*
X13927Y91228D01*
X14649Y90746D01*
X15000Y90676D01*
Y92300D01*
D02*
G37*
G36*
X181000Y81124D02*
Y79500D01*
X182624D01*
X182554Y79851D01*
X182072Y80572D01*
X181351Y81055D01*
X181000Y81124D01*
D02*
G37*
G36*
X180000Y78500D02*
X178376D01*
X178445Y78149D01*
X178928Y77428D01*
X179649Y76946D01*
X180000Y76876D01*
Y78500D01*
D02*
G37*
G36*
X131724Y76600D02*
X130100D01*
Y74976D01*
X130451Y75046D01*
X131173Y75528D01*
X131655Y76249D01*
X131724Y76600D01*
D02*
G37*
G36*
X129100Y79224D02*
X128749Y79154D01*
X128027Y78672D01*
X127545Y77951D01*
X127476Y77600D01*
X129100D01*
Y79224D01*
D02*
G37*
G36*
X182624Y78500D02*
X181000D01*
Y76876D01*
X181351Y76946D01*
X182072Y77428D01*
X182554Y78149D01*
X182624Y78500D01*
D02*
G37*
G36*
X219969Y99939D02*
X216032D01*
X215343Y99803D01*
X214760Y99413D01*
X214370Y98829D01*
X214233Y98141D01*
Y96173D01*
X214370Y95484D01*
X214760Y94901D01*
X215343Y94511D01*
X216032Y94374D01*
X219969D01*
X220657Y94511D01*
X221240Y94901D01*
X221630Y95484D01*
X221767Y96173D01*
Y98141D01*
X221630Y98829D01*
X221240Y99413D01*
X220657Y99803D01*
X219969Y99939D01*
D02*
G37*
G36*
X16000Y94924D02*
Y93300D01*
X17624D01*
X17555Y93651D01*
X17073Y94372D01*
X16351Y94854D01*
X16000Y94924D01*
D02*
G37*
G36*
X187200Y96724D02*
Y95100D01*
X188824D01*
X188754Y95451D01*
X188273Y96172D01*
X187551Y96654D01*
X187200Y96724D01*
D02*
G37*
G36*
X186200D02*
X185849Y96654D01*
X185127Y96172D01*
X184645Y95451D01*
X184576Y95100D01*
X186200D01*
Y96724D01*
D02*
G37*
G36*
Y94100D02*
X184576D01*
X184645Y93749D01*
X185127Y93028D01*
X185849Y92545D01*
X186200Y92476D01*
Y94100D01*
D02*
G37*
G36*
X17624Y92300D02*
X16000D01*
Y90676D01*
X16351Y90746D01*
X17073Y91228D01*
X17555Y91949D01*
X17624Y92300D01*
D02*
G37*
G36*
X15000Y94924D02*
X14649Y94854D01*
X13927Y94372D01*
X13445Y93651D01*
X13376Y93300D01*
X15000D01*
Y94924D01*
D02*
G37*
G36*
X188824Y94100D02*
X187200D01*
Y92476D01*
X187551Y92545D01*
X188273Y93028D01*
X188754Y93749D01*
X188824Y94100D01*
D02*
G37*
G36*
X111524Y132400D02*
X109900D01*
Y130776D01*
X110251Y130845D01*
X110972Y131327D01*
X111454Y132049D01*
X111524Y132400D01*
D02*
G37*
G36*
X108900D02*
X107276D01*
X107345Y132049D01*
X107827Y131327D01*
X108549Y130845D01*
X108900Y130776D01*
Y132400D01*
D02*
G37*
G36*
X129021Y142415D02*
X120359D01*
X119128Y142253D01*
X117981Y141777D01*
X116995Y141021D01*
X116239Y140036D01*
X115764Y138889D01*
X115602Y137657D01*
X115764Y136426D01*
X116239Y135279D01*
X116995Y134293D01*
X117981Y133537D01*
X119128Y133062D01*
X120359Y132900D01*
X129021D01*
X130252Y133062D01*
X131399Y133537D01*
X132384Y134293D01*
X133140Y135279D01*
X133616Y136426D01*
X133778Y137657D01*
X133616Y138889D01*
X133140Y140036D01*
X132384Y141021D01*
X131399Y141777D01*
X130252Y142253D01*
X129021Y142415D01*
D02*
G37*
G36*
X30635D02*
X21973D01*
X20742Y142253D01*
X19595Y141777D01*
X18609Y141021D01*
X17853Y140036D01*
X17378Y138889D01*
X17216Y137657D01*
X17378Y136426D01*
X17853Y135279D01*
X18609Y134293D01*
X19595Y133537D01*
X20742Y133062D01*
X21973Y132900D01*
X30635D01*
X31866Y133062D01*
X33013Y133537D01*
X33999Y134293D01*
X34755Y135279D01*
X35230Y136426D01*
X35392Y137657D01*
X35230Y138889D01*
X34755Y140036D01*
X33999Y141021D01*
X33013Y141777D01*
X31866Y142253D01*
X30635Y142415D01*
D02*
G37*
G36*
X200800Y131924D02*
Y130300D01*
X202424D01*
X202355Y130651D01*
X201872Y131372D01*
X201151Y131854D01*
X200800Y131924D01*
D02*
G37*
G36*
X199800D02*
X199449Y131854D01*
X198728Y131372D01*
X198246Y130651D01*
X198176Y130300D01*
X199800D01*
Y131924D01*
D02*
G37*
G36*
X95013Y133386D02*
Y130362D01*
X98036D01*
X97980Y130791D01*
X97621Y131657D01*
X97051Y132401D01*
X96307Y132971D01*
X95442Y133330D01*
X95013Y133386D01*
D02*
G37*
G36*
X94013D02*
X93584Y133330D01*
X92718Y132971D01*
X91974Y132401D01*
X91404Y131657D01*
X91045Y130791D01*
X90989Y130362D01*
X94013D01*
Y133386D01*
D02*
G37*
G36*
X57466Y137157D02*
X54442D01*
Y134134D01*
X54871Y134190D01*
X55737Y134549D01*
X56480Y135119D01*
X57051Y135863D01*
X57409Y136728D01*
X57466Y137157D01*
D02*
G37*
G36*
X53442D02*
X50418D01*
X50474Y136728D01*
X50833Y135863D01*
X51403Y135119D01*
X52147Y134549D01*
X53013Y134190D01*
X53442Y134134D01*
Y137157D01*
D02*
G37*
G36*
X66482D02*
X63458D01*
Y134134D01*
X63887Y134190D01*
X64753Y134549D01*
X65496Y135119D01*
X66066Y135863D01*
X66425Y136728D01*
X66482Y137157D01*
D02*
G37*
G36*
X62458D02*
X59434D01*
X59490Y136728D01*
X59849Y135863D01*
X60419Y135119D01*
X61163Y134549D01*
X62028Y134190D01*
X62458Y134134D01*
Y137157D01*
D02*
G37*
G36*
X47424Y135000D02*
X45800D01*
Y133376D01*
X46151Y133446D01*
X46872Y133928D01*
X47355Y134649D01*
X47424Y135000D01*
D02*
G37*
G36*
X44800D02*
X43176D01*
X43245Y134649D01*
X43727Y133928D01*
X44449Y133446D01*
X44800Y133376D01*
Y135000D01*
D02*
G37*
G36*
X109900Y135024D02*
Y133400D01*
X111524D01*
X111454Y133751D01*
X110972Y134473D01*
X110251Y134955D01*
X109900Y135024D01*
D02*
G37*
G36*
X108900D02*
X108549Y134955D01*
X107827Y134473D01*
X107345Y133751D01*
X107276Y133400D01*
X108900D01*
Y135024D01*
D02*
G37*
G36*
X199800Y121600D02*
X198176D01*
X198246Y121249D01*
X198728Y120528D01*
X199449Y120045D01*
X199800Y119976D01*
Y121600D01*
D02*
G37*
G36*
X207567Y123747D02*
X206850Y123653D01*
X206181Y123376D01*
X205607Y122935D01*
X205167Y122362D01*
X204890Y121693D01*
X204795Y120976D01*
X204890Y120258D01*
X205167Y119590D01*
X205607Y119016D01*
X206181Y118575D01*
X206850Y118298D01*
X207567Y118204D01*
X208284Y118298D01*
X208953Y118575D01*
X209527Y119016D01*
X209967Y119590D01*
X210244Y120258D01*
X210339Y120976D01*
X210244Y121693D01*
X209967Y122362D01*
X209527Y122935D01*
X208953Y123376D01*
X208284Y123653D01*
X207567Y123747D01*
D02*
G37*
G36*
X199800Y124224D02*
X199449Y124154D01*
X198728Y123672D01*
X198246Y122951D01*
X198176Y122600D01*
X199800D01*
Y124224D01*
D02*
G37*
G36*
X202424Y121600D02*
X200800D01*
Y119976D01*
X201151Y120045D01*
X201872Y120528D01*
X202355Y121249D01*
X202424Y121600D01*
D02*
G37*
G36*
X174400Y105124D02*
X174049Y105054D01*
X173328Y104572D01*
X172845Y103851D01*
X172776Y103500D01*
X174400D01*
Y105124D01*
D02*
G37*
G36*
X21100Y103224D02*
Y101600D01*
X22724D01*
X22655Y101951D01*
X22173Y102673D01*
X21451Y103155D01*
X21100Y103224D01*
D02*
G37*
G36*
X174900Y116699D02*
X174135Y116547D01*
X173486Y116113D01*
X173053Y115465D01*
X172901Y114700D01*
X173053Y113935D01*
X173486Y113286D01*
X174135Y112853D01*
X174900Y112701D01*
X175665Y112853D01*
X176313Y113286D01*
X176454Y113497D01*
X180102D01*
X186850Y106750D01*
X187240Y106489D01*
X187700Y106397D01*
X192146D01*
X192287Y106186D01*
X192935Y105753D01*
X193700Y105601D01*
X194465Y105753D01*
X195114Y106186D01*
X195547Y106835D01*
X195699Y107600D01*
X195547Y108365D01*
X195114Y109013D01*
X194465Y109447D01*
X193700Y109599D01*
X192935Y109447D01*
X192287Y109013D01*
X192146Y108803D01*
X188198D01*
X181450Y115550D01*
X181060Y115811D01*
X180600Y115903D01*
X176454D01*
X176313Y116113D01*
X175665Y116547D01*
X174900Y116699D01*
D02*
G37*
G36*
X175400Y105124D02*
Y103500D01*
X177024D01*
X176954Y103851D01*
X176472Y104572D01*
X175751Y105054D01*
X175400Y105124D01*
D02*
G37*
G36*
X7800Y127324D02*
Y125700D01*
X9424D01*
X9355Y126051D01*
X8873Y126772D01*
X8151Y127254D01*
X7800Y127324D01*
D02*
G37*
G36*
X6800D02*
X6449Y127254D01*
X5728Y126772D01*
X5246Y126051D01*
X5176Y125700D01*
X6800D01*
Y127324D01*
D02*
G37*
G36*
X202424Y129300D02*
X200800D01*
Y127676D01*
X201151Y127745D01*
X201872Y128227D01*
X202355Y128949D01*
X202424Y129300D01*
D02*
G37*
G36*
X199800D02*
X198176D01*
X198246Y128949D01*
X198728Y128227D01*
X199449Y127745D01*
X199800Y127676D01*
Y129300D01*
D02*
G37*
G36*
X6800Y124700D02*
X5176D01*
X5246Y124349D01*
X5728Y123627D01*
X6449Y123145D01*
X6800Y123076D01*
Y124700D01*
D02*
G37*
G36*
X200800Y124224D02*
Y122600D01*
X202424D01*
X202355Y122951D01*
X201872Y123672D01*
X201151Y124154D01*
X200800Y124224D01*
D02*
G37*
G36*
X220168Y128683D02*
X216231D01*
X215543Y128546D01*
X214960Y128156D01*
X214570Y127572D01*
X214433Y126884D01*
Y124916D01*
X214570Y124228D01*
X214960Y123644D01*
X215543Y123254D01*
X216231Y123117D01*
X220168D01*
X220857Y123254D01*
X221440Y123644D01*
X221830Y124228D01*
X221967Y124916D01*
Y126884D01*
X221830Y127572D01*
X221440Y128156D01*
X220857Y128546D01*
X220168Y128683D01*
D02*
G37*
G36*
X9424Y124700D02*
X7800D01*
Y123076D01*
X8151Y123145D01*
X8873Y123627D01*
X9355Y124349D01*
X9424Y124700D01*
D02*
G37*
%LPD*%
D13*
X113800Y71050D02*
D03*
Y65050D02*
D03*
X110700Y84900D02*
D03*
Y90900D02*
D03*
X68900Y71050D02*
D03*
Y65050D02*
D03*
X88900Y71050D02*
D03*
Y65050D02*
D03*
X65400Y85200D02*
D03*
Y91200D02*
D03*
X48900Y71050D02*
D03*
Y65050D02*
D03*
X58900Y71050D02*
D03*
Y65050D02*
D03*
X78900Y71050D02*
D03*
Y65050D02*
D03*
X117700Y84900D02*
D03*
Y90900D02*
D03*
X58300Y85255D02*
D03*
Y91255D02*
D03*
X89200Y84900D02*
D03*
Y90900D02*
D03*
X36800D02*
D03*
Y84900D02*
D03*
D18*
X-6900Y32300D02*
D03*
Y35450D02*
D03*
Y38599D02*
D03*
Y41749D02*
D03*
Y44898D02*
D03*
Y48048D02*
D03*
Y51198D02*
D03*
Y54347D02*
D03*
Y57497D02*
D03*
Y60646D02*
D03*
Y63796D02*
D03*
Y66946D02*
D03*
Y70095D02*
D03*
Y73245D02*
D03*
Y76394D02*
D03*
Y79544D02*
D03*
Y82694D02*
D03*
Y85843D02*
D03*
Y101591D02*
D03*
Y104741D02*
D03*
Y107891D02*
D03*
Y111040D02*
D03*
Y114190D02*
D03*
Y117339D02*
D03*
Y120489D02*
D03*
X-6901Y123639D02*
D03*
D21*
X37000Y84000D02*
X41850D01*
X42600Y83250D01*
X48800Y97000D02*
Y98200D01*
Y97000D02*
X50600Y95200D01*
Y86950D02*
Y95200D01*
X96200Y87050D02*
Y90800D01*
X88800Y98200D02*
X96200Y90800D01*
X98800Y98200D02*
X109700D01*
X117900Y90000D01*
X104200Y90750D02*
X104950Y90000D01*
X117900Y84000D02*
X124200D01*
X126200Y86000D01*
Y99800D01*
X-6900Y76394D02*
X13794D01*
X110900Y84000D02*
X115300Y79600D01*
X123600D01*
X127800Y83800D01*
Y100463D01*
X35700Y91300D02*
X37000Y90000D01*
X68800Y98200D02*
X69400Y97600D01*
X75100Y87950D02*
Y94500D01*
X75300Y87050D02*
Y87950D01*
X75100Y94500D02*
X78800Y98200D01*
X104750Y90900D02*
X110700D01*
X104000Y91650D02*
X104750Y90900D01*
X-6900Y66946D02*
X13846D01*
X-6900Y70095D02*
X13895D01*
X-6900Y73245D02*
X13845D01*
X31900Y91300D01*
X35700D01*
X-6900Y79544D02*
X13844D01*
X-6900Y63796D02*
X13796D01*
X-6900Y60646D02*
X13946D01*
X-6900Y57497D02*
X13897D01*
X67450Y71050D02*
X68900D01*
X63800Y67400D02*
X67450Y71050D01*
X63800Y55500D02*
Y67400D01*
X-6900Y54347D02*
X62647D01*
X63800Y55500D01*
X70698Y51198D02*
X73900Y54400D01*
X-6900Y51198D02*
X70698D01*
X73900Y54400D02*
Y67500D01*
X77450Y71050D01*
X78900D01*
X87550D02*
X88900D01*
X84000Y67500D02*
X87550Y71050D01*
X84000Y54300D02*
Y67500D01*
X77748Y48048D02*
X84000Y54300D01*
X-6900Y48048D02*
X77748D01*
X109675Y52275D02*
Y60925D01*
X102298Y44898D02*
X109675Y52275D01*
X-6900Y44898D02*
X102298D01*
X109675Y60925D02*
X113800Y65050D01*
X48800Y58200D02*
Y64950D01*
X48900Y65050D01*
X58800Y58200D02*
Y64950D01*
X58900Y65050D01*
X68800Y58200D02*
Y64950D01*
X68900Y65050D01*
X78800Y58200D02*
Y64950D01*
X78900Y65050D01*
X88800Y58200D02*
Y64950D01*
X88900Y65050D01*
X98800Y58200D02*
Y68100D01*
X106800Y71800D02*
X113050D01*
X113800Y71050D01*
X103100Y81100D02*
X104000Y82000D01*
X103100Y68000D02*
Y81100D01*
Y68000D02*
X106800Y64300D01*
X174900Y114700D02*
X180600D01*
X187700Y107600D01*
X193700D01*
X48929Y40000D02*
X64329Y24600D01*
X38929Y40000D02*
X55929Y23000D01*
X93400Y39600D02*
Y40000D01*
X154563Y23000D02*
X160769Y29206D01*
X153900Y24600D02*
X159169Y29869D01*
X150844Y17019D02*
X162369Y28543D01*
Y111357D01*
X151919Y15419D02*
X163969Y27469D01*
Y112020D01*
X165569Y26806D02*
Y112682D01*
X103400Y19100D02*
X108681Y13819D01*
X113400Y19100D02*
X117081Y15419D01*
X151919D01*
X108681Y13819D02*
X152582D01*
X165569Y26806D01*
X123400Y19100D02*
X125481Y17019D01*
X150844D01*
X64329Y24600D02*
X153900D01*
X55929Y23000D02*
X154563D01*
X93500Y19100D02*
X100700Y11900D01*
X152926D01*
X167169Y26143D01*
X28300Y123300D02*
Y123800D01*
Y123300D02*
X28900Y123900D01*
X154588Y121400D02*
X163969Y112020D01*
X23700Y121400D02*
X154588D01*
X18800Y118900D02*
X154825D01*
X162369Y111357D01*
X28900Y123900D02*
X154351D01*
X165569Y112682D01*
X33500Y126600D02*
X34400Y125700D01*
X167169Y26143D02*
Y113345D01*
X34400Y125700D02*
X154814D01*
X167169Y113345D01*
X160769Y29206D02*
Y110694D01*
X-6900Y114190D02*
X155010D01*
X159169Y110031D01*
Y29869D02*
Y110031D01*
X15039Y116400D02*
X155063D01*
X160769Y110694D01*
X-6900Y41749D02*
X5251D01*
X9100Y37900D01*
Y26700D02*
Y37900D01*
X-6900Y38599D02*
X3601D01*
X6400Y35800D01*
Y23500D02*
Y35800D01*
Y23500D02*
X9100Y20800D01*
X-6900Y104741D02*
X10759D01*
X10900Y104882D01*
Y105300D01*
X13794Y76394D02*
X39300Y101900D01*
X13844Y79544D02*
X37800Y103500D01*
X134000Y98300D02*
Y98500D01*
X106800Y64300D02*
X110500Y68000D01*
X120000D01*
X143400Y44600D01*
Y40000D02*
Y44600D01*
X13897Y57497D02*
X27450Y71050D01*
X48900D01*
X13946Y60646D02*
X27700Y74400D01*
X55550D01*
X58900Y71050D01*
X13796Y63796D02*
X26000Y76000D01*
X13846Y66946D02*
X24500Y77600D01*
X13895Y70095D02*
X23000Y79200D01*
X144400Y111200D02*
X152900D01*
X-6740D02*
X144400D01*
X152900D02*
X153300Y110800D01*
X-6900Y111040D02*
X-6740Y111200D01*
X39300Y101900D02*
X124100D01*
X126200Y99800D01*
X37800Y103500D02*
X124763D01*
X127800Y100463D01*
X10900Y105300D02*
X127200D01*
X134000Y98500D01*
X149009Y107891D02*
X149100Y107800D01*
X-6900Y107891D02*
X149009D01*
X58800Y96900D02*
Y98200D01*
X57400Y84900D02*
Y85100D01*
X51700Y79200D02*
X57400Y84900D01*
X23000Y79200D02*
X51700D01*
X57400Y91100D02*
X58200Y91900D01*
Y96300D01*
X58800Y96900D01*
X42400Y91650D02*
X46000Y88050D01*
Y84700D02*
Y88050D01*
Y84700D02*
X47500Y83200D01*
X51947D01*
X54600Y85853D01*
Y86900D01*
X55905Y88205D01*
X68600Y98200D02*
X68800D01*
X65400Y95000D02*
X68600Y98200D01*
X65400Y91200D02*
Y95000D01*
X24500Y77600D02*
X57800D01*
X65400Y85200D01*
X55905Y88205D02*
X67995D01*
X89200Y82500D02*
Y84900D01*
X82700Y76000D02*
X89200Y82500D01*
X26000Y76000D02*
X82700D01*
X82000Y91700D02*
X88400D01*
X89200Y90900D01*
X88850Y90550D02*
X89400Y90000D01*
X67995Y87808D02*
Y88205D01*
Y87808D02*
X71803Y84000D01*
X81800D01*
X82000Y84200D01*
X92900Y85200D02*
X94400Y83700D01*
X92900Y85200D02*
Y86700D01*
X91700Y87900D02*
X92900Y86700D01*
X85700Y87900D02*
X91700D01*
X82000Y84200D02*
X85700Y87900D01*
X94400Y83700D02*
X104000D01*
X104900D01*
X104000Y82000D02*
Y83700D01*
X-6901Y123639D02*
X5739D01*
X7300Y125200D01*
X-6900Y117339D02*
X14100D01*
X15039Y116400D01*
X9789Y120489D02*
X10900Y121600D01*
X-6900Y120489D02*
X9789D01*
X-6900Y101591D02*
X9809D01*
X10800Y100600D01*
X-6900Y85843D02*
X9043D01*
X10800Y87600D01*
Y100600D01*
X-6900Y32300D02*
X1300D01*
X2700Y33700D01*
D22*
X211200Y13400D02*
D03*
Y144200D02*
D03*
D23*
X218200Y125900D02*
D03*
X218000Y97157D02*
D03*
D24*
X48800Y58200D02*
D03*
D25*
X58800D02*
D03*
X68800D02*
D03*
X78800D02*
D03*
X88800D02*
D03*
X98800D02*
D03*
Y98200D02*
D03*
X88800D02*
D03*
X78800D02*
D03*
X68800D02*
D03*
X58800D02*
D03*
X48800D02*
D03*
D26*
X183643Y19886D02*
D03*
D27*
X173064Y30464D02*
D03*
D28*
X58929Y40000D02*
D03*
X48929D02*
D03*
X38929D02*
D03*
X28929D02*
D03*
X68929D02*
D03*
X133400D02*
D03*
X123400D02*
D03*
X113400D02*
D03*
X103400D02*
D03*
X143400D02*
D03*
D29*
X18929D02*
D03*
X93400D02*
D03*
D30*
X124690Y137657D02*
D03*
X26304D02*
D03*
D31*
X94513Y145453D02*
D03*
X85497D02*
D03*
X76481D02*
D03*
X67465D02*
D03*
X58450D02*
D03*
X90005Y137657D02*
D03*
X80989D02*
D03*
X71973D02*
D03*
X62958D02*
D03*
X53942D02*
D03*
X94513Y129862D02*
D03*
X85497D02*
D03*
X76481D02*
D03*
X67465D02*
D03*
X58450D02*
D03*
D32*
X207567Y120976D02*
D03*
Y101881D02*
D03*
D33*
X174900Y114700D02*
D03*
X193700Y107600D02*
D03*
X123400Y19100D02*
D03*
X103400D02*
D03*
X113400D02*
D03*
X93500D02*
D03*
X28300Y123800D02*
D03*
X23700Y121400D02*
D03*
X18800Y118900D02*
D03*
X33500Y126600D02*
D03*
X9100Y26700D02*
D03*
Y20800D02*
D03*
X10900Y105300D02*
D03*
X134000Y98500D02*
D03*
X153300Y110800D02*
D03*
X144400Y111200D02*
D03*
X149100Y107800D02*
D03*
X7300Y125200D02*
D03*
X10900Y121600D02*
D03*
X10800Y100600D02*
D03*
X2700Y33700D02*
D03*
X200300Y129800D02*
D03*
Y122100D02*
D03*
X174900Y103000D02*
D03*
X186700Y94600D02*
D03*
X180500Y79000D02*
D03*
X186000Y66100D02*
D03*
X200400Y68500D02*
D03*
X213200Y51200D02*
D03*
X196600Y48900D02*
D03*
X173100Y46600D02*
D03*
X177900Y38200D02*
D03*
X188300Y25700D02*
D03*
X201700Y28000D02*
D03*
X217800Y25100D02*
D03*
X199100Y8500D02*
D03*
X142100Y30600D02*
D03*
X127700Y54300D02*
D03*
X103200Y53000D02*
D03*
X130500Y66800D02*
D03*
X129600Y77100D02*
D03*
X120400Y97300D02*
D03*
X109400Y132900D02*
D03*
X118600Y148300D02*
D03*
X150300Y151300D02*
D03*
X196000Y151900D02*
D03*
X47200Y147200D02*
D03*
X45300Y135500D02*
D03*
X11200Y136600D02*
D03*
X19300Y150400D02*
D03*
X20600Y101100D02*
D03*
X115100Y55500D02*
D03*
X36500Y26100D02*
D03*
X54200Y18800D02*
D03*
X7100Y7800D02*
D03*
X20900Y3000D02*
D03*
X76200Y17300D02*
D03*
X69500Y28800D02*
D03*
X110300Y143200D02*
D03*
X132400Y147900D02*
D03*
X168400Y151000D02*
D03*
X194000Y143200D02*
D03*
X203200Y136400D02*
D03*
X195700Y98800D02*
D03*
X192000Y69100D02*
D03*
X123500Y72700D02*
D03*
X121400Y57500D02*
D03*
X190200Y53300D02*
D03*
X131700Y29800D02*
D03*
X65200Y15300D02*
D03*
X40200Y18900D02*
D03*
X15500Y92800D02*
D03*
X23400Y31500D02*
D03*
D34*
X106800Y64300D02*
D03*
Y71800D02*
D03*
X104900Y83700D02*
D03*
Y91200D02*
D03*
X82000Y84200D02*
D03*
Y91700D02*
D03*
X42400Y91650D02*
D03*
Y84150D02*
D03*
D35*
X98800Y68100D02*
D03*
X96900Y87500D02*
D03*
X74000Y88000D02*
D03*
X50400Y87850D02*
D03*
M02*
