G04 Layer_Color=128*
%FSLAX25Y25*%
%MOIN*%
G70*
G01*
G75*
%ADD13R,0.03500X0.03500*%
%ADD18R,0.10039X0.02362*%
%ADD34R,0.04000X0.04000*%
%ADD35R,0.05000X0.04000*%
D13*
X113800Y71050D02*
D03*
Y65050D02*
D03*
X110700Y84900D02*
D03*
Y90900D02*
D03*
X68900Y71050D02*
D03*
Y65050D02*
D03*
X88900Y71050D02*
D03*
Y65050D02*
D03*
X65400Y85200D02*
D03*
Y91200D02*
D03*
X48900Y71050D02*
D03*
Y65050D02*
D03*
X58900Y71050D02*
D03*
Y65050D02*
D03*
X78900Y71050D02*
D03*
Y65050D02*
D03*
X117700Y84900D02*
D03*
Y90900D02*
D03*
X58300Y85255D02*
D03*
Y91255D02*
D03*
X89200Y84900D02*
D03*
Y90900D02*
D03*
X36800D02*
D03*
Y84900D02*
D03*
D18*
X-6900Y32300D02*
D03*
Y35450D02*
D03*
Y38599D02*
D03*
Y41749D02*
D03*
Y44898D02*
D03*
Y48048D02*
D03*
Y51198D02*
D03*
Y54347D02*
D03*
Y57497D02*
D03*
Y60646D02*
D03*
Y63796D02*
D03*
Y66946D02*
D03*
Y70095D02*
D03*
Y73245D02*
D03*
Y76394D02*
D03*
Y79544D02*
D03*
Y82694D02*
D03*
Y85843D02*
D03*
Y101591D02*
D03*
Y104741D02*
D03*
Y107891D02*
D03*
Y111040D02*
D03*
Y114190D02*
D03*
Y117339D02*
D03*
Y120489D02*
D03*
X-6901Y123639D02*
D03*
D34*
X106800Y64300D02*
D03*
Y71800D02*
D03*
X104900Y83700D02*
D03*
Y91200D02*
D03*
X82000Y84200D02*
D03*
Y91700D02*
D03*
X42400Y91650D02*
D03*
Y84150D02*
D03*
D35*
X98800Y68100D02*
D03*
X96900Y87500D02*
D03*
X74000Y88000D02*
D03*
X50400Y87850D02*
D03*
M02*
