M48
;Layer_Color=9474304
;FILE_FORMAT=2:5
INCH,LZ
;TYPE=PLATED
T1F00S00C0.01181
T2F00S00C0.02677
T3F00S00C0.02717
T4F00S00C0.02756
T6F00S00C0.03150
T7F00S00C0.03543
T8F00S00C0.04331
T10F00S00C0.11811
%
T01
X01991Y00085
X02017Y0028
X01883Y00257
X01902Y00533
X01966Y00489
X02132Y00512
X02004Y00685
X0192Y00691
X0186Y00661
X02178Y00251
X01779Y00382
X01731Y00466
X01421Y00306
X01317Y00298
X01234Y00191
X01134
X01034
X00935
X00762Y00173
X00652Y00153
X00542Y00188
X00402Y00189
X00365Y00261
X00234Y00315
X00695Y00288
X01032Y0053
X01151Y00555
X01214Y00575
X01277Y00543
X01305Y00668
X01235Y00727
X00027Y00337
X00091Y00267
Y00208
X00071Y00078
X00209Y0003
X00155Y00928
X00108Y01006
X00109Y01053
X00206Y01011
X00188Y01189
X00109Y01216
X00073Y01252
X00112Y01366
X00193Y01504
X00472Y01472
X00453Y01355
X00335Y01266
X00283Y01238
X00237Y01214
X01094Y01329
X01103Y01432
X01186Y01483
X01324Y01479
X01503Y01513
X01684Y0151
X01749Y01147
Y0103
X01533Y01108
X01491Y01078
X01444Y01112
X0134Y00985
X01204Y00973
X01296Y00771
X01805Y0079
X01867Y00946
X01957Y00988
X01937Y01076
X02003Y01221
Y01298
X02032Y01364
X0194Y01432
X0196Y01519
T02
X00588Y00582
X00688
X00788
X00888
X00988
Y00982
X00888
X00788
X00688
X00588
X00488
T03
X00488Y00582
T04
X0207567Y0101881
Y0120976
T06
X0173064Y0030464
T07
X0028929Y004
X0038929
X0048929
X0058929
X0068929
X00934
X01034
X01134
X01234
X01334
X01434
X0018929
T08
X0183643Y0019886
X0094513Y0129862
X0085497
X0076481
X0067465
X005845
X0053942Y0137657
X0062958
X0071973
X0080989
X0090005
X0094513Y0145453
X0085497
X0076481
X0067465
X005845
T10
X02112Y00134
Y01442
M30
