G04 Layer_Color=255*
%FSLAX25Y25*%
%MOIN*%
G70*
G01*
G75*
%ADD13R,0.03500X0.03500*%
%ADD18R,0.10039X0.02362*%
%ADD22C,0.12598*%
G04:AMPARAMS|DCode=23|XSize=59.06mil|YSize=39.37mil|CornerRadius=9.84mil|HoleSize=0mil|Usage=FLASHONLY|Rotation=0.000|XOffset=0mil|YOffset=0mil|HoleType=Round|Shape=RoundedRectangle|*
%AMROUNDEDRECTD23*
21,1,0.05906,0.01969,0,0,0.0*
21,1,0.03937,0.03937,0,0,0.0*
1,1,0.01969,0.01969,-0.00984*
1,1,0.01969,-0.01969,-0.00984*
1,1,0.01969,-0.01969,0.00984*
1,1,0.01969,0.01969,0.00984*
%
%ADD23ROUNDEDRECTD23*%
%ADD24R,0.04724X0.04724*%
%ADD25C,0.04724*%
%ADD26C,0.04331*%
%ADD27C,0.03150*%
%ADD28C,0.05906*%
%ADD29R,0.05906X0.05906*%
%ADD30O,0.16535X0.07874*%
%ADD31C,0.05118*%
%ADD34R,0.04000X0.04000*%
%ADD35R,0.05000X0.04000*%
D13*
X113800Y71050D02*
D03*
Y65050D02*
D03*
X110700Y84900D02*
D03*
Y90900D02*
D03*
X68900Y71050D02*
D03*
Y65050D02*
D03*
X88900Y71050D02*
D03*
Y65050D02*
D03*
X65400Y85200D02*
D03*
Y91200D02*
D03*
X48900Y71050D02*
D03*
Y65050D02*
D03*
X58900Y71050D02*
D03*
Y65050D02*
D03*
X78900Y71050D02*
D03*
Y65050D02*
D03*
X117700Y84900D02*
D03*
Y90900D02*
D03*
X58300Y85255D02*
D03*
Y91255D02*
D03*
X89200Y84900D02*
D03*
Y90900D02*
D03*
X36800D02*
D03*
Y84900D02*
D03*
D18*
X-6900Y32300D02*
D03*
Y35450D02*
D03*
Y38599D02*
D03*
Y41749D02*
D03*
Y44898D02*
D03*
Y48048D02*
D03*
Y51198D02*
D03*
Y54347D02*
D03*
Y57497D02*
D03*
Y60646D02*
D03*
Y63796D02*
D03*
Y66946D02*
D03*
Y70095D02*
D03*
Y73245D02*
D03*
Y76394D02*
D03*
Y79544D02*
D03*
Y82694D02*
D03*
Y85843D02*
D03*
Y101591D02*
D03*
Y104741D02*
D03*
Y107891D02*
D03*
Y111040D02*
D03*
Y114190D02*
D03*
Y117339D02*
D03*
Y120489D02*
D03*
X-6901Y123639D02*
D03*
D22*
X211200Y13400D02*
D03*
Y144200D02*
D03*
D23*
X218200Y125900D02*
D03*
X218000Y97157D02*
D03*
D24*
X48800Y58200D02*
D03*
D25*
X58800D02*
D03*
X68800D02*
D03*
X78800D02*
D03*
X88800D02*
D03*
X98800D02*
D03*
Y98200D02*
D03*
X88800D02*
D03*
X78800D02*
D03*
X68800D02*
D03*
X58800D02*
D03*
X48800D02*
D03*
D26*
X183643Y19886D02*
D03*
D27*
X173064Y30464D02*
D03*
D28*
X58929Y40000D02*
D03*
X48929D02*
D03*
X38929D02*
D03*
X28929D02*
D03*
X68929D02*
D03*
X133400D02*
D03*
X123400D02*
D03*
X113400D02*
D03*
X103400D02*
D03*
X143400D02*
D03*
D29*
X18929D02*
D03*
X93400D02*
D03*
D30*
X124690Y137657D02*
D03*
X26304D02*
D03*
D31*
X94513Y145453D02*
D03*
X85497D02*
D03*
X76481D02*
D03*
X67465D02*
D03*
X58450D02*
D03*
X90005Y137657D02*
D03*
X80989D02*
D03*
X71973D02*
D03*
X62958D02*
D03*
X53942D02*
D03*
X94513Y129862D02*
D03*
X85497D02*
D03*
X76481D02*
D03*
X67465D02*
D03*
X58450D02*
D03*
D34*
X106800Y64300D02*
D03*
Y71800D02*
D03*
X104900Y83700D02*
D03*
Y91200D02*
D03*
X82000Y84200D02*
D03*
Y91700D02*
D03*
X42400Y91650D02*
D03*
Y84150D02*
D03*
D35*
X98800Y68100D02*
D03*
X96900Y87500D02*
D03*
X74000Y88000D02*
D03*
X50400Y87850D02*
D03*
M02*
